<?xml version="1.0" encoding="utf-8" standalone="no"?>
<!DOCTYPE svg PUBLIC "-//W3C//DTD SVG 1.1//EN"
  "http://www.w3.org/Graphics/SVG/1.1/DTD/svg11.dtd">
<svg xmlns:xlink="http://www.w3.org/1999/xlink" width="427.674531pt" height="125.1365pt" viewBox="0 0 427.674531 125.1365" xmlns="http://www.w3.org/2000/svg" version="1.1">
 <metadata>
  <rdf:RDF xmlns:dc="http://purl.org/dc/elements/1.1/" xmlns:cc="http://creativecommons.org/ns#" xmlns:rdf="http://www.w3.org/1999/02/22-rdf-syntax-ns#">
   <cc:Work>
    <dc:type rdf:resource="http://purl.org/dc/dcmitype/StillImage"/>
    <dc:date>2024-08-15T11:59:46.479973</dc:date>
    <dc:format>image/svg+xml</dc:format>
    <dc:creator>
     <cc:Agent>
      <dc:title>Matplotlib v3.6.2, https://matplotlib.org/</dc:title>
     </cc:Agent>
    </dc:creator>
   </cc:Work>
  </rdf:RDF>
 </metadata>
 <defs>
  <style type="text/css">*{stroke-linejoin: round; stroke-linecap: butt}</style>
 </defs>
 <g id="figure_1">
  <g id="patch_1">
   <path d="M 0 125.1365 
L 427.674531 125.1365 
L 427.674531 0 
L 0 0 
z
" style="fill: #ffffff"/>
  </g>
  <g id="axes_1">
   <g id="patch_2">
    <path d="M 29.874531 95.904 
L 138.374531 95.904 
L 138.374531 7.2 
L 29.874531 7.2 
z
" style="fill: #ffffff"/>
   </g>
   <g id="line2d_1">
    <path d="M 37.35729 91.871859 
L 39.266157 91.871009 
L 41.175024 91.869605 
L 43.083891 91.86735 
L 44.992758 91.863813 
L 46.901625 91.858382 
L 48.810492 91.850218 
L 50.719359 91.838173 
L 52.628226 91.820652 
L 54.537093 91.795278 
L 56.44596 91.75798 
L 58.354827 91.700121 
L 60.263694 91.597706 
L 62.172561 91.407399 
L 64.081428 91.190666 
L 65.990295 90.980106 
L 67.899162 90.762799 
L 69.808029 90.53063 
L 71.716896 90.278538 
L 73.625763 90.00267 
L 75.53463 89.699647 
L 77.443497 89.366215 
L 79.352364 88.999049 
L 81.261231 88.594628 
L 83.170098 88.14913 
L 85.078965 87.658352 
L 86.987832 87.117639 
L 88.896699 86.52183 
L 90.805566 85.86522 
L 92.714433 85.141537 
L 94.6233 84.343951 
L 96.532167 83.465113 
L 98.441034 82.497243 
L 100.349901 81.43228 
L 102.258768 80.262127 
L 104.167635 78.978992 
L 106.076502 77.575883 
L 107.985369 76.047251 
L 109.894236 74.389797 
L 111.803103 72.603328 
L 113.71197 70.691752 
L 115.620837 68.66375 
L 117.529704 66.532821 
L 119.438571 64.316621 
L 121.347438 62.035361 
L 123.256305 59.70955 
L 125.165172 57.357691 
L 127.074039 54.994571 
L 128.982906 52.630571 
L 130.891773 50.272005 
" clip-path="url(#pf4b8cb9d85)" style="fill: none; stroke: #ffa500; stroke-width: 0.7; stroke-linecap: square"/>
   </g>
   <g id="matplotlib.axis_1">
    <g id="xtick_1">
     <g id="line2d_2">
      <defs>
       <path id="m8c92cd053a" d="M 0 0 
L 0 -2.5 
" style="stroke: #000000; stroke-width: 0.5"/>
      </defs>
      <g>
       <use xlink:href="#m8c92cd053a" x="37.35729" y="95.904" style="stroke: #000000; stroke-width: 0.5"/>
      </g>
     </g>
     <g id="text_1">
      <!-- 800 -->
      <g transform="translate(32.10729 104.264625) scale(0.07 -0.07)">
       <defs>
        <path id="TimesNewRomanPSMT-38" d="M 1228 2134 
Q 725 2547 579 2797 
Q 434 3047 434 3316 
Q 434 3728 753 4026 
Q 1072 4325 1600 4325 
Q 2113 4325 2425 4047 
Q 2738 3769 2738 3413 
Q 2738 3175 2569 2928 
Q 2400 2681 1866 2347 
Q 2416 1922 2594 1678 
Q 2831 1359 2831 1006 
Q 2831 559 2490 242 
Q 2150 -75 1597 -75 
Q 994 -75 656 303 
Q 388 606 388 966 
Q 388 1247 577 1523 
Q 766 1800 1228 2134 
z
M 1719 2469 
Q 2094 2806 2194 3001 
Q 2294 3197 2294 3444 
Q 2294 3772 2109 3958 
Q 1925 4144 1606 4144 
Q 1288 4144 1088 3959 
Q 888 3775 888 3528 
Q 888 3366 970 3203 
Q 1053 3041 1206 2894 
L 1719 2469 
z
M 1375 2016 
Q 1116 1797 991 1539 
Q 866 1281 866 981 
Q 866 578 1086 336 
Q 1306 94 1647 94 
Q 1984 94 2187 284 
Q 2391 475 2391 747 
Q 2391 972 2272 1150 
Q 2050 1481 1375 2016 
z
" transform="scale(0.015625)"/>
        <path id="TimesNewRomanPSMT-30" d="M 231 2094 
Q 231 2819 450 3342 
Q 669 3866 1031 4122 
Q 1313 4325 1613 4325 
Q 2100 4325 2488 3828 
Q 2972 3213 2972 2159 
Q 2972 1422 2759 906 
Q 2547 391 2217 158 
Q 1888 -75 1581 -75 
Q 975 -75 572 641 
Q 231 1244 231 2094 
z
M 844 2016 
Q 844 1141 1059 588 
Q 1238 122 1591 122 
Q 1759 122 1940 273 
Q 2122 425 2216 781 
Q 2359 1319 2359 2297 
Q 2359 3022 2209 3506 
Q 2097 3866 1919 4016 
Q 1791 4119 1609 4119 
Q 1397 4119 1231 3928 
Q 1006 3669 925 3112 
Q 844 2556 844 2016 
z
" transform="scale(0.015625)"/>
       </defs>
       <use xlink:href="#TimesNewRomanPSMT-38"/>
       <use xlink:href="#TimesNewRomanPSMT-30" x="50"/>
       <use xlink:href="#TimesNewRomanPSMT-30" x="100"/>
      </g>
     </g>
    </g>
    <g id="xtick_2">
     <g id="line2d_3">
      <g>
       <use xlink:href="#m8c92cd053a" x="56.064186" y="95.904" style="stroke: #000000; stroke-width: 0.5"/>
      </g>
     </g>
     <g id="text_2">
      <!-- 850 -->
      <g transform="translate(50.814186 104.264625) scale(0.07 -0.07)">
       <defs>
        <path id="TimesNewRomanPSMT-35" d="M 2778 4238 
L 2534 3706 
L 1259 3706 
L 981 3138 
Q 1809 3016 2294 2522 
Q 2709 2097 2709 1522 
Q 2709 1188 2573 903 
Q 2438 619 2231 419 
Q 2025 219 1772 97 
Q 1413 -75 1034 -75 
Q 653 -75 479 54 
Q 306 184 306 341 
Q 306 428 378 495 
Q 450 563 559 563 
Q 641 563 702 538 
Q 763 513 909 409 
Q 1144 247 1384 247 
Q 1750 247 2026 523 
Q 2303 800 2303 1197 
Q 2303 1581 2056 1914 
Q 1809 2247 1375 2428 
Q 1034 2569 447 2591 
L 1259 4238 
L 2778 4238 
z
" transform="scale(0.015625)"/>
       </defs>
       <use xlink:href="#TimesNewRomanPSMT-38"/>
       <use xlink:href="#TimesNewRomanPSMT-35" x="50"/>
       <use xlink:href="#TimesNewRomanPSMT-30" x="100"/>
      </g>
     </g>
    </g>
    <g id="xtick_3">
     <g id="line2d_4">
      <g>
       <use xlink:href="#m8c92cd053a" x="74.771083" y="95.904" style="stroke: #000000; stroke-width: 0.5"/>
      </g>
     </g>
     <g id="text_3">
      <!-- 900 -->
      <g transform="translate(69.521083 104.264625) scale(0.07 -0.07)">
       <defs>
        <path id="TimesNewRomanPSMT-39" d="M 338 -88 
L 338 28 
Q 744 34 1094 217 
Q 1444 400 1770 856 
Q 2097 1313 2225 1859 
Q 1734 1544 1338 1544 
Q 891 1544 572 1889 
Q 253 2234 253 2806 
Q 253 3363 572 3797 
Q 956 4325 1575 4325 
Q 2097 4325 2469 3894 
Q 2925 3359 2925 2575 
Q 2925 1869 2578 1258 
Q 2231 647 1613 244 
Q 1109 -88 516 -88 
L 338 -88 
z
M 2275 2091 
Q 2331 2497 2331 2741 
Q 2331 3044 2228 3395 
Q 2125 3747 1936 3934 
Q 1747 4122 1506 4122 
Q 1228 4122 1018 3872 
Q 809 3622 809 3128 
Q 809 2469 1088 2097 
Q 1291 1828 1588 1828 
Q 1731 1828 1928 1897 
Q 2125 1966 2275 2091 
z
" transform="scale(0.015625)"/>
       </defs>
       <use xlink:href="#TimesNewRomanPSMT-39"/>
       <use xlink:href="#TimesNewRomanPSMT-30" x="50"/>
       <use xlink:href="#TimesNewRomanPSMT-30" x="100"/>
      </g>
     </g>
    </g>
    <g id="xtick_4">
     <g id="line2d_5">
      <g>
       <use xlink:href="#m8c92cd053a" x="93.47798" y="95.904" style="stroke: #000000; stroke-width: 0.5"/>
      </g>
     </g>
     <g id="text_4">
      <!-- 950 -->
      <g transform="translate(88.22798 104.264625) scale(0.07 -0.07)">
       <use xlink:href="#TimesNewRomanPSMT-39"/>
       <use xlink:href="#TimesNewRomanPSMT-35" x="50"/>
       <use xlink:href="#TimesNewRomanPSMT-30" x="100"/>
      </g>
     </g>
    </g>
    <g id="xtick_5">
     <g id="line2d_6">
      <g>
       <use xlink:href="#m8c92cd053a" x="112.184876" y="95.904" style="stroke: #000000; stroke-width: 0.5"/>
      </g>
     </g>
     <g id="text_5">
      <!-- 1000 -->
      <g transform="translate(105.184876 104.264625) scale(0.07 -0.07)">
       <defs>
        <path id="TimesNewRomanPSMT-31" d="M 750 3822 
L 1781 4325 
L 1884 4325 
L 1884 747 
Q 1884 391 1914 303 
Q 1944 216 2037 169 
Q 2131 122 2419 116 
L 2419 0 
L 825 0 
L 825 116 
Q 1125 122 1212 167 
Q 1300 213 1334 289 
Q 1369 366 1369 747 
L 1369 3034 
Q 1369 3497 1338 3628 
Q 1316 3728 1258 3775 
Q 1200 3822 1119 3822 
Q 1003 3822 797 3725 
L 750 3822 
z
" transform="scale(0.015625)"/>
       </defs>
       <use xlink:href="#TimesNewRomanPSMT-31"/>
       <use xlink:href="#TimesNewRomanPSMT-30" x="50"/>
       <use xlink:href="#TimesNewRomanPSMT-30" x="100"/>
       <use xlink:href="#TimesNewRomanPSMT-30" x="150"/>
      </g>
     </g>
    </g>
    <g id="xtick_6">
     <g id="line2d_7">
      <g>
       <use xlink:href="#m8c92cd053a" x="130.891773" y="95.904" style="stroke: #000000; stroke-width: 0.5"/>
      </g>
     </g>
     <g id="text_6">
      <!-- 1050 -->
      <g transform="translate(123.891773 104.264625) scale(0.07 -0.07)">
       <use xlink:href="#TimesNewRomanPSMT-31"/>
       <use xlink:href="#TimesNewRomanPSMT-30" x="50"/>
       <use xlink:href="#TimesNewRomanPSMT-35" x="100"/>
       <use xlink:href="#TimesNewRomanPSMT-30" x="150"/>
      </g>
     </g>
    </g>
   </g>
   <g id="matplotlib.axis_2">
    <g id="ytick_1">
     <g id="line2d_8">
      <defs>
       <path id="m569a3ff16d" d="M 0 0 
L 2.5 0 
" style="stroke: #000000; stroke-width: 0.5"/>
      </defs>
      <g>
       <use xlink:href="#m569a3ff16d" x="29.874531" y="91.872704" style="stroke: #000000; stroke-width: 0.5"/>
      </g>
     </g>
     <g id="text_7">
      <!-- 0 -->
      <g transform="translate(22.874531 94.303017) scale(0.07 -0.07)">
       <use xlink:href="#TimesNewRomanPSMT-30"/>
      </g>
     </g>
    </g>
    <g id="ytick_2">
     <g id="line2d_9">
      <g>
       <use xlink:href="#m569a3ff16d" x="29.874531" y="79.324856" style="stroke: #000000; stroke-width: 0.5"/>
      </g>
     </g>
     <g id="text_8">
      <!-- 5 -->
      <g transform="translate(22.874531 81.755168) scale(0.07 -0.07)">
       <use xlink:href="#TimesNewRomanPSMT-35"/>
      </g>
     </g>
    </g>
    <g id="ytick_3">
     <g id="line2d_10">
      <g>
       <use xlink:href="#m569a3ff16d" x="29.874531" y="66.777008" style="stroke: #000000; stroke-width: 0.5"/>
      </g>
     </g>
     <g id="text_9">
      <!-- 10 -->
      <g transform="translate(19.374531 69.20732) scale(0.07 -0.07)">
       <use xlink:href="#TimesNewRomanPSMT-31"/>
       <use xlink:href="#TimesNewRomanPSMT-30" x="50"/>
      </g>
     </g>
    </g>
    <g id="ytick_4">
     <g id="line2d_11">
      <g>
       <use xlink:href="#m569a3ff16d" x="29.874531" y="54.22916" style="stroke: #000000; stroke-width: 0.5"/>
      </g>
     </g>
     <g id="text_10">
      <!-- 15 -->
      <g transform="translate(19.374531 56.659472) scale(0.07 -0.07)">
       <use xlink:href="#TimesNewRomanPSMT-31"/>
       <use xlink:href="#TimesNewRomanPSMT-35" x="50"/>
      </g>
     </g>
    </g>
    <g id="ytick_5">
     <g id="line2d_12">
      <g>
       <use xlink:href="#m569a3ff16d" x="29.874531" y="41.681312" style="stroke: #000000; stroke-width: 0.5"/>
      </g>
     </g>
     <g id="text_11">
      <!-- 20 -->
      <g transform="translate(19.374531 44.111624) scale(0.07 -0.07)">
       <defs>
        <path id="TimesNewRomanPSMT-32" d="M 2934 816 
L 2638 0 
L 138 0 
L 138 116 
Q 1241 1122 1691 1759 
Q 2141 2397 2141 2925 
Q 2141 3328 1894 3587 
Q 1647 3847 1303 3847 
Q 991 3847 742 3664 
Q 494 3481 375 3128 
L 259 3128 
Q 338 3706 661 4015 
Q 984 4325 1469 4325 
Q 1984 4325 2329 3994 
Q 2675 3663 2675 3213 
Q 2675 2891 2525 2569 
Q 2294 2063 1775 1497 
Q 997 647 803 472 
L 1909 472 
Q 2247 472 2383 497 
Q 2519 522 2628 598 
Q 2738 675 2819 816 
L 2934 816 
z
" transform="scale(0.015625)"/>
       </defs>
       <use xlink:href="#TimesNewRomanPSMT-32"/>
       <use xlink:href="#TimesNewRomanPSMT-30" x="50"/>
      </g>
     </g>
    </g>
    <g id="ytick_6">
     <g id="line2d_13">
      <g>
       <use xlink:href="#m569a3ff16d" x="29.874531" y="29.133464" style="stroke: #000000; stroke-width: 0.5"/>
      </g>
     </g>
     <g id="text_12">
      <!-- 25 -->
      <g transform="translate(19.374531 31.563776) scale(0.07 -0.07)">
       <use xlink:href="#TimesNewRomanPSMT-32"/>
       <use xlink:href="#TimesNewRomanPSMT-35" x="50"/>
      </g>
     </g>
    </g>
    <g id="ytick_7">
     <g id="line2d_14">
      <g>
       <use xlink:href="#m569a3ff16d" x="29.874531" y="16.585615" style="stroke: #000000; stroke-width: 0.5"/>
      </g>
     </g>
     <g id="text_13">
      <!-- 30 -->
      <g transform="translate(19.374531 19.015928) scale(0.07 -0.07)">
       <defs>
        <path id="TimesNewRomanPSMT-33" d="M 325 3431 
Q 506 3859 782 4092 
Q 1059 4325 1472 4325 
Q 1981 4325 2253 3994 
Q 2459 3747 2459 3466 
Q 2459 3003 1878 2509 
Q 2269 2356 2469 2072 
Q 2669 1788 2669 1403 
Q 2669 853 2319 450 
Q 1863 -75 997 -75 
Q 569 -75 414 31 
Q 259 138 259 259 
Q 259 350 332 419 
Q 406 488 509 488 
Q 588 488 669 463 
Q 722 447 909 348 
Q 1097 250 1169 231 
Q 1284 197 1416 197 
Q 1734 197 1970 444 
Q 2206 691 2206 1028 
Q 2206 1275 2097 1509 
Q 2016 1684 1919 1775 
Q 1784 1900 1550 2001 
Q 1316 2103 1072 2103 
L 972 2103 
L 972 2197 
Q 1219 2228 1467 2375 
Q 1716 2522 1828 2728 
Q 1941 2934 1941 3181 
Q 1941 3503 1739 3701 
Q 1538 3900 1238 3900 
Q 753 3900 428 3381 
L 325 3431 
z
" transform="scale(0.015625)"/>
       </defs>
       <use xlink:href="#TimesNewRomanPSMT-33"/>
       <use xlink:href="#TimesNewRomanPSMT-30" x="50"/>
      </g>
     </g>
    </g>
    <g id="text_14">
     <!-- $\Delta$ T [K] -->
     <g transform="translate(13.449375 66.087) rotate(-90) scale(0.09 -0.09)">
      <defs>
       <path id="STIXGeneral-Regular-394" d="M 4320 0 
L 307 0 
L 2221 4314 
L 2349 4314 
L 4320 0 
z
M 3354 589 
L 2118 3405 
L 870 589 
L 3354 589 
z
" transform="scale(0.015625)"/>
       <path id="TimesNewRomanPSMT-20" transform="scale(0.015625)"/>
       <path id="TimesNewRomanPSMT-54" d="M 3703 4238 
L 3750 3244 
L 3631 3244 
Q 3597 3506 3538 3619 
Q 3441 3800 3280 3886 
Q 3119 3972 2856 3972 
L 2259 3972 
L 2259 734 
Q 2259 344 2344 247 
Q 2463 116 2709 116 
L 2856 116 
L 2856 0 
L 1059 0 
L 1059 116 
L 1209 116 
Q 1478 116 1591 278 
Q 1659 378 1659 734 
L 1659 3972 
L 1150 3972 
Q 853 3972 728 3928 
Q 566 3869 450 3700 
Q 334 3531 313 3244 
L 194 3244 
L 244 4238 
L 3703 4238 
z
" transform="scale(0.015625)"/>
       <path id="TimesNewRomanPSMT-5b" d="M 1900 -1269 
L 525 -1269 
L 525 4334 
L 1900 4334 
L 1900 4088 
L 994 4088 
L 994 -1025 
L 1900 -1025 
L 1900 -1269 
z
" transform="scale(0.015625)"/>
       <path id="TimesNewRomanPSMT-4b" d="M 1913 2350 
L 3475 797 
Q 3859 413 4131 273 
Q 4403 134 4675 116 
L 4675 0 
L 2659 0 
L 2659 116 
Q 2841 116 2920 177 
Q 3000 238 3000 313 
Q 3000 388 2970 447 
Q 2941 506 2775 669 
L 1313 2116 
L 1313 750 
Q 1313 428 1353 325 
Q 1384 247 1484 191 
Q 1619 116 1769 116 
L 1913 116 
L 1913 0 
L 106 0 
L 106 116 
L 256 116 
Q 519 116 638 269 
Q 713 369 713 750 
L 713 3488 
Q 713 3809 672 3916 
Q 641 3991 544 4047 
Q 406 4122 256 4122 
L 106 4122 
L 106 4238 
L 1913 4238 
L 1913 4122 
L 1769 4122 
Q 1622 4122 1484 4050 
Q 1388 4000 1350 3900 
Q 1313 3800 1313 3488 
L 1313 2191 
Q 1375 2250 1741 2588 
Q 2669 3438 2863 3722 
Q 2947 3847 2947 3941 
Q 2947 4013 2881 4067 
Q 2816 4122 2659 4122 
L 2563 4122 
L 2563 4238 
L 4119 4238 
L 4119 4122 
Q 3981 4119 3868 4084 
Q 3756 4050 3593 3951 
Q 3431 3853 3194 3634 
Q 3125 3572 2559 2994 
L 1913 2350 
z
" transform="scale(0.015625)"/>
       <path id="TimesNewRomanPSMT-5d" d="M 234 4334 
L 1609 4334 
L 1609 -1272 
L 234 -1272 
L 234 -1025 
L 1141 -1025 
L 1141 4088 
L 234 4088 
L 234 4334 
z
" transform="scale(0.015625)"/>
      </defs>
      <use xlink:href="#STIXGeneral-Regular-394" transform="translate(0 0.28125)"/>
      <use xlink:href="#TimesNewRomanPSMT-20" transform="translate(72.199982 0.28125)"/>
      <use xlink:href="#TimesNewRomanPSMT-54" transform="translate(97.199982 0.28125)"/>
      <use xlink:href="#TimesNewRomanPSMT-20" transform="translate(158.283966 0.28125)"/>
      <use xlink:href="#TimesNewRomanPSMT-5b" transform="translate(183.283966 0.28125)"/>
      <use xlink:href="#TimesNewRomanPSMT-4b" transform="translate(216.584747 0.28125)"/>
      <use xlink:href="#TimesNewRomanPSMT-5d" transform="translate(288.801544 0.28125)"/>
     </g>
    </g>
   </g>
   <g id="line2d_15">
    <path d="M 37.35729 91.872 
L 39.266157 91.87125 
L 41.175024 91.870002 
L 43.083891 91.867994 
L 44.992758 91.864837 
L 46.901625 91.859986 
L 48.810492 91.852691 
L 50.719359 91.841945 
L 52.628226 91.826387 
L 54.537093 91.804105 
L 56.44596 91.772122 
L 58.354827 91.724886 
L 60.263694 91.648869 
L 62.172561 91.501065 
L 64.081428 91.266479 
L 65.990295 91.043936 
L 67.899162 90.826089 
L 69.808029 90.599327 
L 71.716896 90.356709 
L 73.625763 90.093774 
L 75.53463 89.807057 
L 77.443497 89.493521 
L 79.352364 89.150299 
L 81.261231 88.774553 
L 83.170098 88.363372 
L 85.078965 87.913709 
L 86.987832 87.422312 
L 88.896699 86.885683 
L 90.805566 86.300032 
L 92.714433 85.661256 
L 94.6233 84.964921 
L 96.532167 84.206273 
L 98.441034 83.380254 
L 100.349901 82.481555 
L 102.258768 81.504681 
L 104.167635 80.444062 
L 106.076502 79.294193 
L 107.985369 78.049825 
L 109.894236 76.706209 
L 111.803103 75.25937 
L 113.71197 73.706524 
L 115.620837 72.046567 
L 117.529704 70.280447 
L 119.438571 68.411636 
L 121.347438 66.446436 
L 123.256305 64.394014 
L 125.165172 62.266041 
L 127.074039 60.075872 
L 128.982906 57.837368 
L 130.891773 55.56361 
" clip-path="url(#pf4b8cb9d85)" style="fill: none; stroke: #029386; stroke-width: 0.7; stroke-linecap: square"/>
   </g>
   <g id="patch_3">
    <path d="M 29.874531 95.904 
L 29.874531 7.2 
" style="fill: none; stroke: #000000; stroke-width: 0.8; stroke-linejoin: miter; stroke-linecap: square"/>
   </g>
   <g id="patch_4">
    <path d="M 138.374531 95.904 
L 138.374531 7.2 
" style="fill: none; stroke: #000000; stroke-width: 0.8; stroke-linejoin: miter; stroke-linecap: square"/>
   </g>
   <g id="patch_5">
    <path d="M 29.874531 95.904 
L 138.374531 95.904 
" style="fill: none; stroke: #000000; stroke-width: 0.8; stroke-linejoin: miter; stroke-linecap: square"/>
   </g>
   <g id="patch_6">
    <path d="M 29.874531 7.2 
L 138.374531 7.2 
" style="fill: none; stroke: #000000; stroke-width: 0.8; stroke-linejoin: miter; stroke-linecap: square"/>
   </g>
   <g id="line2d_16">
    <path d="M 37.35729 91.868901 
L 39.266157 91.866089 
L 41.175024 91.861528 
L 43.083891 91.854199 
L 44.992758 91.842416 
L 46.901625 91.823066 
L 48.810492 91.789145 
L 50.719359 91.720431 
L 52.628226 91.582802 
L 54.537093 91.412754 
L 56.44596 91.230718 
L 58.354827 91.028417 
L 60.263694 90.797165 
L 62.172561 90.527942 
L 64.081428 90.209938 
L 65.990295 89.829111 
L 67.899162 89.366304 
L 69.808029 88.794378 
L 71.716896 88.073442 
L 73.625763 87.142497 
L 75.53463 85.904252 
L 77.443497 84.197467 
L 79.352364 81.753036 
L 81.261231 78.176334 
L 83.170098 73.212805 
L 85.078965 67.436927 
L 86.987832 61.903821 
L 88.896699 57.058498 
L 90.805566 52.859188 
L 92.714433 49.160761 
L 94.6233 45.837582 
L 96.532167 42.79872 
L 98.441034 39.981419 
L 100.349901 37.343207 
L 102.258768 34.855872 
L 104.167635 32.501215 
L 106.076502 30.267987 
L 107.985369 28.149833 
L 109.894236 26.143619 
L 111.803103 24.248171 
L 113.71197 22.463335 
L 115.620837 20.789265 
L 117.529704 19.225861 
L 119.438571 17.772467 
L 121.347438 16.427694 
L 123.256305 15.189356 
L 125.165172 14.054506 
L 127.074039 13.019516 
L 128.982906 12.08021 
L 130.891773 11.232 
" clip-path="url(#pf4b8cb9d85)" style="fill: none; stroke: #ff0000; stroke-width: 0.7; stroke-linecap: square"/>
   </g>
   <g id="line2d_17">
    <path d="M 37.35729 91.86143 
L 39.266157 91.854787 
L 41.175024 91.845332 
L 43.083891 91.832325 
L 44.992758 91.814926 
L 46.901625 91.792127 
L 48.810492 91.762566 
L 50.719359 91.724057 
L 52.628226 91.672195 
L 54.537093 91.593937 
L 56.44596 90.970272 
L 58.354827 90.657598 
L 60.263694 90.400674 
L 62.172561 90.152031 
L 64.081428 89.901432 
L 65.990295 89.644543 
L 67.899162 89.378898 
L 69.808029 89.102793 
L 71.716896 88.814876 
L 73.625763 88.513963 
L 75.53463 88.198957 
L 77.443497 87.8688 
L 79.352364 87.522453 
L 81.261231 87.158883 
L 83.170098 86.777065 
L 85.078965 86.375977 
L 86.987832 85.954607 
L 88.896699 85.511965 
L 90.805566 85.047089 
L 92.714433 84.559059 
L 94.6233 84.047018 
L 96.532167 83.510182 
L 98.441034 82.947873 
L 100.349901 82.359532 
L 102.258768 81.744753 
L 104.167635 81.10331 
L 106.076502 80.435181 
L 107.985369 79.740582 
L 109.894236 79.019984 
L 111.803103 78.274123 
L 113.71197 77.504013 
L 115.620837 76.711019 
L 117.529704 75.896758 
L 119.438571 75.063097 
L 121.347438 74.212117 
L 123.256305 73.34606 
L 125.165172 72.467256 
L 127.074039 71.578059 
L 128.982906 70.680761 
L 130.891773 69.777529 
" clip-path="url(#pf4b8cb9d85)" style="fill: none; stroke: #0000ff; stroke-width: 0.7; stroke-linecap: square"/>
   </g>
   <g id="legend_1">
    <g id="line2d_18">
     <path d="M 36.174531 15.95 
L 39.674531 15.95 
L 43.174531 15.95 
" style="fill: none; stroke: #929591; stroke-width: 0.7; stroke-linecap: square"/>
    </g>
    <g id="text_15">
     <!-- Alzueta -->
     <g transform="translate(48.774531 18.4) scale(0.07 -0.07)">
      <defs>
       <path id="TimesNewRomanPSMT-41" d="M 2928 1419 
L 1288 1419 
L 1000 750 
Q 894 503 894 381 
Q 894 284 986 211 
Q 1078 138 1384 116 
L 1384 0 
L 50 0 
L 50 116 
Q 316 163 394 238 
Q 553 388 747 847 
L 2238 4334 
L 2347 4334 
L 3822 809 
Q 4000 384 4145 257 
Q 4291 131 4550 116 
L 4550 0 
L 2878 0 
L 2878 116 
Q 3131 128 3220 200 
Q 3309 272 3309 375 
Q 3309 513 3184 809 
L 2928 1419 
z
M 2841 1650 
L 2122 3363 
L 1384 1650 
L 2841 1650 
z
" transform="scale(0.015625)"/>
       <path id="TimesNewRomanPSMT-6c" d="M 1184 4444 
L 1184 647 
Q 1184 378 1223 290 
Q 1263 203 1344 158 
Q 1425 113 1647 113 
L 1647 0 
L 244 0 
L 244 113 
Q 441 113 512 153 
Q 584 194 625 287 
Q 666 381 666 647 
L 666 3247 
Q 666 3731 644 3842 
Q 622 3953 573 3993 
Q 525 4034 450 4034 
Q 369 4034 244 3984 
L 191 4094 
L 1044 4444 
L 1184 4444 
z
" transform="scale(0.015625)"/>
       <path id="TimesNewRomanPSMT-7a" d="M 2688 878 
L 2653 0 
L 128 0 
L 128 113 
L 2028 2644 
L 1091 2644 
Q 788 2644 694 2605 
Q 600 2566 541 2456 
Q 456 2300 444 2069 
L 319 2069 
L 338 2863 
L 2738 2863 
L 2738 2747 
L 819 209 
L 1863 209 
Q 2191 209 2308 264 
Q 2425 319 2497 456 
Q 2547 556 2581 878 
L 2688 878 
z
" transform="scale(0.015625)"/>
       <path id="TimesNewRomanPSMT-75" d="M 2709 2863 
L 2709 1128 
Q 2709 631 2732 520 
Q 2756 409 2807 365 
Q 2859 322 2928 322 
Q 3025 322 3147 375 
L 3191 266 
L 2334 -88 
L 2194 -88 
L 2194 519 
Q 1825 119 1631 15 
Q 1438 -88 1222 -88 
Q 981 -88 804 51 
Q 628 191 559 409 
Q 491 628 491 1028 
L 491 2306 
Q 491 2509 447 2587 
Q 403 2666 317 2708 
Q 231 2750 6 2747 
L 6 2863 
L 1009 2863 
L 1009 947 
Q 1009 547 1148 422 
Q 1288 297 1484 297 
Q 1619 297 1789 381 
Q 1959 466 2194 703 
L 2194 2325 
Q 2194 2569 2105 2655 
Q 2016 2741 1734 2747 
L 1734 2863 
L 2709 2863 
z
" transform="scale(0.015625)"/>
       <path id="TimesNewRomanPSMT-65" d="M 681 1784 
Q 678 1147 991 784 
Q 1303 422 1725 422 
Q 2006 422 2214 576 
Q 2422 731 2563 1106 
L 2659 1044 
Q 2594 616 2278 264 
Q 1963 -88 1488 -88 
Q 972 -88 605 314 
Q 238 716 238 1394 
Q 238 2128 614 2539 
Q 991 2950 1559 2950 
Q 2041 2950 2350 2633 
Q 2659 2316 2659 1784 
L 681 1784 
z
M 681 1966 
L 2006 1966 
Q 1991 2241 1941 2353 
Q 1863 2528 1708 2628 
Q 1553 2728 1384 2728 
Q 1125 2728 920 2526 
Q 716 2325 681 1966 
z
" transform="scale(0.015625)"/>
       <path id="TimesNewRomanPSMT-74" d="M 1031 3803 
L 1031 2863 
L 1700 2863 
L 1700 2644 
L 1031 2644 
L 1031 788 
Q 1031 509 1111 412 
Q 1191 316 1316 316 
Q 1419 316 1516 380 
Q 1613 444 1666 569 
L 1788 569 
Q 1678 263 1478 108 
Q 1278 -47 1066 -47 
Q 922 -47 784 33 
Q 647 113 581 261 
Q 516 409 516 719 
L 516 2644 
L 63 2644 
L 63 2747 
Q 234 2816 414 2980 
Q 594 3144 734 3369 
Q 806 3488 934 3803 
L 1031 3803 
z
" transform="scale(0.015625)"/>
       <path id="TimesNewRomanPSMT-61" d="M 1822 413 
Q 1381 72 1269 19 
Q 1100 -59 909 -59 
Q 613 -59 420 144 
Q 228 347 228 678 
Q 228 888 322 1041 
Q 450 1253 767 1440 
Q 1084 1628 1822 1897 
L 1822 2009 
Q 1822 2438 1686 2597 
Q 1550 2756 1291 2756 
Q 1094 2756 978 2650 
Q 859 2544 859 2406 
L 866 2225 
Q 866 2081 792 2003 
Q 719 1925 600 1925 
Q 484 1925 411 2006 
Q 338 2088 338 2228 
Q 338 2497 613 2722 
Q 888 2947 1384 2947 
Q 1766 2947 2009 2819 
Q 2194 2722 2281 2516 
Q 2338 2381 2338 1966 
L 2338 994 
Q 2338 584 2353 492 
Q 2369 400 2405 369 
Q 2441 338 2488 338 
Q 2538 338 2575 359 
Q 2641 400 2828 588 
L 2828 413 
Q 2478 -56 2159 -56 
Q 2006 -56 1915 50 
Q 1825 156 1822 413 
z
M 1822 616 
L 1822 1706 
Q 1350 1519 1213 1441 
Q 966 1303 859 1153 
Q 753 1003 753 825 
Q 753 600 887 451 
Q 1022 303 1197 303 
Q 1434 303 1822 616 
z
" transform="scale(0.015625)"/>
      </defs>
      <use xlink:href="#TimesNewRomanPSMT-41"/>
      <use xlink:href="#TimesNewRomanPSMT-6c" x="72.216797"/>
      <use xlink:href="#TimesNewRomanPSMT-7a" x="100"/>
      <use xlink:href="#TimesNewRomanPSMT-75" x="144.384766"/>
      <use xlink:href="#TimesNewRomanPSMT-65" x="194.384766"/>
      <use xlink:href="#TimesNewRomanPSMT-74" x="238.769531"/>
      <use xlink:href="#TimesNewRomanPSMT-61" x="266.552734"/>
     </g>
    </g>
    <g id="line2d_19">
     <path d="M 36.174531 25.847344 
L 39.674531 25.847344 
L 43.174531 25.847344 
" style="fill: none; stroke: #ffa500; stroke-width: 0.7; stroke-linecap: square"/>
    </g>
    <g id="text_16">
     <!-- $\epsilon_{0,NH_3}(300K)$ -->
     <g transform="translate(48.774531 28.297344) scale(0.07 -0.07)">
      <defs>
       <path id="STIXGeneral-Italic-3b5" d="M 2304 627 
L 2406 563 
Q 1907 -70 1133 -70 
Q 192 -70 192 640 
Q 192 928 403 1158 
Q 614 1389 934 1472 
Q 774 1498 684 1616 
Q 595 1734 595 1882 
Q 602 2266 995 2544 
Q 1389 2822 2029 2822 
Q 2336 2822 2528 2672 
Q 2720 2522 2720 2291 
Q 2720 2163 2617 2080 
Q 2515 1997 2413 1997 
Q 2298 1997 2230 2067 
Q 2163 2138 2163 2253 
Q 2163 2317 2211 2409 
Q 2259 2502 2259 2560 
Q 2259 2688 2022 2688 
Q 1683 2688 1401 2496 
Q 1120 2304 1120 1907 
Q 1120 1741 1251 1654 
Q 1382 1568 1594 1568 
Q 1613 1568 1728 1590 
Q 1843 1613 1932 1613 
Q 2022 1613 2086 1574 
Q 2150 1536 2150 1478 
Q 2150 1306 1862 1306 
Q 1805 1306 1721 1334 
Q 1638 1363 1568 1363 
Q 1286 1363 1014 1184 
Q 742 1005 742 678 
Q 742 410 908 285 
Q 1075 160 1312 160 
Q 1869 160 2304 627 
z
" transform="scale(0.015625)"/>
       <path id="STIXGeneral-Regular-30" d="M 3046 2112 
Q 3046 1683 2963 1302 
Q 2880 922 2717 602 
Q 2554 282 2266 96 
Q 1978 -90 1600 -90 
Q 1210 -90 915 108 
Q 621 307 461 640 
Q 301 973 227 1350 
Q 154 1728 154 2150 
Q 154 2746 301 3222 
Q 448 3699 790 4012 
Q 1133 4326 1626 4326 
Q 2253 4326 2649 3712 
Q 3046 3098 3046 2112 
z
M 2432 2080 
Q 2432 3091 2217 3625 
Q 2003 4160 1587 4160 
Q 1190 4160 979 3622 
Q 768 3085 768 2106 
Q 768 1120 979 598 
Q 1190 77 1600 77 
Q 2003 77 2217 598 
Q 2432 1120 2432 2080 
z
" transform="scale(0.015625)"/>
       <path id="STIXGeneral-Regular-2c" d="M 531 -902 
L 467 -781 
Q 998 -422 998 -96 
Q 998 -13 909 -13 
Q 883 -13 822 -25 
Q 762 -38 723 -38 
Q 352 -38 352 288 
Q 352 454 457 553 
Q 563 653 736 653 
Q 954 653 1101 496 
Q 1248 339 1248 96 
Q 1248 -198 1053 -473 
Q 858 -749 531 -902 
z
" transform="scale(0.015625)"/>
       <path id="STIXGeneral-Italic-4e" d="M 4653 4179 
L 4653 4077 
Q 4480 4038 4413 4016 
Q 4346 3994 4266 3882 
Q 4186 3770 4144 3635 
Q 4102 3501 4000 3149 
L 3066 -96 
L 2950 -96 
L 1478 3424 
L 749 723 
Q 691 525 691 378 
Q 691 243 790 182 
Q 890 122 1139 102 
L 1139 0 
L -128 0 
L -128 102 
Q 147 141 262 304 
Q 378 467 550 1075 
L 1299 3731 
Q 1152 4077 749 4077 
L 749 4179 
L 1773 4179 
L 3098 986 
L 3776 3469 
Q 3827 3648 3827 3750 
Q 3827 3923 3740 3987 
Q 3654 4051 3386 4077 
L 3386 4179 
L 4653 4179 
z
" transform="scale(0.015625)"/>
       <path id="STIXGeneral-Italic-48" d="M 4922 4179 
L 4922 4077 
Q 4640 4026 4550 3949 
Q 4461 3872 4384 3603 
L 3539 525 
Q 3520 448 3520 371 
Q 3520 237 3616 185 
Q 3712 134 4026 102 
L 4026 0 
L 2272 0 
L 2272 102 
Q 2598 128 2729 237 
Q 2861 346 2925 595 
L 3334 2086 
L 1510 2086 
L 1088 525 
Q 1069 461 1069 384 
Q 1069 243 1149 192 
Q 1229 141 1517 102 
L 1517 0 
L -51 0 
L -51 102 
Q 211 128 310 230 
Q 410 333 499 653 
L 1254 3405 
Q 1331 3699 1331 3814 
Q 1331 3949 1238 3997 
Q 1146 4045 838 4077 
L 838 4179 
L 2573 4179 
L 2573 4077 
Q 2285 4058 2141 3955 
Q 1997 3853 1933 3622 
L 1587 2355 
L 3411 2355 
L 3706 3405 
Q 3795 3738 3795 3808 
Q 3795 3930 3692 3994 
Q 3590 4058 3334 4077 
L 3334 4179 
L 4922 4179 
z
" transform="scale(0.015625)"/>
       <path id="STIXGeneral-Regular-33" d="M 390 3264 
L 288 3290 
Q 435 3770 748 4048 
Q 1062 4326 1542 4326 
Q 1990 4326 2265 4083 
Q 2541 3840 2541 3450 
Q 2541 2925 1946 2566 
Q 2298 2413 2477 2227 
Q 2758 1914 2758 1402 
Q 2758 890 2464 506 
Q 2246 211 1840 60 
Q 1434 -90 979 -90 
Q 262 -90 262 275 
Q 262 378 339 442 
Q 416 506 525 506 
Q 685 506 915 339 
Q 1197 141 1466 141 
Q 1818 141 2058 425 
Q 2298 710 2298 1120 
Q 2298 1856 1632 2048 
Q 1434 2112 979 2112 
L 979 2202 
Q 1338 2323 1517 2432 
Q 2035 2726 2035 3290 
Q 2035 3610 1852 3776 
Q 1670 3942 1344 3942 
Q 768 3942 390 3264 
z
" transform="scale(0.015625)"/>
       <path id="STIXGeneral-Regular-28" d="M 1946 -1030 
L 1869 -1133 
Q 1126 -710 716 32 
Q 307 774 307 1613 
Q 307 3386 1888 4326 
L 1946 4224 
Q 1293 3667 1075 3126 
Q 858 2586 858 1632 
Q 858 685 1082 96 
Q 1306 -493 1946 -1030 
z
" transform="scale(0.015625)"/>
       <path id="STIXGeneral-Italic-4b" d="M 4621 4179 
L 4621 4077 
Q 4442 4077 4128 3840 
L 2221 2400 
L 3296 525 
Q 3443 269 3552 201 
Q 3661 134 3962 102 
L 3962 0 
L 2202 0 
L 2202 102 
L 2387 122 
Q 2682 147 2682 326 
Q 2682 365 2672 409 
Q 2662 454 2630 515 
Q 2598 576 2579 611 
Q 2560 646 2509 736 
Q 2458 826 2445 851 
L 1658 2227 
L 1242 710 
Q 1171 467 1171 384 
Q 1171 237 1264 182 
Q 1357 128 1626 102 
L 1626 0 
L 45 0 
L 45 102 
Q 320 134 403 211 
Q 486 288 563 557 
L 1357 3405 
Q 1446 3725 1446 3802 
Q 1446 3936 1337 4000 
Q 1229 4064 941 4077 
L 941 4179 
L 2669 4179 
L 2669 4077 
Q 2400 4058 2253 3958 
Q 2106 3859 2035 3603 
L 1696 2362 
L 2675 3059 
Q 3590 3706 3590 3936 
Q 3590 4032 3360 4058 
L 3206 4077 
L 3206 4179 
L 4621 4179 
z
" transform="scale(0.015625)"/>
       <path id="STIXGeneral-Regular-29" d="M 186 4224 
L 262 4326 
Q 992 3891 1408 3148 
Q 1824 2406 1824 1581 
Q 1824 -166 243 -1133 
L 186 -1030 
Q 845 -486 1059 54 
Q 1274 595 1274 1562 
Q 1274 2534 1059 3120 
Q 845 3706 186 4224 
z
" transform="scale(0.015625)"/>
      </defs>
      <use xlink:href="#STIXGeneral-Italic-3b5" transform="translate(0 0.40625)"/>
      <use xlink:href="#STIXGeneral-Regular-30" transform="translate(44.399994 -12.821875) scale(0.7)"/>
      <use xlink:href="#STIXGeneral-Regular-2c" transform="translate(79.399983 -12.821875) scale(0.7)"/>
      <use xlink:href="#STIXGeneral-Italic-4e" transform="translate(107.00797 -12.821875) scale(0.7)"/>
      <use xlink:href="#STIXGeneral-Italic-48" transform="translate(153.697968 -12.821875) scale(0.7)"/>
      <use xlink:href="#STIXGeneral-Regular-33" transform="translate(204.237955 -22.081563) scale(0.49)"/>
      <use xlink:href="#STIXGeneral-Regular-28" transform="translate(236.233885 0.40625)"/>
      <use xlink:href="#STIXGeneral-Regular-33" transform="translate(269.533873 0.40625)"/>
      <use xlink:href="#STIXGeneral-Regular-30" transform="translate(319.533858 0.40625)"/>
      <use xlink:href="#STIXGeneral-Regular-30" transform="translate(369.533842 0.40625)"/>
      <use xlink:href="#STIXGeneral-Italic-4b" transform="translate(419.533827 0.40625)"/>
      <use xlink:href="#STIXGeneral-Regular-29" transform="translate(486.233824 0.40625)"/>
     </g>
    </g>
    <g id="line2d_20">
     <path d="M 36.174531 35.927344 
L 39.674531 35.927344 
L 43.174531 35.927344 
" style="fill: none; stroke: #029386; stroke-width: 0.7; stroke-linecap: square"/>
    </g>
    <g id="text_17">
     <!-- $\epsilon_{0,NH_3}(2000K)$ -->
     <g transform="translate(48.774531 38.377344) scale(0.07 -0.07)">
      <defs>
       <path id="STIXGeneral-Regular-32" d="M 3034 877 
L 2688 0 
L 186 0 
L 186 77 
L 1325 1286 
Q 1773 1754 1965 2144 
Q 2157 2534 2157 2950 
Q 2157 3379 1920 3616 
Q 1683 3853 1267 3853 
Q 922 3853 720 3673 
Q 518 3494 326 3021 
L 192 3053 
Q 301 3648 630 3987 
Q 960 4326 1523 4326 
Q 2054 4326 2380 4006 
Q 2707 3686 2707 3200 
Q 2707 2477 1888 1613 
L 832 486 
L 2330 486 
Q 2541 486 2665 569 
Q 2790 653 2944 915 
L 3034 877 
z
" transform="scale(0.015625)"/>
      </defs>
      <use xlink:href="#STIXGeneral-Italic-3b5" transform="translate(0 0.40625)"/>
      <use xlink:href="#STIXGeneral-Regular-30" transform="translate(44.399994 -12.821875) scale(0.7)"/>
      <use xlink:href="#STIXGeneral-Regular-2c" transform="translate(79.399983 -12.821875) scale(0.7)"/>
      <use xlink:href="#STIXGeneral-Italic-4e" transform="translate(107.00797 -12.821875) scale(0.7)"/>
      <use xlink:href="#STIXGeneral-Italic-48" transform="translate(153.697968 -12.821875) scale(0.7)"/>
      <use xlink:href="#STIXGeneral-Regular-33" transform="translate(204.237955 -22.081563) scale(0.49)"/>
      <use xlink:href="#STIXGeneral-Regular-28" transform="translate(236.233885 0.40625)"/>
      <use xlink:href="#STIXGeneral-Regular-32" transform="translate(269.533873 0.40625)"/>
      <use xlink:href="#STIXGeneral-Regular-30" transform="translate(319.533858 0.40625)"/>
      <use xlink:href="#STIXGeneral-Regular-30" transform="translate(369.533842 0.40625)"/>
      <use xlink:href="#STIXGeneral-Regular-30" transform="translate(419.533827 0.40625)"/>
      <use xlink:href="#STIXGeneral-Italic-4b" transform="translate(469.533812 0.40625)"/>
      <use xlink:href="#STIXGeneral-Regular-29" transform="translate(536.233809 0.40625)"/>
     </g>
    </g>
    <g id="line2d_21">
     <path d="M 36.174531 46.007344 
L 39.674531 46.007344 
L 43.174531 46.007344 
" style="fill: none; stroke: #ff0000; stroke-width: 0.7; stroke-linecap: square"/>
    </g>
    <g id="text_18">
     <!-- Ar -->
     <g transform="translate(48.774531 48.457344) scale(0.07 -0.07)">
      <defs>
       <path id="TimesNewRomanPSMT-72" d="M 1038 2947 
L 1038 2303 
Q 1397 2947 1775 2947 
Q 1947 2947 2059 2842 
Q 2172 2738 2172 2600 
Q 2172 2478 2090 2393 
Q 2009 2309 1897 2309 
Q 1788 2309 1652 2417 
Q 1516 2525 1450 2525 
Q 1394 2525 1328 2463 
Q 1188 2334 1038 2041 
L 1038 669 
Q 1038 431 1097 309 
Q 1138 225 1241 169 
Q 1344 113 1538 113 
L 1538 0 
L 72 0 
L 72 113 
Q 291 113 397 181 
Q 475 231 506 341 
Q 522 394 522 644 
L 522 1753 
Q 522 2253 501 2348 
Q 481 2444 426 2487 
Q 372 2531 291 2531 
Q 194 2531 72 2484 
L 41 2597 
L 906 2947 
L 1038 2947 
z
" transform="scale(0.015625)"/>
      </defs>
      <use xlink:href="#TimesNewRomanPSMT-41"/>
      <use xlink:href="#TimesNewRomanPSMT-72" x="72.216797"/>
     </g>
    </g>
    <g id="line2d_22">
     <path d="M 36.174531 55.904687 
L 39.674531 55.904687 
L 43.174531 55.904687 
" style="fill: none; stroke: #0000ff; stroke-width: 0.7; stroke-linecap: square"/>
    </g>
    <g id="text_19">
     <!-- H$_2$O -->
     <g transform="translate(48.774531 58.354687) scale(0.07 -0.07)">
      <defs>
       <path id="TimesNewRomanPSMT-48" d="M 1316 2272 
L 3284 2272 
L 3284 3484 
Q 3284 3809 3244 3913 
Q 3213 3991 3113 4047 
Q 2978 4122 2828 4122 
L 2678 4122 
L 2678 4238 
L 4491 4238 
L 4491 4122 
L 4341 4122 
Q 4191 4122 4056 4050 
Q 3956 4000 3920 3898 
Q 3884 3797 3884 3484 
L 3884 750 
Q 3884 428 3925 325 
Q 3956 247 4053 191 
Q 4191 116 4341 116 
L 4491 116 
L 4491 0 
L 2678 0 
L 2678 116 
L 2828 116 
Q 3088 116 3206 269 
Q 3284 369 3284 750 
L 3284 2041 
L 1316 2041 
L 1316 750 
Q 1316 428 1356 325 
Q 1388 247 1488 191 
Q 1622 116 1772 116 
L 1925 116 
L 1925 0 
L 109 0 
L 109 116 
L 259 116 
Q 522 116 641 269 
Q 716 369 716 750 
L 716 3484 
Q 716 3809 675 3913 
Q 644 3991 547 4047 
Q 409 4122 259 4122 
L 109 4122 
L 109 4238 
L 1925 4238 
L 1925 4122 
L 1772 4122 
Q 1622 4122 1488 4050 
Q 1391 4000 1353 3898 
Q 1316 3797 1316 3484 
L 1316 2272 
z
" transform="scale(0.015625)"/>
       <path id="TimesNewRomanPSMT-4f" d="M 2341 4334 
Q 3166 4334 3770 3707 
Q 4375 3081 4375 2144 
Q 4375 1178 3765 540 
Q 3156 -97 2291 -97 
Q 1416 -97 820 525 
Q 225 1147 225 2134 
Q 225 3144 913 3781 
Q 1509 4334 2341 4334 
z
M 2281 4106 
Q 1713 4106 1369 3684 
Q 941 3159 941 2147 
Q 941 1109 1384 550 
Q 1725 125 2284 125 
Q 2881 125 3270 590 
Q 3659 1056 3659 2059 
Q 3659 3147 3231 3681 
Q 2888 4106 2281 4106 
z
" transform="scale(0.015625)"/>
      </defs>
      <use xlink:href="#TimesNewRomanPSMT-48" transform="translate(0 0.28125)"/>
      <use xlink:href="#STIXGeneral-Regular-32" transform="translate(73.760078 -12.946875) scale(0.7)"/>
      <use xlink:href="#TimesNewRomanPSMT-4f" transform="translate(113.169442 0.28125)"/>
     </g>
    </g>
    <g id="line2d_23">
     <path d="M 36.174531 65.802031 
L 39.674531 65.802031 
L 43.174531 65.802031 
" style="fill: none; stroke: #7e1e9c; stroke-width: 0.7; stroke-linecap: square"/>
    </g>
    <g id="text_20">
     <!-- LMR-R -->
     <g transform="translate(48.774531 68.252031) scale(0.07 -0.07)">
      <defs>
       <path id="TimesNewRomanPSMT-4c" d="M 3669 1172 
L 3772 1150 
L 3409 0 
L 128 0 
L 128 116 
L 288 116 
Q 556 116 672 291 
Q 738 391 738 753 
L 738 3488 
Q 738 3884 650 3984 
Q 528 4122 288 4122 
L 128 4122 
L 128 4238 
L 2047 4238 
L 2047 4122 
Q 1709 4125 1573 4059 
Q 1438 3994 1388 3894 
Q 1338 3794 1338 3416 
L 1338 753 
Q 1338 494 1388 397 
Q 1425 331 1503 300 
Q 1581 269 1991 269 
L 2300 269 
Q 2788 269 2984 341 
Q 3181 413 3343 595 
Q 3506 778 3669 1172 
z
" transform="scale(0.015625)"/>
       <path id="TimesNewRomanPSMT-4d" d="M 2619 0 
L 981 3566 
L 981 734 
Q 981 344 1066 247 
Q 1181 116 1431 116 
L 1581 116 
L 1581 0 
L 106 0 
L 106 116 
L 256 116 
Q 525 116 638 278 
Q 706 378 706 734 
L 706 3503 
Q 706 3784 644 3909 
Q 600 4000 483 4061 
Q 366 4122 106 4122 
L 106 4238 
L 1306 4238 
L 2844 922 
L 4356 4238 
L 5556 4238 
L 5556 4122 
L 5409 4122 
Q 5138 4122 5025 3959 
Q 4956 3859 4956 3503 
L 4956 734 
Q 4956 344 5044 247 
Q 5159 116 5409 116 
L 5556 116 
L 5556 0 
L 3756 0 
L 3756 116 
L 3906 116 
Q 4178 116 4288 278 
Q 4356 378 4356 734 
L 4356 3566 
L 2722 0 
L 2619 0 
z
" transform="scale(0.015625)"/>
       <path id="TimesNewRomanPSMT-52" d="M 4325 0 
L 3194 0 
L 1759 1981 
Q 1600 1975 1500 1975 
Q 1459 1975 1412 1976 
Q 1366 1978 1316 1981 
L 1316 750 
Q 1316 350 1403 253 
Q 1522 116 1759 116 
L 1925 116 
L 1925 0 
L 109 0 
L 109 116 
L 269 116 
Q 538 116 653 291 
Q 719 388 719 750 
L 719 3488 
Q 719 3888 631 3984 
Q 509 4122 269 4122 
L 109 4122 
L 109 4238 
L 1653 4238 
Q 2328 4238 2648 4139 
Q 2969 4041 3192 3777 
Q 3416 3513 3416 3147 
Q 3416 2756 3161 2468 
Q 2906 2181 2372 2063 
L 3247 847 
Q 3547 428 3762 290 
Q 3978 153 4325 116 
L 4325 0 
z
M 1316 2178 
Q 1375 2178 1419 2176 
Q 1463 2175 1491 2175 
Q 2097 2175 2405 2437 
Q 2713 2700 2713 3106 
Q 2713 3503 2464 3751 
Q 2216 4000 1806 4000 
Q 1625 4000 1316 3941 
L 1316 2178 
z
" transform="scale(0.015625)"/>
       <path id="TimesNewRomanPSMT-2d" d="M 259 1672 
L 1875 1672 
L 1875 1200 
L 259 1200 
L 259 1672 
z
" transform="scale(0.015625)"/>
      </defs>
      <use xlink:href="#TimesNewRomanPSMT-4c"/>
      <use xlink:href="#TimesNewRomanPSMT-4d" x="61.083984"/>
      <use xlink:href="#TimesNewRomanPSMT-52" x="150"/>
      <use xlink:href="#TimesNewRomanPSMT-2d" x="216.699219"/>
      <use xlink:href="#TimesNewRomanPSMT-52" x="250"/>
     </g>
    </g>
    <g id="line2d_24">
     <defs>
      <path id="m30fc1be3c7" d="M 0 1.6 
C 0.424325 1.6 0.831328 1.431414 1.131371 1.131371 
C 1.431414 0.831328 1.6 0.424325 1.6 0 
C 1.6 -0.424325 1.431414 -0.831328 1.131371 -1.131371 
C 0.831328 -1.431414 0.424325 -1.6 0 -1.6 
C -0.424325 -1.6 -0.831328 -1.431414 -1.131371 -1.131371 
C -1.431414 -0.831328 -1.6 -0.424325 -1.6 0 
C -1.6 0.424325 -1.431414 0.831328 -1.131371 1.131371 
C -0.831328 1.431414 -0.424325 1.6 0 1.6 
z
" style="stroke: #000000; stroke-width: 0.5"/>
     </defs>
     <g>
      <use xlink:href="#m30fc1be3c7" x="39.674531" y="75.699375" style="fill-opacity: 0; stroke: #000000; stroke-width: 0.5"/>
     </g>
    </g>
    <g id="text_21">
     <!-- Sabia et al. -->
     <g transform="translate(48.774531 78.149375) scale(0.07 -0.07)">
      <defs>
       <path id="TimesNewRomanPSMT-53" d="M 2934 4334 
L 2934 2869 
L 2819 2869 
Q 2763 3291 2617 3541 
Q 2472 3791 2203 3937 
Q 1934 4084 1647 4084 
Q 1322 4084 1109 3886 
Q 897 3688 897 3434 
Q 897 3241 1031 3081 
Q 1225 2847 1953 2456 
Q 2547 2138 2764 1967 
Q 2981 1797 3098 1565 
Q 3216 1334 3216 1081 
Q 3216 600 2842 251 
Q 2469 -97 1881 -97 
Q 1697 -97 1534 -69 
Q 1438 -53 1133 45 
Q 828 144 747 144 
Q 669 144 623 97 
Q 578 50 556 -97 
L 441 -97 
L 441 1356 
L 556 1356 
Q 638 900 775 673 
Q 913 447 1195 297 
Q 1478 147 1816 147 
Q 2206 147 2432 353 
Q 2659 559 2659 841 
Q 2659 997 2573 1156 
Q 2488 1316 2306 1453 
Q 2184 1547 1640 1851 
Q 1097 2156 867 2337 
Q 638 2519 519 2737 
Q 400 2956 400 3219 
Q 400 3675 750 4004 
Q 1100 4334 1641 4334 
Q 1978 4334 2356 4169 
Q 2531 4091 2603 4091 
Q 2684 4091 2736 4139 
Q 2788 4188 2819 4334 
L 2934 4334 
z
" transform="scale(0.015625)"/>
       <path id="TimesNewRomanPSMT-62" d="M 984 2369 
Q 1400 2947 1881 2947 
Q 2322 2947 2650 2570 
Q 2978 2194 2978 1541 
Q 2978 778 2472 313 
Q 2038 -88 1503 -88 
Q 1253 -88 995 3 
Q 738 94 469 275 
L 469 3241 
Q 469 3728 445 3840 
Q 422 3953 372 3993 
Q 322 4034 247 4034 
Q 159 4034 28 3984 
L -16 4094 
L 844 4444 
L 984 4444 
L 984 2369 
z
M 984 2169 
L 984 456 
Q 1144 300 1314 220 
Q 1484 141 1663 141 
Q 1947 141 2192 453 
Q 2438 766 2438 1363 
Q 2438 1913 2192 2208 
Q 1947 2503 1634 2503 
Q 1469 2503 1303 2419 
Q 1178 2356 984 2169 
z
" transform="scale(0.015625)"/>
       <path id="TimesNewRomanPSMT-69" d="M 928 4444 
Q 1059 4444 1151 4351 
Q 1244 4259 1244 4128 
Q 1244 3997 1151 3903 
Q 1059 3809 928 3809 
Q 797 3809 703 3903 
Q 609 3997 609 4128 
Q 609 4259 701 4351 
Q 794 4444 928 4444 
z
M 1188 2947 
L 1188 647 
Q 1188 378 1227 289 
Q 1266 200 1342 156 
Q 1419 113 1622 113 
L 1622 0 
L 231 0 
L 231 113 
Q 441 113 512 153 
Q 584 194 626 287 
Q 669 381 669 647 
L 669 1750 
Q 669 2216 641 2353 
Q 619 2453 572 2492 
Q 525 2531 444 2531 
Q 356 2531 231 2484 
L 188 2597 
L 1050 2947 
L 1188 2947 
z
" transform="scale(0.015625)"/>
       <path id="TimesNewRomanPSMT-2e" d="M 800 606 
Q 947 606 1047 504 
Q 1147 403 1147 259 
Q 1147 116 1045 14 
Q 944 -88 800 -88 
Q 656 -88 554 14 
Q 453 116 453 259 
Q 453 406 554 506 
Q 656 606 800 606 
z
" transform="scale(0.015625)"/>
      </defs>
      <use xlink:href="#TimesNewRomanPSMT-53"/>
      <use xlink:href="#TimesNewRomanPSMT-61" x="55.615234"/>
      <use xlink:href="#TimesNewRomanPSMT-62" x="100"/>
      <use xlink:href="#TimesNewRomanPSMT-69" x="150"/>
      <use xlink:href="#TimesNewRomanPSMT-61" x="177.783203"/>
      <use xlink:href="#TimesNewRomanPSMT-20" x="222.167969"/>
      <use xlink:href="#TimesNewRomanPSMT-65" x="247.167969"/>
      <use xlink:href="#TimesNewRomanPSMT-74" x="291.552734"/>
      <use xlink:href="#TimesNewRomanPSMT-20" x="319.335938"/>
      <use xlink:href="#TimesNewRomanPSMT-61" x="344.335938"/>
      <use xlink:href="#TimesNewRomanPSMT-6c" x="388.720703"/>
      <use xlink:href="#TimesNewRomanPSMT-2e" x="416.503906"/>
     </g>
    </g>
   </g>
   <g id="line2d_25">
    <path d="M 37.35729 91.869881 
L 39.266157 91.867699 
L 41.175024 91.864158 
L 43.083891 91.858507 
L 44.992758 91.849594 
L 46.901625 91.83557 
L 48.810492 91.813128 
L 50.719359 91.775133 
L 52.628226 91.702595 
L 54.537093 91.565385 
L 56.44596 91.394912 
L 58.354827 91.214139 
L 60.263694 91.016959 
L 62.172561 90.796396 
L 64.081428 90.545975 
L 65.990295 90.258814 
L 67.899162 89.926955 
L 69.808029 89.540819 
L 71.716896 89.088669 
L 73.625763 88.556062 
L 75.53463 87.925307 
L 77.443497 87.175085 
L 79.352364 86.280502 
L 81.261231 85.214109 
L 83.170098 83.948638 
L 85.078965 82.462126 
L 86.987832 80.745131 
L 88.896699 78.807786 
L 90.805566 76.68253 
L 92.714433 74.419444 
L 94.6233 72.075573 
L 96.532167 69.703538 
L 98.441034 67.344158 
L 100.349901 65.024259 
L 102.258768 62.7581 
L 104.167635 60.550328 
L 106.076502 58.399038 
L 107.985369 56.298302 
L 109.894236 54.240013 
L 111.803103 52.215336 
L 113.71197 50.215591 
L 115.620837 48.232866 
L 117.529704 46.260393 
L 119.438571 44.292876 
L 121.347438 42.326718 
L 123.256305 40.360176 
L 125.165172 38.393464 
L 127.074039 36.428814 
L 128.982906 34.470473 
L 130.891773 32.524627 
" clip-path="url(#pf4b8cb9d85)" style="fill: none; stroke: #929591; stroke-width: 0.7; stroke-linecap: square"/>
   </g>
   <g id="line2d_26">
    <path d="M 37.35729 91.87186 
L 39.266157 91.871019 
L 41.175024 91.86963 
L 43.083891 91.867399 
L 44.992758 91.863898 
L 46.901625 91.858512 
L 48.810492 91.85039 
L 50.719359 91.838357 
L 52.628226 91.820745 
L 54.537093 91.79501 
L 56.44596 91.75665 
L 58.354827 91.695736 
L 60.263694 91.584505 
L 62.172561 91.389937 
L 64.081428 91.179533 
L 65.990295 90.971036 
L 67.899162 90.753158 
L 69.808029 90.518848 
L 71.716896 90.263432 
L 73.625763 89.983185 
L 75.53463 89.674725 
L 77.443497 89.334712 
L 79.352364 88.959673 
L 81.261231 88.54589 
L 83.170098 88.089303 
L 85.078965 87.58545 
L 86.987832 87.029413 
L 88.896699 86.415784 
L 90.805566 85.738657 
L 92.714433 84.991648 
L 94.6233 84.167946 
L 96.532167 83.260424 
L 98.441034 82.261807 
L 100.349901 81.164931 
L 102.258768 79.963096 
L 104.167635 78.650545 
L 106.076502 77.223066 
L 107.985369 75.678695 
L 109.894236 74.018472 
L 111.803103 72.247067 
L 113.71197 70.373317 
L 115.620837 68.410223 
L 117.529704 66.374244 
L 119.438571 64.284039 
L 121.347438 62.158735 
L 123.256305 60.016105 
L 125.165172 57.871115 
L 127.074039 55.735143 
L 128.982906 53.615932 
L 130.891773 51.518127 
" clip-path="url(#pf4b8cb9d85)" style="fill: none; stroke: #7e1e9c; stroke-width: 0.7; stroke-linecap: square"/>
   </g>
   <g id="line2d_27">
    <g clip-path="url(#pf4b8cb9d85)">
     <use xlink:href="#m30fc1be3c7" x="53.073258" y="91.745958" style="fill-opacity: 0; stroke: #000000; stroke-width: 0.5"/>
     <use xlink:href="#m30fc1be3c7" x="57.967504" y="91.745958" style="fill-opacity: 0; stroke: #000000; stroke-width: 0.5"/>
     <use xlink:href="#m30fc1be3c7" x="63.677458" y="91.745958" style="fill-opacity: 0; stroke: #000000; stroke-width: 0.5"/>
     <use xlink:href="#m30fc1be3c7" x="68.897988" y="91.619212" style="fill-opacity: 0; stroke: #000000; stroke-width: 0.5"/>
     <use xlink:href="#m30fc1be3c7" x="76.076215" y="90.351753" style="fill-opacity: 0; stroke: #000000; stroke-width: 0.5"/>
     <use xlink:href="#m30fc1be3c7" x="84.070151" y="88.323818" style="fill-opacity: 0; stroke: #000000; stroke-width: 0.5"/>
     <use xlink:href="#m30fc1be3c7" x="91.574662" y="85.281915" style="fill-opacity: 0; stroke: #000000; stroke-width: 0.5"/>
     <use xlink:href="#m30fc1be3c7" x="99.079172" y="81.606283" style="fill-opacity: 0; stroke: #000000; stroke-width: 0.5"/>
     <use xlink:href="#m30fc1be3c7" x="110.335939" y="74.888748" style="fill-opacity: 0; stroke: #000000; stroke-width: 0.5"/>
     <use xlink:href="#m30fc1be3c7" x="118.656157" y="70.325894" style="fill-opacity: 0; stroke: #000000; stroke-width: 0.5"/>
    </g>
   </g>
  </g>
  <g id="axes_2">
   <g id="patch_7">
    <path d="M 170.924531 95.904 
L 279.424531 95.904 
L 279.424531 7.2 
L 170.924531 7.2 
z
" style="fill: #ffffff"/>
   </g>
   <g id="line2d_28">
    <path d="M 178.40729 13.093484 
L 180.316157 13.094835 
L 182.225024 13.096874 
L 184.133891 13.099894 
L 186.042758 13.104305 
L 187.951625 13.110654 
L 189.860492 13.119669 
L 191.769359 13.132314 
L 193.678226 13.149918 
L 195.587093 13.174489 
L 197.49596 13.209554 
L 199.404827 13.262767 
L 201.313694 13.355347 
L 203.222561 13.523143 
L 205.131428 13.708246 
L 207.040295 13.884488 
L 208.949162 14.064484 
L 210.858029 14.255686 
L 212.766896 14.462659 
L 214.675763 14.688853 
L 216.58463 14.93729 
L 218.493497 15.210892 
L 220.402364 15.512656 
L 222.311231 15.845771 
L 224.220098 16.213714 
L 226.128965 16.620327 
L 228.037832 17.069884 
L 229.946699 17.567151 
L 231.855566 18.117431 
L 233.764433 18.726601 
L 235.6733 19.401129 
L 237.582167 20.14806 
L 239.491034 20.974977 
L 241.399901 21.889904 
L 243.308768 22.901141 
L 245.217635 24.017012 
L 247.126502 25.245491 
L 249.035369 26.593688 
L 250.944236 28.067188 
L 252.853103 29.669282 
L 254.76197 31.400133 
L 256.670837 33.256114 
L 258.579704 35.229537 
L 260.488571 37.309021 
L 262.397438 39.480626 
L 264.306305 41.729578 
L 266.215172 44.042138 
L 268.124039 46.407052 
L 270.032906 48.816226 
L 271.941773 51.264538 
" clip-path="url(#p13bc2a39db)" style="fill: none; stroke: #ffa500; stroke-width: 0.7; stroke-linecap: square"/>
   </g>
   <g id="matplotlib.axis_3">
    <g id="xtick_7">
     <g id="line2d_29">
      <g>
       <use xlink:href="#m8c92cd053a" x="178.40729" y="95.904" style="stroke: #000000; stroke-width: 0.5"/>
      </g>
     </g>
     <g id="text_22">
      <!-- 800 -->
      <g transform="translate(173.15729 104.264625) scale(0.07 -0.07)">
       <use xlink:href="#TimesNewRomanPSMT-38"/>
       <use xlink:href="#TimesNewRomanPSMT-30" x="50"/>
       <use xlink:href="#TimesNewRomanPSMT-30" x="100"/>
      </g>
     </g>
    </g>
    <g id="xtick_8">
     <g id="line2d_30">
      <g>
       <use xlink:href="#m8c92cd053a" x="197.114186" y="95.904" style="stroke: #000000; stroke-width: 0.5"/>
      </g>
     </g>
     <g id="text_23">
      <!-- 850 -->
      <g transform="translate(191.864186 104.264625) scale(0.07 -0.07)">
       <use xlink:href="#TimesNewRomanPSMT-38"/>
       <use xlink:href="#TimesNewRomanPSMT-35" x="50"/>
       <use xlink:href="#TimesNewRomanPSMT-30" x="100"/>
      </g>
     </g>
    </g>
    <g id="xtick_9">
     <g id="line2d_31">
      <g>
       <use xlink:href="#m8c92cd053a" x="215.821083" y="95.904" style="stroke: #000000; stroke-width: 0.5"/>
      </g>
     </g>
     <g id="text_24">
      <!-- 900 -->
      <g transform="translate(210.571083 104.264625) scale(0.07 -0.07)">
       <use xlink:href="#TimesNewRomanPSMT-39"/>
       <use xlink:href="#TimesNewRomanPSMT-30" x="50"/>
       <use xlink:href="#TimesNewRomanPSMT-30" x="100"/>
      </g>
     </g>
    </g>
    <g id="xtick_10">
     <g id="line2d_32">
      <g>
       <use xlink:href="#m8c92cd053a" x="234.52798" y="95.904" style="stroke: #000000; stroke-width: 0.5"/>
      </g>
     </g>
     <g id="text_25">
      <!-- 950 -->
      <g transform="translate(229.27798 104.264625) scale(0.07 -0.07)">
       <use xlink:href="#TimesNewRomanPSMT-39"/>
       <use xlink:href="#TimesNewRomanPSMT-35" x="50"/>
       <use xlink:href="#TimesNewRomanPSMT-30" x="100"/>
      </g>
     </g>
    </g>
    <g id="xtick_11">
     <g id="line2d_33">
      <g>
       <use xlink:href="#m8c92cd053a" x="253.234876" y="95.904" style="stroke: #000000; stroke-width: 0.5"/>
      </g>
     </g>
     <g id="text_26">
      <!-- 1000 -->
      <g transform="translate(246.234876 104.264625) scale(0.07 -0.07)">
       <use xlink:href="#TimesNewRomanPSMT-31"/>
       <use xlink:href="#TimesNewRomanPSMT-30" x="50"/>
       <use xlink:href="#TimesNewRomanPSMT-30" x="100"/>
       <use xlink:href="#TimesNewRomanPSMT-30" x="150"/>
      </g>
     </g>
    </g>
    <g id="xtick_12">
     <g id="line2d_34">
      <g>
       <use xlink:href="#m8c92cd053a" x="271.941773" y="95.904" style="stroke: #000000; stroke-width: 0.5"/>
      </g>
     </g>
     <g id="text_27">
      <!-- 1050 -->
      <g transform="translate(264.941773 104.264625) scale(0.07 -0.07)">
       <use xlink:href="#TimesNewRomanPSMT-31"/>
       <use xlink:href="#TimesNewRomanPSMT-30" x="50"/>
       <use xlink:href="#TimesNewRomanPSMT-35" x="100"/>
       <use xlink:href="#TimesNewRomanPSMT-30" x="150"/>
      </g>
     </g>
    </g>
    <g id="text_28">
     <!-- Temperature [K] -->
     <g transform="translate(195.132109 116.011344) scale(0.09 -0.09)">
      <defs>
       <path id="TimesNewRomanPSMT-6d" d="M 1050 2338 
Q 1363 2650 1419 2697 
Q 1559 2816 1721 2881 
Q 1884 2947 2044 2947 
Q 2313 2947 2506 2790 
Q 2700 2634 2766 2338 
Q 3088 2713 3309 2830 
Q 3531 2947 3766 2947 
Q 3994 2947 4170 2830 
Q 4347 2713 4450 2447 
Q 4519 2266 4519 1878 
L 4519 647 
Q 4519 378 4559 278 
Q 4591 209 4675 161 
Q 4759 113 4950 113 
L 4950 0 
L 3538 0 
L 3538 113 
L 3597 113 
Q 3781 113 3884 184 
Q 3956 234 3988 344 
Q 4000 397 4000 647 
L 4000 1878 
Q 4000 2228 3916 2372 
Q 3794 2572 3525 2572 
Q 3359 2572 3192 2489 
Q 3025 2406 2788 2181 
L 2781 2147 
L 2788 2013 
L 2788 647 
Q 2788 353 2820 281 
Q 2853 209 2943 161 
Q 3034 113 3253 113 
L 3253 0 
L 1806 0 
L 1806 113 
Q 2044 113 2133 169 
Q 2222 225 2256 338 
Q 2272 391 2272 647 
L 2272 1878 
Q 2272 2228 2169 2381 
Q 2031 2581 1784 2581 
Q 1616 2581 1450 2491 
Q 1191 2353 1050 2181 
L 1050 647 
Q 1050 366 1089 281 
Q 1128 197 1204 155 
Q 1281 113 1516 113 
L 1516 0 
L 100 0 
L 100 113 
Q 297 113 375 155 
Q 453 197 493 289 
Q 534 381 534 647 
L 534 1741 
Q 534 2213 506 2350 
Q 484 2453 437 2492 
Q 391 2531 309 2531 
Q 222 2531 100 2484 
L 53 2597 
L 916 2947 
L 1050 2947 
L 1050 2338 
z
" transform="scale(0.015625)"/>
       <path id="TimesNewRomanPSMT-70" d="M -6 2578 
L 875 2934 
L 994 2934 
L 994 2266 
Q 1216 2644 1439 2795 
Q 1663 2947 1909 2947 
Q 2341 2947 2628 2609 
Q 2981 2197 2981 1534 
Q 2981 794 2556 309 
Q 2206 -88 1675 -88 
Q 1444 -88 1275 -22 
Q 1150 25 994 166 
L 994 -706 
Q 994 -1000 1030 -1079 
Q 1066 -1159 1155 -1206 
Q 1244 -1253 1478 -1253 
L 1478 -1369 
L -22 -1369 
L -22 -1253 
L 56 -1253 
Q 228 -1256 350 -1188 
Q 409 -1153 442 -1076 
Q 475 -1000 475 -688 
L 475 2019 
Q 475 2297 450 2372 
Q 425 2447 370 2484 
Q 316 2522 222 2522 
Q 147 2522 31 2478 
L -6 2578 
z
M 994 2081 
L 994 1013 
Q 994 666 1022 556 
Q 1066 375 1236 237 
Q 1406 100 1666 100 
Q 1978 100 2172 344 
Q 2425 663 2425 1241 
Q 2425 1897 2138 2250 
Q 1938 2494 1663 2494 
Q 1513 2494 1366 2419 
Q 1253 2363 994 2081 
z
" transform="scale(0.015625)"/>
      </defs>
      <use xlink:href="#TimesNewRomanPSMT-54"/>
      <use xlink:href="#TimesNewRomanPSMT-65" x="54.083984"/>
      <use xlink:href="#TimesNewRomanPSMT-6d" x="98.46875"/>
      <use xlink:href="#TimesNewRomanPSMT-70" x="176.251953"/>
      <use xlink:href="#TimesNewRomanPSMT-65" x="226.251953"/>
      <use xlink:href="#TimesNewRomanPSMT-72" x="270.636719"/>
      <use xlink:href="#TimesNewRomanPSMT-61" x="303.9375"/>
      <use xlink:href="#TimesNewRomanPSMT-74" x="348.322266"/>
      <use xlink:href="#TimesNewRomanPSMT-75" x="376.105469"/>
      <use xlink:href="#TimesNewRomanPSMT-72" x="426.105469"/>
      <use xlink:href="#TimesNewRomanPSMT-65" x="459.40625"/>
      <use xlink:href="#TimesNewRomanPSMT-20" x="503.791016"/>
      <use xlink:href="#TimesNewRomanPSMT-5b" x="528.791016"/>
      <use xlink:href="#TimesNewRomanPSMT-4b" x="562.091797"/>
      <use xlink:href="#TimesNewRomanPSMT-5d" x="634.308594"/>
     </g>
    </g>
   </g>
   <g id="matplotlib.axis_4">
    <g id="ytick_8">
     <g id="line2d_35">
      <g>
       <use xlink:href="#m569a3ff16d" x="170.924531" y="82.753702" style="stroke: #000000; stroke-width: 0.5"/>
      </g>
     </g>
     <g id="text_29">
      <!-- 1.0 -->
      <g transform="translate(158.674531 85.184015) scale(0.07 -0.07)">
       <use xlink:href="#TimesNewRomanPSMT-31"/>
       <use xlink:href="#TimesNewRomanPSMT-2e" x="50"/>
       <use xlink:href="#TimesNewRomanPSMT-30" x="75"/>
      </g>
     </g>
    </g>
    <g id="ytick_9">
     <g id="line2d_36">
      <g>
       <use xlink:href="#m569a3ff16d" x="170.924531" y="65.338252" style="stroke: #000000; stroke-width: 0.5"/>
      </g>
     </g>
     <g id="text_30">
      <!-- 1.5 -->
      <g transform="translate(158.674531 67.768565) scale(0.07 -0.07)">
       <use xlink:href="#TimesNewRomanPSMT-31"/>
       <use xlink:href="#TimesNewRomanPSMT-2e" x="50"/>
       <use xlink:href="#TimesNewRomanPSMT-35" x="75"/>
      </g>
     </g>
    </g>
    <g id="ytick_10">
     <g id="line2d_37">
      <g>
       <use xlink:href="#m569a3ff16d" x="170.924531" y="47.922802" style="stroke: #000000; stroke-width: 0.5"/>
      </g>
     </g>
     <g id="text_31">
      <!-- 2.0 -->
      <g transform="translate(158.674531 50.353115) scale(0.07 -0.07)">
       <use xlink:href="#TimesNewRomanPSMT-32"/>
       <use xlink:href="#TimesNewRomanPSMT-2e" x="50"/>
       <use xlink:href="#TimesNewRomanPSMT-30" x="75"/>
      </g>
     </g>
    </g>
    <g id="ytick_11">
     <g id="line2d_38">
      <g>
       <use xlink:href="#m569a3ff16d" x="170.924531" y="30.507352" style="stroke: #000000; stroke-width: 0.5"/>
      </g>
     </g>
     <g id="text_32">
      <!-- 2.5 -->
      <g transform="translate(158.674531 32.937665) scale(0.07 -0.07)">
       <use xlink:href="#TimesNewRomanPSMT-32"/>
       <use xlink:href="#TimesNewRomanPSMT-2e" x="50"/>
       <use xlink:href="#TimesNewRomanPSMT-35" x="75"/>
      </g>
     </g>
    </g>
    <g id="ytick_12">
     <g id="line2d_39">
      <g>
       <use xlink:href="#m569a3ff16d" x="170.924531" y="13.091902" style="stroke: #000000; stroke-width: 0.5"/>
      </g>
     </g>
     <g id="text_33">
      <!-- 3.0 -->
      <g transform="translate(158.674531 15.522215) scale(0.07 -0.07)">
       <use xlink:href="#TimesNewRomanPSMT-33"/>
       <use xlink:href="#TimesNewRomanPSMT-2e" x="50"/>
       <use xlink:href="#TimesNewRomanPSMT-30" x="75"/>
      </g>
     </g>
    </g>
    <g id="text_34">
     <!-- O$_2$ mole fraction [%] -->
     <g transform="translate(152.749375 89.757) rotate(-90) scale(0.09 -0.09)">
      <defs>
       <path id="TimesNewRomanPSMT-6f" d="M 1600 2947 
Q 2250 2947 2644 2453 
Q 2978 2031 2978 1484 
Q 2978 1100 2793 706 
Q 2609 313 2286 112 
Q 1963 -88 1566 -88 
Q 919 -88 538 428 
Q 216 863 216 1403 
Q 216 1797 411 2186 
Q 606 2575 925 2761 
Q 1244 2947 1600 2947 
z
M 1503 2744 
Q 1338 2744 1170 2645 
Q 1003 2547 900 2300 
Q 797 2053 797 1666 
Q 797 1041 1045 587 
Q 1294 134 1700 134 
Q 2003 134 2200 384 
Q 2397 634 2397 1244 
Q 2397 2006 2069 2444 
Q 1847 2744 1503 2744 
z
" transform="scale(0.015625)"/>
       <path id="TimesNewRomanPSMT-66" d="M 1319 2638 
L 1319 756 
Q 1319 356 1406 250 
Q 1522 113 1716 113 
L 1975 113 
L 1975 0 
L 266 0 
L 266 113 
L 394 113 
Q 519 113 622 175 
Q 725 238 764 344 
Q 803 450 803 756 
L 803 2638 
L 247 2638 
L 247 2863 
L 803 2863 
L 803 3050 
Q 803 3478 940 3775 
Q 1078 4072 1361 4255 
Q 1644 4438 1997 4438 
Q 2325 4438 2600 4225 
Q 2781 4084 2781 3909 
Q 2781 3816 2700 3733 
Q 2619 3650 2525 3650 
Q 2453 3650 2373 3701 
Q 2294 3753 2178 3923 
Q 2063 4094 1966 4153 
Q 1869 4213 1750 4213 
Q 1606 4213 1506 4136 
Q 1406 4059 1362 3898 
Q 1319 3738 1319 3069 
L 1319 2863 
L 2056 2863 
L 2056 2638 
L 1319 2638 
z
" transform="scale(0.015625)"/>
       <path id="TimesNewRomanPSMT-63" d="M 2631 1088 
Q 2516 522 2178 217 
Q 1841 -88 1431 -88 
Q 944 -88 581 321 
Q 219 731 219 1428 
Q 219 2103 620 2525 
Q 1022 2947 1584 2947 
Q 2006 2947 2278 2723 
Q 2550 2500 2550 2259 
Q 2550 2141 2473 2067 
Q 2397 1994 2259 1994 
Q 2075 1994 1981 2113 
Q 1928 2178 1911 2362 
Q 1894 2547 1784 2644 
Q 1675 2738 1481 2738 
Q 1169 2738 978 2506 
Q 725 2200 725 1697 
Q 725 1184 976 792 
Q 1228 400 1656 400 
Q 1963 400 2206 609 
Q 2378 753 2541 1131 
L 2631 1088 
z
" transform="scale(0.015625)"/>
       <path id="TimesNewRomanPSMT-6e" d="M 1034 2341 
Q 1538 2947 1994 2947 
Q 2228 2947 2397 2830 
Q 2566 2713 2666 2444 
Q 2734 2256 2734 1869 
L 2734 647 
Q 2734 375 2778 278 
Q 2813 200 2889 156 
Q 2966 113 3172 113 
L 3172 0 
L 1756 0 
L 1756 113 
L 1816 113 
Q 2016 113 2095 173 
Q 2175 234 2206 353 
Q 2219 400 2219 647 
L 2219 1819 
Q 2219 2209 2117 2386 
Q 2016 2563 1775 2563 
Q 1403 2563 1034 2156 
L 1034 647 
Q 1034 356 1069 288 
Q 1113 197 1189 155 
Q 1266 113 1500 113 
L 1500 0 
L 84 0 
L 84 113 
L 147 113 
Q 366 113 442 223 
Q 519 334 519 647 
L 519 1709 
Q 519 2225 495 2337 
Q 472 2450 423 2490 
Q 375 2531 294 2531 
Q 206 2531 84 2484 
L 38 2597 
L 900 2947 
L 1034 2947 
L 1034 2341 
z
" transform="scale(0.015625)"/>
       <path id="TimesNewRomanPSMT-25" d="M 4350 4334 
L 1263 -175 
L 984 -175 
L 4072 4334 
L 4350 4334 
z
M 1138 4334 
Q 1559 4334 1792 3984 
Q 2025 3634 2025 3181 
Q 2025 2638 1762 2341 
Q 1500 2044 1131 2044 
Q 884 2044 678 2180 
Q 472 2316 348 2584 
Q 225 2853 225 3181 
Q 225 3509 350 3786 
Q 475 4063 692 4198 
Q 909 4334 1138 4334 
z
M 1128 4159 
Q 969 4159 845 3971 
Q 722 3784 722 3184 
Q 722 2750 791 2522 
Q 844 2350 956 2256 
Q 1022 2200 1119 2200 
Q 1269 2200 1375 2363 
Q 1531 2603 1531 3166 
Q 1531 3759 1378 4000 
Q 1278 4159 1128 4159 
z
M 4206 2103 
Q 4428 2103 4648 1962 
Q 4869 1822 4989 1553 
Q 5109 1284 5109 963 
Q 5109 409 4843 117 
Q 4578 -175 4216 -175 
Q 3988 -175 3773 -34 
Q 3559 106 3436 367 
Q 3313 628 3313 963 
Q 3313 1291 3436 1562 
Q 3559 1834 3773 1968 
Q 3988 2103 4206 2103 
z
M 4209 1938 
Q 4059 1938 3950 1769 
Q 3809 1550 3809 941 
Q 3809 381 3953 159 
Q 4059 0 4209 0 
Q 4353 0 4466 172 
Q 4616 400 4616 956 
Q 4616 1544 4466 1778 
Q 4363 1938 4209 1938 
z
" transform="scale(0.015625)"/>
      </defs>
      <use xlink:href="#TimesNewRomanPSMT-4f" transform="translate(0 0.5625)"/>
      <use xlink:href="#STIXGeneral-Regular-32" transform="translate(73.760078 -12.665625) scale(0.7)"/>
      <use xlink:href="#TimesNewRomanPSMT-20" transform="translate(113.169442 0.5625)"/>
      <use xlink:href="#TimesNewRomanPSMT-6d" transform="translate(138.169442 0.5625)"/>
      <use xlink:href="#TimesNewRomanPSMT-6f" transform="translate(215.952646 0.5625)"/>
      <use xlink:href="#TimesNewRomanPSMT-6c" transform="translate(265.952646 0.5625)"/>
      <use xlink:href="#TimesNewRomanPSMT-65" transform="translate(293.735849 0.5625)"/>
      <use xlink:href="#TimesNewRomanPSMT-20" transform="translate(338.120614 0.5625)"/>
      <use xlink:href="#TimesNewRomanPSMT-66" transform="translate(363.120614 0.5625)"/>
      <use xlink:href="#TimesNewRomanPSMT-72" transform="translate(396.421396 0.5625)"/>
      <use xlink:href="#TimesNewRomanPSMT-61" transform="translate(429.722177 0.5625)"/>
      <use xlink:href="#TimesNewRomanPSMT-63" transform="translate(474.106942 0.5625)"/>
      <use xlink:href="#TimesNewRomanPSMT-74" transform="translate(518.491708 0.5625)"/>
      <use xlink:href="#TimesNewRomanPSMT-69" transform="translate(546.274911 0.5625)"/>
      <use xlink:href="#TimesNewRomanPSMT-6f" transform="translate(574.058114 0.5625)"/>
      <use xlink:href="#TimesNewRomanPSMT-6e" transform="translate(624.058114 0.5625)"/>
      <use xlink:href="#TimesNewRomanPSMT-20" transform="translate(674.058114 0.5625)"/>
      <use xlink:href="#TimesNewRomanPSMT-5b" transform="translate(699.058114 0.5625)"/>
      <use xlink:href="#TimesNewRomanPSMT-25" transform="translate(732.358896 0.5625)"/>
      <use xlink:href="#TimesNewRomanPSMT-5d" transform="translate(815.659677 0.5625)"/>
     </g>
    </g>
   </g>
   <g id="line2d_40">
    <path d="M 178.40729 13.093251 
L 180.316157 13.094477 
L 182.225024 13.096335 
L 184.133891 13.099091 
L 186.042758 13.103114 
L 187.951625 13.108904 
L 189.860492 13.117117 
L 191.769359 13.12861 
L 193.678226 13.144523 
L 195.587093 13.166472 
L 197.49596 13.197048 
L 199.404827 13.241228 
L 201.313694 13.311338 
L 203.222561 13.445849 
L 205.131428 13.652939 
L 207.040295 13.843514 
L 208.949162 14.027159 
L 210.858029 14.216731 
L 212.766896 14.418607 
L 214.675763 14.636834 
L 216.58463 14.874544 
L 218.493497 15.134488 
L 220.402364 15.419279 
L 222.311231 15.731525 
L 224.220098 16.073921 
L 226.128965 16.449313 
L 228.037832 16.860759 
L 229.946699 17.311575 
L 231.855566 17.805375 
L 233.764433 18.346107 
L 235.6733 18.938071 
L 237.582167 19.585927 
L 239.491034 20.294698 
L 241.399901 21.069738 
L 243.308768 21.916698 
L 245.217635 22.841457 
L 247.126502 23.850021 
L 249.035369 24.948394 
L 250.944236 26.14239 
L 252.853103 27.437399 
L 254.76197 28.838093 
L 256.670837 30.348048 
L 258.579704 31.969355 
L 260.488571 33.702212 
L 262.397438 35.544591 
L 264.306305 37.492096 
L 266.215172 39.538123 
L 268.124039 41.67438 
L 270.032906 43.891741 
L 271.941773 46.181205 
" clip-path="url(#p13bc2a39db)" style="fill: none; stroke: #029386; stroke-width: 0.7; stroke-linecap: square"/>
   </g>
   <g id="patch_8">
    <path d="M 170.924531 95.904 
L 170.924531 7.2 
" style="fill: none; stroke: #000000; stroke-width: 0.8; stroke-linejoin: miter; stroke-linecap: square"/>
   </g>
   <g id="patch_9">
    <path d="M 279.424531 95.904 
L 279.424531 7.2 
" style="fill: none; stroke: #000000; stroke-width: 0.8; stroke-linejoin: miter; stroke-linecap: square"/>
   </g>
   <g id="patch_10">
    <path d="M 170.924531 95.904 
L 279.424531 95.904 
" style="fill: none; stroke: #000000; stroke-width: 0.8; stroke-linejoin: miter; stroke-linecap: square"/>
   </g>
   <g id="patch_11">
    <path d="M 170.924531 7.2 
L 279.424531 7.2 
" style="fill: none; stroke: #000000; stroke-width: 0.8; stroke-linejoin: miter; stroke-linecap: square"/>
   </g>
   <g id="line2d_41">
    <path d="M 178.40729 13.097555 
L 180.316157 13.101036 
L 182.225024 13.10629 
L 184.133891 13.114188 
L 186.042758 13.126118 
L 187.951625 13.144591 
L 189.860492 13.175208 
L 191.769359 13.233942 
L 193.678226 13.345902 
L 195.587093 13.479758 
L 197.49596 13.620752 
L 199.404827 13.77625 
L 201.313694 13.953385 
L 203.222561 14.159387 
L 205.131428 14.402829 
L 207.040295 14.694806 
L 208.949162 15.050428 
L 210.858029 15.491098 
L 212.766896 16.048305 
L 214.675763 16.77028 
L 216.58463 17.734171 
L 218.493497 19.068421 
L 220.402364 20.989231 
L 222.311231 23.82 
L 224.220098 27.792687 
L 226.128965 32.498037 
L 228.037832 37.117902 
L 229.946699 41.283321 
L 231.855566 45.006878 
L 233.764433 48.389201 
L 235.6733 51.520456 
L 237.582167 54.466217 
L 239.491034 57.271314 
L 241.399901 59.965345 
L 243.308768 62.56702 
L 245.217635 65.087292 
L 247.126502 67.531639 
L 249.035369 69.901709 
L 250.944236 72.196642 
L 252.853103 74.414086 
L 254.76197 76.551011 
L 256.670837 78.60433 
L 258.579704 80.571367 
L 260.488571 82.450157 
L 262.397438 84.239614 
L 264.306305 85.939598 
L 266.215172 87.550884 
L 268.124039 89.075076 
L 270.032906 90.514488 
L 271.941773 91.872 
" clip-path="url(#p13bc2a39db)" style="fill: none; stroke: #ff0000; stroke-width: 0.7; stroke-linecap: square"/>
   </g>
   <g id="line2d_42">
    <path d="M 178.40729 13.104907 
L 180.316157 13.111394 
L 182.225024 13.120263 
L 184.133891 13.132116 
L 186.042758 13.147678 
L 187.951625 13.167896 
L 189.860492 13.194166 
L 191.769359 13.228857 
L 193.678226 13.276888 
L 195.587093 13.352883 
L 197.49596 13.995575 
L 199.404827 14.291652 
L 201.313694 14.530333 
L 203.222561 14.759565 
L 205.131428 14.989719 
L 207.040295 15.225212 
L 208.949162 15.468567 
L 210.858029 15.721525 
L 212.766896 15.985464 
L 214.675763 16.261578 
L 216.58463 16.55097 
L 218.493497 16.854696 
L 220.402364 17.173789 
L 222.311231 17.509274 
L 224.220098 17.862175 
L 226.128965 18.23351 
L 228.037832 18.624291 
L 229.946699 19.035519 
L 231.855566 19.468173 
L 233.764433 19.923199 
L 235.6733 20.401496 
L 237.582167 20.903896 
L 239.491034 21.431151 
L 241.399901 21.983903 
L 243.308768 22.562663 
L 245.217635 23.167786 
L 247.126502 23.799443 
L 249.035369 24.457593 
L 250.944236 25.141961 
L 252.853103 25.85202 
L 254.76197 26.586978 
L 256.670837 27.34577 
L 258.579704 28.127075 
L 260.488571 28.929336 
L 262.397438 29.750799 
L 264.306305 30.589561 
L 266.215172 31.443634 
L 268.124039 32.311012 
L 270.032906 33.189745 
L 271.941773 34.078008 
" clip-path="url(#p13bc2a39db)" style="fill: none; stroke: #0000ff; stroke-width: 0.7; stroke-linecap: square"/>
   </g>
   <g id="line2d_43">
    <path d="M 178.40729 13.096308 
L 180.316157 13.099145 
L 182.225024 13.103413 
L 184.133891 13.109773 
L 186.042758 13.119194 
L 187.951625 13.133187 
L 189.860492 13.154421 
L 191.769359 13.188653 
L 193.678226 13.25109 
L 195.587093 13.364302 
L 197.49596 13.500646 
L 199.404827 13.642831 
L 201.313694 13.796662 
L 203.222561 13.96809 
L 205.131428 14.162493 
L 207.040295 14.385528 
L 208.949162 14.643707 
L 210.858029 14.944867 
L 212.766896 15.298627 
L 214.675763 15.716866 
L 216.58463 16.214211 
L 218.493497 16.808427 
L 220.402364 17.520493 
L 222.311231 18.373943 
L 224.220098 19.392859 
L 226.128965 20.597932 
L 228.037832 22.000698 
L 229.946699 23.597649 
L 231.855566 25.367483 
L 233.764433 27.274144 
L 235.6733 29.274853 
L 237.582167 31.3291 
L 239.491034 33.404777 
L 241.399901 35.480333 
L 243.308768 37.543998 
L 245.217635 39.59169 
L 247.126502 41.62471 
L 249.035369 43.647776 
L 250.944236 45.667518 
L 252.853103 47.691348 
L 254.76197 49.72669 
L 256.670837 51.780414 
L 258.579704 53.858426 
L 260.488571 55.965343 
L 262.397438 58.104246 
L 264.306305 60.27647 
L 266.215172 62.481452 
L 268.124039 64.71661 
L 270.032906 66.977296 
L 271.941773 69.256801 
" clip-path="url(#p13bc2a39db)" style="fill: none; stroke: #929591; stroke-width: 0.7; stroke-linecap: square"/>
   </g>
   <g id="line2d_44">
    <path d="M 178.40729 13.093485 
L 180.316157 13.094826 
L 182.225024 13.096851 
L 184.133891 13.099851 
L 186.042758 13.104237 
L 187.951625 13.11056 
L 189.860492 13.119559 
L 191.769359 13.132224 
L 193.678226 13.149941 
L 195.587093 13.174849 
L 197.49596 13.210817 
L 199.404827 13.266534 
L 201.313694 13.366127 
L 203.222561 13.535438 
L 205.131428 13.713217 
L 207.040295 13.886407 
L 208.949162 14.065786 
L 210.858029 14.257771 
L 212.766896 14.46655 
L 214.675763 14.695445 
L 216.58463 14.947476 
L 218.493497 15.225635 
L 220.402364 15.533044 
L 222.311231 15.873064 
L 224.220098 16.249378 
L 226.128965 16.666055 
L 228.037832 17.127606 
L 229.946699 17.639024 
L 231.855566 18.205806 
L 233.764433 18.83396 
L 235.6733 19.529975 
L 237.582167 20.300763 
L 239.491034 21.153533 
L 241.399901 22.095614 
L 243.308768 23.134179 
L 245.217635 24.275867 
L 247.126502 25.526298 
L 249.035369 26.889476 
L 250.944236 28.367134 
L 252.853103 29.958108 
L 254.76197 31.657853 
L 256.670837 33.458321 
L 258.579704 35.34834 
L 260.488571 37.314537 
L 262.397438 39.342681 
L 264.306305 41.419157 
L 266.215172 43.532194 
L 268.124039 45.672581 
L 270.032906 47.833786 
L 271.941773 50.011573 
" clip-path="url(#p13bc2a39db)" style="fill: none; stroke: #7e1e9c; stroke-width: 0.7; stroke-linecap: square"/>
   </g>
   <g id="line2d_45">
    <g clip-path="url(#p13bc2a39db)">
     <use xlink:href="#m30fc1be3c7" x="194.31605" y="11.232" style="fill-opacity: 0; stroke: #000000; stroke-width: 0.5"/>
     <use xlink:href="#m30fc1be3c7" x="198.829173" y="11.344721" style="fill-opacity: 0; stroke: #000000; stroke-width: 0.5"/>
     <use xlink:href="#m30fc1be3c7" x="204.515709" y="11.795607" style="fill-opacity: 0; stroke: #000000; stroke-width: 0.5"/>
     <use xlink:href="#m30fc1be3c7" x="210.021719" y="12.246492" style="fill-opacity: 0; stroke: #000000; stroke-width: 0.5"/>
     <use xlink:href="#m30fc1be3c7" x="217.152454" y="12.584656" style="fill-opacity: 0; stroke: #000000; stroke-width: 0.5"/>
     <use xlink:href="#m30fc1be3c7" x="225.095552" y="14.275477" style="fill-opacity: 0; stroke: #000000; stroke-width: 0.5"/>
     <use xlink:href="#m30fc1be3c7" x="232.587336" y="15.740854" style="fill-opacity: 0; stroke: #000000; stroke-width: 0.5"/>
     <use xlink:href="#m30fc1be3c7" x="240.259646" y="20.249709" style="fill-opacity: 0; stroke: #000000; stroke-width: 0.5"/>
     <use xlink:href="#m30fc1be3c7" x="251.36193" y="27.125712" style="fill-opacity: 0; stroke: #000000; stroke-width: 0.5"/>
     <use xlink:href="#m30fc1be3c7" x="259.936864" y="38.848733" style="fill-opacity: 0; stroke: #000000; stroke-width: 0.5"/>
    </g>
   </g>
  </g>
  <g id="axes_3">
   <g id="patch_12">
    <path d="M 311.974531 95.904 
L 420.474531 95.904 
L 420.474531 7.2 
L 311.974531 7.2 
z
" style="fill: #ffffff"/>
   </g>
   <g id="line2d_46">
    <path d="M 319.45729 12.959926 
L 321.366157 12.96201 
L 323.275024 12.965309 
L 325.183891 12.970411 
L 327.092758 12.978152 
L 329.001625 12.989673 
L 330.910492 13.006493 
L 332.819359 13.030599 
L 334.728226 13.064627 
L 336.637093 13.11231 
L 338.54596 13.179754 
L 340.454827 13.279512 
L 342.363694 13.445923 
L 344.272561 13.74027 
L 346.181428 14.074898 
L 348.090295 14.405756 
L 349.999162 14.753066 
L 351.908029 15.12983 
L 353.816896 15.544683 
L 355.725763 16.004586 
L 357.63463 16.515912 
L 359.543497 17.084946 
L 361.452364 17.718171 
L 363.361231 18.422463 
L 365.270098 19.20524 
L 367.178965 20.074592 
L 369.087832 21.039374 
L 370.996699 22.109288 
L 372.905566 23.29491 
L 374.814433 24.607687 
L 376.7233 26.059851 
L 378.632167 27.664249 
L 380.541034 29.434048 
L 382.449901 31.382267 
L 384.358768 33.521093 
L 386.267635 35.860903 
L 388.176502 38.408954 
L 390.085369 41.167684 
L 391.994236 44.132656 
L 393.903103 47.290325 
L 395.81197 50.615876 
L 397.720837 54.071841 
L 399.629704 57.608212 
L 401.538571 61.164686 
L 403.447438 64.675222 
L 405.356305 68.074155 
L 407.265172 71.302359 
L 409.174039 74.311809 
L 411.082906 77.067591 
L 412.991773 79.547439 
" clip-path="url(#pd6f9a5b670)" style="fill: none; stroke: #ffa500; stroke-width: 0.7; stroke-linecap: square"/>
   </g>
   <g id="matplotlib.axis_5">
    <g id="xtick_13">
     <g id="line2d_47">
      <g>
       <use xlink:href="#m8c92cd053a" x="319.45729" y="95.904" style="stroke: #000000; stroke-width: 0.5"/>
      </g>
     </g>
     <g id="text_35">
      <!-- 800 -->
      <g transform="translate(314.20729 104.264625) scale(0.07 -0.07)">
       <use xlink:href="#TimesNewRomanPSMT-38"/>
       <use xlink:href="#TimesNewRomanPSMT-30" x="50"/>
       <use xlink:href="#TimesNewRomanPSMT-30" x="100"/>
      </g>
     </g>
    </g>
    <g id="xtick_14">
     <g id="line2d_48">
      <g>
       <use xlink:href="#m8c92cd053a" x="338.164186" y="95.904" style="stroke: #000000; stroke-width: 0.5"/>
      </g>
     </g>
     <g id="text_36">
      <!-- 850 -->
      <g transform="translate(332.914186 104.264625) scale(0.07 -0.07)">
       <use xlink:href="#TimesNewRomanPSMT-38"/>
       <use xlink:href="#TimesNewRomanPSMT-35" x="50"/>
       <use xlink:href="#TimesNewRomanPSMT-30" x="100"/>
      </g>
     </g>
    </g>
    <g id="xtick_15">
     <g id="line2d_49">
      <g>
       <use xlink:href="#m8c92cd053a" x="356.871083" y="95.904" style="stroke: #000000; stroke-width: 0.5"/>
      </g>
     </g>
     <g id="text_37">
      <!-- 900 -->
      <g transform="translate(351.621083 104.264625) scale(0.07 -0.07)">
       <use xlink:href="#TimesNewRomanPSMT-39"/>
       <use xlink:href="#TimesNewRomanPSMT-30" x="50"/>
       <use xlink:href="#TimesNewRomanPSMT-30" x="100"/>
      </g>
     </g>
    </g>
    <g id="xtick_16">
     <g id="line2d_50">
      <g>
       <use xlink:href="#m8c92cd053a" x="375.57798" y="95.904" style="stroke: #000000; stroke-width: 0.5"/>
      </g>
     </g>
     <g id="text_38">
      <!-- 950 -->
      <g transform="translate(370.32798 104.264625) scale(0.07 -0.07)">
       <use xlink:href="#TimesNewRomanPSMT-39"/>
       <use xlink:href="#TimesNewRomanPSMT-35" x="50"/>
       <use xlink:href="#TimesNewRomanPSMT-30" x="100"/>
      </g>
     </g>
    </g>
    <g id="xtick_17">
     <g id="line2d_51">
      <g>
       <use xlink:href="#m8c92cd053a" x="394.284876" y="95.904" style="stroke: #000000; stroke-width: 0.5"/>
      </g>
     </g>
     <g id="text_39">
      <!-- 1000 -->
      <g transform="translate(387.284876 104.264625) scale(0.07 -0.07)">
       <use xlink:href="#TimesNewRomanPSMT-31"/>
       <use xlink:href="#TimesNewRomanPSMT-30" x="50"/>
       <use xlink:href="#TimesNewRomanPSMT-30" x="100"/>
       <use xlink:href="#TimesNewRomanPSMT-30" x="150"/>
      </g>
     </g>
    </g>
    <g id="xtick_18">
     <g id="line2d_52">
      <g>
       <use xlink:href="#m8c92cd053a" x="412.991773" y="95.904" style="stroke: #000000; stroke-width: 0.5"/>
      </g>
     </g>
     <g id="text_40">
      <!-- 1050 -->
      <g transform="translate(405.991773 104.264625) scale(0.07 -0.07)">
       <use xlink:href="#TimesNewRomanPSMT-31"/>
       <use xlink:href="#TimesNewRomanPSMT-30" x="50"/>
       <use xlink:href="#TimesNewRomanPSMT-35" x="100"/>
       <use xlink:href="#TimesNewRomanPSMT-30" x="150"/>
      </g>
     </g>
    </g>
   </g>
   <g id="matplotlib.axis_6">
    <g id="ytick_13">
     <g id="line2d_53">
      <g>
       <use xlink:href="#m569a3ff16d" x="311.974531" y="81.098864" style="stroke: #000000; stroke-width: 0.5"/>
      </g>
     </g>
     <g id="text_41">
      <!-- 1.5 -->
      <g transform="translate(299.724531 83.529176) scale(0.07 -0.07)">
       <use xlink:href="#TimesNewRomanPSMT-31"/>
       <use xlink:href="#TimesNewRomanPSMT-2e" x="50"/>
       <use xlink:href="#TimesNewRomanPSMT-35" x="75"/>
      </g>
     </g>
    </g>
    <g id="ytick_14">
     <g id="line2d_54">
      <g>
       <use xlink:href="#m569a3ff16d" x="311.974531" y="58.385137" style="stroke: #000000; stroke-width: 0.5"/>
      </g>
     </g>
     <g id="text_42">
      <!-- 2.0 -->
      <g transform="translate(299.724531 60.815449) scale(0.07 -0.07)">
       <use xlink:href="#TimesNewRomanPSMT-32"/>
       <use xlink:href="#TimesNewRomanPSMT-2e" x="50"/>
       <use xlink:href="#TimesNewRomanPSMT-30" x="75"/>
      </g>
     </g>
    </g>
    <g id="ytick_15">
     <g id="line2d_55">
      <g>
       <use xlink:href="#m569a3ff16d" x="311.974531" y="35.67141" style="stroke: #000000; stroke-width: 0.5"/>
      </g>
     </g>
     <g id="text_43">
      <!-- 2.5 -->
      <g transform="translate(299.724531 38.101723) scale(0.07 -0.07)">
       <use xlink:href="#TimesNewRomanPSMT-32"/>
       <use xlink:href="#TimesNewRomanPSMT-2e" x="50"/>
       <use xlink:href="#TimesNewRomanPSMT-35" x="75"/>
      </g>
     </g>
    </g>
    <g id="ytick_16">
     <g id="line2d_56">
      <g>
       <use xlink:href="#m569a3ff16d" x="311.974531" y="12.957684" style="stroke: #000000; stroke-width: 0.5"/>
      </g>
     </g>
     <g id="text_44">
      <!-- 3.0 -->
      <g transform="translate(299.724531 15.387996) scale(0.07 -0.07)">
       <use xlink:href="#TimesNewRomanPSMT-33"/>
       <use xlink:href="#TimesNewRomanPSMT-2e" x="50"/>
       <use xlink:href="#TimesNewRomanPSMT-30" x="75"/>
      </g>
     </g>
    </g>
    <g id="text_45">
     <!-- H$_2$ mole fraction [%] -->
     <g transform="translate(293.799375 89.757) rotate(-90) scale(0.09 -0.09)">
      <use xlink:href="#TimesNewRomanPSMT-48" transform="translate(0 0.5625)"/>
      <use xlink:href="#STIXGeneral-Regular-32" transform="translate(73.760078 -12.665625) scale(0.7)"/>
      <use xlink:href="#TimesNewRomanPSMT-20" transform="translate(113.169442 0.5625)"/>
      <use xlink:href="#TimesNewRomanPSMT-6d" transform="translate(138.169442 0.5625)"/>
      <use xlink:href="#TimesNewRomanPSMT-6f" transform="translate(215.952646 0.5625)"/>
      <use xlink:href="#TimesNewRomanPSMT-6c" transform="translate(265.952646 0.5625)"/>
      <use xlink:href="#TimesNewRomanPSMT-65" transform="translate(293.735849 0.5625)"/>
      <use xlink:href="#TimesNewRomanPSMT-20" transform="translate(338.120614 0.5625)"/>
      <use xlink:href="#TimesNewRomanPSMT-66" transform="translate(363.120614 0.5625)"/>
      <use xlink:href="#TimesNewRomanPSMT-72" transform="translate(396.421396 0.5625)"/>
      <use xlink:href="#TimesNewRomanPSMT-61" transform="translate(429.722177 0.5625)"/>
      <use xlink:href="#TimesNewRomanPSMT-63" transform="translate(474.106942 0.5625)"/>
      <use xlink:href="#TimesNewRomanPSMT-74" transform="translate(518.491708 0.5625)"/>
      <use xlink:href="#TimesNewRomanPSMT-69" transform="translate(546.274911 0.5625)"/>
      <use xlink:href="#TimesNewRomanPSMT-6f" transform="translate(574.058114 0.5625)"/>
      <use xlink:href="#TimesNewRomanPSMT-6e" transform="translate(624.058114 0.5625)"/>
      <use xlink:href="#TimesNewRomanPSMT-20" transform="translate(674.058114 0.5625)"/>
      <use xlink:href="#TimesNewRomanPSMT-5b" transform="translate(699.058114 0.5625)"/>
      <use xlink:href="#TimesNewRomanPSMT-25" transform="translate(732.358896 0.5625)"/>
      <use xlink:href="#TimesNewRomanPSMT-5d" transform="translate(815.659677 0.5625)"/>
     </g>
    </g>
   </g>
   <g id="line2d_57">
    <path d="M 319.45729 12.959576 
L 321.366157 12.961442 
L 323.275024 12.964411 
L 325.183891 12.969013 
L 327.092758 12.976004 
L 329.001625 12.986417 
L 330.910492 13.001627 
L 332.819359 13.023415 
L 334.728226 13.054074 
L 336.637093 13.096661 
L 338.54596 13.155695 
L 340.454827 13.239226 
L 342.363694 13.366367 
L 344.272561 13.597096 
L 346.181428 13.95094 
L 348.090295 14.291273 
L 349.999162 14.63102 
L 351.908029 14.990804 
L 353.816896 15.381738 
L 355.725763 15.811493 
L 357.63463 16.286408 
L 359.543497 16.812303 
L 361.452364 17.394831 
L 363.361231 18.039683 
L 365.270098 18.752711 
L 367.178965 19.540033 
L 369.087832 20.408105 
L 370.996699 21.363796 
L 372.905566 22.414421 
L 374.814433 23.567767 
L 376.7233 24.83208 
L 378.632167 26.216006 
L 380.541034 27.72849 
L 382.449901 29.378608 
L 384.358768 31.175317 
L 386.267635 33.127117 
L 388.176502 35.241591 
L 390.085369 37.524804 
L 391.994236 39.980539 
L 393.903103 42.609345 
L 395.81197 45.407402 
L 397.720837 48.365208 
L 399.629704 51.466272 
L 401.538571 54.685928 
L 403.447438 57.990649 
L 405.356305 61.338248 
L 407.265172 64.679359 
L 409.174039 67.960315 
L 411.082906 71.127114 
L 412.991773 74.129677 
" clip-path="url(#pd6f9a5b670)" style="fill: none; stroke: #029386; stroke-width: 0.7; stroke-linecap: square"/>
   </g>
   <g id="patch_13">
    <path d="M 311.974531 95.904 
L 311.974531 7.2 
" style="fill: none; stroke: #000000; stroke-width: 0.8; stroke-linejoin: miter; stroke-linecap: square"/>
   </g>
   <g id="patch_14">
    <path d="M 420.474531 95.904 
L 420.474531 7.2 
" style="fill: none; stroke: #000000; stroke-width: 0.8; stroke-linejoin: miter; stroke-linecap: square"/>
   </g>
   <g id="patch_15">
    <path d="M 311.974531 95.904 
L 420.474531 95.904 
" style="fill: none; stroke: #000000; stroke-width: 0.8; stroke-linejoin: miter; stroke-linecap: square"/>
   </g>
   <g id="patch_16">
    <path d="M 311.974531 7.2 
L 420.474531 7.2 
" style="fill: none; stroke: #000000; stroke-width: 0.8; stroke-linejoin: miter; stroke-linecap: square"/>
   </g>
   <g id="line2d_58">
    <path d="M 319.45729 12.966609 
L 321.366157 12.972664 
L 323.275024 12.982136 
L 325.183891 12.996831 
L 327.092758 13.019619 
L 329.001625 13.055616 
L 330.910492 13.116049 
L 332.819359 13.232837 
L 334.728226 13.45917 
L 336.637093 13.738297 
L 338.54596 14.040238 
L 340.454827 14.379564 
L 342.363694 14.771484 
L 344.272561 15.232057 
L 346.181428 15.780675 
L 348.090295 16.442588 
L 349.999162 17.252218 
L 351.908029 18.258236 
L 353.816896 19.531967 
L 355.725763 21.181987 
L 357.63463 23.380347 
L 359.543497 26.409256 
L 361.452364 30.731044 
L 363.361231 36.994055 
L 365.270098 45.508095 
L 367.178965 55.040255 
L 369.087832 63.628031 
L 370.996699 70.544077 
L 372.905566 75.948004 
L 374.814433 80.16079 
L 376.7233 83.45049 
L 378.632167 86.013157 
L 380.541034 87.989432 
L 382.449901 89.481316 
L 384.358768 90.564302 
L 386.267635 91.295595 
L 388.176502 91.719665 
L 390.085369 91.872 
L 391.994236 91.781737 
L 393.903103 91.473465 
L 395.81197 90.968479 
L 397.720837 90.285647 
L 399.629704 89.441983 
L 401.538571 88.453026 
L 403.447438 87.333089 
L 405.356305 86.095402 
L 407.265172 84.75222 
L 409.174039 83.31488 
L 411.082906 81.793856 
L 412.991773 80.198803 
" clip-path="url(#pd6f9a5b670)" style="fill: none; stroke: #ff0000; stroke-width: 0.7; stroke-linecap: square"/>
   </g>
   <g id="line2d_59">
    <path d="M 319.45729 12.981167 
L 321.366157 12.994052 
L 323.275024 13.012007 
L 325.183891 13.036238 
L 327.092758 13.068044 
L 329.001625 13.108889 
L 330.910492 13.160613 
L 332.819359 13.225963 
L 334.728226 13.310168 
L 336.637093 13.428126 
L 338.54596 14.139149 
L 340.454827 14.494519 
L 342.363694 14.794288 
L 344.272561 15.089878 
L 346.181428 15.392902 
L 348.090295 15.708667 
L 349.999162 16.040501 
L 351.908029 16.390944 
L 353.816896 16.762197 
L 355.725763 17.156325 
L 357.63463 17.575352 
L 359.543497 18.021317 
L 361.452364 18.4963 
L 363.361231 19.002439 
L 365.270098 19.541938 
L 367.178965 20.117063 
L 369.087832 20.73014 
L 370.996699 21.383546 
L 372.905566 22.079693 
L 374.814433 22.821006 
L 376.7233 23.609903 
L 378.632167 24.448758 
L 380.541034 25.339866 
L 382.449901 26.285399 
L 384.358768 27.287354 
L 386.267635 28.347493 
L 388.176502 29.467286 
L 390.085369 30.647843 
L 391.994236 31.88985 
L 393.903103 33.193505 
L 395.81197 34.558478 
L 397.720837 35.983847 
L 399.629704 37.468099 
L 401.538571 39.009132 
L 403.447438 40.604279 
L 405.356305 42.250373 
L 407.265172 43.943823 
L 409.174039 45.680722 
L 411.082906 47.456962 
L 412.991773 49.268358 
" clip-path="url(#pd6f9a5b670)" style="fill: none; stroke: #0000ff; stroke-width: 0.7; stroke-linecap: square"/>
   </g>
   <g id="line2d_60">
    <path d="M 319.45729 12.964483 
L 321.366157 12.969306 
L 323.275024 12.97685 
L 325.183891 12.988479 
L 327.092758 13.006206 
L 329.001625 13.03313 
L 330.910492 13.074599 
L 332.819359 13.141864 
L 334.728226 13.264455 
L 336.637093 13.488742 
L 338.54596 13.766602 
L 340.454827 14.064368 
L 342.363694 14.392935 
L 344.272561 14.764409 
L 346.181428 15.190258 
L 348.090295 15.682813 
L 349.999162 16.256393 
L 351.908029 16.928237 
L 353.816896 17.719423 
L 355.725763 18.655815 
L 357.63463 19.768937 
L 359.543497 21.096548 
L 361.452364 22.682317 
L 363.361231 24.573659 
L 365.270098 26.816323 
L 367.178965 29.444593 
L 369.087832 32.467726 
L 370.996699 35.857045 
L 372.905566 39.541398 
L 374.814433 43.416559 
L 376.7233 47.365651 
L 378.632167 51.280534 
L 380.541034 55.075397 
L 382.449901 58.690574 
L 384.358768 62.08967 
L 386.267635 65.253963 
L 388.176502 68.176753 
L 390.085369 70.858772 
L 391.994236 73.304904 
L 393.903103 75.521936 
L 395.81197 77.517181 
L 397.720837 79.297641 
L 399.629704 80.869527 
L 401.538571 82.238006 
L 403.447438 83.407094 
L 405.356305 84.379641 
L 407.265172 85.15738 
L 409.174039 85.741023 
L 411.082906 86.130402 
L 412.991773 86.324659 
" clip-path="url(#pd6f9a5b670)" style="fill: none; stroke: #929591; stroke-width: 0.7; stroke-linecap: square"/>
   </g>
   <g id="line2d_61">
    <path d="M 319.45729 12.959926 
L 321.366157 12.961991 
L 323.275024 12.96526 
L 325.183891 12.970316 
L 327.092758 12.977992 
L 329.001625 12.989433 
L 330.910492 13.006179 
L 332.819359 13.030267 
L 334.728226 13.064452 
L 336.637093 13.112741 
L 338.54596 13.181927 
L 340.454827 13.286588 
L 342.363694 13.466935 
L 344.272561 13.770076 
L 346.181428 14.098961 
L 348.090295 14.430275 
L 349.999162 14.781961 
L 351.908029 15.165582 
L 353.816896 15.589271 
L 355.725763 16.059845 
L 357.63463 16.583716 
L 359.543497 17.167332 
L 361.452364 17.817438 
L 363.361231 18.541256 
L 365.270098 19.346621 
L 367.178965 20.242082 
L 369.087832 21.236975 
L 370.996699 22.341452 
L 372.905566 23.566464 
L 374.814433 24.92368 
L 376.7233 26.425309 
L 378.632167 28.083806 
L 380.541034 29.911426 
L 382.449901 31.919569 
L 384.358768 34.117894 
L 386.267635 36.513147 
L 388.176502 39.107713 
L 390.085369 41.897939 
L 391.994236 44.87237 
L 393.903103 48.010223 
L 395.81197 51.280432 
L 397.720837 54.641865 
L 399.629704 58.045074 
L 401.538571 61.435603 
L 403.447438 64.758405 
L 405.356305 67.962443 
L 407.265172 71.004437 
L 409.174039 73.851034 
L 411.082906 76.479246 
L 412.991773 78.875529 
" clip-path="url(#pd6f9a5b670)" style="fill: none; stroke: #7e1e9c; stroke-width: 0.7; stroke-linecap: square"/>
   </g>
   <g id="line2d_62">
    <g clip-path="url(#pd6f9a5b670)">
     <use xlink:href="#m30fc1be3c7" x="335.295031" y="11.232" style="fill-opacity: 0; stroke: #000000; stroke-width: 0.5"/>
     <use xlink:href="#m30fc1be3c7" x="339.88568" y="11.232" style="fill-opacity: 0; stroke: #000000; stroke-width: 0.5"/>
     <use xlink:href="#m30fc1be3c7" x="345.853524" y="11.232" style="fill-opacity: 0; stroke: #000000; stroke-width: 0.5"/>
     <use xlink:href="#m30fc1be3c7" x="350.903239" y="11.605121" style="fill-opacity: 0; stroke: #000000; stroke-width: 0.5"/>
     <use xlink:href="#m30fc1be3c7" x="358.018745" y="13.284164" style="fill-opacity: 0; stroke: #000000; stroke-width: 0.5"/>
     <use xlink:href="#m30fc1be3c7" x="366.167148" y="15.336328" style="fill-opacity: 0; stroke: #000000; stroke-width: 0.5"/>
     <use xlink:href="#m30fc1be3c7" x="373.626954" y="20.74658" style="fill-opacity: 0; stroke: #000000; stroke-width: 0.5"/>
     <use xlink:href="#m30fc1be3c7" x="381.201525" y="26.903072" style="fill-opacity: 0; stroke: #000000; stroke-width: 0.5"/>
     <use xlink:href="#m30fc1be3c7" x="392.33385" y="38.656376" style="fill-opacity: 0; stroke: #000000; stroke-width: 0.5"/>
     <use xlink:href="#m30fc1be3c7" x="400.711785" y="52.648405" style="fill-opacity: 0; stroke: #000000; stroke-width: 0.5"/>
    </g>
   </g>
  </g>
 </g>
 <defs>
  <clipPath id="pf4b8cb9d85">
   <rect x="29.874531" y="7.2" width="108.5" height="88.704"/>
  </clipPath>
  <clipPath id="p13bc2a39db">
   <rect x="170.924531" y="7.2" width="108.5" height="88.704"/>
  </clipPath>
  <clipPath id="pd6f9a5b670">
   <rect x="311.974531" y="7.2" width="108.5" height="88.704"/>
  </clipPath>
 </defs>
</svg>
