<?xml version="1.0" encoding="utf-8" standalone="no"?>
<!DOCTYPE svg PUBLIC "-//W3C//DTD SVG 1.1//EN"
  "http://www.w3.org/Graphics/SVG/1.1/DTD/svg11.dtd">
<svg xmlns:xlink="http://www.w3.org/1999/xlink" width="399.826255pt" height="175.0325pt" viewBox="0 0 399.826255 175.0325" xmlns="http://www.w3.org/2000/svg" version="1.1">
 <metadata>
  <rdf:RDF xmlns:dc="http://purl.org/dc/elements/1.1/" xmlns:cc="http://creativecommons.org/ns#" xmlns:rdf="http://www.w3.org/1999/02/22-rdf-syntax-ns#">
   <cc:Work>
    <dc:type rdf:resource="http://purl.org/dc/dcmitype/StillImage"/>
    <dc:date>2024-08-23T12:27:25.611521</dc:date>
    <dc:format>image/svg+xml</dc:format>
    <dc:creator>
     <cc:Agent>
      <dc:title>Matplotlib v3.6.2, https://matplotlib.org/</dc:title>
     </cc:Agent>
    </dc:creator>
   </cc:Work>
  </rdf:RDF>
 </metadata>
 <defs>
  <style type="text/css">*{stroke-linejoin: round; stroke-linecap: butt}</style>
 </defs>
 <g id="figure_1">
  <g id="patch_1">
   <path d="M 0 175.0325 
L 399.826255 175.0325 
L 399.826255 0 
L 0 0 
z
" style="fill: #ffffff"/>
  </g>
  <g id="axes_1">
   <g id="patch_2">
    <path d="M 29.874531 145.8 
L 130.624531 145.8 
L 130.624531 7.2 
L 29.874531 7.2 
z
" style="fill: #ffffff"/>
   </g>
   <g id="line2d_1">
    <path d="M 36.822807 139.49978 
L 38.595326 139.498452 
L 40.367846 139.496258 
L 42.140365 139.492735 
L 43.912885 139.487208 
L 45.685404 139.478722 
L 47.457923 139.465965 
L 49.230443 139.447145 
L 51.002962 139.419769 
L 52.775481 139.380122 
L 54.548001 139.321844 
L 56.32052 139.231438 
L 58.093039 139.071415 
L 59.865559 138.774061 
L 61.638078 138.435415 
L 63.410597 138.106416 
L 65.183117 137.766873 
L 66.955636 137.40411 
L 68.728155 137.010215 
L 70.500675 136.579172 
L 72.273194 136.105699 
L 74.045714 135.58471 
L 75.818233 135.011014 
L 77.590752 134.379106 
L 79.363272 133.683016 
L 81.135791 132.916175 
L 82.90831 132.071311 
L 84.68083 131.140359 
L 86.453349 130.114406 
L 88.225868 128.983652 
L 89.998388 127.737424 
L 91.770907 126.36424 
L 93.543426 124.851942 
L 95.315946 123.187938 
L 97.088465 121.359573 
L 98.860984 119.354675 
L 100.633504 117.162317 
L 102.406023 114.77383 
L 104.178543 112.184058 
L 105.951062 109.392701 
L 107.723581 106.405863 
L 109.496101 103.237109 
L 111.26862 99.907532 
L 113.041139 96.444721 
L 114.813659 92.880251 
L 116.586178 89.246172 
L 118.358697 85.571393 
L 120.131217 81.879017 
L 121.903736 78.185267 
L 123.676255 74.500008 
" clip-path="url(#pd606829d01)" style="fill: none; stroke: #029386; stroke-width: 0.7; stroke-linecap: square"/>
   </g>
   <g id="matplotlib.axis_1">
    <g id="xtick_1">
     <g id="line2d_2">
      <defs>
       <path id="m2e5aba3f4e" d="M 0 0 
L 0 -2.5 
" style="stroke: #000000; stroke-width: 0.5"/>
      </defs>
      <g>
       <use xlink:href="#m2e5aba3f4e" x="36.822807" y="145.8" style="stroke: #000000; stroke-width: 0.5"/>
      </g>
     </g>
     <g id="text_1">
      <!-- 800 -->
      <g transform="translate(31.572807 154.160625) scale(0.07 -0.07)">
       <defs>
        <path id="TimesNewRomanPSMT-38" d="M 1228 2134 
Q 725 2547 579 2797 
Q 434 3047 434 3316 
Q 434 3728 753 4026 
Q 1072 4325 1600 4325 
Q 2113 4325 2425 4047 
Q 2738 3769 2738 3413 
Q 2738 3175 2569 2928 
Q 2400 2681 1866 2347 
Q 2416 1922 2594 1678 
Q 2831 1359 2831 1006 
Q 2831 559 2490 242 
Q 2150 -75 1597 -75 
Q 994 -75 656 303 
Q 388 606 388 966 
Q 388 1247 577 1523 
Q 766 1800 1228 2134 
z
M 1719 2469 
Q 2094 2806 2194 3001 
Q 2294 3197 2294 3444 
Q 2294 3772 2109 3958 
Q 1925 4144 1606 4144 
Q 1288 4144 1088 3959 
Q 888 3775 888 3528 
Q 888 3366 970 3203 
Q 1053 3041 1206 2894 
L 1719 2469 
z
M 1375 2016 
Q 1116 1797 991 1539 
Q 866 1281 866 981 
Q 866 578 1086 336 
Q 1306 94 1647 94 
Q 1984 94 2187 284 
Q 2391 475 2391 747 
Q 2391 972 2272 1150 
Q 2050 1481 1375 2016 
z
" transform="scale(0.015625)"/>
        <path id="TimesNewRomanPSMT-30" d="M 231 2094 
Q 231 2819 450 3342 
Q 669 3866 1031 4122 
Q 1313 4325 1613 4325 
Q 2100 4325 2488 3828 
Q 2972 3213 2972 2159 
Q 2972 1422 2759 906 
Q 2547 391 2217 158 
Q 1888 -75 1581 -75 
Q 975 -75 572 641 
Q 231 1244 231 2094 
z
M 844 2016 
Q 844 1141 1059 588 
Q 1238 122 1591 122 
Q 1759 122 1940 273 
Q 2122 425 2216 781 
Q 2359 1319 2359 2297 
Q 2359 3022 2209 3506 
Q 2097 3866 1919 4016 
Q 1791 4119 1609 4119 
Q 1397 4119 1231 3928 
Q 1006 3669 925 3112 
Q 844 2556 844 2016 
z
" transform="scale(0.015625)"/>
       </defs>
       <use xlink:href="#TimesNewRomanPSMT-38"/>
       <use xlink:href="#TimesNewRomanPSMT-30" x="50"/>
       <use xlink:href="#TimesNewRomanPSMT-30" x="100"/>
      </g>
     </g>
    </g>
    <g id="xtick_2">
     <g id="line2d_3">
      <g>
       <use xlink:href="#m2e5aba3f4e" x="54.193497" y="145.8" style="stroke: #000000; stroke-width: 0.5"/>
      </g>
     </g>
     <g id="text_2">
      <!-- 850 -->
      <g transform="translate(48.943497 154.160625) scale(0.07 -0.07)">
       <defs>
        <path id="TimesNewRomanPSMT-35" d="M 2778 4238 
L 2534 3706 
L 1259 3706 
L 981 3138 
Q 1809 3016 2294 2522 
Q 2709 2097 2709 1522 
Q 2709 1188 2573 903 
Q 2438 619 2231 419 
Q 2025 219 1772 97 
Q 1413 -75 1034 -75 
Q 653 -75 479 54 
Q 306 184 306 341 
Q 306 428 378 495 
Q 450 563 559 563 
Q 641 563 702 538 
Q 763 513 909 409 
Q 1144 247 1384 247 
Q 1750 247 2026 523 
Q 2303 800 2303 1197 
Q 2303 1581 2056 1914 
Q 1809 2247 1375 2428 
Q 1034 2569 447 2591 
L 1259 4238 
L 2778 4238 
z
" transform="scale(0.015625)"/>
       </defs>
       <use xlink:href="#TimesNewRomanPSMT-38"/>
       <use xlink:href="#TimesNewRomanPSMT-35" x="50"/>
       <use xlink:href="#TimesNewRomanPSMT-30" x="100"/>
      </g>
     </g>
    </g>
    <g id="xtick_3">
     <g id="line2d_4">
      <g>
       <use xlink:href="#m2e5aba3f4e" x="71.564186" y="145.8" style="stroke: #000000; stroke-width: 0.5"/>
      </g>
     </g>
     <g id="text_3">
      <!-- 900 -->
      <g transform="translate(66.314186 154.160625) scale(0.07 -0.07)">
       <defs>
        <path id="TimesNewRomanPSMT-39" d="M 338 -88 
L 338 28 
Q 744 34 1094 217 
Q 1444 400 1770 856 
Q 2097 1313 2225 1859 
Q 1734 1544 1338 1544 
Q 891 1544 572 1889 
Q 253 2234 253 2806 
Q 253 3363 572 3797 
Q 956 4325 1575 4325 
Q 2097 4325 2469 3894 
Q 2925 3359 2925 2575 
Q 2925 1869 2578 1258 
Q 2231 647 1613 244 
Q 1109 -88 516 -88 
L 338 -88 
z
M 2275 2091 
Q 2331 2497 2331 2741 
Q 2331 3044 2228 3395 
Q 2125 3747 1936 3934 
Q 1747 4122 1506 4122 
Q 1228 4122 1018 3872 
Q 809 3622 809 3128 
Q 809 2469 1088 2097 
Q 1291 1828 1588 1828 
Q 1731 1828 1928 1897 
Q 2125 1966 2275 2091 
z
" transform="scale(0.015625)"/>
       </defs>
       <use xlink:href="#TimesNewRomanPSMT-39"/>
       <use xlink:href="#TimesNewRomanPSMT-30" x="50"/>
       <use xlink:href="#TimesNewRomanPSMT-30" x="100"/>
      </g>
     </g>
    </g>
    <g id="xtick_4">
     <g id="line2d_5">
      <g>
       <use xlink:href="#m2e5aba3f4e" x="88.934876" y="145.8" style="stroke: #000000; stroke-width: 0.5"/>
      </g>
     </g>
     <g id="text_4">
      <!-- 950 -->
      <g transform="translate(83.684876 154.160625) scale(0.07 -0.07)">
       <use xlink:href="#TimesNewRomanPSMT-39"/>
       <use xlink:href="#TimesNewRomanPSMT-35" x="50"/>
       <use xlink:href="#TimesNewRomanPSMT-30" x="100"/>
      </g>
     </g>
    </g>
    <g id="xtick_5">
     <g id="line2d_6">
      <g>
       <use xlink:href="#m2e5aba3f4e" x="106.305566" y="145.8" style="stroke: #000000; stroke-width: 0.5"/>
      </g>
     </g>
     <g id="text_5">
      <!-- 1000 -->
      <g transform="translate(99.305566 154.160625) scale(0.07 -0.07)">
       <defs>
        <path id="TimesNewRomanPSMT-31" d="M 750 3822 
L 1781 4325 
L 1884 4325 
L 1884 747 
Q 1884 391 1914 303 
Q 1944 216 2037 169 
Q 2131 122 2419 116 
L 2419 0 
L 825 0 
L 825 116 
Q 1125 122 1212 167 
Q 1300 213 1334 289 
Q 1369 366 1369 747 
L 1369 3034 
Q 1369 3497 1338 3628 
Q 1316 3728 1258 3775 
Q 1200 3822 1119 3822 
Q 1003 3822 797 3725 
L 750 3822 
z
" transform="scale(0.015625)"/>
       </defs>
       <use xlink:href="#TimesNewRomanPSMT-31"/>
       <use xlink:href="#TimesNewRomanPSMT-30" x="50"/>
       <use xlink:href="#TimesNewRomanPSMT-30" x="100"/>
       <use xlink:href="#TimesNewRomanPSMT-30" x="150"/>
      </g>
     </g>
    </g>
    <g id="xtick_6">
     <g id="line2d_7">
      <g>
       <use xlink:href="#m2e5aba3f4e" x="123.676255" y="145.8" style="stroke: #000000; stroke-width: 0.5"/>
      </g>
     </g>
     <g id="text_6">
      <!-- 1050 -->
      <g transform="translate(116.676255 154.160625) scale(0.07 -0.07)">
       <use xlink:href="#TimesNewRomanPSMT-31"/>
       <use xlink:href="#TimesNewRomanPSMT-30" x="50"/>
       <use xlink:href="#TimesNewRomanPSMT-35" x="100"/>
       <use xlink:href="#TimesNewRomanPSMT-30" x="150"/>
      </g>
     </g>
    </g>
   </g>
   <g id="matplotlib.axis_2">
    <g id="ytick_1">
     <g id="line2d_8">
      <defs>
       <path id="mc7b65a37d1" d="M 0 0 
L 2.5 0 
" style="stroke: #000000; stroke-width: 0.5"/>
      </defs>
      <g>
       <use xlink:href="#mc7b65a37d1" x="29.874531" y="139.5011" style="stroke: #000000; stroke-width: 0.5"/>
      </g>
     </g>
     <g id="text_7">
      <!-- 0 -->
      <g transform="translate(22.874531 141.931413) scale(0.07 -0.07)">
       <use xlink:href="#TimesNewRomanPSMT-30"/>
      </g>
     </g>
    </g>
    <g id="ytick_2">
     <g id="line2d_9">
      <g>
       <use xlink:href="#mc7b65a37d1" x="29.874531" y="119.895087" style="stroke: #000000; stroke-width: 0.5"/>
      </g>
     </g>
     <g id="text_8">
      <!-- 5 -->
      <g transform="translate(22.874531 122.3254) scale(0.07 -0.07)">
       <use xlink:href="#TimesNewRomanPSMT-35"/>
      </g>
     </g>
    </g>
    <g id="ytick_3">
     <g id="line2d_10">
      <g>
       <use xlink:href="#mc7b65a37d1" x="29.874531" y="100.289075" style="stroke: #000000; stroke-width: 0.5"/>
      </g>
     </g>
     <g id="text_9">
      <!-- 10 -->
      <g transform="translate(19.374531 102.719387) scale(0.07 -0.07)">
       <use xlink:href="#TimesNewRomanPSMT-31"/>
       <use xlink:href="#TimesNewRomanPSMT-30" x="50"/>
      </g>
     </g>
    </g>
    <g id="ytick_4">
     <g id="line2d_11">
      <g>
       <use xlink:href="#mc7b65a37d1" x="29.874531" y="80.683062" style="stroke: #000000; stroke-width: 0.5"/>
      </g>
     </g>
     <g id="text_10">
      <!-- 15 -->
      <g transform="translate(19.374531 83.113375) scale(0.07 -0.07)">
       <use xlink:href="#TimesNewRomanPSMT-31"/>
       <use xlink:href="#TimesNewRomanPSMT-35" x="50"/>
      </g>
     </g>
    </g>
    <g id="ytick_5">
     <g id="line2d_12">
      <g>
       <use xlink:href="#mc7b65a37d1" x="29.874531" y="61.077049" style="stroke: #000000; stroke-width: 0.5"/>
      </g>
     </g>
     <g id="text_11">
      <!-- 20 -->
      <g transform="translate(19.374531 63.507362) scale(0.07 -0.07)">
       <defs>
        <path id="TimesNewRomanPSMT-32" d="M 2934 816 
L 2638 0 
L 138 0 
L 138 116 
Q 1241 1122 1691 1759 
Q 2141 2397 2141 2925 
Q 2141 3328 1894 3587 
Q 1647 3847 1303 3847 
Q 991 3847 742 3664 
Q 494 3481 375 3128 
L 259 3128 
Q 338 3706 661 4015 
Q 984 4325 1469 4325 
Q 1984 4325 2329 3994 
Q 2675 3663 2675 3213 
Q 2675 2891 2525 2569 
Q 2294 2063 1775 1497 
Q 997 647 803 472 
L 1909 472 
Q 2247 472 2383 497 
Q 2519 522 2628 598 
Q 2738 675 2819 816 
L 2934 816 
z
" transform="scale(0.015625)"/>
       </defs>
       <use xlink:href="#TimesNewRomanPSMT-32"/>
       <use xlink:href="#TimesNewRomanPSMT-30" x="50"/>
      </g>
     </g>
    </g>
    <g id="ytick_6">
     <g id="line2d_13">
      <g>
       <use xlink:href="#mc7b65a37d1" x="29.874531" y="41.471037" style="stroke: #000000; stroke-width: 0.5"/>
      </g>
     </g>
     <g id="text_12">
      <!-- 25 -->
      <g transform="translate(19.374531 43.901349) scale(0.07 -0.07)">
       <use xlink:href="#TimesNewRomanPSMT-32"/>
       <use xlink:href="#TimesNewRomanPSMT-35" x="50"/>
      </g>
     </g>
    </g>
    <g id="ytick_7">
     <g id="line2d_14">
      <g>
       <use xlink:href="#mc7b65a37d1" x="29.874531" y="21.865024" style="stroke: #000000; stroke-width: 0.5"/>
      </g>
     </g>
     <g id="text_13">
      <!-- 30 -->
      <g transform="translate(19.374531 24.295337) scale(0.07 -0.07)">
       <defs>
        <path id="TimesNewRomanPSMT-33" d="M 325 3431 
Q 506 3859 782 4092 
Q 1059 4325 1472 4325 
Q 1981 4325 2253 3994 
Q 2459 3747 2459 3466 
Q 2459 3003 1878 2509 
Q 2269 2356 2469 2072 
Q 2669 1788 2669 1403 
Q 2669 853 2319 450 
Q 1863 -75 997 -75 
Q 569 -75 414 31 
Q 259 138 259 259 
Q 259 350 332 419 
Q 406 488 509 488 
Q 588 488 669 463 
Q 722 447 909 348 
Q 1097 250 1169 231 
Q 1284 197 1416 197 
Q 1734 197 1970 444 
Q 2206 691 2206 1028 
Q 2206 1275 2097 1509 
Q 2016 1684 1919 1775 
Q 1784 1900 1550 2001 
Q 1316 2103 1072 2103 
L 972 2103 
L 972 2197 
Q 1219 2228 1467 2375 
Q 1716 2522 1828 2728 
Q 1941 2934 1941 3181 
Q 1941 3503 1739 3701 
Q 1538 3900 1238 3900 
Q 753 3900 428 3381 
L 325 3431 
z
" transform="scale(0.015625)"/>
       </defs>
       <use xlink:href="#TimesNewRomanPSMT-33"/>
       <use xlink:href="#TimesNewRomanPSMT-30" x="50"/>
      </g>
     </g>
    </g>
    <g id="text_14">
     <!-- $\Delta$ T [K] -->
     <g transform="translate(13.449375 91.035) rotate(-90) scale(0.09 -0.09)">
      <defs>
       <path id="STIXGeneral-Regular-394" d="M 4320 0 
L 307 0 
L 2221 4314 
L 2349 4314 
L 4320 0 
z
M 3354 589 
L 2118 3405 
L 870 589 
L 3354 589 
z
" transform="scale(0.015625)"/>
       <path id="TimesNewRomanPSMT-20" transform="scale(0.015625)"/>
       <path id="TimesNewRomanPSMT-54" d="M 3703 4238 
L 3750 3244 
L 3631 3244 
Q 3597 3506 3538 3619 
Q 3441 3800 3280 3886 
Q 3119 3972 2856 3972 
L 2259 3972 
L 2259 734 
Q 2259 344 2344 247 
Q 2463 116 2709 116 
L 2856 116 
L 2856 0 
L 1059 0 
L 1059 116 
L 1209 116 
Q 1478 116 1591 278 
Q 1659 378 1659 734 
L 1659 3972 
L 1150 3972 
Q 853 3972 728 3928 
Q 566 3869 450 3700 
Q 334 3531 313 3244 
L 194 3244 
L 244 4238 
L 3703 4238 
z
" transform="scale(0.015625)"/>
       <path id="TimesNewRomanPSMT-5b" d="M 1900 -1269 
L 525 -1269 
L 525 4334 
L 1900 4334 
L 1900 4088 
L 994 4088 
L 994 -1025 
L 1900 -1025 
L 1900 -1269 
z
" transform="scale(0.015625)"/>
       <path id="TimesNewRomanPSMT-4b" d="M 1913 2350 
L 3475 797 
Q 3859 413 4131 273 
Q 4403 134 4675 116 
L 4675 0 
L 2659 0 
L 2659 116 
Q 2841 116 2920 177 
Q 3000 238 3000 313 
Q 3000 388 2970 447 
Q 2941 506 2775 669 
L 1313 2116 
L 1313 750 
Q 1313 428 1353 325 
Q 1384 247 1484 191 
Q 1619 116 1769 116 
L 1913 116 
L 1913 0 
L 106 0 
L 106 116 
L 256 116 
Q 519 116 638 269 
Q 713 369 713 750 
L 713 3488 
Q 713 3809 672 3916 
Q 641 3991 544 4047 
Q 406 4122 256 4122 
L 106 4122 
L 106 4238 
L 1913 4238 
L 1913 4122 
L 1769 4122 
Q 1622 4122 1484 4050 
Q 1388 4000 1350 3900 
Q 1313 3800 1313 3488 
L 1313 2191 
Q 1375 2250 1741 2588 
Q 2669 3438 2863 3722 
Q 2947 3847 2947 3941 
Q 2947 4013 2881 4067 
Q 2816 4122 2659 4122 
L 2563 4122 
L 2563 4238 
L 4119 4238 
L 4119 4122 
Q 3981 4119 3868 4084 
Q 3756 4050 3593 3951 
Q 3431 3853 3194 3634 
Q 3125 3572 2559 2994 
L 1913 2350 
z
" transform="scale(0.015625)"/>
       <path id="TimesNewRomanPSMT-5d" d="M 234 4334 
L 1609 4334 
L 1609 -1272 
L 234 -1272 
L 234 -1025 
L 1141 -1025 
L 1141 4088 
L 234 4088 
L 234 4334 
z
" transform="scale(0.015625)"/>
      </defs>
      <use xlink:href="#STIXGeneral-Regular-394" transform="translate(0 0.28125)"/>
      <use xlink:href="#TimesNewRomanPSMT-20" transform="translate(72.199982 0.28125)"/>
      <use xlink:href="#TimesNewRomanPSMT-54" transform="translate(97.199982 0.28125)"/>
      <use xlink:href="#TimesNewRomanPSMT-20" transform="translate(158.283966 0.28125)"/>
      <use xlink:href="#TimesNewRomanPSMT-5b" transform="translate(183.283966 0.28125)"/>
      <use xlink:href="#TimesNewRomanPSMT-4b" transform="translate(216.584747 0.28125)"/>
      <use xlink:href="#TimesNewRomanPSMT-5d" transform="translate(288.801544 0.28125)"/>
     </g>
    </g>
   </g>
   <g id="line2d_15">
    <path d="M 36.822807 139.5 
L 38.595326 139.498828 
L 40.367846 139.496879 
L 42.140365 139.49374 
L 43.912885 139.488808 
L 45.685404 139.481228 
L 47.457923 139.46983 
L 49.230443 139.453039 
L 51.002962 139.428729 
L 52.775481 139.393915 
L 54.548001 139.343941 
L 56.32052 139.270135 
L 58.093039 139.151357 
L 59.865559 138.920414 
L 61.638078 138.553874 
L 63.410597 138.206151 
L 65.183117 137.865764 
L 66.955636 137.511448 
L 68.728155 137.132358 
L 70.500675 136.721522 
L 72.273194 136.273527 
L 74.045714 135.783626 
L 75.818233 135.247343 
L 77.590752 134.660238 
L 79.363272 134.017769 
L 81.135791 133.31517 
L 82.90831 132.547363 
L 84.68083 131.70888 
L 86.453349 130.793801 
L 88.225868 129.795712 
L 89.998388 128.70769 
L 91.770907 127.522302 
L 93.543426 126.231648 
L 95.315946 124.827429 
L 97.088465 123.301063 
L 98.860984 121.643846 
L 100.633504 119.847176 
L 102.406023 117.902851 
L 104.178543 115.803451 
L 105.951062 113.542765 
L 107.723581 111.116444 
L 109.496101 108.52276 
L 111.26862 105.763198 
L 113.041139 102.843181 
L 114.813659 99.772556 
L 116.586178 96.565646 
L 118.358697 93.240689 
L 120.131217 89.818551 
L 121.903736 86.320887 
L 123.676255 82.768141 
" clip-path="url(#pd606829d01)" style="fill: none; stroke: #ffa500; stroke-width: 0.7; stroke-linecap: square"/>
   </g>
   <g id="patch_3">
    <path d="M 29.874531 145.8 
L 29.874531 7.2 
" style="fill: none; stroke: #000000; stroke-width: 0.8; stroke-linejoin: miter; stroke-linecap: square"/>
   </g>
   <g id="patch_4">
    <path d="M 130.624531 145.8 
L 130.624531 7.2 
" style="fill: none; stroke: #000000; stroke-width: 0.8; stroke-linejoin: miter; stroke-linecap: square"/>
   </g>
   <g id="patch_5">
    <path d="M 29.874531 145.8 
L 130.624531 145.8 
" style="fill: none; stroke: #000000; stroke-width: 0.8; stroke-linejoin: miter; stroke-linecap: square"/>
   </g>
   <g id="patch_6">
    <path d="M 29.874531 7.2 
L 130.624531 7.2 
" style="fill: none; stroke: #000000; stroke-width: 0.8; stroke-linejoin: miter; stroke-linecap: square"/>
   </g>
   <g id="line2d_16">
    <path d="M 36.822807 139.495157 
L 38.595326 139.490764 
L 40.367846 139.483637 
L 42.140365 139.472186 
L 43.912885 139.453775 
L 45.685404 139.423541 
L 47.457923 139.370539 
L 49.230443 139.263174 
L 51.002962 139.048128 
L 52.775481 138.782428 
L 54.548001 138.497996 
L 56.32052 138.181901 
L 58.093039 137.82057 
L 59.865559 137.399909 
L 61.638078 136.903028 
L 63.410597 136.307985 
L 65.183117 135.584849 
L 66.955636 134.691215 
L 68.728155 133.564753 
L 70.500675 132.110152 
L 72.273194 130.175394 
L 74.045714 127.508543 
L 75.818233 123.689119 
L 77.590752 118.100523 
L 79.363272 110.345007 
L 81.135791 101.320199 
L 82.90831 92.67472 
L 84.68083 85.103903 
L 86.453349 78.54248 
L 88.225868 72.763689 
L 89.998388 67.571223 
L 91.770907 62.822999 
L 93.543426 58.420967 
L 95.315946 54.298761 
L 97.088465 50.4123 
L 98.860984 46.733149 
L 100.633504 43.24373 
L 102.406023 39.934113 
L 104.178543 36.799405 
L 105.951062 33.837767 
L 107.723581 31.048961 
L 109.496101 28.433227 
L 111.26862 25.990408 
L 113.041139 23.71948 
L 114.813659 21.618271 
L 116.586178 19.683369 
L 118.358697 17.910165 
L 120.131217 16.292993 
L 121.903736 14.825329 
L 123.676255 13.5 
" clip-path="url(#pd606829d01)" style="fill: none; stroke: #ff0000; stroke-width: 0.7; stroke-linecap: square"/>
   </g>
   <g id="line2d_17">
    <path d="M 36.822807 139.483484 
L 38.595326 139.473104 
L 40.367846 139.458332 
L 42.140365 139.438008 
L 43.912885 139.410821 
L 45.685404 139.375198 
L 47.457923 139.329009 
L 49.230443 139.268839 
L 51.002962 139.187805 
L 52.775481 139.065526 
L 54.548001 138.09105 
L 56.32052 137.602497 
L 58.093039 137.201054 
L 59.865559 136.812549 
L 61.638078 136.420988 
L 63.410597 136.019598 
L 65.183117 135.604528 
L 66.955636 135.173115 
L 68.728155 134.723244 
L 70.500675 134.253068 
L 72.273194 133.76087 
L 74.045714 133.245 
L 75.818233 132.703832 
L 77.590752 132.135755 
L 79.363272 131.539165 
L 81.135791 130.912464 
L 82.90831 130.254074 
L 84.68083 129.562445 
L 86.453349 128.836076 
L 88.225868 128.07353 
L 89.998388 127.273465 
L 91.770907 126.43466 
L 93.543426 125.556051 
L 95.315946 124.636769 
L 97.088465 123.676177 
L 98.860984 122.673922 
L 100.633504 121.629971 
L 102.406023 120.544659 
L 104.178543 119.418726 
L 105.951062 118.253317 
L 107.723581 117.05002 
L 109.496101 115.810968 
L 111.26862 114.538684 
L 113.041139 113.236089 
L 114.813659 111.906433 
L 116.586178 110.553218 
L 118.358697 109.180088 
L 120.131217 107.790716 
L 121.903736 106.388689 
L 123.676255 104.97739 
" clip-path="url(#pd606829d01)" style="fill: none; stroke: #0000ff; stroke-width: 0.7; stroke-linecap: square"/>
   </g>
   <g id="legend_1">
    <g id="line2d_18">
     <path d="M 36.174531 15.95 
L 39.674531 15.95 
L 43.174531 15.95 
" style="fill: none; stroke: #929591; stroke-width: 0.7; stroke-linecap: square"/>
    </g>
    <g id="text_15">
     <!-- Alzueta -->
     <g transform="translate(48.774531 18.4) scale(0.07 -0.07)">
      <defs>
       <path id="TimesNewRomanPSMT-41" d="M 2928 1419 
L 1288 1419 
L 1000 750 
Q 894 503 894 381 
Q 894 284 986 211 
Q 1078 138 1384 116 
L 1384 0 
L 50 0 
L 50 116 
Q 316 163 394 238 
Q 553 388 747 847 
L 2238 4334 
L 2347 4334 
L 3822 809 
Q 4000 384 4145 257 
Q 4291 131 4550 116 
L 4550 0 
L 2878 0 
L 2878 116 
Q 3131 128 3220 200 
Q 3309 272 3309 375 
Q 3309 513 3184 809 
L 2928 1419 
z
M 2841 1650 
L 2122 3363 
L 1384 1650 
L 2841 1650 
z
" transform="scale(0.015625)"/>
       <path id="TimesNewRomanPSMT-6c" d="M 1184 4444 
L 1184 647 
Q 1184 378 1223 290 
Q 1263 203 1344 158 
Q 1425 113 1647 113 
L 1647 0 
L 244 0 
L 244 113 
Q 441 113 512 153 
Q 584 194 625 287 
Q 666 381 666 647 
L 666 3247 
Q 666 3731 644 3842 
Q 622 3953 573 3993 
Q 525 4034 450 4034 
Q 369 4034 244 3984 
L 191 4094 
L 1044 4444 
L 1184 4444 
z
" transform="scale(0.015625)"/>
       <path id="TimesNewRomanPSMT-7a" d="M 2688 878 
L 2653 0 
L 128 0 
L 128 113 
L 2028 2644 
L 1091 2644 
Q 788 2644 694 2605 
Q 600 2566 541 2456 
Q 456 2300 444 2069 
L 319 2069 
L 338 2863 
L 2738 2863 
L 2738 2747 
L 819 209 
L 1863 209 
Q 2191 209 2308 264 
Q 2425 319 2497 456 
Q 2547 556 2581 878 
L 2688 878 
z
" transform="scale(0.015625)"/>
       <path id="TimesNewRomanPSMT-75" d="M 2709 2863 
L 2709 1128 
Q 2709 631 2732 520 
Q 2756 409 2807 365 
Q 2859 322 2928 322 
Q 3025 322 3147 375 
L 3191 266 
L 2334 -88 
L 2194 -88 
L 2194 519 
Q 1825 119 1631 15 
Q 1438 -88 1222 -88 
Q 981 -88 804 51 
Q 628 191 559 409 
Q 491 628 491 1028 
L 491 2306 
Q 491 2509 447 2587 
Q 403 2666 317 2708 
Q 231 2750 6 2747 
L 6 2863 
L 1009 2863 
L 1009 947 
Q 1009 547 1148 422 
Q 1288 297 1484 297 
Q 1619 297 1789 381 
Q 1959 466 2194 703 
L 2194 2325 
Q 2194 2569 2105 2655 
Q 2016 2741 1734 2747 
L 1734 2863 
L 2709 2863 
z
" transform="scale(0.015625)"/>
       <path id="TimesNewRomanPSMT-65" d="M 681 1784 
Q 678 1147 991 784 
Q 1303 422 1725 422 
Q 2006 422 2214 576 
Q 2422 731 2563 1106 
L 2659 1044 
Q 2594 616 2278 264 
Q 1963 -88 1488 -88 
Q 972 -88 605 314 
Q 238 716 238 1394 
Q 238 2128 614 2539 
Q 991 2950 1559 2950 
Q 2041 2950 2350 2633 
Q 2659 2316 2659 1784 
L 681 1784 
z
M 681 1966 
L 2006 1966 
Q 1991 2241 1941 2353 
Q 1863 2528 1708 2628 
Q 1553 2728 1384 2728 
Q 1125 2728 920 2526 
Q 716 2325 681 1966 
z
" transform="scale(0.015625)"/>
       <path id="TimesNewRomanPSMT-74" d="M 1031 3803 
L 1031 2863 
L 1700 2863 
L 1700 2644 
L 1031 2644 
L 1031 788 
Q 1031 509 1111 412 
Q 1191 316 1316 316 
Q 1419 316 1516 380 
Q 1613 444 1666 569 
L 1788 569 
Q 1678 263 1478 108 
Q 1278 -47 1066 -47 
Q 922 -47 784 33 
Q 647 113 581 261 
Q 516 409 516 719 
L 516 2644 
L 63 2644 
L 63 2747 
Q 234 2816 414 2980 
Q 594 3144 734 3369 
Q 806 3488 934 3803 
L 1031 3803 
z
" transform="scale(0.015625)"/>
       <path id="TimesNewRomanPSMT-61" d="M 1822 413 
Q 1381 72 1269 19 
Q 1100 -59 909 -59 
Q 613 -59 420 144 
Q 228 347 228 678 
Q 228 888 322 1041 
Q 450 1253 767 1440 
Q 1084 1628 1822 1897 
L 1822 2009 
Q 1822 2438 1686 2597 
Q 1550 2756 1291 2756 
Q 1094 2756 978 2650 
Q 859 2544 859 2406 
L 866 2225 
Q 866 2081 792 2003 
Q 719 1925 600 1925 
Q 484 1925 411 2006 
Q 338 2088 338 2228 
Q 338 2497 613 2722 
Q 888 2947 1384 2947 
Q 1766 2947 2009 2819 
Q 2194 2722 2281 2516 
Q 2338 2381 2338 1966 
L 2338 994 
Q 2338 584 2353 492 
Q 2369 400 2405 369 
Q 2441 338 2488 338 
Q 2538 338 2575 359 
Q 2641 400 2828 588 
L 2828 413 
Q 2478 -56 2159 -56 
Q 2006 -56 1915 50 
Q 1825 156 1822 413 
z
M 1822 616 
L 1822 1706 
Q 1350 1519 1213 1441 
Q 966 1303 859 1153 
Q 753 1003 753 825 
Q 753 600 887 451 
Q 1022 303 1197 303 
Q 1434 303 1822 616 
z
" transform="scale(0.015625)"/>
      </defs>
      <use xlink:href="#TimesNewRomanPSMT-41"/>
      <use xlink:href="#TimesNewRomanPSMT-6c" x="72.216797"/>
      <use xlink:href="#TimesNewRomanPSMT-7a" x="100"/>
      <use xlink:href="#TimesNewRomanPSMT-75" x="144.384766"/>
      <use xlink:href="#TimesNewRomanPSMT-65" x="194.384766"/>
      <use xlink:href="#TimesNewRomanPSMT-74" x="238.769531"/>
      <use xlink:href="#TimesNewRomanPSMT-61" x="266.552734"/>
     </g>
    </g>
    <g id="line2d_19">
     <path d="M 36.174531 25.847344 
L 39.674531 25.847344 
L 43.174531 25.847344 
" style="fill: none; stroke: #029386; stroke-width: 0.7; stroke-linecap: square"/>
    </g>
    <g id="text_16">
     <!-- $\epsilon_{0,NH_3}(300K)$ -->
     <g transform="translate(48.774531 28.297344) scale(0.07 -0.07)">
      <defs>
       <path id="STIXGeneral-Italic-3b5" d="M 2304 627 
L 2406 563 
Q 1907 -70 1133 -70 
Q 192 -70 192 640 
Q 192 928 403 1158 
Q 614 1389 934 1472 
Q 774 1498 684 1616 
Q 595 1734 595 1882 
Q 602 2266 995 2544 
Q 1389 2822 2029 2822 
Q 2336 2822 2528 2672 
Q 2720 2522 2720 2291 
Q 2720 2163 2617 2080 
Q 2515 1997 2413 1997 
Q 2298 1997 2230 2067 
Q 2163 2138 2163 2253 
Q 2163 2317 2211 2409 
Q 2259 2502 2259 2560 
Q 2259 2688 2022 2688 
Q 1683 2688 1401 2496 
Q 1120 2304 1120 1907 
Q 1120 1741 1251 1654 
Q 1382 1568 1594 1568 
Q 1613 1568 1728 1590 
Q 1843 1613 1932 1613 
Q 2022 1613 2086 1574 
Q 2150 1536 2150 1478 
Q 2150 1306 1862 1306 
Q 1805 1306 1721 1334 
Q 1638 1363 1568 1363 
Q 1286 1363 1014 1184 
Q 742 1005 742 678 
Q 742 410 908 285 
Q 1075 160 1312 160 
Q 1869 160 2304 627 
z
" transform="scale(0.015625)"/>
       <path id="STIXGeneral-Regular-30" d="M 3046 2112 
Q 3046 1683 2963 1302 
Q 2880 922 2717 602 
Q 2554 282 2266 96 
Q 1978 -90 1600 -90 
Q 1210 -90 915 108 
Q 621 307 461 640 
Q 301 973 227 1350 
Q 154 1728 154 2150 
Q 154 2746 301 3222 
Q 448 3699 790 4012 
Q 1133 4326 1626 4326 
Q 2253 4326 2649 3712 
Q 3046 3098 3046 2112 
z
M 2432 2080 
Q 2432 3091 2217 3625 
Q 2003 4160 1587 4160 
Q 1190 4160 979 3622 
Q 768 3085 768 2106 
Q 768 1120 979 598 
Q 1190 77 1600 77 
Q 2003 77 2217 598 
Q 2432 1120 2432 2080 
z
" transform="scale(0.015625)"/>
       <path id="STIXGeneral-Regular-2c" d="M 531 -902 
L 467 -781 
Q 998 -422 998 -96 
Q 998 -13 909 -13 
Q 883 -13 822 -25 
Q 762 -38 723 -38 
Q 352 -38 352 288 
Q 352 454 457 553 
Q 563 653 736 653 
Q 954 653 1101 496 
Q 1248 339 1248 96 
Q 1248 -198 1053 -473 
Q 858 -749 531 -902 
z
" transform="scale(0.015625)"/>
       <path id="STIXGeneral-Italic-4e" d="M 4653 4179 
L 4653 4077 
Q 4480 4038 4413 4016 
Q 4346 3994 4266 3882 
Q 4186 3770 4144 3635 
Q 4102 3501 4000 3149 
L 3066 -96 
L 2950 -96 
L 1478 3424 
L 749 723 
Q 691 525 691 378 
Q 691 243 790 182 
Q 890 122 1139 102 
L 1139 0 
L -128 0 
L -128 102 
Q 147 141 262 304 
Q 378 467 550 1075 
L 1299 3731 
Q 1152 4077 749 4077 
L 749 4179 
L 1773 4179 
L 3098 986 
L 3776 3469 
Q 3827 3648 3827 3750 
Q 3827 3923 3740 3987 
Q 3654 4051 3386 4077 
L 3386 4179 
L 4653 4179 
z
" transform="scale(0.015625)"/>
       <path id="STIXGeneral-Italic-48" d="M 4922 4179 
L 4922 4077 
Q 4640 4026 4550 3949 
Q 4461 3872 4384 3603 
L 3539 525 
Q 3520 448 3520 371 
Q 3520 237 3616 185 
Q 3712 134 4026 102 
L 4026 0 
L 2272 0 
L 2272 102 
Q 2598 128 2729 237 
Q 2861 346 2925 595 
L 3334 2086 
L 1510 2086 
L 1088 525 
Q 1069 461 1069 384 
Q 1069 243 1149 192 
Q 1229 141 1517 102 
L 1517 0 
L -51 0 
L -51 102 
Q 211 128 310 230 
Q 410 333 499 653 
L 1254 3405 
Q 1331 3699 1331 3814 
Q 1331 3949 1238 3997 
Q 1146 4045 838 4077 
L 838 4179 
L 2573 4179 
L 2573 4077 
Q 2285 4058 2141 3955 
Q 1997 3853 1933 3622 
L 1587 2355 
L 3411 2355 
L 3706 3405 
Q 3795 3738 3795 3808 
Q 3795 3930 3692 3994 
Q 3590 4058 3334 4077 
L 3334 4179 
L 4922 4179 
z
" transform="scale(0.015625)"/>
       <path id="STIXGeneral-Regular-33" d="M 390 3264 
L 288 3290 
Q 435 3770 748 4048 
Q 1062 4326 1542 4326 
Q 1990 4326 2265 4083 
Q 2541 3840 2541 3450 
Q 2541 2925 1946 2566 
Q 2298 2413 2477 2227 
Q 2758 1914 2758 1402 
Q 2758 890 2464 506 
Q 2246 211 1840 60 
Q 1434 -90 979 -90 
Q 262 -90 262 275 
Q 262 378 339 442 
Q 416 506 525 506 
Q 685 506 915 339 
Q 1197 141 1466 141 
Q 1818 141 2058 425 
Q 2298 710 2298 1120 
Q 2298 1856 1632 2048 
Q 1434 2112 979 2112 
L 979 2202 
Q 1338 2323 1517 2432 
Q 2035 2726 2035 3290 
Q 2035 3610 1852 3776 
Q 1670 3942 1344 3942 
Q 768 3942 390 3264 
z
" transform="scale(0.015625)"/>
       <path id="STIXGeneral-Regular-28" d="M 1946 -1030 
L 1869 -1133 
Q 1126 -710 716 32 
Q 307 774 307 1613 
Q 307 3386 1888 4326 
L 1946 4224 
Q 1293 3667 1075 3126 
Q 858 2586 858 1632 
Q 858 685 1082 96 
Q 1306 -493 1946 -1030 
z
" transform="scale(0.015625)"/>
       <path id="STIXGeneral-Italic-4b" d="M 4621 4179 
L 4621 4077 
Q 4442 4077 4128 3840 
L 2221 2400 
L 3296 525 
Q 3443 269 3552 201 
Q 3661 134 3962 102 
L 3962 0 
L 2202 0 
L 2202 102 
L 2387 122 
Q 2682 147 2682 326 
Q 2682 365 2672 409 
Q 2662 454 2630 515 
Q 2598 576 2579 611 
Q 2560 646 2509 736 
Q 2458 826 2445 851 
L 1658 2227 
L 1242 710 
Q 1171 467 1171 384 
Q 1171 237 1264 182 
Q 1357 128 1626 102 
L 1626 0 
L 45 0 
L 45 102 
Q 320 134 403 211 
Q 486 288 563 557 
L 1357 3405 
Q 1446 3725 1446 3802 
Q 1446 3936 1337 4000 
Q 1229 4064 941 4077 
L 941 4179 
L 2669 4179 
L 2669 4077 
Q 2400 4058 2253 3958 
Q 2106 3859 2035 3603 
L 1696 2362 
L 2675 3059 
Q 3590 3706 3590 3936 
Q 3590 4032 3360 4058 
L 3206 4077 
L 3206 4179 
L 4621 4179 
z
" transform="scale(0.015625)"/>
       <path id="STIXGeneral-Regular-29" d="M 186 4224 
L 262 4326 
Q 992 3891 1408 3148 
Q 1824 2406 1824 1581 
Q 1824 -166 243 -1133 
L 186 -1030 
Q 845 -486 1059 54 
Q 1274 595 1274 1562 
Q 1274 2534 1059 3120 
Q 845 3706 186 4224 
z
" transform="scale(0.015625)"/>
      </defs>
      <use xlink:href="#STIXGeneral-Italic-3b5" transform="translate(0 0.40625)"/>
      <use xlink:href="#STIXGeneral-Regular-30" transform="translate(44.399994 -12.821875) scale(0.7)"/>
      <use xlink:href="#STIXGeneral-Regular-2c" transform="translate(79.399983 -12.821875) scale(0.7)"/>
      <use xlink:href="#STIXGeneral-Italic-4e" transform="translate(107.00797 -12.821875) scale(0.7)"/>
      <use xlink:href="#STIXGeneral-Italic-48" transform="translate(153.697968 -12.821875) scale(0.7)"/>
      <use xlink:href="#STIXGeneral-Regular-33" transform="translate(204.237955 -22.081563) scale(0.49)"/>
      <use xlink:href="#STIXGeneral-Regular-28" transform="translate(236.233885 0.40625)"/>
      <use xlink:href="#STIXGeneral-Regular-33" transform="translate(269.533873 0.40625)"/>
      <use xlink:href="#STIXGeneral-Regular-30" transform="translate(319.533858 0.40625)"/>
      <use xlink:href="#STIXGeneral-Regular-30" transform="translate(369.533842 0.40625)"/>
      <use xlink:href="#STIXGeneral-Italic-4b" transform="translate(419.533827 0.40625)"/>
      <use xlink:href="#STIXGeneral-Regular-29" transform="translate(486.233824 0.40625)"/>
     </g>
    </g>
    <g id="line2d_20">
     <path d="M 36.174531 35.927344 
L 39.674531 35.927344 
L 43.174531 35.927344 
" style="fill: none; stroke: #ffa500; stroke-width: 0.7; stroke-linecap: square"/>
    </g>
    <g id="text_17">
     <!-- $\epsilon_{0,NH_3}(2000K)$ -->
     <g transform="translate(48.774531 38.377344) scale(0.07 -0.07)">
      <defs>
       <path id="STIXGeneral-Regular-32" d="M 3034 877 
L 2688 0 
L 186 0 
L 186 77 
L 1325 1286 
Q 1773 1754 1965 2144 
Q 2157 2534 2157 2950 
Q 2157 3379 1920 3616 
Q 1683 3853 1267 3853 
Q 922 3853 720 3673 
Q 518 3494 326 3021 
L 192 3053 
Q 301 3648 630 3987 
Q 960 4326 1523 4326 
Q 2054 4326 2380 4006 
Q 2707 3686 2707 3200 
Q 2707 2477 1888 1613 
L 832 486 
L 2330 486 
Q 2541 486 2665 569 
Q 2790 653 2944 915 
L 3034 877 
z
" transform="scale(0.015625)"/>
      </defs>
      <use xlink:href="#STIXGeneral-Italic-3b5" transform="translate(0 0.40625)"/>
      <use xlink:href="#STIXGeneral-Regular-30" transform="translate(44.399994 -12.821875) scale(0.7)"/>
      <use xlink:href="#STIXGeneral-Regular-2c" transform="translate(79.399983 -12.821875) scale(0.7)"/>
      <use xlink:href="#STIXGeneral-Italic-4e" transform="translate(107.00797 -12.821875) scale(0.7)"/>
      <use xlink:href="#STIXGeneral-Italic-48" transform="translate(153.697968 -12.821875) scale(0.7)"/>
      <use xlink:href="#STIXGeneral-Regular-33" transform="translate(204.237955 -22.081563) scale(0.49)"/>
      <use xlink:href="#STIXGeneral-Regular-28" transform="translate(236.233885 0.40625)"/>
      <use xlink:href="#STIXGeneral-Regular-32" transform="translate(269.533873 0.40625)"/>
      <use xlink:href="#STIXGeneral-Regular-30" transform="translate(319.533858 0.40625)"/>
      <use xlink:href="#STIXGeneral-Regular-30" transform="translate(369.533842 0.40625)"/>
      <use xlink:href="#STIXGeneral-Regular-30" transform="translate(419.533827 0.40625)"/>
      <use xlink:href="#STIXGeneral-Italic-4b" transform="translate(469.533812 0.40625)"/>
      <use xlink:href="#STIXGeneral-Regular-29" transform="translate(536.233809 0.40625)"/>
     </g>
    </g>
    <g id="line2d_21">
     <path d="M 36.174531 46.007344 
L 39.674531 46.007344 
L 43.174531 46.007344 
" style="fill: none; stroke: #ff0000; stroke-width: 0.7; stroke-linecap: square"/>
    </g>
    <g id="text_18">
     <!-- Ar -->
     <g transform="translate(48.774531 48.457344) scale(0.07 -0.07)">
      <defs>
       <path id="TimesNewRomanPSMT-72" d="M 1038 2947 
L 1038 2303 
Q 1397 2947 1775 2947 
Q 1947 2947 2059 2842 
Q 2172 2738 2172 2600 
Q 2172 2478 2090 2393 
Q 2009 2309 1897 2309 
Q 1788 2309 1652 2417 
Q 1516 2525 1450 2525 
Q 1394 2525 1328 2463 
Q 1188 2334 1038 2041 
L 1038 669 
Q 1038 431 1097 309 
Q 1138 225 1241 169 
Q 1344 113 1538 113 
L 1538 0 
L 72 0 
L 72 113 
Q 291 113 397 181 
Q 475 231 506 341 
Q 522 394 522 644 
L 522 1753 
Q 522 2253 501 2348 
Q 481 2444 426 2487 
Q 372 2531 291 2531 
Q 194 2531 72 2484 
L 41 2597 
L 906 2947 
L 1038 2947 
z
" transform="scale(0.015625)"/>
      </defs>
      <use xlink:href="#TimesNewRomanPSMT-41"/>
      <use xlink:href="#TimesNewRomanPSMT-72" x="72.216797"/>
     </g>
    </g>
    <g id="line2d_22">
     <path d="M 36.174531 55.904687 
L 39.674531 55.904687 
L 43.174531 55.904687 
" style="fill: none; stroke: #0000ff; stroke-width: 0.7; stroke-linecap: square"/>
    </g>
    <g id="text_19">
     <!-- H$_2$O -->
     <g transform="translate(48.774531 58.354687) scale(0.07 -0.07)">
      <defs>
       <path id="TimesNewRomanPSMT-48" d="M 1316 2272 
L 3284 2272 
L 3284 3484 
Q 3284 3809 3244 3913 
Q 3213 3991 3113 4047 
Q 2978 4122 2828 4122 
L 2678 4122 
L 2678 4238 
L 4491 4238 
L 4491 4122 
L 4341 4122 
Q 4191 4122 4056 4050 
Q 3956 4000 3920 3898 
Q 3884 3797 3884 3484 
L 3884 750 
Q 3884 428 3925 325 
Q 3956 247 4053 191 
Q 4191 116 4341 116 
L 4491 116 
L 4491 0 
L 2678 0 
L 2678 116 
L 2828 116 
Q 3088 116 3206 269 
Q 3284 369 3284 750 
L 3284 2041 
L 1316 2041 
L 1316 750 
Q 1316 428 1356 325 
Q 1388 247 1488 191 
Q 1622 116 1772 116 
L 1925 116 
L 1925 0 
L 109 0 
L 109 116 
L 259 116 
Q 522 116 641 269 
Q 716 369 716 750 
L 716 3484 
Q 716 3809 675 3913 
Q 644 3991 547 4047 
Q 409 4122 259 4122 
L 109 4122 
L 109 4238 
L 1925 4238 
L 1925 4122 
L 1772 4122 
Q 1622 4122 1488 4050 
Q 1391 4000 1353 3898 
Q 1316 3797 1316 3484 
L 1316 2272 
z
" transform="scale(0.015625)"/>
       <path id="TimesNewRomanPSMT-4f" d="M 2341 4334 
Q 3166 4334 3770 3707 
Q 4375 3081 4375 2144 
Q 4375 1178 3765 540 
Q 3156 -97 2291 -97 
Q 1416 -97 820 525 
Q 225 1147 225 2134 
Q 225 3144 913 3781 
Q 1509 4334 2341 4334 
z
M 2281 4106 
Q 1713 4106 1369 3684 
Q 941 3159 941 2147 
Q 941 1109 1384 550 
Q 1725 125 2284 125 
Q 2881 125 3270 590 
Q 3659 1056 3659 2059 
Q 3659 3147 3231 3681 
Q 2888 4106 2281 4106 
z
" transform="scale(0.015625)"/>
      </defs>
      <use xlink:href="#TimesNewRomanPSMT-48" transform="translate(0 0.28125)"/>
      <use xlink:href="#STIXGeneral-Regular-32" transform="translate(73.760078 -12.946875) scale(0.7)"/>
      <use xlink:href="#TimesNewRomanPSMT-4f" transform="translate(113.169442 0.28125)"/>
     </g>
    </g>
    <g id="line2d_23">
     <path d="M 36.174531 65.802031 
L 39.674531 65.802031 
L 43.174531 65.802031 
" style="fill: none; stroke: #7e1e9c; stroke-width: 0.7; stroke-linecap: square"/>
    </g>
    <g id="text_20">
     <!-- LMR-R -->
     <g transform="translate(48.774531 68.252031) scale(0.07 -0.07)">
      <defs>
       <path id="TimesNewRomanPSMT-4c" d="M 3669 1172 
L 3772 1150 
L 3409 0 
L 128 0 
L 128 116 
L 288 116 
Q 556 116 672 291 
Q 738 391 738 753 
L 738 3488 
Q 738 3884 650 3984 
Q 528 4122 288 4122 
L 128 4122 
L 128 4238 
L 2047 4238 
L 2047 4122 
Q 1709 4125 1573 4059 
Q 1438 3994 1388 3894 
Q 1338 3794 1338 3416 
L 1338 753 
Q 1338 494 1388 397 
Q 1425 331 1503 300 
Q 1581 269 1991 269 
L 2300 269 
Q 2788 269 2984 341 
Q 3181 413 3343 595 
Q 3506 778 3669 1172 
z
" transform="scale(0.015625)"/>
       <path id="TimesNewRomanPSMT-4d" d="M 2619 0 
L 981 3566 
L 981 734 
Q 981 344 1066 247 
Q 1181 116 1431 116 
L 1581 116 
L 1581 0 
L 106 0 
L 106 116 
L 256 116 
Q 525 116 638 278 
Q 706 378 706 734 
L 706 3503 
Q 706 3784 644 3909 
Q 600 4000 483 4061 
Q 366 4122 106 4122 
L 106 4238 
L 1306 4238 
L 2844 922 
L 4356 4238 
L 5556 4238 
L 5556 4122 
L 5409 4122 
Q 5138 4122 5025 3959 
Q 4956 3859 4956 3503 
L 4956 734 
Q 4956 344 5044 247 
Q 5159 116 5409 116 
L 5556 116 
L 5556 0 
L 3756 0 
L 3756 116 
L 3906 116 
Q 4178 116 4288 278 
Q 4356 378 4356 734 
L 4356 3566 
L 2722 0 
L 2619 0 
z
" transform="scale(0.015625)"/>
       <path id="TimesNewRomanPSMT-52" d="M 4325 0 
L 3194 0 
L 1759 1981 
Q 1600 1975 1500 1975 
Q 1459 1975 1412 1976 
Q 1366 1978 1316 1981 
L 1316 750 
Q 1316 350 1403 253 
Q 1522 116 1759 116 
L 1925 116 
L 1925 0 
L 109 0 
L 109 116 
L 269 116 
Q 538 116 653 291 
Q 719 388 719 750 
L 719 3488 
Q 719 3888 631 3984 
Q 509 4122 269 4122 
L 109 4122 
L 109 4238 
L 1653 4238 
Q 2328 4238 2648 4139 
Q 2969 4041 3192 3777 
Q 3416 3513 3416 3147 
Q 3416 2756 3161 2468 
Q 2906 2181 2372 2063 
L 3247 847 
Q 3547 428 3762 290 
Q 3978 153 4325 116 
L 4325 0 
z
M 1316 2178 
Q 1375 2178 1419 2176 
Q 1463 2175 1491 2175 
Q 2097 2175 2405 2437 
Q 2713 2700 2713 3106 
Q 2713 3503 2464 3751 
Q 2216 4000 1806 4000 
Q 1625 4000 1316 3941 
L 1316 2178 
z
" transform="scale(0.015625)"/>
       <path id="TimesNewRomanPSMT-2d" d="M 259 1672 
L 1875 1672 
L 1875 1200 
L 259 1200 
L 259 1672 
z
" transform="scale(0.015625)"/>
      </defs>
      <use xlink:href="#TimesNewRomanPSMT-4c"/>
      <use xlink:href="#TimesNewRomanPSMT-4d" x="61.083984"/>
      <use xlink:href="#TimesNewRomanPSMT-52" x="150"/>
      <use xlink:href="#TimesNewRomanPSMT-2d" x="216.699219"/>
      <use xlink:href="#TimesNewRomanPSMT-52" x="250"/>
     </g>
    </g>
    <g id="line2d_24">
     <defs>
      <path id="me58c51f8ad" d="M 0 1.6 
C 0.424325 1.6 0.831328 1.431414 1.131371 1.131371 
C 1.431414 0.831328 1.6 0.424325 1.6 0 
C 1.6 -0.424325 1.431414 -0.831328 1.131371 -1.131371 
C 0.831328 -1.431414 0.424325 -1.6 0 -1.6 
C -0.424325 -1.6 -0.831328 -1.431414 -1.131371 -1.131371 
C -1.431414 -0.831328 -1.6 -0.424325 -1.6 0 
C -1.6 0.424325 -1.431414 0.831328 -1.131371 1.131371 
C -0.831328 1.431414 -0.424325 1.6 0 1.6 
z
" style="stroke: #000000; stroke-width: 0.5"/>
     </defs>
     <g>
      <use xlink:href="#me58c51f8ad" x="39.674531" y="75.699375" style="fill-opacity: 0; stroke: #000000; stroke-width: 0.5"/>
     </g>
    </g>
    <g id="text_21">
     <!-- Sabia et al. -->
     <g transform="translate(48.774531 78.149375) scale(0.07 -0.07)">
      <defs>
       <path id="TimesNewRomanPSMT-53" d="M 2934 4334 
L 2934 2869 
L 2819 2869 
Q 2763 3291 2617 3541 
Q 2472 3791 2203 3937 
Q 1934 4084 1647 4084 
Q 1322 4084 1109 3886 
Q 897 3688 897 3434 
Q 897 3241 1031 3081 
Q 1225 2847 1953 2456 
Q 2547 2138 2764 1967 
Q 2981 1797 3098 1565 
Q 3216 1334 3216 1081 
Q 3216 600 2842 251 
Q 2469 -97 1881 -97 
Q 1697 -97 1534 -69 
Q 1438 -53 1133 45 
Q 828 144 747 144 
Q 669 144 623 97 
Q 578 50 556 -97 
L 441 -97 
L 441 1356 
L 556 1356 
Q 638 900 775 673 
Q 913 447 1195 297 
Q 1478 147 1816 147 
Q 2206 147 2432 353 
Q 2659 559 2659 841 
Q 2659 997 2573 1156 
Q 2488 1316 2306 1453 
Q 2184 1547 1640 1851 
Q 1097 2156 867 2337 
Q 638 2519 519 2737 
Q 400 2956 400 3219 
Q 400 3675 750 4004 
Q 1100 4334 1641 4334 
Q 1978 4334 2356 4169 
Q 2531 4091 2603 4091 
Q 2684 4091 2736 4139 
Q 2788 4188 2819 4334 
L 2934 4334 
z
" transform="scale(0.015625)"/>
       <path id="TimesNewRomanPSMT-62" d="M 984 2369 
Q 1400 2947 1881 2947 
Q 2322 2947 2650 2570 
Q 2978 2194 2978 1541 
Q 2978 778 2472 313 
Q 2038 -88 1503 -88 
Q 1253 -88 995 3 
Q 738 94 469 275 
L 469 3241 
Q 469 3728 445 3840 
Q 422 3953 372 3993 
Q 322 4034 247 4034 
Q 159 4034 28 3984 
L -16 4094 
L 844 4444 
L 984 4444 
L 984 2369 
z
M 984 2169 
L 984 456 
Q 1144 300 1314 220 
Q 1484 141 1663 141 
Q 1947 141 2192 453 
Q 2438 766 2438 1363 
Q 2438 1913 2192 2208 
Q 1947 2503 1634 2503 
Q 1469 2503 1303 2419 
Q 1178 2356 984 2169 
z
" transform="scale(0.015625)"/>
       <path id="TimesNewRomanPSMT-69" d="M 928 4444 
Q 1059 4444 1151 4351 
Q 1244 4259 1244 4128 
Q 1244 3997 1151 3903 
Q 1059 3809 928 3809 
Q 797 3809 703 3903 
Q 609 3997 609 4128 
Q 609 4259 701 4351 
Q 794 4444 928 4444 
z
M 1188 2947 
L 1188 647 
Q 1188 378 1227 289 
Q 1266 200 1342 156 
Q 1419 113 1622 113 
L 1622 0 
L 231 0 
L 231 113 
Q 441 113 512 153 
Q 584 194 626 287 
Q 669 381 669 647 
L 669 1750 
Q 669 2216 641 2353 
Q 619 2453 572 2492 
Q 525 2531 444 2531 
Q 356 2531 231 2484 
L 188 2597 
L 1050 2947 
L 1188 2947 
z
" transform="scale(0.015625)"/>
       <path id="TimesNewRomanPSMT-2e" d="M 800 606 
Q 947 606 1047 504 
Q 1147 403 1147 259 
Q 1147 116 1045 14 
Q 944 -88 800 -88 
Q 656 -88 554 14 
Q 453 116 453 259 
Q 453 406 554 506 
Q 656 606 800 606 
z
" transform="scale(0.015625)"/>
      </defs>
      <use xlink:href="#TimesNewRomanPSMT-53"/>
      <use xlink:href="#TimesNewRomanPSMT-61" x="55.615234"/>
      <use xlink:href="#TimesNewRomanPSMT-62" x="100"/>
      <use xlink:href="#TimesNewRomanPSMT-69" x="150"/>
      <use xlink:href="#TimesNewRomanPSMT-61" x="177.783203"/>
      <use xlink:href="#TimesNewRomanPSMT-20" x="222.167969"/>
      <use xlink:href="#TimesNewRomanPSMT-65" x="247.167969"/>
      <use xlink:href="#TimesNewRomanPSMT-74" x="291.552734"/>
      <use xlink:href="#TimesNewRomanPSMT-20" x="319.335938"/>
      <use xlink:href="#TimesNewRomanPSMT-61" x="344.335938"/>
      <use xlink:href="#TimesNewRomanPSMT-6c" x="388.720703"/>
      <use xlink:href="#TimesNewRomanPSMT-2e" x="416.503906"/>
     </g>
    </g>
   </g>
   <g id="line2d_25">
    <path d="M 36.822807 139.49669 
L 38.595326 139.493279 
L 40.367846 139.487747 
L 42.140365 139.478918 
L 43.912885 139.464991 
L 45.685404 139.443078 
L 47.457923 139.408012 
L 49.230443 139.348645 
L 51.002962 139.235305 
L 52.775481 139.020915 
L 54.548001 138.754551 
L 56.32052 138.472092 
L 58.093039 138.163998 
L 59.865559 137.819369 
L 61.638078 137.428086 
L 63.410597 136.979397 
L 65.183117 136.460867 
L 66.955636 135.857529 
L 68.728155 135.151046 
L 70.500675 134.318846 
L 72.273194 133.333292 
L 74.045714 132.161071 
L 75.818233 130.763285 
L 77.590752 129.097045 
L 79.363272 127.119747 
L 81.135791 124.797072 
L 82.90831 122.114268 
L 84.68083 119.087166 
L 86.453349 115.766454 
L 88.225868 112.230382 
L 89.998388 108.568083 
L 91.770907 104.861778 
L 93.543426 101.175247 
L 95.315946 97.550405 
L 97.088465 94.009532 
L 98.860984 90.559888 
L 100.633504 87.198497 
L 102.406023 83.916097 
L 104.178543 80.70002 
L 105.951062 77.536462 
L 107.723581 74.411861 
L 109.496101 71.313854 
L 111.26862 68.231863 
L 113.041139 65.157618 
L 114.813659 62.085497 
L 116.586178 59.012775 
L 118.358697 55.939788 
L 120.131217 52.870023 
L 121.903736 49.810113 
L 123.676255 46.76973 
" clip-path="url(#pd606829d01)" style="fill: none; stroke: #929591; stroke-width: 0.7; stroke-linecap: square"/>
   </g>
   <g id="line2d_26">
    <path d="M 36.822807 139.499781 
L 38.595326 139.498466 
L 40.367846 139.496296 
L 42.140365 139.492812 
L 43.912885 139.48734 
L 45.685404 139.478924 
L 47.457923 139.466235 
L 49.230443 139.447432 
L 51.002962 139.419915 
L 52.775481 139.379703 
L 54.548001 139.319765 
L 56.32052 139.224587 
L 58.093039 139.05079 
L 59.865559 138.746776 
L 61.638078 138.41802 
L 63.410597 138.092243 
L 65.183117 137.751809 
L 66.955636 137.385701 
L 68.728155 136.986613 
L 70.500675 136.548727 
L 72.273194 136.066758 
L 74.045714 135.535487 
L 75.818233 134.94949 
L 77.590752 134.302953 
L 79.363272 133.589536 
L 81.135791 132.802266 
L 82.90831 131.933458 
L 84.68083 130.974663 
L 86.453349 129.916652 
L 88.225868 128.74945 
L 89.998388 127.462415 
L 91.770907 126.044412 
L 93.543426 124.484074 
L 95.315946 122.770205 
L 97.088465 120.892337 
L 98.860984 118.841477 
L 100.633504 116.611041 
L 102.406023 114.197961 
L 104.178543 111.603863 
L 105.951062 108.836042 
L 107.723581 105.908307 
L 109.496101 102.840974 
L 111.26862 99.659756 
L 113.041139 96.39381 
L 114.813659 93.073023 
L 116.586178 89.725163 
L 118.358697 86.373617 
L 120.131217 83.036161 
L 121.903736 79.724894 
L 123.676255 76.447073 
" clip-path="url(#pd606829d01)" style="fill: none; stroke: #7e1e9c; stroke-width: 0.7; stroke-linecap: square"/>
   </g>
   <g id="line2d_27">
    <g clip-path="url(#pd606829d01)">
     <use xlink:href="#me58c51f8ad" x="51.416206" y="139.30306" style="fill-opacity: 0; stroke: #000000; stroke-width: 0.5"/>
     <use xlink:href="#me58c51f8ad" x="55.960863" y="139.30306" style="fill-opacity: 0; stroke: #000000; stroke-width: 0.5"/>
     <use xlink:href="#me58c51f8ad" x="61.262963" y="139.30306" style="fill-opacity: 0; stroke: #000000; stroke-width: 0.5"/>
     <use xlink:href="#me58c51f8ad" x="66.110598" y="139.105019" style="fill-opacity: 0; stroke: #000000; stroke-width: 0.5"/>
     <use xlink:href="#me58c51f8ad" x="72.776095" y="137.124614" style="fill-opacity: 0; stroke: #000000; stroke-width: 0.5"/>
     <use xlink:href="#me58c51f8ad" x="80.199035" y="133.955965" style="fill-opacity: 0; stroke: #000000; stroke-width: 0.5"/>
     <use xlink:href="#me58c51f8ad" x="87.167509" y="129.202992" style="fill-opacity: 0; stroke: #000000; stroke-width: 0.5"/>
     <use xlink:href="#me58c51f8ad" x="94.135984" y="123.459817" style="fill-opacity: 0; stroke: #000000; stroke-width: 0.5"/>
     <use xlink:href="#me58c51f8ad" x="104.588695" y="112.963669" style="fill-opacity: 0; stroke: #000000; stroke-width: 0.5"/>
     <use xlink:href="#me58c51f8ad" x="112.314612" y="105.83421" style="fill-opacity: 0; stroke: #000000; stroke-width: 0.5"/>
    </g>
   </g>
  </g>
  <g id="axes_2">
   <g id="patch_7">
    <path d="M 160.849531 145.8 
L 261.599531 145.8 
L 261.599531 7.2 
L 160.849531 7.2 
z
" style="fill: #ffffff"/>
   </g>
   <g id="line2d_28">
    <path d="M 167.797807 16.408569 
L 169.570326 16.410679 
L 171.342846 16.413865 
L 173.115365 16.418585 
L 174.887885 16.425476 
L 176.660404 16.435397 
L 178.432923 16.449482 
L 180.205443 16.46924 
L 181.977962 16.496746 
L 183.750481 16.535139 
L 185.523001 16.589929 
L 187.29552 16.673073 
L 189.068039 16.81773 
L 190.840559 17.079911 
L 192.613078 17.369135 
L 194.385597 17.644513 
L 196.158117 17.925756 
L 197.930636 18.224509 
L 199.703155 18.547905 
L 201.475675 18.901332 
L 203.248194 19.289515 
L 205.020714 19.717019 
L 206.793233 20.188525 
L 208.565752 20.709017 
L 210.338272 21.283928 
L 212.110791 21.91926 
L 213.88331 22.621694 
L 215.65583 23.398673 
L 217.428349 24.258486 
L 219.200868 25.210315 
L 220.973388 26.264264 
L 222.745907 27.431344 
L 224.518426 28.723402 
L 226.290946 30.152974 
L 228.063465 31.733032 
L 229.835984 33.476581 
L 231.608504 35.396079 
L 233.381023 37.502637 
L 235.153543 39.804981 
L 236.926062 42.308253 
L 238.698581 45.012708 
L 240.471101 47.912678 
L 242.24362 50.996151 
L 244.016139 54.245345 
L 245.788659 57.638478 
L 247.561178 61.152466 
L 249.333697 64.76584 
L 251.106217 68.461019 
L 252.878736 72.225353 
L 254.651255 76.05084 
" clip-path="url(#pd00bc10a06)" style="fill: none; stroke: #029386; stroke-width: 0.7; stroke-linecap: square"/>
   </g>
   <g id="matplotlib.axis_3">
    <g id="xtick_7">
     <g id="line2d_29">
      <g>
       <use xlink:href="#m2e5aba3f4e" x="167.797807" y="145.8" style="stroke: #000000; stroke-width: 0.5"/>
      </g>
     </g>
     <g id="text_22">
      <!-- 800 -->
      <g transform="translate(162.547807 154.160625) scale(0.07 -0.07)">
       <use xlink:href="#TimesNewRomanPSMT-38"/>
       <use xlink:href="#TimesNewRomanPSMT-30" x="50"/>
       <use xlink:href="#TimesNewRomanPSMT-30" x="100"/>
      </g>
     </g>
    </g>
    <g id="xtick_8">
     <g id="line2d_30">
      <g>
       <use xlink:href="#m2e5aba3f4e" x="185.168497" y="145.8" style="stroke: #000000; stroke-width: 0.5"/>
      </g>
     </g>
     <g id="text_23">
      <!-- 850 -->
      <g transform="translate(179.918497 154.160625) scale(0.07 -0.07)">
       <use xlink:href="#TimesNewRomanPSMT-38"/>
       <use xlink:href="#TimesNewRomanPSMT-35" x="50"/>
       <use xlink:href="#TimesNewRomanPSMT-30" x="100"/>
      </g>
     </g>
    </g>
    <g id="xtick_9">
     <g id="line2d_31">
      <g>
       <use xlink:href="#m2e5aba3f4e" x="202.539186" y="145.8" style="stroke: #000000; stroke-width: 0.5"/>
      </g>
     </g>
     <g id="text_24">
      <!-- 900 -->
      <g transform="translate(197.289186 154.160625) scale(0.07 -0.07)">
       <use xlink:href="#TimesNewRomanPSMT-39"/>
       <use xlink:href="#TimesNewRomanPSMT-30" x="50"/>
       <use xlink:href="#TimesNewRomanPSMT-30" x="100"/>
      </g>
     </g>
    </g>
    <g id="xtick_10">
     <g id="line2d_32">
      <g>
       <use xlink:href="#m2e5aba3f4e" x="219.909876" y="145.8" style="stroke: #000000; stroke-width: 0.5"/>
      </g>
     </g>
     <g id="text_25">
      <!-- 950 -->
      <g transform="translate(214.659876 154.160625) scale(0.07 -0.07)">
       <use xlink:href="#TimesNewRomanPSMT-39"/>
       <use xlink:href="#TimesNewRomanPSMT-35" x="50"/>
       <use xlink:href="#TimesNewRomanPSMT-30" x="100"/>
      </g>
     </g>
    </g>
    <g id="xtick_11">
     <g id="line2d_33">
      <g>
       <use xlink:href="#m2e5aba3f4e" x="237.280566" y="145.8" style="stroke: #000000; stroke-width: 0.5"/>
      </g>
     </g>
     <g id="text_26">
      <!-- 1000 -->
      <g transform="translate(230.280566 154.160625) scale(0.07 -0.07)">
       <use xlink:href="#TimesNewRomanPSMT-31"/>
       <use xlink:href="#TimesNewRomanPSMT-30" x="50"/>
       <use xlink:href="#TimesNewRomanPSMT-30" x="100"/>
       <use xlink:href="#TimesNewRomanPSMT-30" x="150"/>
      </g>
     </g>
    </g>
    <g id="xtick_12">
     <g id="line2d_34">
      <g>
       <use xlink:href="#m2e5aba3f4e" x="254.651255" y="145.8" style="stroke: #000000; stroke-width: 0.5"/>
      </g>
     </g>
     <g id="text_27">
      <!-- 1050 -->
      <g transform="translate(247.651255 154.160625) scale(0.07 -0.07)">
       <use xlink:href="#TimesNewRomanPSMT-31"/>
       <use xlink:href="#TimesNewRomanPSMT-30" x="50"/>
       <use xlink:href="#TimesNewRomanPSMT-35" x="100"/>
       <use xlink:href="#TimesNewRomanPSMT-30" x="150"/>
      </g>
     </g>
    </g>
    <g id="text_28">
     <!-- Temperature [K] -->
     <g transform="translate(181.182109 165.907344) scale(0.09 -0.09)">
      <defs>
       <path id="TimesNewRomanPSMT-6d" d="M 1050 2338 
Q 1363 2650 1419 2697 
Q 1559 2816 1721 2881 
Q 1884 2947 2044 2947 
Q 2313 2947 2506 2790 
Q 2700 2634 2766 2338 
Q 3088 2713 3309 2830 
Q 3531 2947 3766 2947 
Q 3994 2947 4170 2830 
Q 4347 2713 4450 2447 
Q 4519 2266 4519 1878 
L 4519 647 
Q 4519 378 4559 278 
Q 4591 209 4675 161 
Q 4759 113 4950 113 
L 4950 0 
L 3538 0 
L 3538 113 
L 3597 113 
Q 3781 113 3884 184 
Q 3956 234 3988 344 
Q 4000 397 4000 647 
L 4000 1878 
Q 4000 2228 3916 2372 
Q 3794 2572 3525 2572 
Q 3359 2572 3192 2489 
Q 3025 2406 2788 2181 
L 2781 2147 
L 2788 2013 
L 2788 647 
Q 2788 353 2820 281 
Q 2853 209 2943 161 
Q 3034 113 3253 113 
L 3253 0 
L 1806 0 
L 1806 113 
Q 2044 113 2133 169 
Q 2222 225 2256 338 
Q 2272 391 2272 647 
L 2272 1878 
Q 2272 2228 2169 2381 
Q 2031 2581 1784 2581 
Q 1616 2581 1450 2491 
Q 1191 2353 1050 2181 
L 1050 647 
Q 1050 366 1089 281 
Q 1128 197 1204 155 
Q 1281 113 1516 113 
L 1516 0 
L 100 0 
L 100 113 
Q 297 113 375 155 
Q 453 197 493 289 
Q 534 381 534 647 
L 534 1741 
Q 534 2213 506 2350 
Q 484 2453 437 2492 
Q 391 2531 309 2531 
Q 222 2531 100 2484 
L 53 2597 
L 916 2947 
L 1050 2947 
L 1050 2338 
z
" transform="scale(0.015625)"/>
       <path id="TimesNewRomanPSMT-70" d="M -6 2578 
L 875 2934 
L 994 2934 
L 994 2266 
Q 1216 2644 1439 2795 
Q 1663 2947 1909 2947 
Q 2341 2947 2628 2609 
Q 2981 2197 2981 1534 
Q 2981 794 2556 309 
Q 2206 -88 1675 -88 
Q 1444 -88 1275 -22 
Q 1150 25 994 166 
L 994 -706 
Q 994 -1000 1030 -1079 
Q 1066 -1159 1155 -1206 
Q 1244 -1253 1478 -1253 
L 1478 -1369 
L -22 -1369 
L -22 -1253 
L 56 -1253 
Q 228 -1256 350 -1188 
Q 409 -1153 442 -1076 
Q 475 -1000 475 -688 
L 475 2019 
Q 475 2297 450 2372 
Q 425 2447 370 2484 
Q 316 2522 222 2522 
Q 147 2522 31 2478 
L -6 2578 
z
M 994 2081 
L 994 1013 
Q 994 666 1022 556 
Q 1066 375 1236 237 
Q 1406 100 1666 100 
Q 1978 100 2172 344 
Q 2425 663 2425 1241 
Q 2425 1897 2138 2250 
Q 1938 2494 1663 2494 
Q 1513 2494 1366 2419 
Q 1253 2363 994 2081 
z
" transform="scale(0.015625)"/>
      </defs>
      <use xlink:href="#TimesNewRomanPSMT-54"/>
      <use xlink:href="#TimesNewRomanPSMT-65" x="54.083984"/>
      <use xlink:href="#TimesNewRomanPSMT-6d" x="98.46875"/>
      <use xlink:href="#TimesNewRomanPSMT-70" x="176.251953"/>
      <use xlink:href="#TimesNewRomanPSMT-65" x="226.251953"/>
      <use xlink:href="#TimesNewRomanPSMT-72" x="270.636719"/>
      <use xlink:href="#TimesNewRomanPSMT-61" x="303.9375"/>
      <use xlink:href="#TimesNewRomanPSMT-74" x="348.322266"/>
      <use xlink:href="#TimesNewRomanPSMT-75" x="376.105469"/>
      <use xlink:href="#TimesNewRomanPSMT-72" x="426.105469"/>
      <use xlink:href="#TimesNewRomanPSMT-65" x="459.40625"/>
      <use xlink:href="#TimesNewRomanPSMT-20" x="503.791016"/>
      <use xlink:href="#TimesNewRomanPSMT-5b" x="528.791016"/>
      <use xlink:href="#TimesNewRomanPSMT-4b" x="562.091797"/>
      <use xlink:href="#TimesNewRomanPSMT-5d" x="634.308594"/>
     </g>
    </g>
   </g>
   <g id="matplotlib.axis_4">
    <g id="ytick_8">
     <g id="line2d_35">
      <g>
       <use xlink:href="#mc7b65a37d1" x="160.849531" y="125.25266" style="stroke: #000000; stroke-width: 0.5"/>
      </g>
     </g>
     <g id="text_29">
      <!-- 1.0 -->
      <g transform="translate(148.599531 127.682973) scale(0.07 -0.07)">
       <use xlink:href="#TimesNewRomanPSMT-31"/>
       <use xlink:href="#TimesNewRomanPSMT-2e" x="50"/>
       <use xlink:href="#TimesNewRomanPSMT-30" x="75"/>
      </g>
     </g>
    </g>
    <g id="ytick_9">
     <g id="line2d_36">
      <g>
       <use xlink:href="#mc7b65a37d1" x="160.849531" y="98.041019" style="stroke: #000000; stroke-width: 0.5"/>
      </g>
     </g>
     <g id="text_30">
      <!-- 1.5 -->
      <g transform="translate(148.599531 100.471332) scale(0.07 -0.07)">
       <use xlink:href="#TimesNewRomanPSMT-31"/>
       <use xlink:href="#TimesNewRomanPSMT-2e" x="50"/>
       <use xlink:href="#TimesNewRomanPSMT-35" x="75"/>
      </g>
     </g>
    </g>
    <g id="ytick_10">
     <g id="line2d_37">
      <g>
       <use xlink:href="#mc7b65a37d1" x="160.849531" y="70.829379" style="stroke: #000000; stroke-width: 0.5"/>
      </g>
     </g>
     <g id="text_31">
      <!-- 2.0 -->
      <g transform="translate(148.599531 73.259691) scale(0.07 -0.07)">
       <use xlink:href="#TimesNewRomanPSMT-32"/>
       <use xlink:href="#TimesNewRomanPSMT-2e" x="50"/>
       <use xlink:href="#TimesNewRomanPSMT-30" x="75"/>
      </g>
     </g>
    </g>
    <g id="ytick_11">
     <g id="line2d_38">
      <g>
       <use xlink:href="#mc7b65a37d1" x="160.849531" y="43.617738" style="stroke: #000000; stroke-width: 0.5"/>
      </g>
     </g>
     <g id="text_32">
      <!-- 2.5 -->
      <g transform="translate(148.599531 46.048051) scale(0.07 -0.07)">
       <use xlink:href="#TimesNewRomanPSMT-32"/>
       <use xlink:href="#TimesNewRomanPSMT-2e" x="50"/>
       <use xlink:href="#TimesNewRomanPSMT-35" x="75"/>
      </g>
     </g>
    </g>
    <g id="ytick_12">
     <g id="line2d_39">
      <g>
       <use xlink:href="#mc7b65a37d1" x="160.849531" y="16.406098" style="stroke: #000000; stroke-width: 0.5"/>
      </g>
     </g>
     <g id="text_33">
      <!-- 3.0 -->
      <g transform="translate(148.599531 18.83641) scale(0.07 -0.07)">
       <use xlink:href="#TimesNewRomanPSMT-33"/>
       <use xlink:href="#TimesNewRomanPSMT-2e" x="50"/>
       <use xlink:href="#TimesNewRomanPSMT-30" x="75"/>
      </g>
     </g>
    </g>
    <g id="text_34">
     <!-- O$_2$ mole fraction [%] -->
     <g transform="translate(142.674375 114.705) rotate(-90) scale(0.09 -0.09)">
      <defs>
       <path id="TimesNewRomanPSMT-6f" d="M 1600 2947 
Q 2250 2947 2644 2453 
Q 2978 2031 2978 1484 
Q 2978 1100 2793 706 
Q 2609 313 2286 112 
Q 1963 -88 1566 -88 
Q 919 -88 538 428 
Q 216 863 216 1403 
Q 216 1797 411 2186 
Q 606 2575 925 2761 
Q 1244 2947 1600 2947 
z
M 1503 2744 
Q 1338 2744 1170 2645 
Q 1003 2547 900 2300 
Q 797 2053 797 1666 
Q 797 1041 1045 587 
Q 1294 134 1700 134 
Q 2003 134 2200 384 
Q 2397 634 2397 1244 
Q 2397 2006 2069 2444 
Q 1847 2744 1503 2744 
z
" transform="scale(0.015625)"/>
       <path id="TimesNewRomanPSMT-66" d="M 1319 2638 
L 1319 756 
Q 1319 356 1406 250 
Q 1522 113 1716 113 
L 1975 113 
L 1975 0 
L 266 0 
L 266 113 
L 394 113 
Q 519 113 622 175 
Q 725 238 764 344 
Q 803 450 803 756 
L 803 2638 
L 247 2638 
L 247 2863 
L 803 2863 
L 803 3050 
Q 803 3478 940 3775 
Q 1078 4072 1361 4255 
Q 1644 4438 1997 4438 
Q 2325 4438 2600 4225 
Q 2781 4084 2781 3909 
Q 2781 3816 2700 3733 
Q 2619 3650 2525 3650 
Q 2453 3650 2373 3701 
Q 2294 3753 2178 3923 
Q 2063 4094 1966 4153 
Q 1869 4213 1750 4213 
Q 1606 4213 1506 4136 
Q 1406 4059 1362 3898 
Q 1319 3738 1319 3069 
L 1319 2863 
L 2056 2863 
L 2056 2638 
L 1319 2638 
z
" transform="scale(0.015625)"/>
       <path id="TimesNewRomanPSMT-63" d="M 2631 1088 
Q 2516 522 2178 217 
Q 1841 -88 1431 -88 
Q 944 -88 581 321 
Q 219 731 219 1428 
Q 219 2103 620 2525 
Q 1022 2947 1584 2947 
Q 2006 2947 2278 2723 
Q 2550 2500 2550 2259 
Q 2550 2141 2473 2067 
Q 2397 1994 2259 1994 
Q 2075 1994 1981 2113 
Q 1928 2178 1911 2362 
Q 1894 2547 1784 2644 
Q 1675 2738 1481 2738 
Q 1169 2738 978 2506 
Q 725 2200 725 1697 
Q 725 1184 976 792 
Q 1228 400 1656 400 
Q 1963 400 2206 609 
Q 2378 753 2541 1131 
L 2631 1088 
z
" transform="scale(0.015625)"/>
       <path id="TimesNewRomanPSMT-6e" d="M 1034 2341 
Q 1538 2947 1994 2947 
Q 2228 2947 2397 2830 
Q 2566 2713 2666 2444 
Q 2734 2256 2734 1869 
L 2734 647 
Q 2734 375 2778 278 
Q 2813 200 2889 156 
Q 2966 113 3172 113 
L 3172 0 
L 1756 0 
L 1756 113 
L 1816 113 
Q 2016 113 2095 173 
Q 2175 234 2206 353 
Q 2219 400 2219 647 
L 2219 1819 
Q 2219 2209 2117 2386 
Q 2016 2563 1775 2563 
Q 1403 2563 1034 2156 
L 1034 647 
Q 1034 356 1069 288 
Q 1113 197 1189 155 
Q 1266 113 1500 113 
L 1500 0 
L 84 0 
L 84 113 
L 147 113 
Q 366 113 442 223 
Q 519 334 519 647 
L 519 1709 
Q 519 2225 495 2337 
Q 472 2450 423 2490 
Q 375 2531 294 2531 
Q 206 2531 84 2484 
L 38 2597 
L 900 2947 
L 1034 2947 
L 1034 2341 
z
" transform="scale(0.015625)"/>
       <path id="TimesNewRomanPSMT-25" d="M 4350 4334 
L 1263 -175 
L 984 -175 
L 4072 4334 
L 4350 4334 
z
M 1138 4334 
Q 1559 4334 1792 3984 
Q 2025 3634 2025 3181 
Q 2025 2638 1762 2341 
Q 1500 2044 1131 2044 
Q 884 2044 678 2180 
Q 472 2316 348 2584 
Q 225 2853 225 3181 
Q 225 3509 350 3786 
Q 475 4063 692 4198 
Q 909 4334 1138 4334 
z
M 1128 4159 
Q 969 4159 845 3971 
Q 722 3784 722 3184 
Q 722 2750 791 2522 
Q 844 2350 956 2256 
Q 1022 2200 1119 2200 
Q 1269 2200 1375 2363 
Q 1531 2603 1531 3166 
Q 1531 3759 1378 4000 
Q 1278 4159 1128 4159 
z
M 4206 2103 
Q 4428 2103 4648 1962 
Q 4869 1822 4989 1553 
Q 5109 1284 5109 963 
Q 5109 409 4843 117 
Q 4578 -175 4216 -175 
Q 3988 -175 3773 -34 
Q 3559 106 3436 367 
Q 3313 628 3313 963 
Q 3313 1291 3436 1562 
Q 3559 1834 3773 1968 
Q 3988 2103 4206 2103 
z
M 4209 1938 
Q 4059 1938 3950 1769 
Q 3809 1550 3809 941 
Q 3809 381 3953 159 
Q 4059 0 4209 0 
Q 4353 0 4466 172 
Q 4616 400 4616 956 
Q 4616 1544 4466 1778 
Q 4363 1938 4209 1938 
z
" transform="scale(0.015625)"/>
      </defs>
      <use xlink:href="#TimesNewRomanPSMT-4f" transform="translate(0 0.5625)"/>
      <use xlink:href="#STIXGeneral-Regular-32" transform="translate(73.760078 -12.665625) scale(0.7)"/>
      <use xlink:href="#TimesNewRomanPSMT-20" transform="translate(113.169442 0.5625)"/>
      <use xlink:href="#TimesNewRomanPSMT-6d" transform="translate(138.169442 0.5625)"/>
      <use xlink:href="#TimesNewRomanPSMT-6f" transform="translate(215.952646 0.5625)"/>
      <use xlink:href="#TimesNewRomanPSMT-6c" transform="translate(265.952646 0.5625)"/>
      <use xlink:href="#TimesNewRomanPSMT-65" transform="translate(293.735849 0.5625)"/>
      <use xlink:href="#TimesNewRomanPSMT-20" transform="translate(338.120614 0.5625)"/>
      <use xlink:href="#TimesNewRomanPSMT-66" transform="translate(363.120614 0.5625)"/>
      <use xlink:href="#TimesNewRomanPSMT-72" transform="translate(396.421396 0.5625)"/>
      <use xlink:href="#TimesNewRomanPSMT-61" transform="translate(429.722177 0.5625)"/>
      <use xlink:href="#TimesNewRomanPSMT-63" transform="translate(474.106942 0.5625)"/>
      <use xlink:href="#TimesNewRomanPSMT-74" transform="translate(518.491708 0.5625)"/>
      <use xlink:href="#TimesNewRomanPSMT-69" transform="translate(546.274911 0.5625)"/>
      <use xlink:href="#TimesNewRomanPSMT-6f" transform="translate(574.058114 0.5625)"/>
      <use xlink:href="#TimesNewRomanPSMT-6e" transform="translate(624.058114 0.5625)"/>
      <use xlink:href="#TimesNewRomanPSMT-20" transform="translate(674.058114 0.5625)"/>
      <use xlink:href="#TimesNewRomanPSMT-5b" transform="translate(699.058114 0.5625)"/>
      <use xlink:href="#TimesNewRomanPSMT-25" transform="translate(732.358896 0.5625)"/>
      <use xlink:href="#TimesNewRomanPSMT-5d" transform="translate(815.659677 0.5625)"/>
     </g>
    </g>
   </g>
   <g id="line2d_40">
    <path d="M 167.797807 16.408205 
L 169.570326 16.410121 
L 171.342846 16.413024 
L 173.115365 16.41733 
L 174.887885 16.423616 
L 176.660404 16.432663 
L 178.432923 16.445495 
L 180.205443 16.463453 
L 181.977962 16.488317 
L 183.750481 16.522613 
L 185.523001 16.570387 
L 187.29552 16.639418 
L 189.068039 16.748966 
L 190.840559 16.959139 
L 192.613078 17.282717 
L 194.385597 17.58049 
L 196.158117 17.867437 
L 197.930636 18.163643 
L 199.703155 18.479073 
L 201.475675 18.820052 
L 203.248194 19.191474 
L 205.020714 19.597637 
L 206.793233 20.042623 
L 208.565752 20.530508 
L 210.338272 21.065501 
L 212.110791 21.652052 
L 213.88331 22.294936 
L 215.65583 22.999336 
L 217.428349 23.770899 
L 219.200868 24.615793 
L 220.973388 25.540735 
L 222.745907 26.553011 
L 224.518426 27.660465 
L 226.290946 28.871465 
L 228.063465 30.194841 
L 229.835984 31.639776 
L 231.608504 33.215658 
L 233.381023 34.931865 
L 235.153543 36.797484 
L 236.926062 38.820937 
L 238.698581 41.009521 
L 240.471101 43.368825 
L 242.24362 45.902117 
L 244.016139 48.609706 
L 245.788659 51.488423 
L 247.561178 54.531401 
L 249.333697 57.728317 
L 251.106217 61.066219 
L 252.878736 64.530845 
L 254.651255 68.108133 
" clip-path="url(#pd00bc10a06)" style="fill: none; stroke: #ffa500; stroke-width: 0.7; stroke-linecap: square"/>
   </g>
   <g id="patch_8">
    <path d="M 160.849531 145.8 
L 160.849531 7.2 
" style="fill: none; stroke: #000000; stroke-width: 0.8; stroke-linejoin: miter; stroke-linecap: square"/>
   </g>
   <g id="patch_9">
    <path d="M 261.599531 145.8 
L 261.599531 7.2 
" style="fill: none; stroke: #000000; stroke-width: 0.8; stroke-linejoin: miter; stroke-linecap: square"/>
   </g>
   <g id="patch_10">
    <path d="M 160.849531 145.8 
L 261.599531 145.8 
" style="fill: none; stroke: #000000; stroke-width: 0.8; stroke-linejoin: miter; stroke-linecap: square"/>
   </g>
   <g id="patch_11">
    <path d="M 160.849531 7.2 
L 261.599531 7.2 
" style="fill: none; stroke: #000000; stroke-width: 0.8; stroke-linejoin: miter; stroke-linecap: square"/>
   </g>
   <g id="line2d_41">
    <path d="M 167.797807 16.41493 
L 169.570326 16.420369 
L 171.342846 16.428578 
L 173.115365 16.440918 
L 174.887885 16.45956 
L 176.660404 16.488423 
L 178.432923 16.536262 
L 180.205443 16.628034 
L 181.977962 16.802972 
L 183.750481 17.012122 
L 185.523001 17.232425 
L 187.29552 17.47539 
L 189.068039 17.752164 
L 190.840559 18.074042 
L 192.613078 18.45442 
L 194.385597 18.910635 
L 196.158117 19.466293 
L 197.930636 20.15484 
L 199.703155 21.025476 
L 201.475675 22.153563 
L 203.248194 23.659642 
L 205.020714 25.744407 
L 206.793233 28.745673 
L 208.565752 33.16875 
L 210.338272 39.376073 
L 212.110791 46.728184 
L 213.88331 53.946722 
L 215.65583 60.455188 
L 217.428349 66.273247 
L 219.200868 71.558127 
L 220.973388 76.450713 
L 222.745907 81.053464 
L 224.518426 85.436428 
L 226.290946 89.645852 
L 228.063465 93.710968 
L 229.835984 97.648893 
L 231.608504 101.468185 
L 233.381023 105.171421 
L 235.153543 108.757253 
L 236.926062 112.222009 
L 238.698581 115.560955 
L 240.471101 118.769266 
L 242.24362 121.842762 
L 244.016139 124.77837 
L 245.788659 127.574397 
L 247.561178 130.230622 
L 249.333697 132.748256 
L 251.106217 135.129807 
L 252.878736 137.378888 
L 254.651255 139.5 
" clip-path="url(#pd00bc10a06)" style="fill: none; stroke: #ff0000; stroke-width: 0.7; stroke-linecap: square"/>
   </g>
   <g id="line2d_42">
    <path d="M 167.797807 16.426417 
L 169.570326 16.436553 
L 171.342846 16.450411 
L 173.115365 16.468932 
L 174.887885 16.493247 
L 176.660404 16.524838 
L 178.432923 16.565884 
L 180.205443 16.620089 
L 181.977962 16.695138 
L 183.750481 16.81388 
L 185.523001 17.818086 
L 187.29552 18.280706 
L 189.068039 18.653646 
L 190.840559 19.011821 
L 192.613078 19.371436 
L 194.385597 19.739394 
L 196.158117 20.119636 
L 197.930636 20.514883 
L 199.703155 20.927287 
L 201.475675 21.358716 
L 203.248194 21.810891 
L 205.020714 22.285462 
L 206.793233 22.784045 
L 208.565752 23.308241 
L 210.338272 23.859648 
L 212.110791 24.439859 
L 213.88331 25.050455 
L 215.65583 25.692999 
L 217.428349 26.369021 
L 219.200868 27.079999 
L 220.973388 27.827337 
L 222.745907 28.612338 
L 224.518426 29.436173 
L 226.290946 30.299848 
L 228.063465 31.204161 
L 229.835984 32.149666 
L 231.608504 33.13663 
L 233.381023 34.164989 
L 235.153543 35.234314 
L 236.926062 36.343781 
L 238.698581 37.492152 
L 240.471101 38.677765 
L 242.24362 39.898554 
L 244.016139 41.152088 
L 245.788659 42.435624 
L 247.561178 43.746189 
L 249.333697 45.080678 
L 251.106217 46.435956 
L 252.878736 47.808977 
L 254.651255 49.196888 
" clip-path="url(#pd00bc10a06)" style="fill: none; stroke: #0000ff; stroke-width: 0.7; stroke-linecap: square"/>
   </g>
   <g id="line2d_43">
    <path d="M 167.797807 16.412982 
L 169.570326 16.417415 
L 171.342846 16.424082 
L 173.115365 16.43402 
L 174.887885 16.448741 
L 176.660404 16.470605 
L 178.432923 16.503782 
L 180.205443 16.55727 
L 181.977962 16.654828 
L 183.750481 16.831722 
L 185.523001 17.04476 
L 187.29552 17.266923 
L 189.068039 17.507285 
L 190.840559 17.77514 
L 192.613078 18.078896 
L 194.385597 18.427387 
L 196.158117 18.830792 
L 197.930636 19.301355 
L 199.703155 19.854104 
L 201.475675 20.507603 
L 203.248194 21.284705 
L 205.020714 22.213167 
L 206.793233 23.32577 
L 208.565752 24.659286 
L 210.338272 26.251342 
L 212.110791 28.134269 
L 213.88331 30.326091 
L 215.65583 32.821327 
L 217.428349 35.586692 
L 219.200868 38.56585 
L 220.973388 41.691958 
L 222.745907 44.901718 
L 224.518426 48.144964 
L 226.290946 51.38802 
L 228.063465 54.612497 
L 229.835984 57.812015 
L 231.608504 60.988609 
L 233.381023 64.149651 
L 235.153543 67.305497 
L 236.926062 70.467731 
L 238.698581 73.647954 
L 240.471101 76.856897 
L 242.24362 80.10379 
L 244.016139 83.395849 
L 245.788659 86.737884 
L 247.561178 90.131985 
L 249.333697 93.577268 
L 251.106217 97.069703 
L 252.878736 100.602024 
L 254.651255 104.163752 
" clip-path="url(#pd00bc10a06)" style="fill: none; stroke: #929591; stroke-width: 0.7; stroke-linecap: square"/>
   </g>
   <g id="line2d_44">
    <path d="M 167.797807 16.40857 
L 169.570326 16.410666 
L 171.342846 16.413829 
L 173.115365 16.418518 
L 174.887885 16.42537 
L 176.660404 16.43525 
L 178.432923 16.449312 
L 180.205443 16.469101 
L 181.977962 16.496783 
L 183.750481 16.535701 
L 185.523001 16.591901 
L 187.29552 16.67896 
L 189.068039 16.834574 
L 190.840559 17.099122 
L 192.613078 17.376901 
L 194.385597 17.647511 
L 196.158117 17.927791 
L 197.930636 18.227767 
L 199.703155 18.553984 
L 201.475675 18.911633 
L 203.248194 19.305431 
L 205.020714 19.740054 
L 206.793233 20.220381 
L 208.565752 20.751663 
L 210.338272 21.339653 
L 212.110791 21.990711 
L 213.88331 22.711885 
L 215.65583 23.510975 
L 217.428349 24.396572 
L 219.200868 25.378062 
L 220.973388 26.465587 
L 222.745907 27.669942 
L 224.518426 29.002395 
L 226.290946 30.474397 
L 228.063465 32.097155 
L 229.835984 33.881043 
L 231.608504 35.834841 
L 233.381023 37.964807 
L 235.153543 40.273647 
L 236.926062 42.759543 
L 238.698581 45.415395 
L 240.471101 48.228626 
L 242.24362 51.181782 
L 244.016139 54.253964 
L 245.788659 57.422939 
L 247.561178 60.667433 
L 249.333697 63.969053 
L 251.106217 67.313408 
L 252.878736 70.69029 
L 254.651255 74.093082 
" clip-path="url(#pd00bc10a06)" style="fill: none; stroke: #7e1e9c; stroke-width: 0.7; stroke-linecap: square"/>
   </g>
   <g id="line2d_45">
    <g clip-path="url(#pd00bc10a06)">
     <use xlink:href="#me58c51f8ad" x="182.570227" y="13.5" style="fill-opacity: 0; stroke: #000000; stroke-width: 0.5"/>
     <use xlink:href="#me58c51f8ad" x="186.760985" y="13.676127" style="fill-opacity: 0; stroke: #000000; stroke-width: 0.5"/>
     <use xlink:href="#me58c51f8ad" x="192.041339" y="14.380636" style="fill-opacity: 0; stroke: #000000; stroke-width: 0.5"/>
     <use xlink:href="#me58c51f8ad" x="197.154063" y="15.085144" style="fill-opacity: 0; stroke: #000000; stroke-width: 0.5"/>
     <use xlink:href="#me58c51f8ad" x="203.77546" y="15.613525" style="fill-opacity: 0; stroke: #000000; stroke-width: 0.5"/>
     <use xlink:href="#me58c51f8ad" x="211.151193" y="18.255432" style="fill-opacity: 0; stroke: #000000; stroke-width: 0.5"/>
     <use xlink:href="#me58c51f8ad" x="218.10785" y="20.545085" style="fill-opacity: 0; stroke: #000000; stroke-width: 0.5"/>
     <use xlink:href="#me58c51f8ad" x="225.232138" y="27.59017" style="fill-opacity: 0; stroke: #000000; stroke-width: 0.5"/>
     <use xlink:href="#me58c51f8ad" x="235.541401" y="38.333924" style="fill-opacity: 0; stroke: #000000; stroke-width: 0.5"/>
     <use xlink:href="#me58c51f8ad" x="243.503841" y="56.651145" style="fill-opacity: 0; stroke: #000000; stroke-width: 0.5"/>
    </g>
   </g>
  </g>
  <g id="axes_3">
   <g id="patch_12">
    <path d="M 291.824531 145.8 
L 392.574531 145.8 
L 392.574531 7.2 
L 291.824531 7.2 
z
" style="fill: #ffffff"/>
   </g>
   <g id="line2d_46">
    <path d="M 298.772807 16.199885 
L 300.545326 16.20314 
L 302.317846 16.208295 
L 304.090365 16.216268 
L 305.862885 16.228363 
L 307.635404 16.246365 
L 309.407923 16.272646 
L 311.180443 16.310311 
L 312.952962 16.36348 
L 314.725481 16.437985 
L 316.498001 16.543365 
L 318.27052 16.699238 
L 320.043039 16.959254 
L 321.815559 17.419171 
L 323.588078 17.942028 
L 325.360597 18.458993 
L 327.133117 19.001665 
L 328.905636 19.59036 
L 330.678155 20.238568 
L 332.450675 20.957166 
L 334.223194 21.756113 
L 335.995714 22.645228 
L 337.768233 23.634642 
L 339.540752 24.735098 
L 341.313272 25.958188 
L 343.085791 27.316549 
L 344.85831 28.824022 
L 346.63083 30.495762 
L 348.403349 32.348298 
L 350.175868 34.399512 
L 351.948388 36.668517 
L 353.720907 39.175389 
L 355.493426 41.940699 
L 357.265946 44.984793 
L 359.038465 48.326708 
L 360.810984 51.982662 
L 362.583504 55.963991 
L 364.356023 60.274506 
L 366.128543 64.907276 
L 367.901062 69.841133 
L 369.673581 75.037306 
L 371.446101 80.437251 
L 373.21862 85.96283 
L 374.991139 91.519822 
L 376.763659 97.005034 
L 378.536178 102.315867 
L 380.308697 107.359936 
L 382.081217 112.062201 
L 383.853736 116.368111 
L 385.626255 120.242873 
" clip-path="url(#pf06d6c5ccd)" style="fill: none; stroke: #029386; stroke-width: 0.7; stroke-linecap: square"/>
   </g>
   <g id="matplotlib.axis_5">
    <g id="xtick_13">
     <g id="line2d_47">
      <g>
       <use xlink:href="#m2e5aba3f4e" x="298.772807" y="145.8" style="stroke: #000000; stroke-width: 0.5"/>
      </g>
     </g>
     <g id="text_35">
      <!-- 800 -->
      <g transform="translate(293.522807 154.160625) scale(0.07 -0.07)">
       <use xlink:href="#TimesNewRomanPSMT-38"/>
       <use xlink:href="#TimesNewRomanPSMT-30" x="50"/>
       <use xlink:href="#TimesNewRomanPSMT-30" x="100"/>
      </g>
     </g>
    </g>
    <g id="xtick_14">
     <g id="line2d_48">
      <g>
       <use xlink:href="#m2e5aba3f4e" x="316.143497" y="145.8" style="stroke: #000000; stroke-width: 0.5"/>
      </g>
     </g>
     <g id="text_36">
      <!-- 850 -->
      <g transform="translate(310.893497 154.160625) scale(0.07 -0.07)">
       <use xlink:href="#TimesNewRomanPSMT-38"/>
       <use xlink:href="#TimesNewRomanPSMT-35" x="50"/>
       <use xlink:href="#TimesNewRomanPSMT-30" x="100"/>
      </g>
     </g>
    </g>
    <g id="xtick_15">
     <g id="line2d_49">
      <g>
       <use xlink:href="#m2e5aba3f4e" x="333.514186" y="145.8" style="stroke: #000000; stroke-width: 0.5"/>
      </g>
     </g>
     <g id="text_37">
      <!-- 900 -->
      <g transform="translate(328.264186 154.160625) scale(0.07 -0.07)">
       <use xlink:href="#TimesNewRomanPSMT-39"/>
       <use xlink:href="#TimesNewRomanPSMT-30" x="50"/>
       <use xlink:href="#TimesNewRomanPSMT-30" x="100"/>
      </g>
     </g>
    </g>
    <g id="xtick_16">
     <g id="line2d_50">
      <g>
       <use xlink:href="#m2e5aba3f4e" x="350.884876" y="145.8" style="stroke: #000000; stroke-width: 0.5"/>
      </g>
     </g>
     <g id="text_38">
      <!-- 950 -->
      <g transform="translate(345.634876 154.160625) scale(0.07 -0.07)">
       <use xlink:href="#TimesNewRomanPSMT-39"/>
       <use xlink:href="#TimesNewRomanPSMT-35" x="50"/>
       <use xlink:href="#TimesNewRomanPSMT-30" x="100"/>
      </g>
     </g>
    </g>
    <g id="xtick_17">
     <g id="line2d_51">
      <g>
       <use xlink:href="#m2e5aba3f4e" x="368.255566" y="145.8" style="stroke: #000000; stroke-width: 0.5"/>
      </g>
     </g>
     <g id="text_39">
      <!-- 1000 -->
      <g transform="translate(361.255566 154.160625) scale(0.07 -0.07)">
       <use xlink:href="#TimesNewRomanPSMT-31"/>
       <use xlink:href="#TimesNewRomanPSMT-30" x="50"/>
       <use xlink:href="#TimesNewRomanPSMT-30" x="100"/>
       <use xlink:href="#TimesNewRomanPSMT-30" x="150"/>
      </g>
     </g>
    </g>
    <g id="xtick_18">
     <g id="line2d_52">
      <g>
       <use xlink:href="#m2e5aba3f4e" x="385.626255" y="145.8" style="stroke: #000000; stroke-width: 0.5"/>
      </g>
     </g>
     <g id="text_40">
      <!-- 1050 -->
      <g transform="translate(378.626255 154.160625) scale(0.07 -0.07)">
       <use xlink:href="#TimesNewRomanPSMT-31"/>
       <use xlink:href="#TimesNewRomanPSMT-30" x="50"/>
       <use xlink:href="#TimesNewRomanPSMT-35" x="100"/>
       <use xlink:href="#TimesNewRomanPSMT-30" x="150"/>
      </g>
     </g>
    </g>
   </g>
   <g id="matplotlib.axis_6">
    <g id="ytick_13">
     <g id="line2d_53">
      <g>
       <use xlink:href="#mc7b65a37d1" x="291.824531" y="122.666974" style="stroke: #000000; stroke-width: 0.5"/>
      </g>
     </g>
     <g id="text_41">
      <!-- 1.5 -->
      <g transform="translate(279.574531 125.097287) scale(0.07 -0.07)">
       <use xlink:href="#TimesNewRomanPSMT-31"/>
       <use xlink:href="#TimesNewRomanPSMT-2e" x="50"/>
       <use xlink:href="#TimesNewRomanPSMT-35" x="75"/>
      </g>
     </g>
    </g>
    <g id="ytick_14">
     <g id="line2d_54">
      <g>
       <use xlink:href="#mc7b65a37d1" x="291.824531" y="87.176776" style="stroke: #000000; stroke-width: 0.5"/>
      </g>
     </g>
     <g id="text_42">
      <!-- 2.0 -->
      <g transform="translate(279.574531 89.607089) scale(0.07 -0.07)">
       <use xlink:href="#TimesNewRomanPSMT-32"/>
       <use xlink:href="#TimesNewRomanPSMT-2e" x="50"/>
       <use xlink:href="#TimesNewRomanPSMT-30" x="75"/>
      </g>
     </g>
    </g>
    <g id="ytick_15">
     <g id="line2d_55">
      <g>
       <use xlink:href="#mc7b65a37d1" x="291.824531" y="51.686578" style="stroke: #000000; stroke-width: 0.5"/>
      </g>
     </g>
     <g id="text_43">
      <!-- 2.5 -->
      <g transform="translate(279.574531 54.116891) scale(0.07 -0.07)">
       <use xlink:href="#TimesNewRomanPSMT-32"/>
       <use xlink:href="#TimesNewRomanPSMT-2e" x="50"/>
       <use xlink:href="#TimesNewRomanPSMT-35" x="75"/>
      </g>
     </g>
    </g>
    <g id="ytick_16">
     <g id="line2d_56">
      <g>
       <use xlink:href="#mc7b65a37d1" x="291.824531" y="16.196381" style="stroke: #000000; stroke-width: 0.5"/>
      </g>
     </g>
     <g id="text_44">
      <!-- 3.0 -->
      <g transform="translate(279.574531 18.626693) scale(0.07 -0.07)">
       <use xlink:href="#TimesNewRomanPSMT-33"/>
       <use xlink:href="#TimesNewRomanPSMT-2e" x="50"/>
       <use xlink:href="#TimesNewRomanPSMT-30" x="75"/>
      </g>
     </g>
    </g>
    <g id="text_45">
     <!-- H$_2$ mole fraction [%] -->
     <g transform="translate(273.649375 114.705) rotate(-90) scale(0.09 -0.09)">
      <use xlink:href="#TimesNewRomanPSMT-48" transform="translate(0 0.5625)"/>
      <use xlink:href="#STIXGeneral-Regular-32" transform="translate(73.760078 -12.665625) scale(0.7)"/>
      <use xlink:href="#TimesNewRomanPSMT-20" transform="translate(113.169442 0.5625)"/>
      <use xlink:href="#TimesNewRomanPSMT-6d" transform="translate(138.169442 0.5625)"/>
      <use xlink:href="#TimesNewRomanPSMT-6f" transform="translate(215.952646 0.5625)"/>
      <use xlink:href="#TimesNewRomanPSMT-6c" transform="translate(265.952646 0.5625)"/>
      <use xlink:href="#TimesNewRomanPSMT-65" transform="translate(293.735849 0.5625)"/>
      <use xlink:href="#TimesNewRomanPSMT-20" transform="translate(338.120614 0.5625)"/>
      <use xlink:href="#TimesNewRomanPSMT-66" transform="translate(363.120614 0.5625)"/>
      <use xlink:href="#TimesNewRomanPSMT-72" transform="translate(396.421396 0.5625)"/>
      <use xlink:href="#TimesNewRomanPSMT-61" transform="translate(429.722177 0.5625)"/>
      <use xlink:href="#TimesNewRomanPSMT-63" transform="translate(474.106942 0.5625)"/>
      <use xlink:href="#TimesNewRomanPSMT-74" transform="translate(518.491708 0.5625)"/>
      <use xlink:href="#TimesNewRomanPSMT-69" transform="translate(546.274911 0.5625)"/>
      <use xlink:href="#TimesNewRomanPSMT-6f" transform="translate(574.058114 0.5625)"/>
      <use xlink:href="#TimesNewRomanPSMT-6e" transform="translate(624.058114 0.5625)"/>
      <use xlink:href="#TimesNewRomanPSMT-20" transform="translate(674.058114 0.5625)"/>
      <use xlink:href="#TimesNewRomanPSMT-5b" transform="translate(699.058114 0.5625)"/>
      <use xlink:href="#TimesNewRomanPSMT-25" transform="translate(732.358896 0.5625)"/>
      <use xlink:href="#TimesNewRomanPSMT-5d" transform="translate(815.659677 0.5625)"/>
     </g>
    </g>
   </g>
   <g id="line2d_57">
    <path d="M 298.772807 16.199337 
L 300.545326 16.202252 
L 302.317846 16.206892 
L 304.090365 16.214084 
L 305.862885 16.225006 
L 307.635404 16.241276 
L 309.407923 16.265043 
L 311.180443 16.299087 
L 312.952962 16.34699 
L 314.725481 16.413533 
L 316.498001 16.505773 
L 318.27052 16.636291 
L 320.043039 16.834948 
L 321.815559 17.195463 
L 323.588078 17.748344 
L 325.360597 18.280114 
L 327.133117 18.810969 
L 328.905636 19.373131 
L 330.678155 19.983966 
L 332.450675 20.655457 
L 334.223194 21.397513 
L 335.995714 22.219224 
L 337.768233 23.129424 
L 339.540752 24.137005 
L 341.313272 25.251112 
L 343.085791 26.481301 
L 344.85831 27.837665 
L 346.63083 29.330931 
L 348.403349 30.972532 
L 350.175868 32.774636 
L 351.948388 34.750124 
L 353.720907 36.912509 
L 355.493426 39.275766 
L 357.265946 41.854075 
L 359.038465 44.661432 
L 360.810984 47.71112 
L 362.583504 51.014986 
L 364.356023 54.582507 
L 366.128543 58.419592 
L 367.901062 62.527101 
L 369.673581 66.899066 
L 371.446101 71.520638 
L 373.21862 76.366049 
L 374.991139 81.396762 
L 376.763659 86.560389 
L 378.536178 91.791013 
L 380.308697 97.011499 
L 382.081217 102.137993 
L 383.853736 107.086115 
L 385.626255 111.777621 
" clip-path="url(#pf06d6c5ccd)" style="fill: none; stroke: #ffa500; stroke-width: 0.7; stroke-linecap: square"/>
   </g>
   <g id="patch_13">
    <path d="M 291.824531 145.8 
L 291.824531 7.2 
" style="fill: none; stroke: #000000; stroke-width: 0.8; stroke-linejoin: miter; stroke-linecap: square"/>
   </g>
   <g id="patch_14">
    <path d="M 392.574531 145.8 
L 392.574531 7.2 
" style="fill: none; stroke: #000000; stroke-width: 0.8; stroke-linejoin: miter; stroke-linecap: square"/>
   </g>
   <g id="patch_15">
    <path d="M 291.824531 145.8 
L 392.574531 145.8 
" style="fill: none; stroke: #000000; stroke-width: 0.8; stroke-linejoin: miter; stroke-linecap: square"/>
   </g>
   <g id="patch_16">
    <path d="M 291.824531 7.2 
L 392.574531 7.2 
" style="fill: none; stroke: #000000; stroke-width: 0.8; stroke-linejoin: miter; stroke-linecap: square"/>
   </g>
   <g id="line2d_58">
    <path d="M 298.772807 16.210327 
L 300.545326 16.219787 
L 302.317846 16.234588 
L 304.090365 16.257549 
L 305.862885 16.293154 
L 307.635404 16.3494 
L 309.407923 16.443827 
L 311.180443 16.626307 
L 312.952962 16.979953 
L 314.725481 17.416089 
L 316.498001 17.887872 
L 318.27052 18.418068 
L 320.043039 19.030444 
L 321.815559 19.75009 
L 323.588078 20.607305 
L 325.360597 21.641544 
L 327.133117 22.90659 
L 328.905636 24.478494 
L 330.678155 26.468698 
L 332.450675 29.046854 
L 334.223194 32.481792 
L 335.995714 37.214463 
L 337.768233 43.967256 
L 339.540752 53.75321 
L 341.313272 67.056398 
L 343.085791 81.950398 
L 344.85831 95.368798 
L 346.63083 106.17512 
L 348.403349 114.618757 
L 350.175868 121.201235 
L 351.948388 126.341391 
L 353.720907 130.345558 
L 355.493426 133.433488 
L 357.265946 135.764557 
L 359.038465 137.456723 
L 360.810984 138.599368 
L 362.583504 139.261976 
L 364.356023 139.5 
L 366.128543 139.358965 
L 367.901062 138.877289 
L 369.673581 138.088249 
L 371.446101 137.021324 
L 373.21862 135.703098 
L 374.991139 134.157854 
L 376.763659 132.407951 
L 378.536178 130.474066 
L 380.308697 128.375344 
L 382.081217 126.1295 
L 383.853736 123.752899 
L 385.626255 121.260629 
" clip-path="url(#pf06d6c5ccd)" style="fill: none; stroke: #ff0000; stroke-width: 0.7; stroke-linecap: square"/>
   </g>
   <g id="line2d_59">
    <path d="M 298.772807 16.233074 
L 300.545326 16.253206 
L 302.317846 16.28126 
L 304.090365 16.319122 
L 305.862885 16.368819 
L 307.635404 16.432639 
L 309.407923 16.513457 
L 311.180443 16.615567 
L 312.952962 16.747137 
L 314.725481 16.931447 
L 316.498001 18.042421 
L 318.27052 18.597686 
L 320.043039 19.066075 
L 321.815559 19.527934 
L 323.588078 20.001409 
L 325.360597 20.494793 
L 327.133117 21.013283 
L 328.905636 21.56085 
L 330.678155 22.140933 
L 332.450675 22.756758 
L 334.223194 23.411488 
L 335.995714 24.108307 
L 337.768233 24.850468 
L 339.540752 25.641311 
L 341.313272 26.484278 
L 343.085791 27.38291 
L 344.85831 28.340844 
L 346.63083 29.361791 
L 348.403349 30.44952 
L 350.175868 31.607823 
L 351.948388 32.840473 
L 353.720907 34.151184 
L 355.493426 35.54354 
L 357.265946 37.020936 
L 359.038465 38.58649 
L 360.810984 40.242958 
L 362.583504 41.992635 
L 364.356023 43.837255 
L 366.128543 45.77789 
L 367.901062 47.814852 
L 369.673581 49.947622 
L 371.446101 52.17476 
L 373.21862 54.493905 
L 374.991139 56.901769 
L 376.763659 59.394187 
L 378.536178 61.966208 
L 380.308697 64.612223 
L 382.081217 67.326127 
L 383.853736 70.101504 
L 385.626255 72.93181 
" clip-path="url(#pf06d6c5ccd)" style="fill: none; stroke: #0000ff; stroke-width: 0.7; stroke-linecap: square"/>
   </g>
   <g id="line2d_60">
    <path d="M 298.772807 16.207004 
L 300.545326 16.214541 
L 302.317846 16.226328 
L 304.090365 16.244499 
L 305.862885 16.272197 
L 307.635404 16.314265 
L 309.407923 16.379061 
L 311.180443 16.484163 
L 312.952962 16.675711 
L 314.725481 17.026159 
L 316.498001 17.460315 
L 318.27052 17.925575 
L 320.043039 18.43896 
L 321.815559 19.01939 
L 323.588078 19.684778 
L 325.360597 20.454396 
L 327.133117 21.350614 
L 328.905636 22.40037 
L 330.678155 23.636599 
L 332.450675 25.09971 
L 334.223194 26.838965 
L 335.995714 28.913356 
L 337.768233 31.39112 
L 339.540752 34.346342 
L 341.313272 37.850505 
L 343.085791 41.957177 
L 344.85831 46.680823 
L 346.63083 51.976634 
L 348.403349 57.733435 
L 350.175868 63.788373 
L 351.948388 69.958829 
L 353.720907 76.075835 
L 355.493426 82.005307 
L 357.265946 87.654022 
L 359.038465 92.965109 
L 360.810984 97.909318 
L 362.583504 102.476177 
L 364.356023 106.666831 
L 366.128543 110.488913 
L 367.901062 113.953025 
L 369.673581 117.070596 
L 371.446101 119.852564 
L 373.21862 122.308635 
L 374.991139 124.446884 
L 376.763659 126.273584 
L 378.536178 127.793189 
L 380.308697 129.008406 
L 382.081217 129.920348 
L 383.853736 130.528754 
L 385.626255 130.83228 
" clip-path="url(#pf06d6c5ccd)" style="fill: none; stroke: #929591; stroke-width: 0.7; stroke-linecap: square"/>
   </g>
   <g id="line2d_61">
    <path d="M 298.772807 16.199884 
L 300.545326 16.203112 
L 302.317846 16.208219 
L 304.090365 16.216119 
L 305.862885 16.228112 
L 307.635404 16.245989 
L 309.407923 16.272154 
L 311.180443 16.309792 
L 312.952962 16.363206 
L 314.725481 16.438658 
L 316.498001 16.546762 
L 318.27052 16.710294 
L 320.043039 16.992086 
L 321.815559 17.465744 
L 323.588078 17.979626 
L 325.360597 18.497305 
L 327.133117 19.046814 
L 328.905636 19.646223 
L 330.678155 20.308235 
L 332.450675 21.043507 
L 334.223194 21.862056 
L 335.995714 22.773956 
L 337.768233 23.789746 
L 339.540752 24.920712 
L 341.313272 26.179095 
L 343.085791 27.578254 
L 344.85831 29.132774 
L 346.63083 30.858518 
L 348.403349 32.7726 
L 350.175868 34.89325 
L 351.948388 37.239545 
L 353.720907 39.830947 
L 355.493426 42.686602 
L 357.265946 45.824326 
L 359.038465 49.259209 
L 360.810984 53.001792 
L 362.583504 57.055802 
L 364.356023 61.41553 
L 366.128543 66.063078 
L 367.901062 70.965974 
L 369.673581 76.075675 
L 371.446101 81.327913 
L 373.21862 86.645428 
L 374.991139 91.94313 
L 376.763659 97.135008 
L 378.536178 102.141317 
L 380.308697 106.894433 
L 382.081217 111.34224 
L 383.853736 115.448821 
L 385.626255 119.193014 
" clip-path="url(#pf06d6c5ccd)" style="fill: none; stroke: #7e1e9c; stroke-width: 0.7; stroke-linecap: square"/>
   </g>
   <g id="line2d_62">
    <g clip-path="url(#pf06d6c5ccd)">
     <use xlink:href="#me58c51f8ad" x="313.479281" y="13.5" style="fill-opacity: 0; stroke: #000000; stroke-width: 0.5"/>
     <use xlink:href="#me58c51f8ad" x="317.742026" y="13.5" style="fill-opacity: 0; stroke: #000000; stroke-width: 0.5"/>
     <use xlink:href="#me58c51f8ad" x="323.283596" y="13.5" style="fill-opacity: 0; stroke: #000000; stroke-width: 0.5"/>
     <use xlink:href="#me58c51f8ad" x="327.972617" y="14.083001" style="fill-opacity: 0; stroke: #000000; stroke-width: 0.5"/>
     <use xlink:href="#me58c51f8ad" x="334.579873" y="16.706507" style="fill-opacity: 0; stroke: #000000; stroke-width: 0.5"/>
     <use xlink:href="#me58c51f8ad" x="342.146247" y="19.913013" style="fill-opacity: 0; stroke: #000000; stroke-width: 0.5"/>
     <use xlink:href="#me58c51f8ad" x="349.073209" y="28.366531" style="fill-opacity: 0; stroke: #000000; stroke-width: 0.5"/>
     <use xlink:href="#me58c51f8ad" x="356.10674" y="37.98605" style="fill-opacity: 0; stroke: #000000; stroke-width: 0.5"/>
     <use xlink:href="#me58c51f8ad" x="366.443899" y="56.350588" style="fill-opacity: 0; stroke: #000000; stroke-width: 0.5"/>
     <use xlink:href="#me58c51f8ad" x="374.22341" y="78.213133" style="fill-opacity: 0; stroke: #000000; stroke-width: 0.5"/>
    </g>
   </g>
  </g>
 </g>
 <defs>
  <clipPath id="pd606829d01">
   <rect x="29.874531" y="7.2" width="100.75" height="138.6"/>
  </clipPath>
  <clipPath id="pd00bc10a06">
   <rect x="160.849531" y="7.2" width="100.75" height="138.6"/>
  </clipPath>
  <clipPath id="pf06d6c5ccd">
   <rect x="291.824531" y="7.2" width="100.75" height="138.6"/>
  </clipPath>
 </defs>
</svg>
