<?xml version="1.0" encoding="utf-8" standalone="no"?>
<!DOCTYPE svg PUBLIC "-//W3C//DTD SVG 1.1//EN"
  "http://www.w3.org/Graphics/SVG/1.1/DTD/svg11.dtd">
<svg xmlns:xlink="http://www.w3.org/1999/xlink" width="192.382845pt" height="174.557969pt" viewBox="0 0 192.382845 174.557969" xmlns="http://www.w3.org/2000/svg" version="1.1">
 <metadata>
  <rdf:RDF xmlns:dc="http://purl.org/dc/elements/1.1/" xmlns:cc="http://creativecommons.org/ns#" xmlns:rdf="http://www.w3.org/1999/02/22-rdf-syntax-ns#">
   <cc:Work>
    <dc:type rdf:resource="http://purl.org/dc/dcmitype/StillImage"/>
    <dc:date>2024-09-18T15:45:54.991880</dc:date>
    <dc:format>image/svg+xml</dc:format>
    <dc:creator>
     <cc:Agent>
      <dc:title>Matplotlib v3.9.2, https://matplotlib.org/</dc:title>
     </cc:Agent>
    </dc:creator>
   </cc:Work>
  </rdf:RDF>
 </metadata>
 <defs>
  <style type="text/css">*{stroke-linejoin: round; stroke-linecap: butt}</style>
 </defs>
 <g id="figure_1">
  <g id="patch_1">
   <path d="M 0 174.557969 
L 192.382845 174.557969 
L 192.382845 0 
L 0 0 
z
" style="fill: #ffffff"/>
  </g>
  <g id="axes_1">
   <g id="patch_2">
    <path d="M 31.64 145.8 
L 185.09 145.8 
L 185.09 7.2 
L 31.64 7.2 
z
" style="fill: #ffffff"/>
   </g>
   <g id="matplotlib.axis_1">
    <g id="xtick_1">
     <g id="line2d_1">
      <defs>
       <path id="m603b2bf6e1" d="M 0 0 
L 0 -2.5 
" style="stroke: #000000; stroke-width: 0.5"/>
      </defs>
      <g>
       <use xlink:href="#m603b2bf6e1" x="31.64" y="145.8" style="stroke: #000000; stroke-width: 0.5"/>
      </g>
     </g>
     <g id="text_1">
      <!-- $\mathdefault{10^{-1}}$ -->
      <g transform="translate(25.305 155.502656) scale(0.07 -0.07)">
       <defs>
        <path id="TimesNewRomanPSMT-31" d="M 750 3822 
L 1781 4325 
L 1884 4325 
L 1884 747 
Q 1884 391 1914 303 
Q 1944 216 2037 169 
Q 2131 122 2419 116 
L 2419 0 
L 825 0 
L 825 116 
Q 1125 122 1212 167 
Q 1300 213 1334 289 
Q 1369 366 1369 747 
L 1369 3034 
Q 1369 3497 1338 3628 
Q 1316 3728 1258 3775 
Q 1200 3822 1119 3822 
Q 1003 3822 797 3725 
L 750 3822 
z
" transform="scale(0.015625)"/>
        <path id="TimesNewRomanPSMT-30" d="M 231 2094 
Q 231 2819 450 3342 
Q 669 3866 1031 4122 
Q 1313 4325 1613 4325 
Q 2100 4325 2488 3828 
Q 2972 3213 2972 2159 
Q 2972 1422 2759 906 
Q 2547 391 2217 158 
Q 1888 -75 1581 -75 
Q 975 -75 572 641 
Q 231 1244 231 2094 
z
M 844 2016 
Q 844 1141 1059 588 
Q 1238 122 1591 122 
Q 1759 122 1940 273 
Q 2122 425 2216 781 
Q 2359 1319 2359 2297 
Q 2359 3022 2209 3506 
Q 2097 3866 1919 4016 
Q 1791 4119 1609 4119 
Q 1397 4119 1231 3928 
Q 1006 3669 925 3112 
Q 844 2556 844 2016 
z
" transform="scale(0.015625)"/>
        <path id="TimesNewRomanPSMT-2212" d="M 3484 2000 
L 116 2000 
L 116 2256 
L 3484 2256 
L 3484 2000 
z
" transform="scale(0.015625)"/>
       </defs>
       <use xlink:href="#TimesNewRomanPSMT-31" transform="translate(0 0.582813)"/>
       <use xlink:href="#TimesNewRomanPSMT-30" transform="translate(50 0.582813)"/>
       <use xlink:href="#TimesNewRomanPSMT-2212" transform="translate(101.502813 60.695312) scale(0.7)"/>
       <use xlink:href="#TimesNewRomanPSMT-31" transform="translate(140.980352 60.695312) scale(0.7)"/>
      </g>
     </g>
    </g>
    <g id="xtick_2">
     <g id="line2d_2">
      <g>
       <use xlink:href="#m603b2bf6e1" x="68.791961" y="145.8" style="stroke: #000000; stroke-width: 0.5"/>
      </g>
     </g>
     <g id="text_2">
      <!-- $\mathdefault{10^{0}}$ -->
      <g transform="translate(63.856961 155.502656) scale(0.07 -0.07)">
       <use xlink:href="#TimesNewRomanPSMT-31" transform="translate(0 0.582813)"/>
       <use xlink:href="#TimesNewRomanPSMT-30" transform="translate(50 0.582813)"/>
       <use xlink:href="#TimesNewRomanPSMT-30" transform="translate(101.502813 60.695312) scale(0.7)"/>
      </g>
     </g>
    </g>
    <g id="xtick_3">
     <g id="line2d_3">
      <g>
       <use xlink:href="#m603b2bf6e1" x="105.943922" y="145.8" style="stroke: #000000; stroke-width: 0.5"/>
      </g>
     </g>
     <g id="text_3">
      <!-- $\mathdefault{10^{1}}$ -->
      <g transform="translate(101.008922 155.502656) scale(0.07 -0.07)">
       <use xlink:href="#TimesNewRomanPSMT-31" transform="translate(0 0.582813)"/>
       <use xlink:href="#TimesNewRomanPSMT-30" transform="translate(50 0.582813)"/>
       <use xlink:href="#TimesNewRomanPSMT-31" transform="translate(101.502813 60.695312) scale(0.7)"/>
      </g>
     </g>
    </g>
    <g id="xtick_4">
     <g id="line2d_4">
      <g>
       <use xlink:href="#m603b2bf6e1" x="143.095884" y="145.8" style="stroke: #000000; stroke-width: 0.5"/>
      </g>
     </g>
     <g id="text_4">
      <!-- $\mathdefault{10^{2}}$ -->
      <g transform="translate(138.160884 155.502656) scale(0.07 -0.07)">
       <defs>
        <path id="TimesNewRomanPSMT-32" d="M 2934 816 
L 2638 0 
L 138 0 
L 138 116 
Q 1241 1122 1691 1759 
Q 2141 2397 2141 2925 
Q 2141 3328 1894 3587 
Q 1647 3847 1303 3847 
Q 991 3847 742 3664 
Q 494 3481 375 3128 
L 259 3128 
Q 338 3706 661 4015 
Q 984 4325 1469 4325 
Q 1984 4325 2329 3994 
Q 2675 3663 2675 3213 
Q 2675 2891 2525 2569 
Q 2294 2063 1775 1497 
Q 997 647 803 472 
L 1909 472 
Q 2247 472 2383 497 
Q 2519 522 2628 598 
Q 2738 675 2819 816 
L 2934 816 
z
" transform="scale(0.015625)"/>
       </defs>
       <use xlink:href="#TimesNewRomanPSMT-31" transform="translate(0 0.582813)"/>
       <use xlink:href="#TimesNewRomanPSMT-30" transform="translate(50 0.582813)"/>
       <use xlink:href="#TimesNewRomanPSMT-32" transform="translate(101.502813 60.695312) scale(0.7)"/>
      </g>
     </g>
    </g>
    <g id="xtick_5">
     <g id="line2d_5">
      <g>
       <use xlink:href="#m603b2bf6e1" x="180.247845" y="145.8" style="stroke: #000000; stroke-width: 0.5"/>
      </g>
     </g>
     <g id="text_5">
      <!-- $\mathdefault{10^{3}}$ -->
      <g transform="translate(175.312845 155.502656) scale(0.07 -0.07)">
       <defs>
        <path id="TimesNewRomanPSMT-33" d="M 325 3431 
Q 506 3859 782 4092 
Q 1059 4325 1472 4325 
Q 1981 4325 2253 3994 
Q 2459 3747 2459 3466 
Q 2459 3003 1878 2509 
Q 2269 2356 2469 2072 
Q 2669 1788 2669 1403 
Q 2669 853 2319 450 
Q 1863 -75 997 -75 
Q 569 -75 414 31 
Q 259 138 259 259 
Q 259 350 332 419 
Q 406 488 509 488 
Q 588 488 669 463 
Q 722 447 909 348 
Q 1097 250 1169 231 
Q 1284 197 1416 197 
Q 1734 197 1970 444 
Q 2206 691 2206 1028 
Q 2206 1275 2097 1509 
Q 2016 1684 1919 1775 
Q 1784 1900 1550 2001 
Q 1316 2103 1072 2103 
L 972 2103 
L 972 2197 
Q 1219 2228 1467 2375 
Q 1716 2522 1828 2728 
Q 1941 2934 1941 3181 
Q 1941 3503 1739 3701 
Q 1538 3900 1238 3900 
Q 753 3900 428 3381 
L 325 3431 
z
" transform="scale(0.015625)"/>
       </defs>
       <use xlink:href="#TimesNewRomanPSMT-31" transform="translate(0 0.582813)"/>
       <use xlink:href="#TimesNewRomanPSMT-30" transform="translate(50 0.582813)"/>
       <use xlink:href="#TimesNewRomanPSMT-33" transform="translate(101.502813 60.695312) scale(0.7)"/>
      </g>
     </g>
    </g>
    <g id="xtick_6">
     <g id="line2d_6">
      <defs>
       <path id="mad610b28e1" d="M 0 0 
L 0 -1.5 
" style="stroke: #000000; stroke-width: 0.5"/>
      </defs>
      <g>
       <use xlink:href="#mad610b28e1" x="42.823855" y="145.8" style="stroke: #000000; stroke-width: 0.5"/>
      </g>
     </g>
    </g>
    <g id="xtick_7">
     <g id="line2d_7">
      <g>
       <use xlink:href="#mad610b28e1" x="49.36599" y="145.8" style="stroke: #000000; stroke-width: 0.5"/>
      </g>
     </g>
    </g>
    <g id="xtick_8">
     <g id="line2d_8">
      <g>
       <use xlink:href="#mad610b28e1" x="54.007709" y="145.8" style="stroke: #000000; stroke-width: 0.5"/>
      </g>
     </g>
    </g>
    <g id="xtick_9">
     <g id="line2d_9">
      <g>
       <use xlink:href="#mad610b28e1" x="57.608106" y="145.8" style="stroke: #000000; stroke-width: 0.5"/>
      </g>
     </g>
    </g>
    <g id="xtick_10">
     <g id="line2d_10">
      <g>
       <use xlink:href="#mad610b28e1" x="60.549845" y="145.8" style="stroke: #000000; stroke-width: 0.5"/>
      </g>
     </g>
    </g>
    <g id="xtick_11">
     <g id="line2d_11">
      <g>
       <use xlink:href="#mad610b28e1" x="63.03705" y="145.8" style="stroke: #000000; stroke-width: 0.5"/>
      </g>
     </g>
    </g>
    <g id="xtick_12">
     <g id="line2d_12">
      <g>
       <use xlink:href="#mad610b28e1" x="65.191564" y="145.8" style="stroke: #000000; stroke-width: 0.5"/>
      </g>
     </g>
    </g>
    <g id="xtick_13">
     <g id="line2d_13">
      <g>
       <use xlink:href="#mad610b28e1" x="67.091981" y="145.8" style="stroke: #000000; stroke-width: 0.5"/>
      </g>
     </g>
    </g>
    <g id="xtick_14">
     <g id="line2d_14">
      <g>
       <use xlink:href="#mad610b28e1" x="79.975816" y="145.8" style="stroke: #000000; stroke-width: 0.5"/>
      </g>
     </g>
    </g>
    <g id="xtick_15">
     <g id="line2d_15">
      <g>
       <use xlink:href="#mad610b28e1" x="86.517952" y="145.8" style="stroke: #000000; stroke-width: 0.5"/>
      </g>
     </g>
    </g>
    <g id="xtick_16">
     <g id="line2d_16">
      <g>
       <use xlink:href="#mad610b28e1" x="91.159671" y="145.8" style="stroke: #000000; stroke-width: 0.5"/>
      </g>
     </g>
    </g>
    <g id="xtick_17">
     <g id="line2d_17">
      <g>
       <use xlink:href="#mad610b28e1" x="94.760068" y="145.8" style="stroke: #000000; stroke-width: 0.5"/>
      </g>
     </g>
    </g>
    <g id="xtick_18">
     <g id="line2d_18">
      <g>
       <use xlink:href="#mad610b28e1" x="97.701806" y="145.8" style="stroke: #000000; stroke-width: 0.5"/>
      </g>
     </g>
    </g>
    <g id="xtick_19">
     <g id="line2d_19">
      <g>
       <use xlink:href="#mad610b28e1" x="100.189011" y="145.8" style="stroke: #000000; stroke-width: 0.5"/>
      </g>
     </g>
    </g>
    <g id="xtick_20">
     <g id="line2d_20">
      <g>
       <use xlink:href="#mad610b28e1" x="102.343525" y="145.8" style="stroke: #000000; stroke-width: 0.5"/>
      </g>
     </g>
    </g>
    <g id="xtick_21">
     <g id="line2d_21">
      <g>
       <use xlink:href="#mad610b28e1" x="104.243942" y="145.8" style="stroke: #000000; stroke-width: 0.5"/>
      </g>
     </g>
    </g>
    <g id="xtick_22">
     <g id="line2d_22">
      <g>
       <use xlink:href="#mad610b28e1" x="117.127777" y="145.8" style="stroke: #000000; stroke-width: 0.5"/>
      </g>
     </g>
    </g>
    <g id="xtick_23">
     <g id="line2d_23">
      <g>
       <use xlink:href="#mad610b28e1" x="123.669913" y="145.8" style="stroke: #000000; stroke-width: 0.5"/>
      </g>
     </g>
    </g>
    <g id="xtick_24">
     <g id="line2d_24">
      <g>
       <use xlink:href="#mad610b28e1" x="128.311632" y="145.8" style="stroke: #000000; stroke-width: 0.5"/>
      </g>
     </g>
    </g>
    <g id="xtick_25">
     <g id="line2d_25">
      <g>
       <use xlink:href="#mad610b28e1" x="131.912029" y="145.8" style="stroke: #000000; stroke-width: 0.5"/>
      </g>
     </g>
    </g>
    <g id="xtick_26">
     <g id="line2d_26">
      <g>
       <use xlink:href="#mad610b28e1" x="134.853768" y="145.8" style="stroke: #000000; stroke-width: 0.5"/>
      </g>
     </g>
    </g>
    <g id="xtick_27">
     <g id="line2d_27">
      <g>
       <use xlink:href="#mad610b28e1" x="137.340972" y="145.8" style="stroke: #000000; stroke-width: 0.5"/>
      </g>
     </g>
    </g>
    <g id="xtick_28">
     <g id="line2d_28">
      <g>
       <use xlink:href="#mad610b28e1" x="139.495487" y="145.8" style="stroke: #000000; stroke-width: 0.5"/>
      </g>
     </g>
    </g>
    <g id="xtick_29">
     <g id="line2d_29">
      <g>
       <use xlink:href="#mad610b28e1" x="141.395903" y="145.8" style="stroke: #000000; stroke-width: 0.5"/>
      </g>
     </g>
    </g>
    <g id="xtick_30">
     <g id="line2d_30">
      <g>
       <use xlink:href="#mad610b28e1" x="154.279738" y="145.8" style="stroke: #000000; stroke-width: 0.5"/>
      </g>
     </g>
    </g>
    <g id="xtick_31">
     <g id="line2d_31">
      <g>
       <use xlink:href="#mad610b28e1" x="160.821874" y="145.8" style="stroke: #000000; stroke-width: 0.5"/>
      </g>
     </g>
    </g>
    <g id="xtick_32">
     <g id="line2d_32">
      <g>
       <use xlink:href="#mad610b28e1" x="165.463593" y="145.8" style="stroke: #000000; stroke-width: 0.5"/>
      </g>
     </g>
    </g>
    <g id="xtick_33">
     <g id="line2d_33">
      <g>
       <use xlink:href="#mad610b28e1" x="169.06399" y="145.8" style="stroke: #000000; stroke-width: 0.5"/>
      </g>
     </g>
    </g>
    <g id="xtick_34">
     <g id="line2d_34">
      <g>
       <use xlink:href="#mad610b28e1" x="172.005729" y="145.8" style="stroke: #000000; stroke-width: 0.5"/>
      </g>
     </g>
    </g>
    <g id="xtick_35">
     <g id="line2d_35">
      <g>
       <use xlink:href="#mad610b28e1" x="174.492933" y="145.8" style="stroke: #000000; stroke-width: 0.5"/>
      </g>
     </g>
    </g>
    <g id="xtick_36">
     <g id="line2d_36">
      <g>
       <use xlink:href="#mad610b28e1" x="176.647448" y="145.8" style="stroke: #000000; stroke-width: 0.5"/>
      </g>
     </g>
    </g>
    <g id="xtick_37">
     <g id="line2d_37">
      <g>
       <use xlink:href="#mad610b28e1" x="178.547864" y="145.8" style="stroke: #000000; stroke-width: 0.5"/>
      </g>
     </g>
    </g>
    <g id="text_6">
     <!-- P*$\tau$ [bar*ms] -->
     <g transform="translate(89.71 165.860625) scale(0.07 -0.07)">
      <defs>
       <path id="TimesNewRomanPSMT-50" d="M 1313 1984 
L 1313 750 
Q 1313 350 1400 253 
Q 1519 116 1759 116 
L 1922 116 
L 1922 0 
L 106 0 
L 106 116 
L 266 116 
Q 534 116 650 291 
Q 713 388 713 750 
L 713 3488 
Q 713 3888 628 3984 
Q 506 4122 266 4122 
L 106 4122 
L 106 4238 
L 1659 4238 
Q 2228 4238 2556 4120 
Q 2884 4003 3109 3725 
Q 3334 3447 3334 3066 
Q 3334 2547 2992 2222 
Q 2650 1897 2025 1897 
Q 1872 1897 1694 1919 
Q 1516 1941 1313 1984 
z
M 1313 2163 
Q 1478 2131 1606 2115 
Q 1734 2100 1825 2100 
Q 2150 2100 2386 2351 
Q 2622 2603 2622 3003 
Q 2622 3278 2509 3514 
Q 2397 3750 2190 3867 
Q 1984 3984 1722 3984 
Q 1563 3984 1313 3925 
L 1313 2163 
z
" transform="scale(0.015625)"/>
       <path id="TimesNewRomanPSMT-2a" d="M 1544 3263 
Q 1531 3478 1456 3691 
Q 1350 3997 1350 4113 
Q 1350 4275 1426 4359 
Q 1503 4444 1616 4444 
Q 1713 4444 1784 4359 
Q 1856 4275 1856 4119 
Q 1856 3978 1773 3726 
Q 1691 3475 1672 3263 
Q 1844 3372 1981 3528 
Q 2194 3775 2297 3834 
Q 2400 3894 2506 3894 
Q 2609 3894 2679 3823 
Q 2750 3753 2750 3656 
Q 2750 3541 2647 3450 
Q 2544 3359 2131 3269 
Q 1891 3216 1731 3147 
Q 1894 3063 2128 3019 
Q 2506 2950 2623 2847 
Q 2741 2744 2741 2622 
Q 2741 2528 2670 2459 
Q 2600 2391 2506 2391 
Q 2413 2391 2298 2456 
Q 2184 2522 1991 2750 
Q 1863 2903 1672 3038 
Q 1678 2859 1744 2650 
Q 1856 2281 1856 2147 
Q 1856 2022 1781 1936 
Q 1706 1850 1622 1850 
Q 1506 1850 1413 1941 
Q 1347 2006 1347 2150 
Q 1347 2300 1419 2511 
Q 1491 2722 1509 2801 
Q 1528 2881 1544 3038 
Q 1359 2916 1222 2766 
Q 994 2509 878 2441 
Q 797 2391 709 2391 
Q 603 2391 528 2462 
Q 453 2534 453 2622 
Q 453 2700 517 2786 
Q 581 2872 709 2928 
Q 794 2966 1094 3028 
Q 1288 3069 1472 3147 
Q 1303 3231 1069 3278 
Q 684 3359 594 3425 
Q 453 3528 453 3675 
Q 453 3759 523 3829 
Q 594 3900 688 3900 
Q 791 3900 906 3834 
Q 1022 3769 1194 3570 
Q 1366 3372 1544 3263 
z
" transform="scale(0.015625)"/>
       <path id="STIXGeneral-Italic-3c4" d="M 2726 2739 
L 2592 2266 
L 1741 2266 
Q 1293 1248 1293 742 
Q 1293 416 1523 416 
Q 1638 416 1779 547 
Q 1920 678 2003 858 
L 2106 858 
Q 1990 467 1731 198 
Q 1472 -70 1178 -70 
Q 768 -70 768 384 
Q 768 890 1395 2266 
L 1005 2266 
Q 493 2266 179 1702 
L 77 1702 
Q 237 2093 569 2416 
Q 902 2739 1331 2739 
L 2726 2739 
z
" transform="scale(0.015625)"/>
       <path id="TimesNewRomanPSMT-20" transform="scale(0.015625)"/>
       <path id="TimesNewRomanPSMT-5b" d="M 1900 -1269 
L 525 -1269 
L 525 4334 
L 1900 4334 
L 1900 4088 
L 994 4088 
L 994 -1025 
L 1900 -1025 
L 1900 -1269 
z
" transform="scale(0.015625)"/>
       <path id="TimesNewRomanPSMT-62" d="M 984 2369 
Q 1400 2947 1881 2947 
Q 2322 2947 2650 2570 
Q 2978 2194 2978 1541 
Q 2978 778 2472 313 
Q 2038 -88 1503 -88 
Q 1253 -88 995 3 
Q 738 94 469 275 
L 469 3241 
Q 469 3728 445 3840 
Q 422 3953 372 3993 
Q 322 4034 247 4034 
Q 159 4034 28 3984 
L -16 4094 
L 844 4444 
L 984 4444 
L 984 2369 
z
M 984 2169 
L 984 456 
Q 1144 300 1314 220 
Q 1484 141 1663 141 
Q 1947 141 2192 453 
Q 2438 766 2438 1363 
Q 2438 1913 2192 2208 
Q 1947 2503 1634 2503 
Q 1469 2503 1303 2419 
Q 1178 2356 984 2169 
z
" transform="scale(0.015625)"/>
       <path id="TimesNewRomanPSMT-61" d="M 1822 413 
Q 1381 72 1269 19 
Q 1100 -59 909 -59 
Q 613 -59 420 144 
Q 228 347 228 678 
Q 228 888 322 1041 
Q 450 1253 767 1440 
Q 1084 1628 1822 1897 
L 1822 2009 
Q 1822 2438 1686 2597 
Q 1550 2756 1291 2756 
Q 1094 2756 978 2650 
Q 859 2544 859 2406 
L 866 2225 
Q 866 2081 792 2003 
Q 719 1925 600 1925 
Q 484 1925 411 2006 
Q 338 2088 338 2228 
Q 338 2497 613 2722 
Q 888 2947 1384 2947 
Q 1766 2947 2009 2819 
Q 2194 2722 2281 2516 
Q 2338 2381 2338 1966 
L 2338 994 
Q 2338 584 2353 492 
Q 2369 400 2405 369 
Q 2441 338 2488 338 
Q 2538 338 2575 359 
Q 2641 400 2828 588 
L 2828 413 
Q 2478 -56 2159 -56 
Q 2006 -56 1915 50 
Q 1825 156 1822 413 
z
M 1822 616 
L 1822 1706 
Q 1350 1519 1213 1441 
Q 966 1303 859 1153 
Q 753 1003 753 825 
Q 753 600 887 451 
Q 1022 303 1197 303 
Q 1434 303 1822 616 
z
" transform="scale(0.015625)"/>
       <path id="TimesNewRomanPSMT-72" d="M 1038 2947 
L 1038 2303 
Q 1397 2947 1775 2947 
Q 1947 2947 2059 2842 
Q 2172 2738 2172 2600 
Q 2172 2478 2090 2393 
Q 2009 2309 1897 2309 
Q 1788 2309 1652 2417 
Q 1516 2525 1450 2525 
Q 1394 2525 1328 2463 
Q 1188 2334 1038 2041 
L 1038 669 
Q 1038 431 1097 309 
Q 1138 225 1241 169 
Q 1344 113 1538 113 
L 1538 0 
L 72 0 
L 72 113 
Q 291 113 397 181 
Q 475 231 506 341 
Q 522 394 522 644 
L 522 1753 
Q 522 2253 501 2348 
Q 481 2444 426 2487 
Q 372 2531 291 2531 
Q 194 2531 72 2484 
L 41 2597 
L 906 2947 
L 1038 2947 
z
" transform="scale(0.015625)"/>
       <path id="TimesNewRomanPSMT-6d" d="M 1050 2338 
Q 1363 2650 1419 2697 
Q 1559 2816 1721 2881 
Q 1884 2947 2044 2947 
Q 2313 2947 2506 2790 
Q 2700 2634 2766 2338 
Q 3088 2713 3309 2830 
Q 3531 2947 3766 2947 
Q 3994 2947 4170 2830 
Q 4347 2713 4450 2447 
Q 4519 2266 4519 1878 
L 4519 647 
Q 4519 378 4559 278 
Q 4591 209 4675 161 
Q 4759 113 4950 113 
L 4950 0 
L 3538 0 
L 3538 113 
L 3597 113 
Q 3781 113 3884 184 
Q 3956 234 3988 344 
Q 4000 397 4000 647 
L 4000 1878 
Q 4000 2228 3916 2372 
Q 3794 2572 3525 2572 
Q 3359 2572 3192 2489 
Q 3025 2406 2788 2181 
L 2781 2147 
L 2788 2013 
L 2788 647 
Q 2788 353 2820 281 
Q 2853 209 2943 161 
Q 3034 113 3253 113 
L 3253 0 
L 1806 0 
L 1806 113 
Q 2044 113 2133 169 
Q 2222 225 2256 338 
Q 2272 391 2272 647 
L 2272 1878 
Q 2272 2228 2169 2381 
Q 2031 2581 1784 2581 
Q 1616 2581 1450 2491 
Q 1191 2353 1050 2181 
L 1050 647 
Q 1050 366 1089 281 
Q 1128 197 1204 155 
Q 1281 113 1516 113 
L 1516 0 
L 100 0 
L 100 113 
Q 297 113 375 155 
Q 453 197 493 289 
Q 534 381 534 647 
L 534 1741 
Q 534 2213 506 2350 
Q 484 2453 437 2492 
Q 391 2531 309 2531 
Q 222 2531 100 2484 
L 53 2597 
L 916 2947 
L 1050 2947 
L 1050 2338 
z
" transform="scale(0.015625)"/>
       <path id="TimesNewRomanPSMT-73" d="M 2050 2947 
L 2050 1972 
L 1947 1972 
Q 1828 2431 1642 2597 
Q 1456 2763 1169 2763 
Q 950 2763 815 2647 
Q 681 2531 681 2391 
Q 681 2216 781 2091 
Q 878 1963 1175 1819 
L 1631 1597 
Q 2266 1288 2266 781 
Q 2266 391 1970 151 
Q 1675 -88 1309 -88 
Q 1047 -88 709 6 
Q 606 38 541 38 
Q 469 38 428 -44 
L 325 -44 
L 325 978 
L 428 978 
Q 516 541 762 319 
Q 1009 97 1316 97 
Q 1531 97 1667 223 
Q 1803 350 1803 528 
Q 1803 744 1651 891 
Q 1500 1038 1047 1263 
Q 594 1488 453 1669 
Q 313 1847 313 2119 
Q 313 2472 555 2709 
Q 797 2947 1181 2947 
Q 1350 2947 1591 2875 
Q 1750 2828 1803 2828 
Q 1853 2828 1881 2850 
Q 1909 2872 1947 2947 
L 2050 2947 
z
" transform="scale(0.015625)"/>
       <path id="TimesNewRomanPSMT-5d" d="M 234 4334 
L 1609 4334 
L 1609 -1272 
L 234 -1272 
L 234 -1025 
L 1141 -1025 
L 1141 4088 
L 234 4088 
L 234 4334 
z
" transform="scale(0.015625)"/>
      </defs>
      <use xlink:href="#TimesNewRomanPSMT-50" transform="translate(0 0.5625)"/>
      <use xlink:href="#TimesNewRomanPSMT-2a" transform="translate(55.615234 0.5625)"/>
      <use xlink:href="#STIXGeneral-Italic-3c4" transform="translate(105.615234 0.5625)"/>
      <use xlink:href="#TimesNewRomanPSMT-20" transform="translate(146.615219 0.5625)"/>
      <use xlink:href="#TimesNewRomanPSMT-5b" transform="translate(171.615219 0.5625)"/>
      <use xlink:href="#TimesNewRomanPSMT-62" transform="translate(204.916 0.5625)"/>
      <use xlink:href="#TimesNewRomanPSMT-61" transform="translate(254.916 0.5625)"/>
      <use xlink:href="#TimesNewRomanPSMT-72" transform="translate(299.300766 0.5625)"/>
      <use xlink:href="#TimesNewRomanPSMT-2a" transform="translate(332.601547 0.5625)"/>
      <use xlink:href="#TimesNewRomanPSMT-6d" transform="translate(382.601547 0.5625)"/>
      <use xlink:href="#TimesNewRomanPSMT-73" transform="translate(460.38475 0.5625)"/>
      <use xlink:href="#TimesNewRomanPSMT-5d" transform="translate(499.300766 0.5625)"/>
     </g>
    </g>
   </g>
   <g id="matplotlib.axis_2">
    <g id="ytick_1">
     <g id="line2d_38">
      <defs>
       <path id="m89f9781c90" d="M 0 0 
L 2.5 0 
" style="stroke: #000000; stroke-width: 0.5"/>
      </defs>
      <g>
       <use xlink:href="#m89f9781c90" x="31.64" y="131.566367" style="stroke: #000000; stroke-width: 0.5"/>
      </g>
     </g>
     <g id="text_7">
      <!-- 0 -->
      <g transform="translate(24.64 133.99668) scale(0.07 -0.07)">
       <use xlink:href="#TimesNewRomanPSMT-30"/>
      </g>
     </g>
    </g>
    <g id="ytick_2">
     <g id="line2d_39">
      <g>
       <use xlink:href="#m89f9781c90" x="31.64" y="113.774326" style="stroke: #000000; stroke-width: 0.5"/>
      </g>
     </g>
     <g id="text_8">
      <!-- 100 -->
      <g transform="translate(17.64 116.204639) scale(0.07 -0.07)">
       <use xlink:href="#TimesNewRomanPSMT-31"/>
       <use xlink:href="#TimesNewRomanPSMT-30" x="50"/>
       <use xlink:href="#TimesNewRomanPSMT-30" x="100"/>
      </g>
     </g>
    </g>
    <g id="ytick_3">
     <g id="line2d_40">
      <g>
       <use xlink:href="#m89f9781c90" x="31.64" y="95.982285" style="stroke: #000000; stroke-width: 0.5"/>
      </g>
     </g>
     <g id="text_9">
      <!-- 200 -->
      <g transform="translate(17.64 98.412597) scale(0.07 -0.07)">
       <use xlink:href="#TimesNewRomanPSMT-32"/>
       <use xlink:href="#TimesNewRomanPSMT-30" x="50"/>
       <use xlink:href="#TimesNewRomanPSMT-30" x="100"/>
      </g>
     </g>
    </g>
    <g id="ytick_4">
     <g id="line2d_41">
      <g>
       <use xlink:href="#m89f9781c90" x="31.64" y="78.190244" style="stroke: #000000; stroke-width: 0.5"/>
      </g>
     </g>
     <g id="text_10">
      <!-- 300 -->
      <g transform="translate(17.64 80.620556) scale(0.07 -0.07)">
       <use xlink:href="#TimesNewRomanPSMT-33"/>
       <use xlink:href="#TimesNewRomanPSMT-30" x="50"/>
       <use xlink:href="#TimesNewRomanPSMT-30" x="100"/>
      </g>
     </g>
    </g>
    <g id="ytick_5">
     <g id="line2d_42">
      <g>
       <use xlink:href="#m89f9781c90" x="31.64" y="60.398203" style="stroke: #000000; stroke-width: 0.5"/>
      </g>
     </g>
     <g id="text_11">
      <!-- 400 -->
      <g transform="translate(17.64 62.828515) scale(0.07 -0.07)">
       <defs>
        <path id="TimesNewRomanPSMT-34" d="M 2978 1563 
L 2978 1119 
L 2409 1119 
L 2409 0 
L 1894 0 
L 1894 1119 
L 100 1119 
L 100 1519 
L 2066 4325 
L 2409 4325 
L 2409 1563 
L 2978 1563 
z
M 1894 1563 
L 1894 3666 
L 406 1563 
L 1894 1563 
z
" transform="scale(0.015625)"/>
       </defs>
       <use xlink:href="#TimesNewRomanPSMT-34"/>
       <use xlink:href="#TimesNewRomanPSMT-30" x="50"/>
       <use xlink:href="#TimesNewRomanPSMT-30" x="100"/>
      </g>
     </g>
    </g>
    <g id="ytick_6">
     <g id="line2d_43">
      <g>
       <use xlink:href="#m89f9781c90" x="31.64" y="42.606162" style="stroke: #000000; stroke-width: 0.5"/>
      </g>
     </g>
     <g id="text_12">
      <!-- 500 -->
      <g transform="translate(17.64 45.036474) scale(0.07 -0.07)">
       <defs>
        <path id="TimesNewRomanPSMT-35" d="M 2778 4238 
L 2534 3706 
L 1259 3706 
L 981 3138 
Q 1809 3016 2294 2522 
Q 2709 2097 2709 1522 
Q 2709 1188 2573 903 
Q 2438 619 2231 419 
Q 2025 219 1772 97 
Q 1413 -75 1034 -75 
Q 653 -75 479 54 
Q 306 184 306 341 
Q 306 428 378 495 
Q 450 563 559 563 
Q 641 563 702 538 
Q 763 513 909 409 
Q 1144 247 1384 247 
Q 1750 247 2026 523 
Q 2303 800 2303 1197 
Q 2303 1581 2056 1914 
Q 1809 2247 1375 2428 
Q 1034 2569 447 2591 
L 1259 4238 
L 2778 4238 
z
" transform="scale(0.015625)"/>
       </defs>
       <use xlink:href="#TimesNewRomanPSMT-35"/>
       <use xlink:href="#TimesNewRomanPSMT-30" x="50"/>
       <use xlink:href="#TimesNewRomanPSMT-30" x="100"/>
      </g>
     </g>
    </g>
    <g id="ytick_7">
     <g id="line2d_44">
      <g>
       <use xlink:href="#m89f9781c90" x="31.64" y="24.814121" style="stroke: #000000; stroke-width: 0.5"/>
      </g>
     </g>
     <g id="text_13">
      <!-- 600 -->
      <g transform="translate(17.64 27.244433) scale(0.07 -0.07)">
       <defs>
        <path id="TimesNewRomanPSMT-36" d="M 2869 4325 
L 2869 4209 
Q 2456 4169 2195 4045 
Q 1934 3922 1679 3669 
Q 1425 3416 1258 3105 
Q 1091 2794 978 2366 
Q 1428 2675 1881 2675 
Q 2316 2675 2634 2325 
Q 2953 1975 2953 1425 
Q 2953 894 2631 456 
Q 2244 -75 1606 -75 
Q 1172 -75 869 213 
Q 275 772 275 1663 
Q 275 2231 503 2743 
Q 731 3256 1154 3653 
Q 1578 4050 1965 4187 
Q 2353 4325 2688 4325 
L 2869 4325 
z
M 925 2138 
Q 869 1716 869 1456 
Q 869 1156 980 804 
Q 1091 453 1309 247 
Q 1469 100 1697 100 
Q 1969 100 2183 356 
Q 2397 613 2397 1088 
Q 2397 1622 2184 2012 
Q 1972 2403 1581 2403 
Q 1463 2403 1327 2353 
Q 1191 2303 925 2138 
z
" transform="scale(0.015625)"/>
       </defs>
       <use xlink:href="#TimesNewRomanPSMT-36"/>
       <use xlink:href="#TimesNewRomanPSMT-30" x="50"/>
       <use xlink:href="#TimesNewRomanPSMT-30" x="100"/>
      </g>
     </g>
    </g>
    <g id="text_14">
     <!-- NO [ppm, 15% O$_2$ dry] -->
     <g transform="translate(12.1 109.54) rotate(-90) scale(0.07 -0.07)">
      <defs>
       <path id="TimesNewRomanPSMT-4e" d="M -84 4238 
L 1066 4238 
L 3656 1059 
L 3656 3503 
Q 3656 3894 3569 3991 
Q 3453 4122 3203 4122 
L 3056 4122 
L 3056 4238 
L 4531 4238 
L 4531 4122 
L 4381 4122 
Q 4113 4122 4000 3959 
Q 3931 3859 3931 3503 
L 3931 -69 
L 3819 -69 
L 1025 3344 
L 1025 734 
Q 1025 344 1109 247 
Q 1228 116 1475 116 
L 1625 116 
L 1625 0 
L 150 0 
L 150 116 
L 297 116 
Q 569 116 681 278 
Q 750 378 750 734 
L 750 3681 
Q 566 3897 470 3965 
Q 375 4034 191 4094 
Q 100 4122 -84 4122 
L -84 4238 
z
" transform="scale(0.015625)"/>
       <path id="TimesNewRomanPSMT-4f" d="M 2341 4334 
Q 3166 4334 3770 3707 
Q 4375 3081 4375 2144 
Q 4375 1178 3765 540 
Q 3156 -97 2291 -97 
Q 1416 -97 820 525 
Q 225 1147 225 2134 
Q 225 3144 913 3781 
Q 1509 4334 2341 4334 
z
M 2281 4106 
Q 1713 4106 1369 3684 
Q 941 3159 941 2147 
Q 941 1109 1384 550 
Q 1725 125 2284 125 
Q 2881 125 3270 590 
Q 3659 1056 3659 2059 
Q 3659 3147 3231 3681 
Q 2888 4106 2281 4106 
z
" transform="scale(0.015625)"/>
       <path id="TimesNewRomanPSMT-70" d="M -6 2578 
L 875 2934 
L 994 2934 
L 994 2266 
Q 1216 2644 1439 2795 
Q 1663 2947 1909 2947 
Q 2341 2947 2628 2609 
Q 2981 2197 2981 1534 
Q 2981 794 2556 309 
Q 2206 -88 1675 -88 
Q 1444 -88 1275 -22 
Q 1150 25 994 166 
L 994 -706 
Q 994 -1000 1030 -1079 
Q 1066 -1159 1155 -1206 
Q 1244 -1253 1478 -1253 
L 1478 -1369 
L -22 -1369 
L -22 -1253 
L 56 -1253 
Q 228 -1256 350 -1188 
Q 409 -1153 442 -1076 
Q 475 -1000 475 -688 
L 475 2019 
Q 475 2297 450 2372 
Q 425 2447 370 2484 
Q 316 2522 222 2522 
Q 147 2522 31 2478 
L -6 2578 
z
M 994 2081 
L 994 1013 
Q 994 666 1022 556 
Q 1066 375 1236 237 
Q 1406 100 1666 100 
Q 1978 100 2172 344 
Q 2425 663 2425 1241 
Q 2425 1897 2138 2250 
Q 1938 2494 1663 2494 
Q 1513 2494 1366 2419 
Q 1253 2363 994 2081 
z
" transform="scale(0.015625)"/>
       <path id="TimesNewRomanPSMT-2c" d="M 344 -1066 
L 344 -928 
Q 666 -822 842 -598 
Q 1019 -375 1019 -125 
Q 1019 -66 991 -25 
Q 969 3 947 3 
Q 913 3 797 -59 
Q 741 -88 678 -88 
Q 525 -88 434 3 
Q 344 94 344 253 
Q 344 406 461 515 
Q 578 625 747 625 
Q 953 625 1114 445 
Q 1275 266 1275 -31 
Q 1275 -353 1051 -629 
Q 828 -906 344 -1066 
z
" transform="scale(0.015625)"/>
       <path id="TimesNewRomanPSMT-25" d="M 4350 4334 
L 1263 -175 
L 984 -175 
L 4072 4334 
L 4350 4334 
z
M 1138 4334 
Q 1559 4334 1792 3984 
Q 2025 3634 2025 3181 
Q 2025 2638 1762 2341 
Q 1500 2044 1131 2044 
Q 884 2044 678 2180 
Q 472 2316 348 2584 
Q 225 2853 225 3181 
Q 225 3509 350 3786 
Q 475 4063 692 4198 
Q 909 4334 1138 4334 
z
M 1128 4159 
Q 969 4159 845 3971 
Q 722 3784 722 3184 
Q 722 2750 791 2522 
Q 844 2350 956 2256 
Q 1022 2200 1119 2200 
Q 1269 2200 1375 2363 
Q 1531 2603 1531 3166 
Q 1531 3759 1378 4000 
Q 1278 4159 1128 4159 
z
M 4206 2103 
Q 4428 2103 4648 1962 
Q 4869 1822 4989 1553 
Q 5109 1284 5109 963 
Q 5109 409 4843 117 
Q 4578 -175 4216 -175 
Q 3988 -175 3773 -34 
Q 3559 106 3436 367 
Q 3313 628 3313 963 
Q 3313 1291 3436 1562 
Q 3559 1834 3773 1968 
Q 3988 2103 4206 2103 
z
M 4209 1938 
Q 4059 1938 3950 1769 
Q 3809 1550 3809 941 
Q 3809 381 3953 159 
Q 4059 0 4209 0 
Q 4353 0 4466 172 
Q 4616 400 4616 956 
Q 4616 1544 4466 1778 
Q 4363 1938 4209 1938 
z
" transform="scale(0.015625)"/>
       <path id="STIXGeneral-Regular-32" d="M 3034 877 
L 2688 0 
L 186 0 
L 186 77 
L 1325 1286 
Q 1773 1754 1965 2144 
Q 2157 2534 2157 2950 
Q 2157 3379 1920 3616 
Q 1683 3853 1267 3853 
Q 922 3853 720 3673 
Q 518 3494 326 3021 
L 192 3053 
Q 301 3648 630 3987 
Q 960 4326 1523 4326 
Q 2054 4326 2380 4006 
Q 2707 3686 2707 3200 
Q 2707 2477 1888 1613 
L 832 486 
L 2330 486 
Q 2541 486 2665 569 
Q 2790 653 2944 915 
L 3034 877 
z
" transform="scale(0.015625)"/>
       <path id="TimesNewRomanPSMT-64" d="M 2222 322 
Q 2013 103 1813 7 
Q 1613 -88 1381 -88 
Q 913 -88 563 304 
Q 213 697 213 1313 
Q 213 1928 600 2439 
Q 988 2950 1597 2950 
Q 1975 2950 2222 2709 
L 2222 3238 
Q 2222 3728 2198 3840 
Q 2175 3953 2125 3993 
Q 2075 4034 2000 4034 
Q 1919 4034 1784 3984 
L 1744 4094 
L 2597 4444 
L 2738 4444 
L 2738 1134 
Q 2738 631 2761 520 
Q 2784 409 2836 365 
Q 2888 322 2956 322 
Q 3041 322 3181 375 
L 3216 266 
L 2366 -88 
L 2222 -88 
L 2222 322 
z
M 2222 541 
L 2222 2016 
Q 2203 2228 2109 2403 
Q 2016 2578 1861 2667 
Q 1706 2756 1559 2756 
Q 1284 2756 1069 2509 
Q 784 2184 784 1559 
Q 784 928 1059 592 
Q 1334 256 1672 256 
Q 1956 256 2222 541 
z
" transform="scale(0.015625)"/>
       <path id="TimesNewRomanPSMT-79" d="M 38 2863 
L 1372 2863 
L 1372 2747 
L 1306 2747 
Q 1166 2747 1095 2686 
Q 1025 2625 1025 2534 
Q 1025 2413 1128 2197 
L 1825 753 
L 2466 2334 
Q 2519 2463 2519 2588 
Q 2519 2644 2497 2672 
Q 2472 2706 2419 2726 
Q 2366 2747 2231 2747 
L 2231 2863 
L 3163 2863 
L 3163 2747 
Q 3047 2734 2984 2696 
Q 2922 2659 2847 2556 
Q 2819 2513 2741 2316 
L 1575 -541 
Q 1406 -956 1132 -1168 
Q 859 -1381 606 -1381 
Q 422 -1381 303 -1275 
Q 184 -1169 184 -1031 
Q 184 -900 270 -820 
Q 356 -741 506 -741 
Q 609 -741 788 -809 
Q 913 -856 944 -856 
Q 1038 -856 1148 -759 
Q 1259 -663 1372 -384 
L 1575 113 
L 547 2272 
Q 500 2369 397 2513 
Q 319 2622 269 2659 
Q 197 2709 38 2747 
L 38 2863 
z
" transform="scale(0.015625)"/>
      </defs>
      <use xlink:href="#TimesNewRomanPSMT-4e" transform="translate(0 0.5625)"/>
      <use xlink:href="#TimesNewRomanPSMT-4f" transform="translate(72.216797 0.5625)"/>
      <use xlink:href="#TimesNewRomanPSMT-20" transform="translate(144.433594 0.5625)"/>
      <use xlink:href="#TimesNewRomanPSMT-5b" transform="translate(169.433594 0.5625)"/>
      <use xlink:href="#TimesNewRomanPSMT-70" transform="translate(202.734375 0.5625)"/>
      <use xlink:href="#TimesNewRomanPSMT-70" transform="translate(252.734375 0.5625)"/>
      <use xlink:href="#TimesNewRomanPSMT-6d" transform="translate(302.734375 0.5625)"/>
      <use xlink:href="#TimesNewRomanPSMT-2c" transform="translate(380.517578 0.5625)"/>
      <use xlink:href="#TimesNewRomanPSMT-20" transform="translate(405.517578 0.5625)"/>
      <use xlink:href="#TimesNewRomanPSMT-31" transform="translate(430.517578 0.5625)"/>
      <use xlink:href="#TimesNewRomanPSMT-35" transform="translate(480.517578 0.5625)"/>
      <use xlink:href="#TimesNewRomanPSMT-25" transform="translate(530.517578 0.5625)"/>
      <use xlink:href="#TimesNewRomanPSMT-20" transform="translate(613.818359 0.5625)"/>
      <use xlink:href="#TimesNewRomanPSMT-4f" transform="translate(638.818359 0.5625)"/>
      <use xlink:href="#STIXGeneral-Regular-32" transform="translate(712.578437 -12.665625) scale(0.7)"/>
      <use xlink:href="#TimesNewRomanPSMT-20" transform="translate(751.987802 0.5625)"/>
      <use xlink:href="#TimesNewRomanPSMT-64" transform="translate(776.987802 0.5625)"/>
      <use xlink:href="#TimesNewRomanPSMT-72" transform="translate(826.987802 0.5625)"/>
      <use xlink:href="#TimesNewRomanPSMT-79" transform="translate(860.288583 0.5625)"/>
      <use xlink:href="#TimesNewRomanPSMT-5d" transform="translate(910.288583 0.5625)"/>
     </g>
    </g>
   </g>
   <g id="line2d_45">
    <path d="M -1 130.765928 
L 193.382845 130.765928 
L 193.382845 130.765928 
" clip-path="url(#pe2513ffe53)" style="fill: none; stroke-dasharray: 0.6,0.99; stroke-dashoffset: 0; stroke: #000000; stroke-width: 0.6"/>
   </g>
   <g id="patch_3">
    <path d="M 31.64 145.8 
L 31.64 7.2 
" style="fill: none; stroke: #000000; stroke-width: 0.8; stroke-linejoin: miter; stroke-linecap: square"/>
   </g>
   <g id="patch_4">
    <path d="M 185.09 145.8 
L 185.09 7.2 
" style="fill: none; stroke: #000000; stroke-width: 0.8; stroke-linejoin: miter; stroke-linecap: square"/>
   </g>
   <g id="patch_5">
    <path d="M 31.64 145.8 
L 185.09 145.8 
" style="fill: none; stroke: #000000; stroke-width: 0.8; stroke-linejoin: miter; stroke-linecap: square"/>
   </g>
   <g id="patch_6">
    <path d="M 31.64 7.2 
L 185.09 7.2 
" style="fill: none; stroke: #000000; stroke-width: 0.8; stroke-linejoin: miter; stroke-linecap: square"/>
   </g>
   <g id="text_15">
    <!-- NH$_3$/air -->
    <g transform="translate(161.3465 87.59625) scale(0.06 -0.06)">
     <defs>
      <path id="TimesNewRomanPSMT-48" d="M 1316 2272 
L 3284 2272 
L 3284 3484 
Q 3284 3809 3244 3913 
Q 3213 3991 3113 4047 
Q 2978 4122 2828 4122 
L 2678 4122 
L 2678 4238 
L 4491 4238 
L 4491 4122 
L 4341 4122 
Q 4191 4122 4056 4050 
Q 3956 4000 3920 3898 
Q 3884 3797 3884 3484 
L 3884 750 
Q 3884 428 3925 325 
Q 3956 247 4053 191 
Q 4191 116 4341 116 
L 4491 116 
L 4491 0 
L 2678 0 
L 2678 116 
L 2828 116 
Q 3088 116 3206 269 
Q 3284 369 3284 750 
L 3284 2041 
L 1316 2041 
L 1316 750 
Q 1316 428 1356 325 
Q 1388 247 1488 191 
Q 1622 116 1772 116 
L 1925 116 
L 1925 0 
L 109 0 
L 109 116 
L 259 116 
Q 522 116 641 269 
Q 716 369 716 750 
L 716 3484 
Q 716 3809 675 3913 
Q 644 3991 547 4047 
Q 409 4122 259 4122 
L 109 4122 
L 109 4238 
L 1925 4238 
L 1925 4122 
L 1772 4122 
Q 1622 4122 1488 4050 
Q 1391 4000 1353 3898 
Q 1316 3797 1316 3484 
L 1316 2272 
z
" transform="scale(0.015625)"/>
      <path id="STIXGeneral-Regular-33" d="M 390 3264 
L 288 3290 
Q 435 3770 748 4048 
Q 1062 4326 1542 4326 
Q 1990 4326 2265 4083 
Q 2541 3840 2541 3450 
Q 2541 2925 1946 2566 
Q 2298 2413 2477 2227 
Q 2758 1914 2758 1402 
Q 2758 890 2464 506 
Q 2246 211 1840 60 
Q 1434 -90 979 -90 
Q 262 -90 262 275 
Q 262 378 339 442 
Q 416 506 525 506 
Q 685 506 915 339 
Q 1197 141 1466 141 
Q 1818 141 2058 425 
Q 2298 710 2298 1120 
Q 2298 1856 1632 2048 
Q 1434 2112 979 2112 
L 979 2202 
Q 1338 2323 1517 2432 
Q 2035 2726 2035 3290 
Q 2035 3610 1852 3776 
Q 1670 3942 1344 3942 
Q 768 3942 390 3264 
z
" transform="scale(0.015625)"/>
      <path id="TimesNewRomanPSMT-2f" d="M 1794 4444 
L 259 -88 
L 9 -88 
L 1544 4444 
L 1794 4444 
z
" transform="scale(0.015625)"/>
      <path id="TimesNewRomanPSMT-69" d="M 928 4444 
Q 1059 4444 1151 4351 
Q 1244 4259 1244 4128 
Q 1244 3997 1151 3903 
Q 1059 3809 928 3809 
Q 797 3809 703 3903 
Q 609 3997 609 4128 
Q 609 4259 701 4351 
Q 794 4444 928 4444 
z
M 1188 2947 
L 1188 647 
Q 1188 378 1227 289 
Q 1266 200 1342 156 
Q 1419 113 1622 113 
L 1622 0 
L 231 0 
L 231 113 
Q 441 113 512 153 
Q 584 194 626 287 
Q 669 381 669 647 
L 669 1750 
Q 669 2216 641 2353 
Q 619 2453 572 2492 
Q 525 2531 444 2531 
Q 356 2531 231 2484 
L 188 2597 
L 1050 2947 
L 1188 2947 
z
" transform="scale(0.015625)"/>
     </defs>
     <use xlink:href="#TimesNewRomanPSMT-4e" transform="translate(0 0.5625)"/>
     <use xlink:href="#TimesNewRomanPSMT-48" transform="translate(72.216797 0.5625)"/>
     <use xlink:href="#STIXGeneral-Regular-33" transform="translate(145.976875 -12.665625) scale(0.7)"/>
     <use xlink:href="#TimesNewRomanPSMT-2f" transform="translate(185.386239 0.5625)"/>
     <use xlink:href="#TimesNewRomanPSMT-61" transform="translate(213.169442 0.5625)"/>
     <use xlink:href="#TimesNewRomanPSMT-69" transform="translate(257.554208 0.5625)"/>
     <use xlink:href="#TimesNewRomanPSMT-72" transform="translate(285.337411 0.5625)"/>
    </g>
    <!-- $\phi$=1.22 -->
    <g transform="translate(162.7865 93.879188) scale(0.06 -0.06)">
     <defs>
      <path id="STIXGeneral-Italic-3d5" d="M 3078 4371 
L 2650 2822 
Q 3098 2822 3296 2746 
Q 3808 2547 3808 1939 
Q 3808 1709 3728 1446 
Q 3648 1184 3481 915 
Q 3315 646 3088 425 
Q 2861 205 2537 67 
Q 2214 -70 1850 -70 
L 1504 -1312 
L 1005 -1312 
L 1350 -70 
Q 883 -70 666 0 
Q 173 160 173 819 
Q 173 1018 256 1274 
Q 339 1530 502 1802 
Q 666 2074 886 2301 
Q 1107 2528 1417 2675 
Q 1728 2822 2061 2822 
L 2157 2822 
L 2586 4371 
L 3078 4371 
z
M 2611 2688 
L 1888 64 
Q 2125 64 2330 166 
Q 2694 352 2982 998 
Q 3270 1645 3270 2093 
Q 3270 2464 2982 2643 
Q 2906 2688 2611 2688 
z
M 1389 64 
L 2118 2688 
Q 1760 2688 1427 2365 
Q 1094 2042 902 1568 
Q 710 1094 710 646 
Q 710 237 1018 115 
Q 1152 64 1389 64 
z
" transform="scale(0.015625)"/>
      <path id="TimesNewRomanPSMT-3d" d="M 116 2759 
L 3488 2759 
L 3488 2503 
L 116 2503 
L 116 2759 
z
M 116 1741 
L 3488 1741 
L 3488 1484 
L 116 1484 
L 116 1741 
z
" transform="scale(0.015625)"/>
      <path id="TimesNewRomanPSMT-2e" d="M 800 606 
Q 947 606 1047 504 
Q 1147 403 1147 259 
Q 1147 116 1045 14 
Q 944 -88 800 -88 
Q 656 -88 554 14 
Q 453 116 453 259 
Q 453 406 554 506 
Q 656 606 800 606 
z
" transform="scale(0.015625)"/>
     </defs>
     <use xlink:href="#STIXGeneral-Italic-3d5" transform="translate(0 0.703125)"/>
     <use xlink:href="#TimesNewRomanPSMT-3d" transform="translate(62.699997 0.703125)"/>
     <use xlink:href="#TimesNewRomanPSMT-31" transform="translate(119.096481 0.703125)"/>
     <use xlink:href="#TimesNewRomanPSMT-2e" transform="translate(169.096481 0.703125)"/>
     <use xlink:href="#TimesNewRomanPSMT-32" transform="translate(194.096481 0.703125)"/>
     <use xlink:href="#TimesNewRomanPSMT-32" transform="translate(244.096481 0.703125)"/>
    </g>
    <!-- T$_{NH_3}$=300 K -->
    <g transform="translate(150.7265 100.162125) scale(0.06 -0.06)">
     <defs>
      <path id="TimesNewRomanPSMT-54" d="M 3703 4238 
L 3750 3244 
L 3631 3244 
Q 3597 3506 3538 3619 
Q 3441 3800 3280 3886 
Q 3119 3972 2856 3972 
L 2259 3972 
L 2259 734 
Q 2259 344 2344 247 
Q 2463 116 2709 116 
L 2856 116 
L 2856 0 
L 1059 0 
L 1059 116 
L 1209 116 
Q 1478 116 1591 278 
Q 1659 378 1659 734 
L 1659 3972 
L 1150 3972 
Q 853 3972 728 3928 
Q 566 3869 450 3700 
Q 334 3531 313 3244 
L 194 3244 
L 244 4238 
L 3703 4238 
z
" transform="scale(0.015625)"/>
      <path id="STIXGeneral-Italic-4e" d="M 4653 4179 
L 4653 4077 
Q 4480 4038 4413 4016 
Q 4346 3994 4266 3882 
Q 4186 3770 4144 3635 
Q 4102 3501 4000 3149 
L 3066 -96 
L 2950 -96 
L 1478 3424 
L 749 723 
Q 691 525 691 378 
Q 691 243 790 182 
Q 890 122 1139 102 
L 1139 0 
L -128 0 
L -128 102 
Q 147 141 262 304 
Q 378 467 550 1075 
L 1299 3731 
Q 1152 4077 749 4077 
L 749 4179 
L 1773 4179 
L 3098 986 
L 3776 3469 
Q 3827 3648 3827 3750 
Q 3827 3923 3740 3987 
Q 3654 4051 3386 4077 
L 3386 4179 
L 4653 4179 
z
" transform="scale(0.015625)"/>
      <path id="STIXGeneral-Italic-48" d="M 4922 4179 
L 4922 4077 
Q 4640 4026 4550 3949 
Q 4461 3872 4384 3603 
L 3539 525 
Q 3520 448 3520 371 
Q 3520 237 3616 185 
Q 3712 134 4026 102 
L 4026 0 
L 2272 0 
L 2272 102 
Q 2598 128 2729 237 
Q 2861 346 2925 595 
L 3334 2086 
L 1510 2086 
L 1088 525 
Q 1069 461 1069 384 
Q 1069 243 1149 192 
Q 1229 141 1517 102 
L 1517 0 
L -51 0 
L -51 102 
Q 211 128 310 230 
Q 410 333 499 653 
L 1254 3405 
Q 1331 3699 1331 3814 
Q 1331 3949 1238 3997 
Q 1146 4045 838 4077 
L 838 4179 
L 2573 4179 
L 2573 4077 
Q 2285 4058 2141 3955 
Q 1997 3853 1933 3622 
L 1587 2355 
L 3411 2355 
L 3706 3405 
Q 3795 3738 3795 3808 
Q 3795 3930 3692 3994 
Q 3590 4058 3334 4077 
L 3334 4179 
L 4922 4179 
z
" transform="scale(0.015625)"/>
      <path id="TimesNewRomanPSMT-4b" d="M 1913 2350 
L 3475 797 
Q 3859 413 4131 273 
Q 4403 134 4675 116 
L 4675 0 
L 2659 0 
L 2659 116 
Q 2841 116 2920 177 
Q 3000 238 3000 313 
Q 3000 388 2970 447 
Q 2941 506 2775 669 
L 1313 2116 
L 1313 750 
Q 1313 428 1353 325 
Q 1384 247 1484 191 
Q 1619 116 1769 116 
L 1913 116 
L 1913 0 
L 106 0 
L 106 116 
L 256 116 
Q 519 116 638 269 
Q 713 369 713 750 
L 713 3488 
Q 713 3809 672 3916 
Q 641 3991 544 4047 
Q 406 4122 256 4122 
L 106 4122 
L 106 4238 
L 1913 4238 
L 1913 4122 
L 1769 4122 
Q 1622 4122 1484 4050 
Q 1388 4000 1350 3900 
Q 1313 3800 1313 3488 
L 1313 2191 
Q 1375 2250 1741 2588 
Q 2669 3438 2863 3722 
Q 2947 3847 2947 3941 
Q 2947 4013 2881 4067 
Q 2816 4122 2659 4122 
L 2563 4122 
L 2563 4238 
L 4119 4238 
L 4119 4122 
Q 3981 4119 3868 4084 
Q 3756 4050 3593 3951 
Q 3431 3853 3194 3634 
Q 3125 3572 2559 2994 
L 1913 2350 
z
" transform="scale(0.015625)"/>
     </defs>
     <use xlink:href="#TimesNewRomanPSMT-54" transform="translate(0 0.421875)"/>
     <use xlink:href="#STIXGeneral-Italic-4e" transform="translate(62.627266 -12.80625) scale(0.7)"/>
     <use xlink:href="#STIXGeneral-Italic-48" transform="translate(109.317263 -12.80625) scale(0.7)"/>
     <use xlink:href="#STIXGeneral-Regular-33" transform="translate(159.857251 -22.065938) scale(0.49)"/>
     <use xlink:href="#TimesNewRomanPSMT-3d" transform="translate(191.853181 0.421875)"/>
     <use xlink:href="#TimesNewRomanPSMT-33" transform="translate(248.249665 0.421875)"/>
     <use xlink:href="#TimesNewRomanPSMT-30" transform="translate(298.249665 0.421875)"/>
     <use xlink:href="#TimesNewRomanPSMT-30" transform="translate(348.249665 0.421875)"/>
     <use xlink:href="#TimesNewRomanPSMT-20" transform="translate(398.249665 0.421875)"/>
     <use xlink:href="#TimesNewRomanPSMT-4b" transform="translate(423.249665 0.421875)"/>
    </g>
    <!-- T$_{air}$=650 K -->
    <g transform="translate(153.3065 106.601625) scale(0.06 -0.06)">
     <defs>
      <path id="STIXGeneral-Italic-61" d="M 2963 710 
L 3046 640 
Q 2688 205 2518 70 
Q 2349 -64 2157 -64 
Q 1901 -64 1901 198 
Q 1901 358 2048 934 
Q 1690 397 1389 163 
Q 1088 -70 749 -70 
Q 467 -70 288 125 
Q 109 320 109 672 
Q 109 1158 387 1664 
Q 666 2170 1094 2496 
Q 1523 2822 1939 2822 
Q 2368 2822 2451 2451 
L 2522 2758 
L 2541 2778 
L 2931 2822 
L 2976 2803 
Q 2970 2778 2938 2669 
Q 2368 595 2368 346 
Q 2368 262 2458 262 
Q 2554 262 2790 525 
L 2963 710 
z
M 2336 2310 
Q 2336 2477 2240 2579 
Q 2144 2682 1978 2682 
Q 1542 2682 1139 2093 
Q 928 1779 787 1395 
Q 646 1011 646 717 
Q 646 243 1030 243 
Q 1408 243 1843 870 
Q 2336 1581 2336 2310 
z
" transform="scale(0.015625)"/>
      <path id="STIXGeneral-Italic-69" d="M 1690 3834 
Q 1690 3699 1597 3603 
Q 1504 3507 1376 3507 
Q 1235 3507 1152 3600 
Q 1069 3693 1069 3846 
Q 1069 3994 1155 4090 
Q 1242 4186 1370 4186 
Q 1498 4186 1594 4080 
Q 1690 3974 1690 3834 
z
M 1421 730 
L 1504 659 
Q 1235 243 1049 86 
Q 864 -70 627 -70 
Q 314 -70 314 282 
Q 314 467 454 992 
L 762 2125 
Q 819 2330 819 2406 
Q 819 2502 745 2528 
Q 672 2554 410 2560 
L 410 2662 
Q 704 2688 1434 2822 
L 1459 2803 
L 858 608 
Q 794 390 794 326 
Q 794 230 883 230 
Q 1043 230 1421 730 
z
" transform="scale(0.015625)"/>
      <path id="STIXGeneral-Italic-72" d="M 1126 1427 
L 1229 1651 
Q 1446 2131 1830 2534 
Q 2106 2822 2336 2822 
Q 2470 2822 2553 2732 
Q 2637 2643 2637 2496 
Q 2637 2349 2557 2249 
Q 2477 2150 2336 2150 
Q 2214 2150 2112 2317 
Q 2061 2406 2010 2406 
Q 1837 2406 1485 1805 
Q 1267 1434 1136 1104 
Q 1005 774 774 0 
L 288 0 
L 806 1869 
Q 909 2246 909 2394 
Q 909 2560 666 2560 
Q 614 2560 467 2541 
L 467 2650 
L 1459 2822 
L 1478 2810 
L 1126 1427 
z
" transform="scale(0.015625)"/>
     </defs>
     <use xlink:href="#TimesNewRomanPSMT-54" transform="translate(0 0.421875)"/>
     <use xlink:href="#STIXGeneral-Italic-61" transform="translate(62.627266 -12.80625) scale(0.7)"/>
     <use xlink:href="#STIXGeneral-Italic-69" transform="translate(97.697259 -12.80625) scale(0.7)"/>
     <use xlink:href="#STIXGeneral-Italic-72" transform="translate(117.157251 -12.80625) scale(0.7)"/>
     <use xlink:href="#TimesNewRomanPSMT-3d" transform="translate(148.796621 0.421875)"/>
     <use xlink:href="#TimesNewRomanPSMT-36" transform="translate(205.193106 0.421875)"/>
     <use xlink:href="#TimesNewRomanPSMT-35" transform="translate(255.193106 0.421875)"/>
     <use xlink:href="#TimesNewRomanPSMT-30" transform="translate(305.193106 0.421875)"/>
     <use xlink:href="#TimesNewRomanPSMT-20" transform="translate(355.193106 0.421875)"/>
     <use xlink:href="#TimesNewRomanPSMT-4b" transform="translate(380.193106 0.421875)"/>
    </g>
    <!-- P=20 bar -->
    <g transform="translate(158.60525 112.884563) scale(0.06 -0.06)">
     <use xlink:href="#TimesNewRomanPSMT-50"/>
     <use xlink:href="#TimesNewRomanPSMT-3d" x="55.615234"/>
     <use xlink:href="#TimesNewRomanPSMT-32" x="112.011719"/>
     <use xlink:href="#TimesNewRomanPSMT-30" x="162.011719"/>
     <use xlink:href="#TimesNewRomanPSMT-20" x="212.011719"/>
     <use xlink:href="#TimesNewRomanPSMT-62" x="237.011719"/>
     <use xlink:href="#TimesNewRomanPSMT-61" x="287.011719"/>
     <use xlink:href="#TimesNewRomanPSMT-72" x="331.396484"/>
    </g>
   </g>
   <g id="legend_1">
    <g id="line2d_46">
     <path d="M 80.070313 14.7 
L 83.070313 14.7 
L 86.070313 14.7 
" style="fill: none; stroke-dasharray: 2.886,1.248; stroke-dashoffset: 0; stroke: #929591; stroke-width: 0.78"/>
    </g>
    <g id="text_16">
     <!-- Alzueta -->
     <g transform="translate(90.870313 16.8) scale(0.06 -0.06)">
      <defs>
       <path id="TimesNewRomanPSMT-41" d="M 2928 1419 
L 1288 1419 
L 1000 750 
Q 894 503 894 381 
Q 894 284 986 211 
Q 1078 138 1384 116 
L 1384 0 
L 50 0 
L 50 116 
Q 316 163 394 238 
Q 553 388 747 847 
L 2238 4334 
L 2347 4334 
L 3822 809 
Q 4000 384 4145 257 
Q 4291 131 4550 116 
L 4550 0 
L 2878 0 
L 2878 116 
Q 3131 128 3220 200 
Q 3309 272 3309 375 
Q 3309 513 3184 809 
L 2928 1419 
z
M 2841 1650 
L 2122 3363 
L 1384 1650 
L 2841 1650 
z
" transform="scale(0.015625)"/>
       <path id="TimesNewRomanPSMT-6c" d="M 1184 4444 
L 1184 647 
Q 1184 378 1223 290 
Q 1263 203 1344 158 
Q 1425 113 1647 113 
L 1647 0 
L 244 0 
L 244 113 
Q 441 113 512 153 
Q 584 194 625 287 
Q 666 381 666 647 
L 666 3247 
Q 666 3731 644 3842 
Q 622 3953 573 3993 
Q 525 4034 450 4034 
Q 369 4034 244 3984 
L 191 4094 
L 1044 4444 
L 1184 4444 
z
" transform="scale(0.015625)"/>
       <path id="TimesNewRomanPSMT-7a" d="M 2688 878 
L 2653 0 
L 128 0 
L 128 113 
L 2028 2644 
L 1091 2644 
Q 788 2644 694 2605 
Q 600 2566 541 2456 
Q 456 2300 444 2069 
L 319 2069 
L 338 2863 
L 2738 2863 
L 2738 2747 
L 819 209 
L 1863 209 
Q 2191 209 2308 264 
Q 2425 319 2497 456 
Q 2547 556 2581 878 
L 2688 878 
z
" transform="scale(0.015625)"/>
       <path id="TimesNewRomanPSMT-75" d="M 2709 2863 
L 2709 1128 
Q 2709 631 2732 520 
Q 2756 409 2807 365 
Q 2859 322 2928 322 
Q 3025 322 3147 375 
L 3191 266 
L 2334 -88 
L 2194 -88 
L 2194 519 
Q 1825 119 1631 15 
Q 1438 -88 1222 -88 
Q 981 -88 804 51 
Q 628 191 559 409 
Q 491 628 491 1028 
L 491 2306 
Q 491 2509 447 2587 
Q 403 2666 317 2708 
Q 231 2750 6 2747 
L 6 2863 
L 1009 2863 
L 1009 947 
Q 1009 547 1148 422 
Q 1288 297 1484 297 
Q 1619 297 1789 381 
Q 1959 466 2194 703 
L 2194 2325 
Q 2194 2569 2105 2655 
Q 2016 2741 1734 2747 
L 1734 2863 
L 2709 2863 
z
" transform="scale(0.015625)"/>
       <path id="TimesNewRomanPSMT-65" d="M 681 1784 
Q 678 1147 991 784 
Q 1303 422 1725 422 
Q 2006 422 2214 576 
Q 2422 731 2563 1106 
L 2659 1044 
Q 2594 616 2278 264 
Q 1963 -88 1488 -88 
Q 972 -88 605 314 
Q 238 716 238 1394 
Q 238 2128 614 2539 
Q 991 2950 1559 2950 
Q 2041 2950 2350 2633 
Q 2659 2316 2659 1784 
L 681 1784 
z
M 681 1966 
L 2006 1966 
Q 1991 2241 1941 2353 
Q 1863 2528 1708 2628 
Q 1553 2728 1384 2728 
Q 1125 2728 920 2526 
Q 716 2325 681 1966 
z
" transform="scale(0.015625)"/>
       <path id="TimesNewRomanPSMT-74" d="M 1031 3803 
L 1031 2863 
L 1700 2863 
L 1700 2644 
L 1031 2644 
L 1031 788 
Q 1031 509 1111 412 
Q 1191 316 1316 316 
Q 1419 316 1516 380 
Q 1613 444 1666 569 
L 1788 569 
Q 1678 263 1478 108 
Q 1278 -47 1066 -47 
Q 922 -47 784 33 
Q 647 113 581 261 
Q 516 409 516 719 
L 516 2644 
L 63 2644 
L 63 2747 
Q 234 2816 414 2980 
Q 594 3144 734 3369 
Q 806 3488 934 3803 
L 1031 3803 
z
" transform="scale(0.015625)"/>
      </defs>
      <use xlink:href="#TimesNewRomanPSMT-41"/>
      <use xlink:href="#TimesNewRomanPSMT-6c" x="72.216797"/>
      <use xlink:href="#TimesNewRomanPSMT-7a" x="100"/>
      <use xlink:href="#TimesNewRomanPSMT-75" x="144.384766"/>
      <use xlink:href="#TimesNewRomanPSMT-65" x="194.384766"/>
      <use xlink:href="#TimesNewRomanPSMT-74" x="238.769531"/>
      <use xlink:href="#TimesNewRomanPSMT-61" x="266.552734"/>
     </g>
    </g>
    <g id="line2d_47">
     <path d="M 80.070313 23.183438 
L 83.070313 23.183438 
L 86.070313 23.183438 
" style="fill: none; stroke-dasharray: 2.886,1.248; stroke-dashoffset: 0; stroke: #7e1e9c; stroke-width: 0.78"/>
    </g>
    <g id="text_17">
     <!-- LMR-R -->
     <g transform="translate(90.870313 25.283438) scale(0.06 -0.06)">
      <defs>
       <path id="TimesNewRomanPSMT-4c" d="M 3669 1172 
L 3772 1150 
L 3409 0 
L 128 0 
L 128 116 
L 288 116 
Q 556 116 672 291 
Q 738 391 738 753 
L 738 3488 
Q 738 3884 650 3984 
Q 528 4122 288 4122 
L 128 4122 
L 128 4238 
L 2047 4238 
L 2047 4122 
Q 1709 4125 1573 4059 
Q 1438 3994 1388 3894 
Q 1338 3794 1338 3416 
L 1338 753 
Q 1338 494 1388 397 
Q 1425 331 1503 300 
Q 1581 269 1991 269 
L 2300 269 
Q 2788 269 2984 341 
Q 3181 413 3343 595 
Q 3506 778 3669 1172 
z
" transform="scale(0.015625)"/>
       <path id="TimesNewRomanPSMT-4d" d="M 2619 0 
L 981 3566 
L 981 734 
Q 981 344 1066 247 
Q 1181 116 1431 116 
L 1581 116 
L 1581 0 
L 106 0 
L 106 116 
L 256 116 
Q 525 116 638 278 
Q 706 378 706 734 
L 706 3503 
Q 706 3784 644 3909 
Q 600 4000 483 4061 
Q 366 4122 106 4122 
L 106 4238 
L 1306 4238 
L 2844 922 
L 4356 4238 
L 5556 4238 
L 5556 4122 
L 5409 4122 
Q 5138 4122 5025 3959 
Q 4956 3859 4956 3503 
L 4956 734 
Q 4956 344 5044 247 
Q 5159 116 5409 116 
L 5556 116 
L 5556 0 
L 3756 0 
L 3756 116 
L 3906 116 
Q 4178 116 4288 278 
Q 4356 378 4356 734 
L 4356 3566 
L 2722 0 
L 2619 0 
z
" transform="scale(0.015625)"/>
       <path id="TimesNewRomanPSMT-52" d="M 4325 0 
L 3194 0 
L 1759 1981 
Q 1600 1975 1500 1975 
Q 1459 1975 1412 1976 
Q 1366 1978 1316 1981 
L 1316 750 
Q 1316 350 1403 253 
Q 1522 116 1759 116 
L 1925 116 
L 1925 0 
L 109 0 
L 109 116 
L 269 116 
Q 538 116 653 291 
Q 719 388 719 750 
L 719 3488 
Q 719 3888 631 3984 
Q 509 4122 269 4122 
L 109 4122 
L 109 4238 
L 1653 4238 
Q 2328 4238 2648 4139 
Q 2969 4041 3192 3777 
Q 3416 3513 3416 3147 
Q 3416 2756 3161 2468 
Q 2906 2181 2372 2063 
L 3247 847 
Q 3547 428 3762 290 
Q 3978 153 4325 116 
L 4325 0 
z
M 1316 2178 
Q 1375 2178 1419 2176 
Q 1463 2175 1491 2175 
Q 2097 2175 2405 2437 
Q 2713 2700 2713 3106 
Q 2713 3503 2464 3751 
Q 2216 4000 1806 4000 
Q 1625 4000 1316 3941 
L 1316 2178 
z
" transform="scale(0.015625)"/>
       <path id="TimesNewRomanPSMT-2d" d="M 259 1672 
L 1875 1672 
L 1875 1200 
L 259 1200 
L 259 1672 
z
" transform="scale(0.015625)"/>
      </defs>
      <use xlink:href="#TimesNewRomanPSMT-4c"/>
      <use xlink:href="#TimesNewRomanPSMT-4d" x="61.083984"/>
      <use xlink:href="#TimesNewRomanPSMT-52" x="150"/>
      <use xlink:href="#TimesNewRomanPSMT-2d" x="216.699219"/>
      <use xlink:href="#TimesNewRomanPSMT-52" x="250"/>
     </g>
    </g>
    <g id="line2d_48">
     <path d="M 80.070313 31.666875 
L 83.070313 31.666875 
L 86.070313 31.666875 
" style="fill: none; stroke: #029386; stroke-width: 0.6; stroke-linecap: square"/>
    </g>
    <g id="text_18">
     <!-- Mei -->
     <g transform="translate(90.870313 33.766875) scale(0.06 -0.06)">
      <use xlink:href="#TimesNewRomanPSMT-4d"/>
      <use xlink:href="#TimesNewRomanPSMT-65" x="88.916016"/>
      <use xlink:href="#TimesNewRomanPSMT-69" x="133.300781"/>
     </g>
    </g>
    <g id="line2d_49">
     <path d="M 112.8725 14.7 
L 115.8725 14.7 
L 118.8725 14.7 
" style="fill: none; stroke: #ffa500; stroke-width: 0.6; stroke-linecap: square"/>
    </g>
    <g id="text_19">
     <!-- Glarborg -->
     <g transform="translate(123.6725 16.8) scale(0.06 -0.06)">
      <defs>
       <path id="TimesNewRomanPSMT-47" d="M 3928 4334 
L 4038 2997 
L 3928 2997 
Q 3763 3497 3500 3750 
Q 3122 4116 2528 4116 
Q 1719 4116 1297 3475 
Q 944 2934 944 2188 
Q 944 1581 1178 1081 
Q 1413 581 1792 348 
Q 2172 116 2572 116 
Q 2806 116 3025 175 
Q 3244 234 3447 350 
L 3447 1575 
Q 3447 1894 3398 1992 
Q 3350 2091 3248 2142 
Q 3147 2194 2891 2194 
L 2891 2313 
L 4531 2313 
L 4531 2194 
L 4453 2194 
Q 4209 2194 4119 2031 
Q 4056 1916 4056 1575 
L 4056 278 
Q 3697 84 3347 -6 
Q 2997 -97 2569 -97 
Q 1341 -97 703 691 
Q 225 1281 225 2053 
Q 225 2613 494 3125 
Q 813 3734 1369 4063 
Q 1834 4334 2469 4334 
Q 2700 4334 2889 4296 
Q 3078 4259 3425 4131 
Q 3600 4066 3659 4066 
Q 3719 4066 3761 4120 
Q 3803 4175 3813 4334 
L 3928 4334 
z
" transform="scale(0.015625)"/>
       <path id="TimesNewRomanPSMT-6f" d="M 1600 2947 
Q 2250 2947 2644 2453 
Q 2978 2031 2978 1484 
Q 2978 1100 2793 706 
Q 2609 313 2286 112 
Q 1963 -88 1566 -88 
Q 919 -88 538 428 
Q 216 863 216 1403 
Q 216 1797 411 2186 
Q 606 2575 925 2761 
Q 1244 2947 1600 2947 
z
M 1503 2744 
Q 1338 2744 1170 2645 
Q 1003 2547 900 2300 
Q 797 2053 797 1666 
Q 797 1041 1045 587 
Q 1294 134 1700 134 
Q 2003 134 2200 384 
Q 2397 634 2397 1244 
Q 2397 2006 2069 2444 
Q 1847 2744 1503 2744 
z
" transform="scale(0.015625)"/>
       <path id="TimesNewRomanPSMT-67" d="M 966 1044 
Q 703 1172 562 1401 
Q 422 1631 422 1909 
Q 422 2334 742 2640 
Q 1063 2947 1563 2947 
Q 1972 2947 2272 2747 
L 2878 2747 
Q 3013 2747 3034 2739 
Q 3056 2731 3066 2713 
Q 3084 2684 3084 2613 
Q 3084 2531 3069 2500 
Q 3059 2484 3036 2475 
Q 3013 2466 2878 2466 
L 2506 2466 
Q 2681 2241 2681 1891 
Q 2681 1491 2375 1206 
Q 2069 922 1553 922 
Q 1341 922 1119 984 
Q 981 866 932 777 
Q 884 688 884 625 
Q 884 572 936 522 
Q 988 472 1138 450 
Q 1225 438 1575 428 
Q 2219 413 2409 384 
Q 2700 344 2873 169 
Q 3047 -6 3047 -263 
Q 3047 -616 2716 -925 
Q 2228 -1381 1444 -1381 
Q 841 -1381 425 -1109 
Q 191 -953 191 -784 
Q 191 -709 225 -634 
Q 278 -519 444 -313 
Q 466 -284 763 25 
Q 600 122 533 198 
Q 466 275 466 372 
Q 466 481 555 628 
Q 644 775 966 1044 
z
M 1509 2797 
Q 1278 2797 1122 2612 
Q 966 2428 966 2047 
Q 966 1553 1178 1281 
Q 1341 1075 1591 1075 
Q 1828 1075 1981 1253 
Q 2134 1431 2134 1813 
Q 2134 2309 1919 2591 
Q 1759 2797 1509 2797 
z
M 934 0 
Q 788 -159 713 -296 
Q 638 -434 638 -550 
Q 638 -700 819 -813 
Q 1131 -1006 1722 -1006 
Q 2284 -1006 2551 -807 
Q 2819 -609 2819 -384 
Q 2819 -222 2659 -153 
Q 2497 -84 2016 -72 
Q 1313 -53 934 0 
z
" transform="scale(0.015625)"/>
      </defs>
      <use xlink:href="#TimesNewRomanPSMT-47"/>
      <use xlink:href="#TimesNewRomanPSMT-6c" x="72.216797"/>
      <use xlink:href="#TimesNewRomanPSMT-61" x="100"/>
      <use xlink:href="#TimesNewRomanPSMT-72" x="144.384766"/>
      <use xlink:href="#TimesNewRomanPSMT-62" x="177.685547"/>
      <use xlink:href="#TimesNewRomanPSMT-6f" x="227.685547"/>
      <use xlink:href="#TimesNewRomanPSMT-72" x="277.685547"/>
      <use xlink:href="#TimesNewRomanPSMT-67" x="309.236328"/>
     </g>
    </g>
    <g id="line2d_50">
     <path d="M 112.8725 23.194688 
L 115.8725 23.194688 
L 118.8725 23.194688 
" style="fill: none; stroke: #ff0000; stroke-width: 0.6; stroke-linecap: square"/>
    </g>
    <g id="text_20">
     <!-- Zhang -->
     <g transform="translate(123.6725 25.294688) scale(0.06 -0.06)">
      <defs>
       <path id="TimesNewRomanPSMT-5a" d="M 3681 4238 
L 897 256 
L 2634 256 
Q 3034 256 3248 431 
Q 3463 606 3628 1141 
L 3731 1122 
L 3531 0 
L 81 0 
L 81 116 
L 2800 3984 
L 1444 3984 
Q 1106 3984 954 3911 
Q 803 3838 723 3698 
Q 644 3559 578 3178 
L 459 3178 
L 547 4238 
L 3681 4238 
z
" transform="scale(0.015625)"/>
       <path id="TimesNewRomanPSMT-68" d="M 1041 4444 
L 1041 2350 
Q 1388 2731 1591 2839 
Q 1794 2947 1997 2947 
Q 2241 2947 2416 2812 
Q 2591 2678 2675 2391 
Q 2734 2191 2734 1659 
L 2734 647 
Q 2734 375 2778 275 
Q 2809 200 2884 156 
Q 2959 113 3159 113 
L 3159 0 
L 1753 0 
L 1753 113 
L 1819 113 
Q 2019 113 2097 173 
Q 2175 234 2206 353 
Q 2216 403 2216 647 
L 2216 1659 
Q 2216 2128 2167 2275 
Q 2119 2422 2012 2495 
Q 1906 2569 1756 2569 
Q 1603 2569 1437 2487 
Q 1272 2406 1041 2159 
L 1041 647 
Q 1041 353 1073 281 
Q 1106 209 1195 161 
Q 1284 113 1503 113 
L 1503 0 
L 84 0 
L 84 113 
Q 275 113 384 172 
Q 447 203 484 290 
Q 522 378 522 647 
L 522 3238 
Q 522 3728 498 3840 
Q 475 3953 426 3993 
Q 378 4034 297 4034 
Q 231 4034 84 3984 
L 41 4094 
L 897 4444 
L 1041 4444 
z
" transform="scale(0.015625)"/>
       <path id="TimesNewRomanPSMT-6e" d="M 1034 2341 
Q 1538 2947 1994 2947 
Q 2228 2947 2397 2830 
Q 2566 2713 2666 2444 
Q 2734 2256 2734 1869 
L 2734 647 
Q 2734 375 2778 278 
Q 2813 200 2889 156 
Q 2966 113 3172 113 
L 3172 0 
L 1756 0 
L 1756 113 
L 1816 113 
Q 2016 113 2095 173 
Q 2175 234 2206 353 
Q 2219 400 2219 647 
L 2219 1819 
Q 2219 2209 2117 2386 
Q 2016 2563 1775 2563 
Q 1403 2563 1034 2156 
L 1034 647 
Q 1034 356 1069 288 
Q 1113 197 1189 155 
Q 1266 113 1500 113 
L 1500 0 
L 84 0 
L 84 113 
L 147 113 
Q 366 113 442 223 
Q 519 334 519 647 
L 519 1709 
Q 519 2225 495 2337 
Q 472 2450 423 2490 
Q 375 2531 294 2531 
Q 206 2531 84 2484 
L 38 2597 
L 900 2947 
L 1034 2947 
L 1034 2341 
z
" transform="scale(0.015625)"/>
      </defs>
      <use xlink:href="#TimesNewRomanPSMT-5a"/>
      <use xlink:href="#TimesNewRomanPSMT-68" x="61.083984"/>
      <use xlink:href="#TimesNewRomanPSMT-61" x="111.083984"/>
      <use xlink:href="#TimesNewRomanPSMT-6e" x="155.46875"/>
      <use xlink:href="#TimesNewRomanPSMT-67" x="205.46875"/>
     </g>
    </g>
    <g id="line2d_51">
     <path d="M 112.8725 31.689375 
L 115.8725 31.689375 
L 118.8725 31.689375 
" style="fill: none; stroke: #0000ff; stroke-width: 0.6; stroke-linecap: square"/>
    </g>
    <g id="text_21">
     <!-- Otomo -->
     <g transform="translate(123.6725 33.789375) scale(0.06 -0.06)">
      <use xlink:href="#TimesNewRomanPSMT-4f"/>
      <use xlink:href="#TimesNewRomanPSMT-74" x="72.216797"/>
      <use xlink:href="#TimesNewRomanPSMT-6f" x="100"/>
      <use xlink:href="#TimesNewRomanPSMT-6d" x="150"/>
      <use xlink:href="#TimesNewRomanPSMT-6f" x="227.783203"/>
     </g>
    </g>
    <g id="line2d_52">
     <path d="M 148.226563 14.7 
L 151.226563 14.7 
L 154.226563 14.7 
" style="fill: none; stroke: #89fe05; stroke-width: 0.6; stroke-linecap: square"/>
    </g>
    <g id="text_22">
     <!-- Stagni -->
     <g transform="translate(159.026563 16.8) scale(0.06 -0.06)">
      <defs>
       <path id="TimesNewRomanPSMT-53" d="M 2934 4334 
L 2934 2869 
L 2819 2869 
Q 2763 3291 2617 3541 
Q 2472 3791 2203 3937 
Q 1934 4084 1647 4084 
Q 1322 4084 1109 3886 
Q 897 3688 897 3434 
Q 897 3241 1031 3081 
Q 1225 2847 1953 2456 
Q 2547 2138 2764 1967 
Q 2981 1797 3098 1565 
Q 3216 1334 3216 1081 
Q 3216 600 2842 251 
Q 2469 -97 1881 -97 
Q 1697 -97 1534 -69 
Q 1438 -53 1133 45 
Q 828 144 747 144 
Q 669 144 623 97 
Q 578 50 556 -97 
L 441 -97 
L 441 1356 
L 556 1356 
Q 638 900 775 673 
Q 913 447 1195 297 
Q 1478 147 1816 147 
Q 2206 147 2432 353 
Q 2659 559 2659 841 
Q 2659 997 2573 1156 
Q 2488 1316 2306 1453 
Q 2184 1547 1640 1851 
Q 1097 2156 867 2337 
Q 638 2519 519 2737 
Q 400 2956 400 3219 
Q 400 3675 750 4004 
Q 1100 4334 1641 4334 
Q 1978 4334 2356 4169 
Q 2531 4091 2603 4091 
Q 2684 4091 2736 4139 
Q 2788 4188 2819 4334 
L 2934 4334 
z
" transform="scale(0.015625)"/>
      </defs>
      <use xlink:href="#TimesNewRomanPSMT-53"/>
      <use xlink:href="#TimesNewRomanPSMT-74" x="55.615234"/>
      <use xlink:href="#TimesNewRomanPSMT-61" x="83.398438"/>
      <use xlink:href="#TimesNewRomanPSMT-67" x="127.783203"/>
      <use xlink:href="#TimesNewRomanPSMT-6e" x="177.783203"/>
      <use xlink:href="#TimesNewRomanPSMT-69" x="227.783203"/>
     </g>
    </g>
    <g id="line2d_53">
     <path d="M 148.226563 23.194688 
L 151.226563 23.194688 
L 154.226563 23.194688 
" style="fill: none; stroke: #c20078; stroke-width: 0.6; stroke-linecap: square"/>
    </g>
    <g id="text_23">
     <!-- Shrestha -->
     <g transform="translate(159.026563 25.294688) scale(0.06 -0.06)">
      <use xlink:href="#TimesNewRomanPSMT-53"/>
      <use xlink:href="#TimesNewRomanPSMT-68" x="55.615234"/>
      <use xlink:href="#TimesNewRomanPSMT-72" x="105.615234"/>
      <use xlink:href="#TimesNewRomanPSMT-65" x="138.916016"/>
      <use xlink:href="#TimesNewRomanPSMT-73" x="183.300781"/>
      <use xlink:href="#TimesNewRomanPSMT-74" x="222.216797"/>
      <use xlink:href="#TimesNewRomanPSMT-68" x="250"/>
      <use xlink:href="#TimesNewRomanPSMT-61" x="300"/>
     </g>
    </g>
    <g id="line2d_54">
     <path d="M 148.226563 31.678125 
L 151.226563 31.678125 
L 154.226563 31.678125 
" style="fill: none; stroke: #001146; stroke-width: 0.6; stroke-linecap: square"/>
    </g>
    <g id="text_24">
     <!-- Han -->
     <g transform="translate(159.026563 33.778125) scale(0.06 -0.06)">
      <use xlink:href="#TimesNewRomanPSMT-48"/>
      <use xlink:href="#TimesNewRomanPSMT-61" x="72.216797"/>
      <use xlink:href="#TimesNewRomanPSMT-6e" x="116.601562"/>
     </g>
    </g>
   </g>
   <g id="line2d_55">
    <path d="M -1 41.989352 
L 19.405256 41.989694 
L 30.589111 42.705054 
L 37.131247 43.509459 
L 41.772966 44.397684 
L 45.373363 45.364228 
L 48.315101 46.403387 
L 50.802306 47.509314 
L 52.95682 48.676086 
L 54.857237 49.897757 
L 56.557217 51.168413 
L 58.095037 52.48222 
L 60.790436 55.216594 
L 63.099353 58.057282 
L 65.118847 60.96413 
L 66.91346 63.901062 
L 69.278892 68.294832 
L 71.341469 72.598188 
L 73.73621 78.083931 
L 77.667026 87.873349 
L 81.526971 97.629033 
L 84.063143 103.600245 
L 86.254286 108.253636 
L 88.183135 111.859369 
L 89.905824 114.649299 
L 91.4622 116.809374 
L 92.881567 118.46961 
L 94.186107 119.770209 
L 96.515896 121.600539 
L 97.56569 122.240486 
L 99.480217 123.127552 
L 101.191477 123.707868 
L 104.150119 124.357493 
L 106.649387 124.671585 
L 112.425991 124.997037 
L 121.932329 125.21307 
L 141.907262 125.592664 
L 148.624734 126.015293 
L 153.353413 126.533015 
L 159.982041 127.583002 
L 168.293019 129.029428 
L 173.751385 129.711536 
L 181.070818 130.279952 
L 181.070818 130.279952 
" clip-path="url(#pe2513ffe53)" style="fill: none; stroke: #001146; stroke-width: 0.6; stroke-linecap: square"/>
   </g>
   <g id="line2d_56">
    <path d="M -1 70.596943 
L 2.919912 70.597024 
L 14.103766 71.371522 
L 20.645902 72.151384 
L 25.287621 72.935676 
L 28.888018 73.723482 
L 31.829757 74.513908 
L 36.471476 76.099151 
L 40.071873 77.684724 
L 43.013611 79.264381 
L 45.500816 80.832353 
L 48.633502 83.151031 
L 51.255728 85.416166 
L 54.197466 88.33127 
L 56.684671 91.105571 
L 59.335683 94.352965 
L 62.837995 99.011737 
L 71.69779 111.139297 
L 74.217426 114.210902 
L 77.061673 117.285426 
L 78.907672 119.029744 
L 81.080346 120.815464 
L 82.994872 122.164627 
L 85.498188 123.613598 
L 88.326812 124.879906 
L 89.574575 125.326952 
L 91.813296 125.955897 
L 95.530849 126.664715 
L 97.11106 126.86313 
L 102.227881 127.200409 
L 107.744673 127.321723 
L 148.101879 127.781896 
L 154.713695 128.172674 
L 163.011339 128.981178 
L 172.532126 129.944576 
L 172.532126 129.944576 
" clip-path="url(#pe2513ffe53)" style="fill: none; stroke: #c20078; stroke-width: 0.6; stroke-linecap: square"/>
   </g>
   <g id="line2d_57">
    <path d="M -1 83.953965 
L 19.107806 83.954171 
L 30.291661 84.366365 
L 36.833796 84.80893 
L 41.475515 85.281039 
L 45.075912 85.781656 
L 50.504855 86.863304 
L 54.559787 88.041944 
L 57.797586 89.303391 
L 60.492986 90.631955 
L 62.801903 92.01123 
L 64.821396 93.424832 
L 67.443622 95.575483 
L 69.698666 97.720362 
L 71.676841 99.819656 
L 75.027079 103.771861 
L 84.622614 115.669373 
L 87.189106 118.316374 
L 89.811331 120.599044 
L 92.066375 122.199421 
L 94.653486 123.621669 
L 96.882527 124.539276 
L 98.840671 125.120074 
L 102.162072 125.765808 
L 103.59723 125.941239 
L 108.324546 126.223933 
L 117.463275 126.339305 
L 148.311179 126.509886 
L 153.04395 126.819607 
L 159.676626 127.541917 
L 173.450543 129.680199 
L 177.522553 130.051492 
L 177.522553 130.051492 
" clip-path="url(#pe2513ffe53)" style="fill: none; stroke: #89fe05; stroke-width: 0.6; stroke-linecap: square"/>
   </g>
   <g id="line2d_58">
    <path d="M -1 58.465494 
L 18.402002 58.466346 
L 29.585856 60.097108 
L 36.127992 61.725973 
L 40.769711 63.350232 
L 44.370108 64.967314 
L 47.311847 66.574775 
L 49.799051 68.170295 
L 51.953566 69.75167 
L 53.853982 71.316819 
L 57.091782 74.390728 
L 59.787182 77.377874 
L 62.096098 80.266232 
L 65.037837 84.392675 
L 68.275637 89.475713 
L 71.579973 95.123055 
L 79.822089 109.513874 
L 82.462232 113.580585 
L 84.730506 116.663283 
L 86.718852 119.005891 
L 88.488832 120.810039 
L 90.825664 122.791751 
L 92.866472 124.161377 
L 95.239163 125.388929 
L 96.306321 125.827863 
L 98.249707 126.44961 
L 101.549804 127.137979 
L 102.977022 127.320886 
L 107.682642 127.5749 
L 114.288426 127.553065 
L 129.148726 127.167804 
L 138.655065 126.987586 
L 144.596896 127.060813 
L 147.610745 127.196037 
L 152.342151 127.566522 
L 161.486075 128.672939 
L 167.286593 129.482859 
L 172.745869 130.031131 
L 176.817627 130.301611 
L 176.817627 130.301611 
" clip-path="url(#pe2513ffe53)" style="fill: none; stroke: #0000ff; stroke-width: 0.6; stroke-linecap: square"/>
   </g>
   <g id="line2d_59">
    <path d="M -1 25.887409 
L 1.070239 25.887442 
L 12.254094 26.551151 
L 18.796229 27.26872 
L 23.437948 28.03782 
L 27.038345 28.855959 
L 29.980084 29.720512 
L 32.467288 30.628739 
L 34.621803 31.577809 
L 36.522219 32.564828 
L 39.760019 34.640919 
L 42.455419 36.833331 
L 44.764336 39.118646 
L 46.783829 41.474262 
L 48.578443 43.878827 
L 50.943874 47.534715 
L 53.006452 51.197778 
L 55.401193 56.009743 
L 57.48601 60.659393 
L 60.181409 67.20695 
L 64.50982 78.461504 
L 68.423526 88.555527 
L 71.157069 95.085132 
L 73.493901 100.14827 
L 75.534709 104.11579 
L 77.9074 108.171953 
L 79.482786 110.533579 
L 81.369299 113.04548 
L 82.23581 114.091516 
L 85.300115 117.275074 
L 87.8743 119.452235 
L 89.022154 120.290408 
L 91.098576 121.589092 
L 92.937991 122.56623 
L 96.086647 123.818725 
L 98.720042 124.595192 
L 100.983337 125.083744 
L 102.967857 125.39509 
L 109.10623 125.824326 
L 115.373465 125.907935 
L 130.171236 125.915511 
L 134.930095 126.011029 
L 141.588526 126.310747 
L 146.288079 126.702005 
L 152.887843 127.555619 
L 164.129121 129.232062 
L 170.690352 129.888405 
L 170.690352 129.888405 
" clip-path="url(#pe2513ffe53)" style="fill: none; stroke: #ff0000; stroke-width: 0.6; stroke-linecap: square"/>
   </g>
   <g id="line2d_60">
    <path d="M -1 32.472417 
L 1.263247 32.472453 
L 12.447101 33.093815 
L 18.989237 33.742842 
L 23.630956 34.418205 
L 27.231353 35.118538 
L 30.173092 35.842447 
L 32.660296 36.588515 
L 36.715227 38.141409 
L 39.953027 39.765746 
L 42.648427 41.450151 
L 44.957343 43.183532 
L 46.976837 44.955226 
L 48.771451 46.755132 
L 51.136882 49.487407 
L 53.19946 52.234444 
L 55.5942 55.876224 
L 57.679018 59.449779 
L 60.374417 64.604796 
L 63.384961 70.977943 
L 67.053872 79.321182 
L 72.560761 91.923017 
L 75.405008 97.931192 
L 77.822213 102.570156 
L 79.423681 105.365479 
L 81.338207 108.416384 
L 83.841523 111.932277 
L 86.670147 115.263584 
L 89.076067 117.633879 
L 91.169349 119.333558 
L 93.021978 120.617817 
L 96.190016 122.273136 
L 98.836942 123.306448 
L 101.110218 123.96512 
L 103.102404 124.39345 
L 106.472763 124.822723 
L 111.634724 125.145267 
L 121.309208 125.261095 
L 135.115051 125.357678 
L 141.776205 125.551112 
L 146.477105 125.823992 
L 153.078206 126.523444 
L 159.659532 127.597485 
L 166.816391 128.796964 
L 174.127381 129.680823 
L 174.127381 129.680823 
" clip-path="url(#pe2513ffe53)" style="fill: none; stroke: #ffa500; stroke-width: 0.6; stroke-linecap: square"/>
   </g>
   <g id="line2d_61">
    <path d="M -1 22.276719 
L 15.490886 22.277345 
L 26.674741 23.778623 
L 33.216876 25.365199 
L 37.858595 27.029746 
L 41.458992 28.76444 
L 44.400731 30.561094 
L 46.887936 32.411278 
L 49.04245 34.30646 
L 50.942867 36.238132 
L 52.642847 38.197929 
L 54.180667 40.177738 
L 56.876066 44.166742 
L 59.184983 48.148387 
L 61.204477 52.074171 
L 63.826702 57.774005 
L 66.76844 64.881437 
L 70.368837 74.275291 
L 75.797781 88.565036 
L 78.610954 95.356789 
L 81.005694 100.547702 
L 83.090512 104.539821 
L 84.93651 107.662823 
L 86.592824 110.131847 
L 87.361297 111.171271 
L 88.796455 112.922526 
L 91.332628 115.513294 
L 92.465366 116.472934 
L 94.517001 117.89049 
L 96.336944 118.89075 
L 97.972256 119.605177 
L 100.816502 120.438359 
L 103.233707 120.903105 
L 105.335522 121.171554 
L 111.754018 121.488886 
L 118.213197 121.513583 
L 130.181636 121.411841 
L 133.250508 121.507979 
L 138.049747 121.950936 
L 144.747881 123.241742 
L 149.467037 124.757796 
L 153.113718 126.083368 
L 158.595396 127.733117 
L 162.67955 128.68071 
L 164.389746 129.003278 
L 169.844927 129.738474 
L 177.161475 130.303524 
L 177.161475 130.303524 
" clip-path="url(#pe2513ffe53)" style="fill: none; stroke: #029386; stroke-width: 0.6; stroke-linecap: square"/>
   </g>
   <g id="line2d_62">
    <path d="M -1 63.709094 
L 17.936844 63.709166 
L 29.120699 63.950305 
L 35.662835 64.287711 
L 40.304554 64.716644 
L 43.904951 65.231751 
L 46.846689 65.8272 
L 49.333894 66.49681 
L 51.488408 67.234171 
L 53.388825 68.032766 
L 55.088805 68.88606 
L 58.030544 70.731077 
L 60.517749 72.719752 
L 62.672263 74.806739 
L 64.57268 76.951893 
L 67.059884 80.204845 
L 69.214399 83.41989 
L 71.701603 87.538107 
L 75.756534 94.895057 
L 81.056912 104.624576 
L 83.451653 108.628479 
L 85.53647 111.783334 
L 87.382469 114.273375 
L 89.038782 116.245436 
L 90.540786 117.801487 
L 93.180929 120.062217 
L 94.354894 120.880602 
L 96.473986 122.057649 
L 98.346798 122.85926 
L 100.02466 123.413223 
L 102.933165 124.028459 
L 107.533246 124.548049 
L 114.033635 124.814133 
L 126.463892 125.009276 
L 140.463241 125.199579 
L 147.172412 125.519747 
L 151.897004 125.963625 
L 158.52159 126.980159 
L 169.787475 129.04155 
L 172.286365 129.387596 
L 176.356862 129.811894 
L 176.356862 129.811894 
" clip-path="url(#pe2513ffe53)" style="fill: none; stroke-dasharray: 2.886,1.248; stroke-dashoffset: 0; stroke: #929591; stroke-width: 0.78"/>
   </g>
   <g id="line2d_63">
    <path d="M -1 70.444564 
L 20.141867 70.44469 
L 31.325721 70.737801 
L 37.867857 71.09991 
L 42.509576 71.527613 
L 46.109973 72.01717 
L 49.051712 72.564571 
L 51.538916 73.165608 
L 53.693431 73.815941 
L 57.293828 75.246835 
L 60.235566 76.822066 
L 62.722771 78.50763 
L 64.877285 80.271801 
L 66.777702 82.085849 
L 69.264907 84.846011 
L 71.419421 87.591665 
L 73.906626 91.144119 
L 77.039312 96.076543 
L 85.09048 109.151762 
L 87.244995 112.219504 
L 89.145411 114.638412 
L 90.845392 116.543934 
L 92.383211 118.034615 
L 95.078611 120.16553 
L 97.387528 121.53178 
L 99.407021 122.396868 
L 101.201635 122.978909 
L 104.284291 123.659498 
L 106.871402 124.012549 
L 112.804601 124.432434 
L 122.471309 124.773578 
L 146.304368 125.490237 
L 149.323741 125.738507 
L 154.06198 126.289621 
L 160.700062 127.404504 
L 169.018526 128.930671 
L 174.480079 129.645022 
L 178.553099 130.007456 
L 178.553099 130.007456 
" clip-path="url(#pe2513ffe53)" style="fill: none; stroke-dasharray: 2.886,1.248; stroke-dashoffset: 0; stroke: #7e1e9c; stroke-width: 0.78"/>
   </g>
  </g>
 </g>
 <defs>
  <clipPath id="pe2513ffe53">
   <rect x="31.64" y="7.2" width="153.45" height="138.6"/>
  </clipPath>
 </defs>
</svg>
