<?xml version="1.0" encoding="utf-8" standalone="no"?>
<!DOCTYPE svg PUBLIC "-//W3C//DTD SVG 1.1//EN"
  "http://www.w3.org/Graphics/SVG/1.1/DTD/svg11.dtd">
<svg xmlns:xlink="http://www.w3.org/1999/xlink" width="401.14pt" height="190.826466pt" viewBox="0 0 401.14 190.826466" xmlns="http://www.w3.org/2000/svg" version="1.1">
 <metadata>
  <rdf:RDF xmlns:dc="http://purl.org/dc/elements/1.1/" xmlns:cc="http://creativecommons.org/ns#" xmlns:rdf="http://www.w3.org/1999/02/22-rdf-syntax-ns#">
   <cc:Work>
    <dc:type rdf:resource="http://purl.org/dc/dcmitype/StillImage"/>
    <dc:date>2024-09-18T15:45:55.288719</dc:date>
    <dc:format>image/svg+xml</dc:format>
    <dc:creator>
     <cc:Agent>
      <dc:title>Matplotlib v3.9.2, https://matplotlib.org/</dc:title>
     </cc:Agent>
    </dc:creator>
   </cc:Work>
  </rdf:RDF>
 </metadata>
 <defs>
  <style type="text/css">*{stroke-linejoin: round; stroke-linecap: butt}</style>
 </defs>
 <g id="figure_1">
  <g id="patch_1">
   <path d="M 0 190.826466 
L 401.14 190.826466 
L 401.14 0 
L 0 0 
z
" style="fill: #ffffff"/>
  </g>
  <g id="axes_1">
   <g id="patch_2">
    <path d="M 31.24 157.9968 
L 196.103636 157.9968 
L 196.103636 7.2 
L 31.24 7.2 
z
" style="fill: #ffffff"/>
   </g>
   <g id="matplotlib.axis_1">
    <g id="xtick_1">
     <g id="line2d_1">
      <defs>
       <path id="m215c30260b" d="M 0 0 
L 0 -2.5 
" style="stroke: #000000; stroke-width: 0.5"/>
      </defs>
      <g>
       <use xlink:href="#m215c30260b" x="53.212292" y="157.9968" style="stroke: #000000; stroke-width: 0.5"/>
      </g>
     </g>
     <g id="text_1">
      <!-- 0.8 -->
      <g transform="translate(48.837292 166.357425) scale(0.07 -0.07)">
       <defs>
        <path id="TimesNewRomanPSMT-30" d="M 231 2094 
Q 231 2819 450 3342 
Q 669 3866 1031 4122 
Q 1313 4325 1613 4325 
Q 2100 4325 2488 3828 
Q 2972 3213 2972 2159 
Q 2972 1422 2759 906 
Q 2547 391 2217 158 
Q 1888 -75 1581 -75 
Q 975 -75 572 641 
Q 231 1244 231 2094 
z
M 844 2016 
Q 844 1141 1059 588 
Q 1238 122 1591 122 
Q 1759 122 1940 273 
Q 2122 425 2216 781 
Q 2359 1319 2359 2297 
Q 2359 3022 2209 3506 
Q 2097 3866 1919 4016 
Q 1791 4119 1609 4119 
Q 1397 4119 1231 3928 
Q 1006 3669 925 3112 
Q 844 2556 844 2016 
z
" transform="scale(0.015625)"/>
        <path id="TimesNewRomanPSMT-2e" d="M 800 606 
Q 947 606 1047 504 
Q 1147 403 1147 259 
Q 1147 116 1045 14 
Q 944 -88 800 -88 
Q 656 -88 554 14 
Q 453 116 453 259 
Q 453 406 554 506 
Q 656 606 800 606 
z
" transform="scale(0.015625)"/>
        <path id="TimesNewRomanPSMT-38" d="M 1228 2134 
Q 725 2547 579 2797 
Q 434 3047 434 3316 
Q 434 3728 753 4026 
Q 1072 4325 1600 4325 
Q 2113 4325 2425 4047 
Q 2738 3769 2738 3413 
Q 2738 3175 2569 2928 
Q 2400 2681 1866 2347 
Q 2416 1922 2594 1678 
Q 2831 1359 2831 1006 
Q 2831 559 2490 242 
Q 2150 -75 1597 -75 
Q 994 -75 656 303 
Q 388 606 388 966 
Q 388 1247 577 1523 
Q 766 1800 1228 2134 
z
M 1719 2469 
Q 2094 2806 2194 3001 
Q 2294 3197 2294 3444 
Q 2294 3772 2109 3958 
Q 1925 4144 1606 4144 
Q 1288 4144 1088 3959 
Q 888 3775 888 3528 
Q 888 3366 970 3203 
Q 1053 3041 1206 2894 
L 1719 2469 
z
M 1375 2016 
Q 1116 1797 991 1539 
Q 866 1281 866 981 
Q 866 578 1086 336 
Q 1306 94 1647 94 
Q 1984 94 2187 284 
Q 2391 475 2391 747 
Q 2391 972 2272 1150 
Q 2050 1481 1375 2016 
z
" transform="scale(0.015625)"/>
       </defs>
       <use xlink:href="#TimesNewRomanPSMT-30"/>
       <use xlink:href="#TimesNewRomanPSMT-2e" x="50"/>
       <use xlink:href="#TimesNewRomanPSMT-38" x="75"/>
      </g>
     </g>
    </g>
    <g id="xtick_2">
     <g id="line2d_2">
      <g>
       <use xlink:href="#m215c30260b" x="75.195576" y="157.9968" style="stroke: #000000; stroke-width: 0.5"/>
      </g>
     </g>
     <g id="text_2">
      <!-- 1.0 -->
      <g transform="translate(70.820576 166.357425) scale(0.07 -0.07)">
       <defs>
        <path id="TimesNewRomanPSMT-31" d="M 750 3822 
L 1781 4325 
L 1884 4325 
L 1884 747 
Q 1884 391 1914 303 
Q 1944 216 2037 169 
Q 2131 122 2419 116 
L 2419 0 
L 825 0 
L 825 116 
Q 1125 122 1212 167 
Q 1300 213 1334 289 
Q 1369 366 1369 747 
L 1369 3034 
Q 1369 3497 1338 3628 
Q 1316 3728 1258 3775 
Q 1200 3822 1119 3822 
Q 1003 3822 797 3725 
L 750 3822 
z
" transform="scale(0.015625)"/>
       </defs>
       <use xlink:href="#TimesNewRomanPSMT-31"/>
       <use xlink:href="#TimesNewRomanPSMT-2e" x="50"/>
       <use xlink:href="#TimesNewRomanPSMT-30" x="75"/>
      </g>
     </g>
    </g>
    <g id="xtick_3">
     <g id="line2d_3">
      <g>
       <use xlink:href="#m215c30260b" x="97.17886" y="157.9968" style="stroke: #000000; stroke-width: 0.5"/>
      </g>
     </g>
     <g id="text_3">
      <!-- 1.2 -->
      <g transform="translate(92.80386 166.357425) scale(0.07 -0.07)">
       <defs>
        <path id="TimesNewRomanPSMT-32" d="M 2934 816 
L 2638 0 
L 138 0 
L 138 116 
Q 1241 1122 1691 1759 
Q 2141 2397 2141 2925 
Q 2141 3328 1894 3587 
Q 1647 3847 1303 3847 
Q 991 3847 742 3664 
Q 494 3481 375 3128 
L 259 3128 
Q 338 3706 661 4015 
Q 984 4325 1469 4325 
Q 1984 4325 2329 3994 
Q 2675 3663 2675 3213 
Q 2675 2891 2525 2569 
Q 2294 2063 1775 1497 
Q 997 647 803 472 
L 1909 472 
Q 2247 472 2383 497 
Q 2519 522 2628 598 
Q 2738 675 2819 816 
L 2934 816 
z
" transform="scale(0.015625)"/>
       </defs>
       <use xlink:href="#TimesNewRomanPSMT-31"/>
       <use xlink:href="#TimesNewRomanPSMT-2e" x="50"/>
       <use xlink:href="#TimesNewRomanPSMT-32" x="75"/>
      </g>
     </g>
    </g>
    <g id="xtick_4">
     <g id="line2d_4">
      <g>
       <use xlink:href="#m215c30260b" x="119.162143" y="157.9968" style="stroke: #000000; stroke-width: 0.5"/>
      </g>
     </g>
     <g id="text_4">
      <!-- 1.4 -->
      <g transform="translate(114.787143 166.357425) scale(0.07 -0.07)">
       <defs>
        <path id="TimesNewRomanPSMT-34" d="M 2978 1563 
L 2978 1119 
L 2409 1119 
L 2409 0 
L 1894 0 
L 1894 1119 
L 100 1119 
L 100 1519 
L 2066 4325 
L 2409 4325 
L 2409 1563 
L 2978 1563 
z
M 1894 1563 
L 1894 3666 
L 406 1563 
L 1894 1563 
z
" transform="scale(0.015625)"/>
       </defs>
       <use xlink:href="#TimesNewRomanPSMT-31"/>
       <use xlink:href="#TimesNewRomanPSMT-2e" x="50"/>
       <use xlink:href="#TimesNewRomanPSMT-34" x="75"/>
      </g>
     </g>
    </g>
    <g id="xtick_5">
     <g id="line2d_5">
      <g>
       <use xlink:href="#m215c30260b" x="141.145427" y="157.9968" style="stroke: #000000; stroke-width: 0.5"/>
      </g>
     </g>
     <g id="text_5">
      <!-- 1.6 -->
      <g transform="translate(136.770427 166.357425) scale(0.07 -0.07)">
       <defs>
        <path id="TimesNewRomanPSMT-36" d="M 2869 4325 
L 2869 4209 
Q 2456 4169 2195 4045 
Q 1934 3922 1679 3669 
Q 1425 3416 1258 3105 
Q 1091 2794 978 2366 
Q 1428 2675 1881 2675 
Q 2316 2675 2634 2325 
Q 2953 1975 2953 1425 
Q 2953 894 2631 456 
Q 2244 -75 1606 -75 
Q 1172 -75 869 213 
Q 275 772 275 1663 
Q 275 2231 503 2743 
Q 731 3256 1154 3653 
Q 1578 4050 1965 4187 
Q 2353 4325 2688 4325 
L 2869 4325 
z
M 925 2138 
Q 869 1716 869 1456 
Q 869 1156 980 804 
Q 1091 453 1309 247 
Q 1469 100 1697 100 
Q 1969 100 2183 356 
Q 2397 613 2397 1088 
Q 2397 1622 2184 2012 
Q 1972 2403 1581 2403 
Q 1463 2403 1327 2353 
Q 1191 2303 925 2138 
z
" transform="scale(0.015625)"/>
       </defs>
       <use xlink:href="#TimesNewRomanPSMT-31"/>
       <use xlink:href="#TimesNewRomanPSMT-2e" x="50"/>
       <use xlink:href="#TimesNewRomanPSMT-36" x="75"/>
      </g>
     </g>
    </g>
    <g id="xtick_6">
     <g id="line2d_6">
      <g>
       <use xlink:href="#m215c30260b" x="163.128711" y="157.9968" style="stroke: #000000; stroke-width: 0.5"/>
      </g>
     </g>
     <g id="text_6">
      <!-- 1.8 -->
      <g transform="translate(158.753711 166.357425) scale(0.07 -0.07)">
       <use xlink:href="#TimesNewRomanPSMT-31"/>
       <use xlink:href="#TimesNewRomanPSMT-2e" x="50"/>
       <use xlink:href="#TimesNewRomanPSMT-38" x="75"/>
      </g>
     </g>
    </g>
    <g id="xtick_7">
     <g id="line2d_7">
      <g>
       <use xlink:href="#m215c30260b" x="185.111994" y="157.9968" style="stroke: #000000; stroke-width: 0.5"/>
      </g>
     </g>
     <g id="text_7">
      <!-- 2.0 -->
      <g transform="translate(180.736994 166.357425) scale(0.07 -0.07)">
       <use xlink:href="#TimesNewRomanPSMT-32"/>
       <use xlink:href="#TimesNewRomanPSMT-2e" x="50"/>
       <use xlink:href="#TimesNewRomanPSMT-30" x="75"/>
      </g>
     </g>
    </g>
   </g>
   <g id="matplotlib.axis_2">
    <g id="ytick_1">
     <g id="line2d_8">
      <defs>
       <path id="m56f96aafa4" d="M 0 0 
L 2.5 0 
" style="stroke: #000000; stroke-width: 0.5"/>
      </defs>
      <g>
       <use xlink:href="#m56f96aafa4" x="31.24" y="132.874264" style="stroke: #000000; stroke-width: 0.5"/>
      </g>
     </g>
     <g id="text_8">
      <!-- 2 -->
      <g transform="translate(24.24 135.304576) scale(0.07 -0.07)">
       <use xlink:href="#TimesNewRomanPSMT-32"/>
      </g>
     </g>
    </g>
    <g id="ytick_2">
     <g id="line2d_9">
      <g>
       <use xlink:href="#m56f96aafa4" x="31.24" y="107.739159" style="stroke: #000000; stroke-width: 0.5"/>
      </g>
     </g>
     <g id="text_9">
      <!-- 4 -->
      <g transform="translate(24.24 110.169472) scale(0.07 -0.07)">
       <use xlink:href="#TimesNewRomanPSMT-34"/>
      </g>
     </g>
    </g>
    <g id="ytick_3">
     <g id="line2d_10">
      <g>
       <use xlink:href="#m56f96aafa4" x="31.24" y="82.604055" style="stroke: #000000; stroke-width: 0.5"/>
      </g>
     </g>
     <g id="text_10">
      <!-- 6 -->
      <g transform="translate(24.24 85.034368) scale(0.07 -0.07)">
       <use xlink:href="#TimesNewRomanPSMT-36"/>
      </g>
     </g>
    </g>
    <g id="ytick_4">
     <g id="line2d_11">
      <g>
       <use xlink:href="#m56f96aafa4" x="31.24" y="57.468951" style="stroke: #000000; stroke-width: 0.5"/>
      </g>
     </g>
     <g id="text_11">
      <!-- 8 -->
      <g transform="translate(24.24 59.899264) scale(0.07 -0.07)">
       <use xlink:href="#TimesNewRomanPSMT-38"/>
      </g>
     </g>
    </g>
    <g id="ytick_5">
     <g id="line2d_12">
      <g>
       <use xlink:href="#m56f96aafa4" x="31.24" y="32.333847" style="stroke: #000000; stroke-width: 0.5"/>
      </g>
     </g>
     <g id="text_12">
      <!-- 10 -->
      <g transform="translate(20.74 34.76416) scale(0.07 -0.07)">
       <use xlink:href="#TimesNewRomanPSMT-31"/>
       <use xlink:href="#TimesNewRomanPSMT-30" x="50"/>
      </g>
     </g>
    </g>
    <g id="text_13">
     <!-- Burning velocity [cm $\rm s^{-1}$] -->
     <g transform="translate(14.76 129.4884) rotate(-90) scale(0.09 -0.09)">
      <defs>
       <path id="TimesNewRomanPSMT-42" d="M 2956 2163 
Q 3397 2069 3616 1863 
Q 3919 1575 3919 1159 
Q 3919 844 3719 555 
Q 3519 266 3170 133 
Q 2822 0 2106 0 
L 106 0 
L 106 116 
L 266 116 
Q 531 116 647 284 
Q 719 394 719 750 
L 719 3488 
Q 719 3881 628 3984 
Q 506 4122 266 4122 
L 106 4122 
L 106 4238 
L 1938 4238 
Q 2450 4238 2759 4163 
Q 3228 4050 3475 3764 
Q 3722 3478 3722 3106 
Q 3722 2788 3528 2536 
Q 3334 2284 2956 2163 
z
M 1319 2331 
Q 1434 2309 1582 2298 
Q 1731 2288 1909 2288 
Q 2366 2288 2595 2386 
Q 2825 2484 2947 2687 
Q 3069 2891 3069 3131 
Q 3069 3503 2766 3765 
Q 2463 4028 1881 4028 
Q 1569 4028 1319 3959 
L 1319 2331 
z
M 1319 306 
Q 1681 222 2034 222 
Q 2600 222 2897 476 
Q 3194 731 3194 1106 
Q 3194 1353 3059 1581 
Q 2925 1809 2622 1940 
Q 2319 2072 1872 2072 
Q 1678 2072 1540 2065 
Q 1403 2059 1319 2044 
L 1319 306 
z
" transform="scale(0.015625)"/>
       <path id="TimesNewRomanPSMT-75" d="M 2709 2863 
L 2709 1128 
Q 2709 631 2732 520 
Q 2756 409 2807 365 
Q 2859 322 2928 322 
Q 3025 322 3147 375 
L 3191 266 
L 2334 -88 
L 2194 -88 
L 2194 519 
Q 1825 119 1631 15 
Q 1438 -88 1222 -88 
Q 981 -88 804 51 
Q 628 191 559 409 
Q 491 628 491 1028 
L 491 2306 
Q 491 2509 447 2587 
Q 403 2666 317 2708 
Q 231 2750 6 2747 
L 6 2863 
L 1009 2863 
L 1009 947 
Q 1009 547 1148 422 
Q 1288 297 1484 297 
Q 1619 297 1789 381 
Q 1959 466 2194 703 
L 2194 2325 
Q 2194 2569 2105 2655 
Q 2016 2741 1734 2747 
L 1734 2863 
L 2709 2863 
z
" transform="scale(0.015625)"/>
       <path id="TimesNewRomanPSMT-72" d="M 1038 2947 
L 1038 2303 
Q 1397 2947 1775 2947 
Q 1947 2947 2059 2842 
Q 2172 2738 2172 2600 
Q 2172 2478 2090 2393 
Q 2009 2309 1897 2309 
Q 1788 2309 1652 2417 
Q 1516 2525 1450 2525 
Q 1394 2525 1328 2463 
Q 1188 2334 1038 2041 
L 1038 669 
Q 1038 431 1097 309 
Q 1138 225 1241 169 
Q 1344 113 1538 113 
L 1538 0 
L 72 0 
L 72 113 
Q 291 113 397 181 
Q 475 231 506 341 
Q 522 394 522 644 
L 522 1753 
Q 522 2253 501 2348 
Q 481 2444 426 2487 
Q 372 2531 291 2531 
Q 194 2531 72 2484 
L 41 2597 
L 906 2947 
L 1038 2947 
z
" transform="scale(0.015625)"/>
       <path id="TimesNewRomanPSMT-6e" d="M 1034 2341 
Q 1538 2947 1994 2947 
Q 2228 2947 2397 2830 
Q 2566 2713 2666 2444 
Q 2734 2256 2734 1869 
L 2734 647 
Q 2734 375 2778 278 
Q 2813 200 2889 156 
Q 2966 113 3172 113 
L 3172 0 
L 1756 0 
L 1756 113 
L 1816 113 
Q 2016 113 2095 173 
Q 2175 234 2206 353 
Q 2219 400 2219 647 
L 2219 1819 
Q 2219 2209 2117 2386 
Q 2016 2563 1775 2563 
Q 1403 2563 1034 2156 
L 1034 647 
Q 1034 356 1069 288 
Q 1113 197 1189 155 
Q 1266 113 1500 113 
L 1500 0 
L 84 0 
L 84 113 
L 147 113 
Q 366 113 442 223 
Q 519 334 519 647 
L 519 1709 
Q 519 2225 495 2337 
Q 472 2450 423 2490 
Q 375 2531 294 2531 
Q 206 2531 84 2484 
L 38 2597 
L 900 2947 
L 1034 2947 
L 1034 2341 
z
" transform="scale(0.015625)"/>
       <path id="TimesNewRomanPSMT-69" d="M 928 4444 
Q 1059 4444 1151 4351 
Q 1244 4259 1244 4128 
Q 1244 3997 1151 3903 
Q 1059 3809 928 3809 
Q 797 3809 703 3903 
Q 609 3997 609 4128 
Q 609 4259 701 4351 
Q 794 4444 928 4444 
z
M 1188 2947 
L 1188 647 
Q 1188 378 1227 289 
Q 1266 200 1342 156 
Q 1419 113 1622 113 
L 1622 0 
L 231 0 
L 231 113 
Q 441 113 512 153 
Q 584 194 626 287 
Q 669 381 669 647 
L 669 1750 
Q 669 2216 641 2353 
Q 619 2453 572 2492 
Q 525 2531 444 2531 
Q 356 2531 231 2484 
L 188 2597 
L 1050 2947 
L 1188 2947 
z
" transform="scale(0.015625)"/>
       <path id="TimesNewRomanPSMT-67" d="M 966 1044 
Q 703 1172 562 1401 
Q 422 1631 422 1909 
Q 422 2334 742 2640 
Q 1063 2947 1563 2947 
Q 1972 2947 2272 2747 
L 2878 2747 
Q 3013 2747 3034 2739 
Q 3056 2731 3066 2713 
Q 3084 2684 3084 2613 
Q 3084 2531 3069 2500 
Q 3059 2484 3036 2475 
Q 3013 2466 2878 2466 
L 2506 2466 
Q 2681 2241 2681 1891 
Q 2681 1491 2375 1206 
Q 2069 922 1553 922 
Q 1341 922 1119 984 
Q 981 866 932 777 
Q 884 688 884 625 
Q 884 572 936 522 
Q 988 472 1138 450 
Q 1225 438 1575 428 
Q 2219 413 2409 384 
Q 2700 344 2873 169 
Q 3047 -6 3047 -263 
Q 3047 -616 2716 -925 
Q 2228 -1381 1444 -1381 
Q 841 -1381 425 -1109 
Q 191 -953 191 -784 
Q 191 -709 225 -634 
Q 278 -519 444 -313 
Q 466 -284 763 25 
Q 600 122 533 198 
Q 466 275 466 372 
Q 466 481 555 628 
Q 644 775 966 1044 
z
M 1509 2797 
Q 1278 2797 1122 2612 
Q 966 2428 966 2047 
Q 966 1553 1178 1281 
Q 1341 1075 1591 1075 
Q 1828 1075 1981 1253 
Q 2134 1431 2134 1813 
Q 2134 2309 1919 2591 
Q 1759 2797 1509 2797 
z
M 934 0 
Q 788 -159 713 -296 
Q 638 -434 638 -550 
Q 638 -700 819 -813 
Q 1131 -1006 1722 -1006 
Q 2284 -1006 2551 -807 
Q 2819 -609 2819 -384 
Q 2819 -222 2659 -153 
Q 2497 -84 2016 -72 
Q 1313 -53 934 0 
z
" transform="scale(0.015625)"/>
       <path id="TimesNewRomanPSMT-20" transform="scale(0.015625)"/>
       <path id="TimesNewRomanPSMT-76" d="M 53 2863 
L 1400 2863 
L 1400 2747 
L 1313 2747 
Q 1191 2747 1127 2687 
Q 1063 2628 1063 2528 
Q 1063 2419 1128 2269 
L 1794 688 
L 2463 2328 
Q 2534 2503 2534 2594 
Q 2534 2638 2509 2666 
Q 2475 2713 2422 2730 
Q 2369 2747 2206 2747 
L 2206 2863 
L 3141 2863 
L 3141 2747 
Q 2978 2734 2916 2681 
Q 2806 2588 2719 2369 
L 1703 -88 
L 1575 -88 
L 553 2328 
Q 484 2497 421 2570 
Q 359 2644 263 2694 
Q 209 2722 53 2747 
L 53 2863 
z
" transform="scale(0.015625)"/>
       <path id="TimesNewRomanPSMT-65" d="M 681 1784 
Q 678 1147 991 784 
Q 1303 422 1725 422 
Q 2006 422 2214 576 
Q 2422 731 2563 1106 
L 2659 1044 
Q 2594 616 2278 264 
Q 1963 -88 1488 -88 
Q 972 -88 605 314 
Q 238 716 238 1394 
Q 238 2128 614 2539 
Q 991 2950 1559 2950 
Q 2041 2950 2350 2633 
Q 2659 2316 2659 1784 
L 681 1784 
z
M 681 1966 
L 2006 1966 
Q 1991 2241 1941 2353 
Q 1863 2528 1708 2628 
Q 1553 2728 1384 2728 
Q 1125 2728 920 2526 
Q 716 2325 681 1966 
z
" transform="scale(0.015625)"/>
       <path id="TimesNewRomanPSMT-6c" d="M 1184 4444 
L 1184 647 
Q 1184 378 1223 290 
Q 1263 203 1344 158 
Q 1425 113 1647 113 
L 1647 0 
L 244 0 
L 244 113 
Q 441 113 512 153 
Q 584 194 625 287 
Q 666 381 666 647 
L 666 3247 
Q 666 3731 644 3842 
Q 622 3953 573 3993 
Q 525 4034 450 4034 
Q 369 4034 244 3984 
L 191 4094 
L 1044 4444 
L 1184 4444 
z
" transform="scale(0.015625)"/>
       <path id="TimesNewRomanPSMT-6f" d="M 1600 2947 
Q 2250 2947 2644 2453 
Q 2978 2031 2978 1484 
Q 2978 1100 2793 706 
Q 2609 313 2286 112 
Q 1963 -88 1566 -88 
Q 919 -88 538 428 
Q 216 863 216 1403 
Q 216 1797 411 2186 
Q 606 2575 925 2761 
Q 1244 2947 1600 2947 
z
M 1503 2744 
Q 1338 2744 1170 2645 
Q 1003 2547 900 2300 
Q 797 2053 797 1666 
Q 797 1041 1045 587 
Q 1294 134 1700 134 
Q 2003 134 2200 384 
Q 2397 634 2397 1244 
Q 2397 2006 2069 2444 
Q 1847 2744 1503 2744 
z
" transform="scale(0.015625)"/>
       <path id="TimesNewRomanPSMT-63" d="M 2631 1088 
Q 2516 522 2178 217 
Q 1841 -88 1431 -88 
Q 944 -88 581 321 
Q 219 731 219 1428 
Q 219 2103 620 2525 
Q 1022 2947 1584 2947 
Q 2006 2947 2278 2723 
Q 2550 2500 2550 2259 
Q 2550 2141 2473 2067 
Q 2397 1994 2259 1994 
Q 2075 1994 1981 2113 
Q 1928 2178 1911 2362 
Q 1894 2547 1784 2644 
Q 1675 2738 1481 2738 
Q 1169 2738 978 2506 
Q 725 2200 725 1697 
Q 725 1184 976 792 
Q 1228 400 1656 400 
Q 1963 400 2206 609 
Q 2378 753 2541 1131 
L 2631 1088 
z
" transform="scale(0.015625)"/>
       <path id="TimesNewRomanPSMT-74" d="M 1031 3803 
L 1031 2863 
L 1700 2863 
L 1700 2644 
L 1031 2644 
L 1031 788 
Q 1031 509 1111 412 
Q 1191 316 1316 316 
Q 1419 316 1516 380 
Q 1613 444 1666 569 
L 1788 569 
Q 1678 263 1478 108 
Q 1278 -47 1066 -47 
Q 922 -47 784 33 
Q 647 113 581 261 
Q 516 409 516 719 
L 516 2644 
L 63 2644 
L 63 2747 
Q 234 2816 414 2980 
Q 594 3144 734 3369 
Q 806 3488 934 3803 
L 1031 3803 
z
" transform="scale(0.015625)"/>
       <path id="TimesNewRomanPSMT-79" d="M 38 2863 
L 1372 2863 
L 1372 2747 
L 1306 2747 
Q 1166 2747 1095 2686 
Q 1025 2625 1025 2534 
Q 1025 2413 1128 2197 
L 1825 753 
L 2466 2334 
Q 2519 2463 2519 2588 
Q 2519 2644 2497 2672 
Q 2472 2706 2419 2726 
Q 2366 2747 2231 2747 
L 2231 2863 
L 3163 2863 
L 3163 2747 
Q 3047 2734 2984 2696 
Q 2922 2659 2847 2556 
Q 2819 2513 2741 2316 
L 1575 -541 
Q 1406 -956 1132 -1168 
Q 859 -1381 606 -1381 
Q 422 -1381 303 -1275 
Q 184 -1169 184 -1031 
Q 184 -900 270 -820 
Q 356 -741 506 -741 
Q 609 -741 788 -809 
Q 913 -856 944 -856 
Q 1038 -856 1148 -759 
Q 1259 -663 1372 -384 
L 1575 113 
L 547 2272 
Q 500 2369 397 2513 
Q 319 2622 269 2659 
Q 197 2709 38 2747 
L 38 2863 
z
" transform="scale(0.015625)"/>
       <path id="TimesNewRomanPSMT-5b" d="M 1900 -1269 
L 525 -1269 
L 525 4334 
L 1900 4334 
L 1900 4088 
L 994 4088 
L 994 -1025 
L 1900 -1025 
L 1900 -1269 
z
" transform="scale(0.015625)"/>
       <path id="TimesNewRomanPSMT-6d" d="M 1050 2338 
Q 1363 2650 1419 2697 
Q 1559 2816 1721 2881 
Q 1884 2947 2044 2947 
Q 2313 2947 2506 2790 
Q 2700 2634 2766 2338 
Q 3088 2713 3309 2830 
Q 3531 2947 3766 2947 
Q 3994 2947 4170 2830 
Q 4347 2713 4450 2447 
Q 4519 2266 4519 1878 
L 4519 647 
Q 4519 378 4559 278 
Q 4591 209 4675 161 
Q 4759 113 4950 113 
L 4950 0 
L 3538 0 
L 3538 113 
L 3597 113 
Q 3781 113 3884 184 
Q 3956 234 3988 344 
Q 4000 397 4000 647 
L 4000 1878 
Q 4000 2228 3916 2372 
Q 3794 2572 3525 2572 
Q 3359 2572 3192 2489 
Q 3025 2406 2788 2181 
L 2781 2147 
L 2788 2013 
L 2788 647 
Q 2788 353 2820 281 
Q 2853 209 2943 161 
Q 3034 113 3253 113 
L 3253 0 
L 1806 0 
L 1806 113 
Q 2044 113 2133 169 
Q 2222 225 2256 338 
Q 2272 391 2272 647 
L 2272 1878 
Q 2272 2228 2169 2381 
Q 2031 2581 1784 2581 
Q 1616 2581 1450 2491 
Q 1191 2353 1050 2181 
L 1050 647 
Q 1050 366 1089 281 
Q 1128 197 1204 155 
Q 1281 113 1516 113 
L 1516 0 
L 100 0 
L 100 113 
Q 297 113 375 155 
Q 453 197 493 289 
Q 534 381 534 647 
L 534 1741 
Q 534 2213 506 2350 
Q 484 2453 437 2492 
Q 391 2531 309 2531 
Q 222 2531 100 2484 
L 53 2597 
L 916 2947 
L 1050 2947 
L 1050 2338 
z
" transform="scale(0.015625)"/>
       <path id="STIXGeneral-Regular-73" d="M 998 1926 
L 1664 1523 
Q 1984 1331 2105 1164 
Q 2227 998 2227 736 
Q 2227 416 1961 176 
Q 1696 -64 1331 -64 
Q 1030 -64 864 -6 
Q 691 51 570 51 
Q 461 51 416 -26 
L 333 -26 
L 333 979 
L 435 979 
Q 538 512 730 294 
Q 922 77 1248 77 
Q 1485 77 1632 211 
Q 1779 346 1779 550 
Q 1779 845 1440 1030 
L 1094 1222 
Q 326 1651 326 2150 
Q 326 2522 566 2730 
Q 806 2938 1210 2938 
Q 1491 2938 1638 2867 
Q 1754 2816 1818 2816 
Q 1862 2816 1920 2880 
L 1990 2880 
L 2022 2010 
L 1926 2010 
Q 1818 2445 1654 2621 
Q 1491 2797 1203 2797 
Q 986 2797 854 2688 
Q 723 2579 723 2362 
Q 723 2253 796 2128 
Q 870 2003 998 1926 
z
" transform="scale(0.015625)"/>
       <path id="STIXGeneral-Regular-2212" d="M 3974 1408 
L 410 1408 
L 410 1830 
L 3974 1830 
L 3974 1408 
z
" transform="scale(0.015625)"/>
       <path id="STIXGeneral-Regular-31" d="M 2522 0 
L 755 0 
L 755 96 
Q 1107 115 1235 227 
Q 1363 339 1363 608 
L 1363 3482 
Q 1363 3795 1171 3795 
Q 1082 3795 883 3718 
L 710 3654 
L 710 3744 
L 1856 4326 
L 1914 4307 
L 1914 486 
Q 1914 275 2042 185 
Q 2170 96 2522 96 
L 2522 0 
z
" transform="scale(0.015625)"/>
       <path id="TimesNewRomanPSMT-5d" d="M 234 4334 
L 1609 4334 
L 1609 -1272 
L 234 -1272 
L 234 -1025 
L 1141 -1025 
L 1141 4088 
L 234 4088 
L 234 4334 
z
" transform="scale(0.015625)"/>
      </defs>
      <use xlink:href="#TimesNewRomanPSMT-42" transform="translate(0 0.684375)"/>
      <use xlink:href="#TimesNewRomanPSMT-75" transform="translate(66.699219 0.684375)"/>
      <use xlink:href="#TimesNewRomanPSMT-72" transform="translate(116.699219 0.684375)"/>
      <use xlink:href="#TimesNewRomanPSMT-6e" transform="translate(150 0.684375)"/>
      <use xlink:href="#TimesNewRomanPSMT-69" transform="translate(200 0.684375)"/>
      <use xlink:href="#TimesNewRomanPSMT-6e" transform="translate(227.783203 0.684375)"/>
      <use xlink:href="#TimesNewRomanPSMT-67" transform="translate(277.783203 0.684375)"/>
      <use xlink:href="#TimesNewRomanPSMT-20" transform="translate(327.783203 0.684375)"/>
      <use xlink:href="#TimesNewRomanPSMT-76" transform="translate(352.783203 0.684375)"/>
      <use xlink:href="#TimesNewRomanPSMT-65" transform="translate(402.783203 0.684375)"/>
      <use xlink:href="#TimesNewRomanPSMT-6c" transform="translate(447.167969 0.684375)"/>
      <use xlink:href="#TimesNewRomanPSMT-6f" transform="translate(474.951172 0.684375)"/>
      <use xlink:href="#TimesNewRomanPSMT-63" transform="translate(524.951172 0.684375)"/>
      <use xlink:href="#TimesNewRomanPSMT-69" transform="translate(569.335938 0.684375)"/>
      <use xlink:href="#TimesNewRomanPSMT-74" transform="translate(597.119141 0.684375)"/>
      <use xlink:href="#TimesNewRomanPSMT-79" transform="translate(624.902344 0.684375)"/>
      <use xlink:href="#TimesNewRomanPSMT-20" transform="translate(674.902344 0.684375)"/>
      <use xlink:href="#TimesNewRomanPSMT-5b" transform="translate(699.902344 0.684375)"/>
      <use xlink:href="#TimesNewRomanPSMT-63" transform="translate(733.203125 0.684375)"/>
      <use xlink:href="#TimesNewRomanPSMT-6d" transform="translate(777.587891 0.684375)"/>
      <use xlink:href="#TimesNewRomanPSMT-20" transform="translate(855.371094 0.684375)"/>
      <use xlink:href="#STIXGeneral-Regular-73" transform="translate(880.371094 0.684375)"/>
      <use xlink:href="#STIXGeneral-Regular-2212" transform="translate(920.846088 36.684375) scale(0.7)"/>
      <use xlink:href="#STIXGeneral-Regular-31" transform="translate(968.796077 36.684375) scale(0.7)"/>
      <use xlink:href="#TimesNewRomanPSMT-5d" transform="translate(1008.296066 0.684375)"/>
     </g>
    </g>
   </g>
   <g id="patch_3">
    <path d="M 31.24 157.9968 
L 31.24 7.2 
" style="fill: none; stroke: #000000; stroke-width: 0.8; stroke-linejoin: miter; stroke-linecap: square"/>
   </g>
   <g id="patch_4">
    <path d="M 196.103636 157.9968 
L 196.103636 7.2 
" style="fill: none; stroke: #000000; stroke-width: 0.8; stroke-linejoin: miter; stroke-linecap: square"/>
   </g>
   <g id="patch_5">
    <path d="M 31.24 157.9968 
L 196.103636 157.9968 
" style="fill: none; stroke: #000000; stroke-width: 0.8; stroke-linejoin: miter; stroke-linecap: square"/>
   </g>
   <g id="patch_6">
    <path d="M 31.24 7.2 
L 196.103636 7.2 
" style="fill: none; stroke: #000000; stroke-width: 0.8; stroke-linejoin: miter; stroke-linecap: square"/>
   </g>
   <g id="text_14">
    <!-- NH$_3$/air -->
    <g transform="translate(36.185909 19.600465) scale(0.07 -0.07)">
     <defs>
      <path id="TimesNewRomanPSMT-4e" d="M -84 4238 
L 1066 4238 
L 3656 1059 
L 3656 3503 
Q 3656 3894 3569 3991 
Q 3453 4122 3203 4122 
L 3056 4122 
L 3056 4238 
L 4531 4238 
L 4531 4122 
L 4381 4122 
Q 4113 4122 4000 3959 
Q 3931 3859 3931 3503 
L 3931 -69 
L 3819 -69 
L 1025 3344 
L 1025 734 
Q 1025 344 1109 247 
Q 1228 116 1475 116 
L 1625 116 
L 1625 0 
L 150 0 
L 150 116 
L 297 116 
Q 569 116 681 278 
Q 750 378 750 734 
L 750 3681 
Q 566 3897 470 3965 
Q 375 4034 191 4094 
Q 100 4122 -84 4122 
L -84 4238 
z
" transform="scale(0.015625)"/>
      <path id="TimesNewRomanPSMT-48" d="M 1316 2272 
L 3284 2272 
L 3284 3484 
Q 3284 3809 3244 3913 
Q 3213 3991 3113 4047 
Q 2978 4122 2828 4122 
L 2678 4122 
L 2678 4238 
L 4491 4238 
L 4491 4122 
L 4341 4122 
Q 4191 4122 4056 4050 
Q 3956 4000 3920 3898 
Q 3884 3797 3884 3484 
L 3884 750 
Q 3884 428 3925 325 
Q 3956 247 4053 191 
Q 4191 116 4341 116 
L 4491 116 
L 4491 0 
L 2678 0 
L 2678 116 
L 2828 116 
Q 3088 116 3206 269 
Q 3284 369 3284 750 
L 3284 2041 
L 1316 2041 
L 1316 750 
Q 1316 428 1356 325 
Q 1388 247 1488 191 
Q 1622 116 1772 116 
L 1925 116 
L 1925 0 
L 109 0 
L 109 116 
L 259 116 
Q 522 116 641 269 
Q 716 369 716 750 
L 716 3484 
Q 716 3809 675 3913 
Q 644 3991 547 4047 
Q 409 4122 259 4122 
L 109 4122 
L 109 4238 
L 1925 4238 
L 1925 4122 
L 1772 4122 
Q 1622 4122 1488 4050 
Q 1391 4000 1353 3898 
Q 1316 3797 1316 3484 
L 1316 2272 
z
" transform="scale(0.015625)"/>
      <path id="STIXGeneral-Regular-33" d="M 390 3264 
L 288 3290 
Q 435 3770 748 4048 
Q 1062 4326 1542 4326 
Q 1990 4326 2265 4083 
Q 2541 3840 2541 3450 
Q 2541 2925 1946 2566 
Q 2298 2413 2477 2227 
Q 2758 1914 2758 1402 
Q 2758 890 2464 506 
Q 2246 211 1840 60 
Q 1434 -90 979 -90 
Q 262 -90 262 275 
Q 262 378 339 442 
Q 416 506 525 506 
Q 685 506 915 339 
Q 1197 141 1466 141 
Q 1818 141 2058 425 
Q 2298 710 2298 1120 
Q 2298 1856 1632 2048 
Q 1434 2112 979 2112 
L 979 2202 
Q 1338 2323 1517 2432 
Q 2035 2726 2035 3290 
Q 2035 3610 1852 3776 
Q 1670 3942 1344 3942 
Q 768 3942 390 3264 
z
" transform="scale(0.015625)"/>
      <path id="TimesNewRomanPSMT-2f" d="M 1794 4444 
L 259 -88 
L 9 -88 
L 1544 4444 
L 1794 4444 
z
" transform="scale(0.015625)"/>
      <path id="TimesNewRomanPSMT-61" d="M 1822 413 
Q 1381 72 1269 19 
Q 1100 -59 909 -59 
Q 613 -59 420 144 
Q 228 347 228 678 
Q 228 888 322 1041 
Q 450 1253 767 1440 
Q 1084 1628 1822 1897 
L 1822 2009 
Q 1822 2438 1686 2597 
Q 1550 2756 1291 2756 
Q 1094 2756 978 2650 
Q 859 2544 859 2406 
L 866 2225 
Q 866 2081 792 2003 
Q 719 1925 600 1925 
Q 484 1925 411 2006 
Q 338 2088 338 2228 
Q 338 2497 613 2722 
Q 888 2947 1384 2947 
Q 1766 2947 2009 2819 
Q 2194 2722 2281 2516 
Q 2338 2381 2338 1966 
L 2338 994 
Q 2338 584 2353 492 
Q 2369 400 2405 369 
Q 2441 338 2488 338 
Q 2538 338 2575 359 
Q 2641 400 2828 588 
L 2828 413 
Q 2478 -56 2159 -56 
Q 2006 -56 1915 50 
Q 1825 156 1822 413 
z
M 1822 616 
L 1822 1706 
Q 1350 1519 1213 1441 
Q 966 1303 859 1153 
Q 753 1003 753 825 
Q 753 600 887 451 
Q 1022 303 1197 303 
Q 1434 303 1822 616 
z
" transform="scale(0.015625)"/>
     </defs>
     <use xlink:href="#TimesNewRomanPSMT-4e" transform="translate(0 0.5625)"/>
     <use xlink:href="#TimesNewRomanPSMT-48" transform="translate(72.216797 0.5625)"/>
     <use xlink:href="#STIXGeneral-Regular-33" transform="translate(145.976875 -12.665625) scale(0.7)"/>
     <use xlink:href="#TimesNewRomanPSMT-2f" transform="translate(185.386239 0.5625)"/>
     <use xlink:href="#TimesNewRomanPSMT-61" transform="translate(213.169442 0.5625)"/>
     <use xlink:href="#TimesNewRomanPSMT-69" transform="translate(257.554208 0.5625)"/>
     <use xlink:href="#TimesNewRomanPSMT-72" transform="translate(285.337411 0.5625)"/>
    </g>
    <!-- 1 atm, 296 K -->
    <g transform="translate(36.185909 26.930559) scale(0.07 -0.07)">
     <defs>
      <path id="TimesNewRomanPSMT-2c" d="M 344 -1066 
L 344 -928 
Q 666 -822 842 -598 
Q 1019 -375 1019 -125 
Q 1019 -66 991 -25 
Q 969 3 947 3 
Q 913 3 797 -59 
Q 741 -88 678 -88 
Q 525 -88 434 3 
Q 344 94 344 253 
Q 344 406 461 515 
Q 578 625 747 625 
Q 953 625 1114 445 
Q 1275 266 1275 -31 
Q 1275 -353 1051 -629 
Q 828 -906 344 -1066 
z
" transform="scale(0.015625)"/>
      <path id="TimesNewRomanPSMT-39" d="M 338 -88 
L 338 28 
Q 744 34 1094 217 
Q 1444 400 1770 856 
Q 2097 1313 2225 1859 
Q 1734 1544 1338 1544 
Q 891 1544 572 1889 
Q 253 2234 253 2806 
Q 253 3363 572 3797 
Q 956 4325 1575 4325 
Q 2097 4325 2469 3894 
Q 2925 3359 2925 2575 
Q 2925 1869 2578 1258 
Q 2231 647 1613 244 
Q 1109 -88 516 -88 
L 338 -88 
z
M 2275 2091 
Q 2331 2497 2331 2741 
Q 2331 3044 2228 3395 
Q 2125 3747 1936 3934 
Q 1747 4122 1506 4122 
Q 1228 4122 1018 3872 
Q 809 3622 809 3128 
Q 809 2469 1088 2097 
Q 1291 1828 1588 1828 
Q 1731 1828 1928 1897 
Q 2125 1966 2275 2091 
z
" transform="scale(0.015625)"/>
      <path id="TimesNewRomanPSMT-4b" d="M 1913 2350 
L 3475 797 
Q 3859 413 4131 273 
Q 4403 134 4675 116 
L 4675 0 
L 2659 0 
L 2659 116 
Q 2841 116 2920 177 
Q 3000 238 3000 313 
Q 3000 388 2970 447 
Q 2941 506 2775 669 
L 1313 2116 
L 1313 750 
Q 1313 428 1353 325 
Q 1384 247 1484 191 
Q 1619 116 1769 116 
L 1913 116 
L 1913 0 
L 106 0 
L 106 116 
L 256 116 
Q 519 116 638 269 
Q 713 369 713 750 
L 713 3488 
Q 713 3809 672 3916 
Q 641 3991 544 4047 
Q 406 4122 256 4122 
L 106 4122 
L 106 4238 
L 1913 4238 
L 1913 4122 
L 1769 4122 
Q 1622 4122 1484 4050 
Q 1388 4000 1350 3900 
Q 1313 3800 1313 3488 
L 1313 2191 
Q 1375 2250 1741 2588 
Q 2669 3438 2863 3722 
Q 2947 3847 2947 3941 
Q 2947 4013 2881 4067 
Q 2816 4122 2659 4122 
L 2563 4122 
L 2563 4238 
L 4119 4238 
L 4119 4122 
Q 3981 4119 3868 4084 
Q 3756 4050 3593 3951 
Q 3431 3853 3194 3634 
Q 3125 3572 2559 2994 
L 1913 2350 
z
" transform="scale(0.015625)"/>
     </defs>
     <use xlink:href="#TimesNewRomanPSMT-31"/>
     <use xlink:href="#TimesNewRomanPSMT-20" x="50"/>
     <use xlink:href="#TimesNewRomanPSMT-61" x="75"/>
     <use xlink:href="#TimesNewRomanPSMT-74" x="119.384766"/>
     <use xlink:href="#TimesNewRomanPSMT-6d" x="147.167969"/>
     <use xlink:href="#TimesNewRomanPSMT-2c" x="224.951172"/>
     <use xlink:href="#TimesNewRomanPSMT-20" x="249.951172"/>
     <use xlink:href="#TimesNewRomanPSMT-32" x="274.951172"/>
     <use xlink:href="#TimesNewRomanPSMT-39" x="324.951172"/>
     <use xlink:href="#TimesNewRomanPSMT-36" x="374.951172"/>
     <use xlink:href="#TimesNewRomanPSMT-20" x="424.951172"/>
     <use xlink:href="#TimesNewRomanPSMT-4b" x="449.951172"/>
    </g>
   </g>
   <g id="legend_1">
    <g id="line2d_13">
     <path d="M 128.435824 14.7 
L 131.435824 14.7 
L 134.435824 14.7 
" style="fill: none; stroke-dasharray: 2.886,1.248; stroke-dashoffset: 0; stroke: #929591; stroke-width: 0.78"/>
    </g>
    <g id="text_15">
     <!-- Alzueta -->
     <g transform="translate(139.235824 16.8) scale(0.06 -0.06)">
      <defs>
       <path id="TimesNewRomanPSMT-41" d="M 2928 1419 
L 1288 1419 
L 1000 750 
Q 894 503 894 381 
Q 894 284 986 211 
Q 1078 138 1384 116 
L 1384 0 
L 50 0 
L 50 116 
Q 316 163 394 238 
Q 553 388 747 847 
L 2238 4334 
L 2347 4334 
L 3822 809 
Q 4000 384 4145 257 
Q 4291 131 4550 116 
L 4550 0 
L 2878 0 
L 2878 116 
Q 3131 128 3220 200 
Q 3309 272 3309 375 
Q 3309 513 3184 809 
L 2928 1419 
z
M 2841 1650 
L 2122 3363 
L 1384 1650 
L 2841 1650 
z
" transform="scale(0.015625)"/>
       <path id="TimesNewRomanPSMT-7a" d="M 2688 878 
L 2653 0 
L 128 0 
L 128 113 
L 2028 2644 
L 1091 2644 
Q 788 2644 694 2605 
Q 600 2566 541 2456 
Q 456 2300 444 2069 
L 319 2069 
L 338 2863 
L 2738 2863 
L 2738 2747 
L 819 209 
L 1863 209 
Q 2191 209 2308 264 
Q 2425 319 2497 456 
Q 2547 556 2581 878 
L 2688 878 
z
" transform="scale(0.015625)"/>
      </defs>
      <use xlink:href="#TimesNewRomanPSMT-41"/>
      <use xlink:href="#TimesNewRomanPSMT-6c" x="72.216797"/>
      <use xlink:href="#TimesNewRomanPSMT-7a" x="100"/>
      <use xlink:href="#TimesNewRomanPSMT-75" x="144.384766"/>
      <use xlink:href="#TimesNewRomanPSMT-65" x="194.384766"/>
      <use xlink:href="#TimesNewRomanPSMT-74" x="238.769531"/>
      <use xlink:href="#TimesNewRomanPSMT-61" x="266.552734"/>
     </g>
    </g>
    <g id="line2d_14">
     <path d="M 128.435824 23.183437 
L 131.435824 23.183437 
L 134.435824 23.183437 
" style="fill: none; stroke-dasharray: 2.886,1.248; stroke-dashoffset: 0; stroke: #7e1e9c; stroke-width: 0.78"/>
    </g>
    <g id="text_16">
     <!-- LMR-R -->
     <g transform="translate(139.235824 25.283437) scale(0.06 -0.06)">
      <defs>
       <path id="TimesNewRomanPSMT-4c" d="M 3669 1172 
L 3772 1150 
L 3409 0 
L 128 0 
L 128 116 
L 288 116 
Q 556 116 672 291 
Q 738 391 738 753 
L 738 3488 
Q 738 3884 650 3984 
Q 528 4122 288 4122 
L 128 4122 
L 128 4238 
L 2047 4238 
L 2047 4122 
Q 1709 4125 1573 4059 
Q 1438 3994 1388 3894 
Q 1338 3794 1338 3416 
L 1338 753 
Q 1338 494 1388 397 
Q 1425 331 1503 300 
Q 1581 269 1991 269 
L 2300 269 
Q 2788 269 2984 341 
Q 3181 413 3343 595 
Q 3506 778 3669 1172 
z
" transform="scale(0.015625)"/>
       <path id="TimesNewRomanPSMT-4d" d="M 2619 0 
L 981 3566 
L 981 734 
Q 981 344 1066 247 
Q 1181 116 1431 116 
L 1581 116 
L 1581 0 
L 106 0 
L 106 116 
L 256 116 
Q 525 116 638 278 
Q 706 378 706 734 
L 706 3503 
Q 706 3784 644 3909 
Q 600 4000 483 4061 
Q 366 4122 106 4122 
L 106 4238 
L 1306 4238 
L 2844 922 
L 4356 4238 
L 5556 4238 
L 5556 4122 
L 5409 4122 
Q 5138 4122 5025 3959 
Q 4956 3859 4956 3503 
L 4956 734 
Q 4956 344 5044 247 
Q 5159 116 5409 116 
L 5556 116 
L 5556 0 
L 3756 0 
L 3756 116 
L 3906 116 
Q 4178 116 4288 278 
Q 4356 378 4356 734 
L 4356 3566 
L 2722 0 
L 2619 0 
z
" transform="scale(0.015625)"/>
       <path id="TimesNewRomanPSMT-52" d="M 4325 0 
L 3194 0 
L 1759 1981 
Q 1600 1975 1500 1975 
Q 1459 1975 1412 1976 
Q 1366 1978 1316 1981 
L 1316 750 
Q 1316 350 1403 253 
Q 1522 116 1759 116 
L 1925 116 
L 1925 0 
L 109 0 
L 109 116 
L 269 116 
Q 538 116 653 291 
Q 719 388 719 750 
L 719 3488 
Q 719 3888 631 3984 
Q 509 4122 269 4122 
L 109 4122 
L 109 4238 
L 1653 4238 
Q 2328 4238 2648 4139 
Q 2969 4041 3192 3777 
Q 3416 3513 3416 3147 
Q 3416 2756 3161 2468 
Q 2906 2181 2372 2063 
L 3247 847 
Q 3547 428 3762 290 
Q 3978 153 4325 116 
L 4325 0 
z
M 1316 2178 
Q 1375 2178 1419 2176 
Q 1463 2175 1491 2175 
Q 2097 2175 2405 2437 
Q 2713 2700 2713 3106 
Q 2713 3503 2464 3751 
Q 2216 4000 1806 4000 
Q 1625 4000 1316 3941 
L 1316 2178 
z
" transform="scale(0.015625)"/>
       <path id="TimesNewRomanPSMT-2d" d="M 259 1672 
L 1875 1672 
L 1875 1200 
L 259 1200 
L 259 1672 
z
" transform="scale(0.015625)"/>
      </defs>
      <use xlink:href="#TimesNewRomanPSMT-4c"/>
      <use xlink:href="#TimesNewRomanPSMT-4d" x="61.083984"/>
      <use xlink:href="#TimesNewRomanPSMT-52" x="150"/>
      <use xlink:href="#TimesNewRomanPSMT-2d" x="216.699219"/>
      <use xlink:href="#TimesNewRomanPSMT-52" x="250"/>
     </g>
    </g>
    <g id="line2d_15">
     <path d="M 128.435824 31.666875 
L 131.435824 31.666875 
L 134.435824 31.666875 
" style="fill: none; stroke: #029386; stroke-width: 0.6; stroke-linecap: square"/>
    </g>
    <g id="text_17">
     <!-- Mei -->
     <g transform="translate(139.235824 33.766875) scale(0.06 -0.06)">
      <use xlink:href="#TimesNewRomanPSMT-4d"/>
      <use xlink:href="#TimesNewRomanPSMT-65" x="88.916016"/>
      <use xlink:href="#TimesNewRomanPSMT-69" x="133.300781"/>
     </g>
    </g>
    <g id="line2d_16">
     <path d="M 128.435824 40.150312 
L 131.435824 40.150312 
L 134.435824 40.150312 
" style="fill: none; stroke: #ffa500; stroke-width: 0.6; stroke-linecap: square"/>
    </g>
    <g id="text_18">
     <!-- Zhang -->
     <g transform="translate(139.235824 42.250312) scale(0.06 -0.06)">
      <defs>
       <path id="TimesNewRomanPSMT-5a" d="M 3681 4238 
L 897 256 
L 2634 256 
Q 3034 256 3248 431 
Q 3463 606 3628 1141 
L 3731 1122 
L 3531 0 
L 81 0 
L 81 116 
L 2800 3984 
L 1444 3984 
Q 1106 3984 954 3911 
Q 803 3838 723 3698 
Q 644 3559 578 3178 
L 459 3178 
L 547 4238 
L 3681 4238 
z
" transform="scale(0.015625)"/>
       <path id="TimesNewRomanPSMT-68" d="M 1041 4444 
L 1041 2350 
Q 1388 2731 1591 2839 
Q 1794 2947 1997 2947 
Q 2241 2947 2416 2812 
Q 2591 2678 2675 2391 
Q 2734 2191 2734 1659 
L 2734 647 
Q 2734 375 2778 275 
Q 2809 200 2884 156 
Q 2959 113 3159 113 
L 3159 0 
L 1753 0 
L 1753 113 
L 1819 113 
Q 2019 113 2097 173 
Q 2175 234 2206 353 
Q 2216 403 2216 647 
L 2216 1659 
Q 2216 2128 2167 2275 
Q 2119 2422 2012 2495 
Q 1906 2569 1756 2569 
Q 1603 2569 1437 2487 
Q 1272 2406 1041 2159 
L 1041 647 
Q 1041 353 1073 281 
Q 1106 209 1195 161 
Q 1284 113 1503 113 
L 1503 0 
L 84 0 
L 84 113 
Q 275 113 384 172 
Q 447 203 484 290 
Q 522 378 522 647 
L 522 3238 
Q 522 3728 498 3840 
Q 475 3953 426 3993 
Q 378 4034 297 4034 
Q 231 4034 84 3984 
L 41 4094 
L 897 4444 
L 1041 4444 
z
" transform="scale(0.015625)"/>
      </defs>
      <use xlink:href="#TimesNewRomanPSMT-5a"/>
      <use xlink:href="#TimesNewRomanPSMT-68" x="61.083984"/>
      <use xlink:href="#TimesNewRomanPSMT-61" x="111.083984"/>
      <use xlink:href="#TimesNewRomanPSMT-6e" x="155.46875"/>
      <use xlink:href="#TimesNewRomanPSMT-67" x="205.46875"/>
     </g>
    </g>
    <g id="line2d_17">
     <path d="M 161.238011 14.7 
L 164.238011 14.7 
L 167.238011 14.7 
" style="fill: none; stroke: #ff0000; stroke-width: 0.6; stroke-linecap: square"/>
    </g>
    <g id="text_19">
     <!-- Otomo -->
     <g transform="translate(172.038011 16.8) scale(0.06 -0.06)">
      <defs>
       <path id="TimesNewRomanPSMT-4f" d="M 2341 4334 
Q 3166 4334 3770 3707 
Q 4375 3081 4375 2144 
Q 4375 1178 3765 540 
Q 3156 -97 2291 -97 
Q 1416 -97 820 525 
Q 225 1147 225 2134 
Q 225 3144 913 3781 
Q 1509 4334 2341 4334 
z
M 2281 4106 
Q 1713 4106 1369 3684 
Q 941 3159 941 2147 
Q 941 1109 1384 550 
Q 1725 125 2284 125 
Q 2881 125 3270 590 
Q 3659 1056 3659 2059 
Q 3659 3147 3231 3681 
Q 2888 4106 2281 4106 
z
" transform="scale(0.015625)"/>
      </defs>
      <use xlink:href="#TimesNewRomanPSMT-4f"/>
      <use xlink:href="#TimesNewRomanPSMT-74" x="72.216797"/>
      <use xlink:href="#TimesNewRomanPSMT-6f" x="100"/>
      <use xlink:href="#TimesNewRomanPSMT-6d" x="150"/>
      <use xlink:href="#TimesNewRomanPSMT-6f" x="227.783203"/>
     </g>
    </g>
    <g id="line2d_18">
     <path d="M 161.238011 23.183437 
L 164.238011 23.183437 
L 167.238011 23.183437 
" style="fill: none; stroke: #0000ff; stroke-width: 0.6; stroke-linecap: square"/>
    </g>
    <g id="text_20">
     <!-- Stagni -->
     <g transform="translate(172.038011 25.283437) scale(0.06 -0.06)">
      <defs>
       <path id="TimesNewRomanPSMT-53" d="M 2934 4334 
L 2934 2869 
L 2819 2869 
Q 2763 3291 2617 3541 
Q 2472 3791 2203 3937 
Q 1934 4084 1647 4084 
Q 1322 4084 1109 3886 
Q 897 3688 897 3434 
Q 897 3241 1031 3081 
Q 1225 2847 1953 2456 
Q 2547 2138 2764 1967 
Q 2981 1797 3098 1565 
Q 3216 1334 3216 1081 
Q 3216 600 2842 251 
Q 2469 -97 1881 -97 
Q 1697 -97 1534 -69 
Q 1438 -53 1133 45 
Q 828 144 747 144 
Q 669 144 623 97 
Q 578 50 556 -97 
L 441 -97 
L 441 1356 
L 556 1356 
Q 638 900 775 673 
Q 913 447 1195 297 
Q 1478 147 1816 147 
Q 2206 147 2432 353 
Q 2659 559 2659 841 
Q 2659 997 2573 1156 
Q 2488 1316 2306 1453 
Q 2184 1547 1640 1851 
Q 1097 2156 867 2337 
Q 638 2519 519 2737 
Q 400 2956 400 3219 
Q 400 3675 750 4004 
Q 1100 4334 1641 4334 
Q 1978 4334 2356 4169 
Q 2531 4091 2603 4091 
Q 2684 4091 2736 4139 
Q 2788 4188 2819 4334 
L 2934 4334 
z
" transform="scale(0.015625)"/>
      </defs>
      <use xlink:href="#TimesNewRomanPSMT-53"/>
      <use xlink:href="#TimesNewRomanPSMT-74" x="55.615234"/>
      <use xlink:href="#TimesNewRomanPSMT-61" x="83.398438"/>
      <use xlink:href="#TimesNewRomanPSMT-67" x="127.783203"/>
      <use xlink:href="#TimesNewRomanPSMT-6e" x="177.783203"/>
      <use xlink:href="#TimesNewRomanPSMT-69" x="227.783203"/>
     </g>
    </g>
    <g id="line2d_19">
     <path d="M 161.238011 31.678125 
L 164.238011 31.678125 
L 167.238011 31.678125 
" style="fill: none; stroke: #89fe05; stroke-width: 0.6; stroke-linecap: square"/>
    </g>
    <g id="text_21">
     <!-- Han -->
     <g transform="translate(172.038011 33.778125) scale(0.06 -0.06)">
      <use xlink:href="#TimesNewRomanPSMT-48"/>
      <use xlink:href="#TimesNewRomanPSMT-61" x="72.216797"/>
      <use xlink:href="#TimesNewRomanPSMT-6e" x="116.601562"/>
     </g>
    </g>
    <g id="line2d_20">
     <defs>
      <path id="m2c3811004f" d="M 0 1.25 
C 0.331504 1.25 0.649475 1.118292 0.883883 0.883883 
C 1.118292 0.649475 1.25 0.331504 1.25 0 
C 1.25 -0.331504 1.118292 -0.649475 0.883883 -0.883883 
C 0.649475 -1.118292 0.331504 -1.25 0 -1.25 
C -0.331504 -1.25 -0.649475 -1.118292 -0.883883 -0.883883 
C -1.118292 -0.649475 -1.25 -0.331504 -1.25 0 
C -1.25 0.331504 -1.118292 0.649475 -0.883883 0.883883 
C -0.649475 1.118292 -0.331504 1.25 0 1.25 
z
" style="stroke: #000000; stroke-width: 0.5"/>
     </defs>
     <g>
      <use xlink:href="#m2c3811004f" x="164.238011" y="40.161562" style="fill-opacity: 0; stroke: #000000; stroke-width: 0.5"/>
     </g>
    </g>
    <g id="text_22">
     <!-- Ronney -->
     <g transform="translate(172.038011 42.261562) scale(0.06 -0.06)">
      <use xlink:href="#TimesNewRomanPSMT-52"/>
      <use xlink:href="#TimesNewRomanPSMT-6f" x="66.699219"/>
      <use xlink:href="#TimesNewRomanPSMT-6e" x="116.699219"/>
      <use xlink:href="#TimesNewRomanPSMT-6e" x="166.699219"/>
      <use xlink:href="#TimesNewRomanPSMT-65" x="216.699219"/>
      <use xlink:href="#TimesNewRomanPSMT-79" x="261.083984"/>
     </g>
    </g>
   </g>
   <g id="line2d_21">
    <path d="M 36.564681 123.257412 
L 44.18791 107.294675 
L 52.0659 91.686124 
L 60.211638 77.968505 
L 68.639011 66.291338 
L 77.362882 52.530837 
L 86.399178 46.799408 
L 95.764988 53.637313 
L 105.478671 65.527151 
L 115.559975 78.100752 
L 126.030172 89.845366 
L 136.912208 100.155977 
L 148.230868 108.765279 
L 160.01297 116.590016 
L 172.287571 123.456107 
L 185.086211 129.302637 
L 198.44318 134.268503 
L 212.39583 138.439591 
L 226.984916 142.262746 
" clip-path="url(#pf1cb55ca74)" style="fill: none; stroke: #89fe05; stroke-width: 0.6; stroke-linecap: square"/>
   </g>
   <g id="line2d_22">
    <path d="M 36.564681 128.947275 
L 44.18791 115.456918 
L 52.0659 102.391173 
L 60.211638 90.530483 
L 68.639011 80.127184 
L 77.362882 65.512041 
L 86.399178 51.401262 
L 95.764988 53.182695 
L 105.478671 61.732116 
L 115.559975 72.519156 
L 126.030172 83.450361 
L 136.912208 93.720372 
L 148.230868 103.022049 
L 160.01297 111.696263 
L 172.287571 119.3829 
L 185.086211 126.048364 
L 198.44318 131.903129 
L 212.39583 136.743645 
L 226.984916 141.22927 
" clip-path="url(#pf1cb55ca74)" style="fill: none; stroke: #0000ff; stroke-width: 0.6; stroke-linecap: square"/>
   </g>
   <g id="line2d_23">
    <path d="M 36.564681 134.718932 
L 44.18791 121.307729 
L 52.0659 107.84294 
L 60.211638 95.62546 
L 68.639011 85.716939 
L 77.362882 75.909084 
L 86.399178 69.493496 
L 95.764988 73.19081 
L 105.478671 81.705127 
L 115.559975 90.808753 
L 126.030172 99.689903 
L 136.912208 107.798046 
L 148.230868 115.077514 
L 160.01297 121.658287 
L 172.287571 127.462527 
L 185.086211 132.454083 
L 198.44318 136.726206 
L 212.39583 140.718196 
L 226.984916 143.812006 
" clip-path="url(#pf1cb55ca74)" style="fill: none; stroke: #ff0000; stroke-width: 0.6; stroke-linecap: square"/>
   </g>
   <g id="line2d_24">
    <path d="M 36.564681 121.251395 
L 44.18791 102.288819 
L 52.0659 83.202742 
L 60.211638 65.794373 
L 68.639011 50.820163 
L 77.362882 35.020248 
L 86.399178 27.515589 
L 95.764988 33.391775 
L 105.478671 43.240495 
L 115.559975 55.841043 
L 126.030172 69.393866 
L 136.912208 82.177416 
L 148.230868 93.544257 
L 160.01297 103.492423 
L 172.287571 112.298322 
L 185.086211 120.01195 
L 198.44318 126.612357 
L 212.39583 132.333041 
L 226.984916 137.099148 
" clip-path="url(#pf1cb55ca74)" style="fill: none; stroke: #ffa500; stroke-width: 0.6; stroke-linecap: square"/>
   </g>
   <g id="line2d_25">
    <path d="M 36.564681 138.619853 
L 44.18791 127.323474 
L 52.0659 114.401182 
L 60.211638 101.144624 
L 68.639011 88.159191 
L 77.362882 71.417586 
L 86.399178 58.716779 
L 95.764988 60.30132 
L 105.478671 68.534162 
L 115.559975 79.080949 
L 126.030172 89.660342 
L 136.912208 99.617377 
L 148.230868 108.574595 
L 160.01297 116.499515 
L 172.287571 123.335556 
L 185.086211 129.248365 
L 198.44318 134.326615 
L 212.39583 138.819352 
L 226.984916 142.597629 
" clip-path="url(#pf1cb55ca74)" style="fill: none; stroke: #029386; stroke-width: 0.6; stroke-linecap: square"/>
   </g>
   <g id="line2d_26">
    <path d="M 32.017875 125.404694 
L 34.887104 117.444717 
L 37.792407 109.270733 
L 40.734467 100.968609 
L 43.713988 92.682031 
L 46.731689 84.513801 
L 49.788308 76.639918 
L 52.884605 69.09405 
L 56.021355 62.076068 
L 59.199357 55.513263 
L 62.419431 49.47708 
L 65.682417 43.962238 
L 68.989179 38.939722 
L 72.340604 34.068205 
L 75.737602 28.759444 
L 79.181111 23.628738 
L 82.67209 20.686918 
L 86.21153 20.920104 
L 89.800446 22.752333 
L 93.439882 25.852718 
L 97.130913 30.319255 
L 100.874645 35.40885 
L 104.672213 41.088495 
L 108.524788 46.865881 
L 112.433574 52.917076 
L 116.399809 58.871673 
L 120.424769 64.690174 
L 124.509769 70.231579 
L 128.656163 75.637296 
L 132.865343 80.75129 
L 137.138749 85.568448 
L 141.47786 90.160897 
L 145.884204 94.152277 
L 150.359356 98.342713 
L 154.90494 102.266636 
L 159.522632 105.970251 
L 164.214162 109.470091 
L 168.981315 112.779369 
L 173.825934 115.932952 
L 178.749923 118.911432 
L 183.755248 121.743569 
L 188.843942 124.31303 
L 194.018105 126.84412 
L 199.279909 129.151577 
L 204.631599 131.348815 
L 210.075498 133.390159 
L 215.614011 135.323832 
L 221.249624 137.001457 
L 226.984916 138.729462 
" clip-path="url(#pf1cb55ca74)" style="fill: none; stroke-dasharray: 2.886,1.248; stroke-dashoffset: 0; stroke: #929591; stroke-width: 0.78"/>
   </g>
   <g id="line2d_27">
    <path d="M 32.017875 129.413513 
L 34.887104 122.556731 
L 37.792407 115.463295 
L 40.734467 108.408364 
L 43.713988 101.34814 
L 46.731689 94.456627 
L 49.788308 87.786478 
L 52.884605 81.609748 
L 56.021355 75.85398 
L 59.199357 70.690309 
L 62.419431 66.236072 
L 65.682417 62.433555 
L 68.989179 59.226599 
L 72.340604 56.388667 
L 75.737602 53.177209 
L 79.181111 49.594327 
L 82.67209 48.334512 
L 86.21153 49.241243 
L 89.800446 51.753669 
L 93.439882 55.403876 
L 97.130913 59.793889 
L 100.874645 64.564772 
L 104.672213 69.5902 
L 108.524788 74.624775 
L 112.433574 79.562473 
L 116.399809 84.373198 
L 120.424769 88.772171 
L 124.509769 93.181854 
L 128.656163 97.410138 
L 132.865343 101.335276 
L 137.138749 105.16009 
L 141.47786 108.797494 
L 145.884204 112.181479 
L 150.359356 115.427167 
L 154.90494 118.538631 
L 159.522632 121.471796 
L 164.214162 124.257645 
L 168.981315 126.845725 
L 173.825934 129.226514 
L 178.749923 131.497213 
L 183.755248 133.542815 
L 188.843942 135.393443 
L 194.018105 137.265767 
L 199.279909 139.215421 
L 204.631599 140.803504 
L 210.075498 142.363833 
L 215.614011 143.780347 
L 221.249624 145.128266 
L 226.984916 146.414075 
" clip-path="url(#pf1cb55ca74)" style="fill: none; stroke-dasharray: 2.886,1.248; stroke-dashoffset: 0; stroke: #7e1e9c; stroke-width: 0.78"/>
   </g>
   <g id="line2d_28">
    <g clip-path="url(#pf1cb55ca74)">
     <use xlink:href="#m2c3811004f" x="42.330436" y="139.468002" style="fill-opacity: 0; stroke: #000000; stroke-width: 0.5"/>
     <use xlink:href="#m2c3811004f" x="45.896709" y="129.070184" style="fill-opacity: 0; stroke: #000000; stroke-width: 0.5"/>
     <use xlink:href="#m2c3811004f" x="51.466218" y="115.798173" style="fill-opacity: 0; stroke: #000000; stroke-width: 0.5"/>
     <use xlink:href="#m2c3811004f" x="57.569433" y="107.598268" style="fill-opacity: 0; stroke: #000000; stroke-width: 0.5"/>
     <use xlink:href="#m2c3811004f" x="63.418817" y="84.097509" style="fill-opacity: 0; stroke: #000000; stroke-width: 0.5"/>
     <use xlink:href="#m2c3811004f" x="75.292587" y="72.5162" style="fill-opacity: 0; stroke: #000000; stroke-width: 0.5"/>
     <use xlink:href="#m2c3811004f" x="89.208604" y="55.693714" style="fill-opacity: 0; stroke: #000000; stroke-width: 0.5"/>
     <use xlink:href="#m2c3811004f" x="103.243606" y="73.446086" style="fill-opacity: 0; stroke: #000000; stroke-width: 0.5"/>
     <use xlink:href="#m2c3811004f" x="121.949221" y="95.171607" style="fill-opacity: 0; stroke: #000000; stroke-width: 0.5"/>
     <use xlink:href="#m2c3811004f" x="125.78708" y="97.876731" style="fill-opacity: 0; stroke: #000000; stroke-width: 0.5"/>
     <use xlink:href="#m2c3811004f" x="133.733439" y="116.051778" style="fill-opacity: 0; stroke: #000000; stroke-width: 0.5"/>
     <use xlink:href="#m2c3811004f" x="137.738354" y="124.251683" style="fill-opacity: 0; stroke: #000000; stroke-width: 0.5"/>
     <use xlink:href="#m2c3811004f" x="138.721184" y="118.503296" style="fill-opacity: 0; stroke: #000000; stroke-width: 0.5"/>
     <use xlink:href="#m2c3811004f" x="141.800861" y="121.377489" style="fill-opacity: 0; stroke: #000000; stroke-width: 0.5"/>
     <use xlink:href="#m2c3811004f" x="143.464514" y="124.589823" style="fill-opacity: 0; stroke: #000000; stroke-width: 0.5"/>
     <use xlink:href="#m2c3811004f" x="145.473783" y="124.505288" style="fill-opacity: 0; stroke: #000000; stroke-width: 0.5"/>
     <use xlink:href="#m2c3811004f" x="146.034427" y="120.616674" style="fill-opacity: 0; stroke: #000000; stroke-width: 0.5"/>
     <use xlink:href="#m2c3811004f" x="146.821174" y="124.167148" style="fill-opacity: 0; stroke: #000000; stroke-width: 0.5"/>
    </g>
   </g>
  </g>
  <g id="axes_2">
   <g id="patch_7">
    <path d="M 229.076364 157.9968 
L 393.94 157.9968 
L 393.94 7.2 
L 229.076364 7.2 
z
" style="fill: #ffffff"/>
   </g>
   <g id="matplotlib.axis_3">
    <g id="xtick_8">
     <g id="line2d_29">
      <g>
       <use xlink:href="#m215c30260b" x="251.048656" y="157.9968" style="stroke: #000000; stroke-width: 0.5"/>
      </g>
     </g>
     <g id="text_23">
      <!-- 0.8 -->
      <g transform="translate(246.673656 166.357425) scale(0.07 -0.07)">
       <use xlink:href="#TimesNewRomanPSMT-30"/>
       <use xlink:href="#TimesNewRomanPSMT-2e" x="50"/>
       <use xlink:href="#TimesNewRomanPSMT-38" x="75"/>
      </g>
     </g>
    </g>
    <g id="xtick_9">
     <g id="line2d_30">
      <g>
       <use xlink:href="#m215c30260b" x="273.031939" y="157.9968" style="stroke: #000000; stroke-width: 0.5"/>
      </g>
     </g>
     <g id="text_24">
      <!-- 1.0 -->
      <g transform="translate(268.656939 166.357425) scale(0.07 -0.07)">
       <use xlink:href="#TimesNewRomanPSMT-31"/>
       <use xlink:href="#TimesNewRomanPSMT-2e" x="50"/>
       <use xlink:href="#TimesNewRomanPSMT-30" x="75"/>
      </g>
     </g>
    </g>
    <g id="xtick_10">
     <g id="line2d_31">
      <g>
       <use xlink:href="#m215c30260b" x="295.015223" y="157.9968" style="stroke: #000000; stroke-width: 0.5"/>
      </g>
     </g>
     <g id="text_25">
      <!-- 1.2 -->
      <g transform="translate(290.640223 166.357425) scale(0.07 -0.07)">
       <use xlink:href="#TimesNewRomanPSMT-31"/>
       <use xlink:href="#TimesNewRomanPSMT-2e" x="50"/>
       <use xlink:href="#TimesNewRomanPSMT-32" x="75"/>
      </g>
     </g>
    </g>
    <g id="xtick_11">
     <g id="line2d_32">
      <g>
       <use xlink:href="#m215c30260b" x="316.998507" y="157.9968" style="stroke: #000000; stroke-width: 0.5"/>
      </g>
     </g>
     <g id="text_26">
      <!-- 1.4 -->
      <g transform="translate(312.623507 166.357425) scale(0.07 -0.07)">
       <use xlink:href="#TimesNewRomanPSMT-31"/>
       <use xlink:href="#TimesNewRomanPSMT-2e" x="50"/>
       <use xlink:href="#TimesNewRomanPSMT-34" x="75"/>
      </g>
     </g>
    </g>
    <g id="xtick_12">
     <g id="line2d_33">
      <g>
       <use xlink:href="#m215c30260b" x="338.981791" y="157.9968" style="stroke: #000000; stroke-width: 0.5"/>
      </g>
     </g>
     <g id="text_27">
      <!-- 1.6 -->
      <g transform="translate(334.606791 166.357425) scale(0.07 -0.07)">
       <use xlink:href="#TimesNewRomanPSMT-31"/>
       <use xlink:href="#TimesNewRomanPSMT-2e" x="50"/>
       <use xlink:href="#TimesNewRomanPSMT-36" x="75"/>
      </g>
     </g>
    </g>
    <g id="xtick_13">
     <g id="line2d_34">
      <g>
       <use xlink:href="#m215c30260b" x="360.965074" y="157.9968" style="stroke: #000000; stroke-width: 0.5"/>
      </g>
     </g>
     <g id="text_28">
      <!-- 1.8 -->
      <g transform="translate(356.590074 166.357425) scale(0.07 -0.07)">
       <use xlink:href="#TimesNewRomanPSMT-31"/>
       <use xlink:href="#TimesNewRomanPSMT-2e" x="50"/>
       <use xlink:href="#TimesNewRomanPSMT-38" x="75"/>
      </g>
     </g>
    </g>
    <g id="xtick_14">
     <g id="line2d_35">
      <g>
       <use xlink:href="#m215c30260b" x="382.948358" y="157.9968" style="stroke: #000000; stroke-width: 0.5"/>
      </g>
     </g>
     <g id="text_29">
      <!-- 2.0 -->
      <g transform="translate(378.573358 166.357425) scale(0.07 -0.07)">
       <use xlink:href="#TimesNewRomanPSMT-32"/>
       <use xlink:href="#TimesNewRomanPSMT-2e" x="50"/>
       <use xlink:href="#TimesNewRomanPSMT-30" x="75"/>
      </g>
     </g>
    </g>
   </g>
   <g id="matplotlib.axis_4">
    <g id="ytick_6">
     <g id="line2d_36">
      <g>
       <use xlink:href="#m56f96aafa4" x="229.076364" y="122.930468" style="stroke: #000000; stroke-width: 0.5"/>
      </g>
     </g>
     <g id="text_30">
      <!-- 10 -->
      <g transform="translate(218.576364 125.360781) scale(0.07 -0.07)">
       <use xlink:href="#TimesNewRomanPSMT-31"/>
       <use xlink:href="#TimesNewRomanPSMT-30" x="50"/>
      </g>
     </g>
    </g>
    <g id="ytick_7">
     <g id="line2d_37">
      <g>
       <use xlink:href="#m56f96aafa4" x="229.076364" y="87.860629" style="stroke: #000000; stroke-width: 0.5"/>
      </g>
     </g>
     <g id="text_31">
      <!-- 20 -->
      <g transform="translate(218.576364 90.290942) scale(0.07 -0.07)">
       <use xlink:href="#TimesNewRomanPSMT-32"/>
       <use xlink:href="#TimesNewRomanPSMT-30" x="50"/>
      </g>
     </g>
    </g>
    <g id="ytick_8">
     <g id="line2d_38">
      <g>
       <use xlink:href="#m56f96aafa4" x="229.076364" y="52.79079" style="stroke: #000000; stroke-width: 0.5"/>
      </g>
     </g>
     <g id="text_32">
      <!-- 30 -->
      <g transform="translate(218.576364 55.221103) scale(0.07 -0.07)">
       <defs>
        <path id="TimesNewRomanPSMT-33" d="M 325 3431 
Q 506 3859 782 4092 
Q 1059 4325 1472 4325 
Q 1981 4325 2253 3994 
Q 2459 3747 2459 3466 
Q 2459 3003 1878 2509 
Q 2269 2356 2469 2072 
Q 2669 1788 2669 1403 
Q 2669 853 2319 450 
Q 1863 -75 997 -75 
Q 569 -75 414 31 
Q 259 138 259 259 
Q 259 350 332 419 
Q 406 488 509 488 
Q 588 488 669 463 
Q 722 447 909 348 
Q 1097 250 1169 231 
Q 1284 197 1416 197 
Q 1734 197 1970 444 
Q 2206 691 2206 1028 
Q 2206 1275 2097 1509 
Q 2016 1684 1919 1775 
Q 1784 1900 1550 2001 
Q 1316 2103 1072 2103 
L 972 2103 
L 972 2197 
Q 1219 2228 1467 2375 
Q 1716 2522 1828 2728 
Q 1941 2934 1941 3181 
Q 1941 3503 1739 3701 
Q 1538 3900 1238 3900 
Q 753 3900 428 3381 
L 325 3431 
z
" transform="scale(0.015625)"/>
       </defs>
       <use xlink:href="#TimesNewRomanPSMT-33"/>
       <use xlink:href="#TimesNewRomanPSMT-30" x="50"/>
      </g>
     </g>
    </g>
    <g id="ytick_9">
     <g id="line2d_39">
      <g>
       <use xlink:href="#m56f96aafa4" x="229.076364" y="17.720952" style="stroke: #000000; stroke-width: 0.5"/>
      </g>
     </g>
     <g id="text_33">
      <!-- 40 -->
      <g transform="translate(218.576364 20.151264) scale(0.07 -0.07)">
       <use xlink:href="#TimesNewRomanPSMT-34"/>
       <use xlink:href="#TimesNewRomanPSMT-30" x="50"/>
      </g>
     </g>
    </g>
   </g>
   <g id="patch_8">
    <path d="M 229.076364 157.9968 
L 229.076364 7.2 
" style="fill: none; stroke: #000000; stroke-width: 0.8; stroke-linejoin: miter; stroke-linecap: square"/>
   </g>
   <g id="patch_9">
    <path d="M 393.94 157.9968 
L 393.94 7.2 
" style="fill: none; stroke: #000000; stroke-width: 0.8; stroke-linejoin: miter; stroke-linecap: square"/>
   </g>
   <g id="patch_10">
    <path d="M 229.076364 157.9968 
L 393.94 157.9968 
" style="fill: none; stroke: #000000; stroke-width: 0.8; stroke-linejoin: miter; stroke-linecap: square"/>
   </g>
   <g id="patch_11">
    <path d="M 229.076364 7.2 
L 393.94 7.2 
" style="fill: none; stroke: #000000; stroke-width: 0.8; stroke-linejoin: miter; stroke-linecap: square"/>
   </g>
   <g id="text_34">
    <!-- 60% NH$_3$/40% H$_2$/air -->
    <g transform="translate(234.022273 19.600465) scale(0.07 -0.07)">
     <defs>
      <path id="TimesNewRomanPSMT-25" d="M 4350 4334 
L 1263 -175 
L 984 -175 
L 4072 4334 
L 4350 4334 
z
M 1138 4334 
Q 1559 4334 1792 3984 
Q 2025 3634 2025 3181 
Q 2025 2638 1762 2341 
Q 1500 2044 1131 2044 
Q 884 2044 678 2180 
Q 472 2316 348 2584 
Q 225 2853 225 3181 
Q 225 3509 350 3786 
Q 475 4063 692 4198 
Q 909 4334 1138 4334 
z
M 1128 4159 
Q 969 4159 845 3971 
Q 722 3784 722 3184 
Q 722 2750 791 2522 
Q 844 2350 956 2256 
Q 1022 2200 1119 2200 
Q 1269 2200 1375 2363 
Q 1531 2603 1531 3166 
Q 1531 3759 1378 4000 
Q 1278 4159 1128 4159 
z
M 4206 2103 
Q 4428 2103 4648 1962 
Q 4869 1822 4989 1553 
Q 5109 1284 5109 963 
Q 5109 409 4843 117 
Q 4578 -175 4216 -175 
Q 3988 -175 3773 -34 
Q 3559 106 3436 367 
Q 3313 628 3313 963 
Q 3313 1291 3436 1562 
Q 3559 1834 3773 1968 
Q 3988 2103 4206 2103 
z
M 4209 1938 
Q 4059 1938 3950 1769 
Q 3809 1550 3809 941 
Q 3809 381 3953 159 
Q 4059 0 4209 0 
Q 4353 0 4466 172 
Q 4616 400 4616 956 
Q 4616 1544 4466 1778 
Q 4363 1938 4209 1938 
z
" transform="scale(0.015625)"/>
      <path id="STIXGeneral-Regular-32" d="M 3034 877 
L 2688 0 
L 186 0 
L 186 77 
L 1325 1286 
Q 1773 1754 1965 2144 
Q 2157 2534 2157 2950 
Q 2157 3379 1920 3616 
Q 1683 3853 1267 3853 
Q 922 3853 720 3673 
Q 518 3494 326 3021 
L 192 3053 
Q 301 3648 630 3987 
Q 960 4326 1523 4326 
Q 2054 4326 2380 4006 
Q 2707 3686 2707 3200 
Q 2707 2477 1888 1613 
L 832 486 
L 2330 486 
Q 2541 486 2665 569 
Q 2790 653 2944 915 
L 3034 877 
z
" transform="scale(0.015625)"/>
     </defs>
     <use xlink:href="#TimesNewRomanPSMT-36" transform="translate(0 0.5625)"/>
     <use xlink:href="#TimesNewRomanPSMT-30" transform="translate(50 0.5625)"/>
     <use xlink:href="#TimesNewRomanPSMT-25" transform="translate(100 0.5625)"/>
     <use xlink:href="#TimesNewRomanPSMT-20" transform="translate(183.300781 0.5625)"/>
     <use xlink:href="#TimesNewRomanPSMT-4e" transform="translate(208.300781 0.5625)"/>
     <use xlink:href="#TimesNewRomanPSMT-48" transform="translate(280.517578 0.5625)"/>
     <use xlink:href="#STIXGeneral-Regular-33" transform="translate(354.277656 -12.665625) scale(0.7)"/>
     <use xlink:href="#TimesNewRomanPSMT-2f" transform="translate(393.687021 0.5625)"/>
     <use xlink:href="#TimesNewRomanPSMT-34" transform="translate(421.470224 0.5625)"/>
     <use xlink:href="#TimesNewRomanPSMT-30" transform="translate(471.470224 0.5625)"/>
     <use xlink:href="#TimesNewRomanPSMT-25" transform="translate(521.470224 0.5625)"/>
     <use xlink:href="#TimesNewRomanPSMT-20" transform="translate(604.771005 0.5625)"/>
     <use xlink:href="#TimesNewRomanPSMT-48" transform="translate(629.771005 0.5625)"/>
     <use xlink:href="#STIXGeneral-Regular-32" transform="translate(703.531083 -12.665625) scale(0.7)"/>
     <use xlink:href="#TimesNewRomanPSMT-2f" transform="translate(742.940447 0.5625)"/>
     <use xlink:href="#TimesNewRomanPSMT-61" transform="translate(770.723651 0.5625)"/>
     <use xlink:href="#TimesNewRomanPSMT-69" transform="translate(815.108416 0.5625)"/>
     <use xlink:href="#TimesNewRomanPSMT-72" transform="translate(842.891619 0.5625)"/>
    </g>
    <!-- 1 atm, 298 K -->
    <g transform="translate(234.022273 26.930559) scale(0.07 -0.07)">
     <use xlink:href="#TimesNewRomanPSMT-31"/>
     <use xlink:href="#TimesNewRomanPSMT-20" x="50"/>
     <use xlink:href="#TimesNewRomanPSMT-61" x="75"/>
     <use xlink:href="#TimesNewRomanPSMT-74" x="119.384766"/>
     <use xlink:href="#TimesNewRomanPSMT-6d" x="147.167969"/>
     <use xlink:href="#TimesNewRomanPSMT-2c" x="224.951172"/>
     <use xlink:href="#TimesNewRomanPSMT-20" x="249.951172"/>
     <use xlink:href="#TimesNewRomanPSMT-32" x="274.951172"/>
     <use xlink:href="#TimesNewRomanPSMT-39" x="324.951172"/>
     <use xlink:href="#TimesNewRomanPSMT-38" x="374.951172"/>
     <use xlink:href="#TimesNewRomanPSMT-20" x="424.951172"/>
     <use xlink:href="#TimesNewRomanPSMT-4b" x="449.951172"/>
    </g>
   </g>
   <g id="legend_2">
    <g id="line2d_40">
     <path d="M 329.604062 14.7 
L 332.604062 14.7 
L 335.604062 14.7 
" style="fill: none; stroke-dasharray: 2.886,1.248; stroke-dashoffset: 0; stroke: #929591; stroke-width: 0.78"/>
    </g>
    <g id="text_35">
     <!-- Alzueta -->
     <g transform="translate(340.404062 16.8) scale(0.06 -0.06)">
      <use xlink:href="#TimesNewRomanPSMT-41"/>
      <use xlink:href="#TimesNewRomanPSMT-6c" x="72.216797"/>
      <use xlink:href="#TimesNewRomanPSMT-7a" x="100"/>
      <use xlink:href="#TimesNewRomanPSMT-75" x="144.384766"/>
      <use xlink:href="#TimesNewRomanPSMT-65" x="194.384766"/>
      <use xlink:href="#TimesNewRomanPSMT-74" x="238.769531"/>
      <use xlink:href="#TimesNewRomanPSMT-61" x="266.552734"/>
     </g>
    </g>
    <g id="line2d_41">
     <path d="M 329.604062 23.183437 
L 332.604062 23.183437 
L 335.604062 23.183437 
" style="fill: none; stroke-dasharray: 2.886,1.248; stroke-dashoffset: 0; stroke: #7e1e9c; stroke-width: 0.78"/>
    </g>
    <g id="text_36">
     <!-- LMR-R -->
     <g transform="translate(340.404062 25.283437) scale(0.06 -0.06)">
      <use xlink:href="#TimesNewRomanPSMT-4c"/>
      <use xlink:href="#TimesNewRomanPSMT-4d" x="61.083984"/>
      <use xlink:href="#TimesNewRomanPSMT-52" x="150"/>
      <use xlink:href="#TimesNewRomanPSMT-2d" x="216.699219"/>
      <use xlink:href="#TimesNewRomanPSMT-52" x="250"/>
     </g>
    </g>
    <g id="line2d_42">
     <path d="M 329.604062 31.666875 
L 332.604062 31.666875 
L 335.604062 31.666875 
" style="fill: none; stroke: #029386; stroke-width: 0.6; stroke-linecap: square"/>
    </g>
    <g id="text_37">
     <!-- Mei -->
     <g transform="translate(340.404062 33.766875) scale(0.06 -0.06)">
      <use xlink:href="#TimesNewRomanPSMT-4d"/>
      <use xlink:href="#TimesNewRomanPSMT-65" x="88.916016"/>
      <use xlink:href="#TimesNewRomanPSMT-69" x="133.300781"/>
     </g>
    </g>
    <g id="line2d_43">
     <path d="M 329.604062 40.150312 
L 332.604062 40.150312 
L 335.604062 40.150312 
" style="fill: none; stroke: #ffa500; stroke-width: 0.6; stroke-linecap: square"/>
    </g>
    <g id="text_38">
     <!-- Zhang -->
     <g transform="translate(340.404062 42.250312) scale(0.06 -0.06)">
      <use xlink:href="#TimesNewRomanPSMT-5a"/>
      <use xlink:href="#TimesNewRomanPSMT-68" x="61.083984"/>
      <use xlink:href="#TimesNewRomanPSMT-61" x="111.083984"/>
      <use xlink:href="#TimesNewRomanPSMT-6e" x="155.46875"/>
      <use xlink:href="#TimesNewRomanPSMT-67" x="205.46875"/>
     </g>
    </g>
    <g id="line2d_44">
     <path d="M 329.604062 48.645 
L 332.604062 48.645 
L 335.604062 48.645 
" style="fill: none; stroke: #ff0000; stroke-width: 0.6; stroke-linecap: square"/>
    </g>
    <g id="text_39">
     <!-- Otomo -->
     <g transform="translate(340.404062 50.745) scale(0.06 -0.06)">
      <use xlink:href="#TimesNewRomanPSMT-4f"/>
      <use xlink:href="#TimesNewRomanPSMT-74" x="72.216797"/>
      <use xlink:href="#TimesNewRomanPSMT-6f" x="100"/>
      <use xlink:href="#TimesNewRomanPSMT-6d" x="150"/>
      <use xlink:href="#TimesNewRomanPSMT-6f" x="227.783203"/>
     </g>
    </g>
    <g id="line2d_45">
     <path d="M 362.40625 14.7 
L 365.40625 14.7 
L 368.40625 14.7 
" style="fill: none; stroke: #0000ff; stroke-width: 0.6; stroke-linecap: square"/>
    </g>
    <g id="text_40">
     <!-- Stagni -->
     <g transform="translate(373.20625 16.8) scale(0.06 -0.06)">
      <use xlink:href="#TimesNewRomanPSMT-53"/>
      <use xlink:href="#TimesNewRomanPSMT-74" x="55.615234"/>
      <use xlink:href="#TimesNewRomanPSMT-61" x="83.398438"/>
      <use xlink:href="#TimesNewRomanPSMT-67" x="127.783203"/>
      <use xlink:href="#TimesNewRomanPSMT-6e" x="177.783203"/>
      <use xlink:href="#TimesNewRomanPSMT-69" x="227.783203"/>
     </g>
    </g>
    <g id="line2d_46">
     <path d="M 362.40625 23.194687 
L 365.40625 23.194687 
L 368.40625 23.194687 
" style="fill: none; stroke: #89fe05; stroke-width: 0.6; stroke-linecap: square"/>
    </g>
    <g id="text_41">
     <!-- Han -->
     <g transform="translate(373.20625 25.294687) scale(0.06 -0.06)">
      <use xlink:href="#TimesNewRomanPSMT-48"/>
      <use xlink:href="#TimesNewRomanPSMT-61" x="72.216797"/>
      <use xlink:href="#TimesNewRomanPSMT-6e" x="116.601562"/>
     </g>
    </g>
    <g id="line2d_47">
     <defs>
      <path id="mf3db11f9f4" d="M -1.25 1.25 
L 1.25 1.25 
L 1.25 -1.25 
L -1.25 -1.25 
z
" style="stroke: #000000; stroke-width: 0.5; stroke-linejoin: miter"/>
     </defs>
     <g>
      <use xlink:href="#mf3db11f9f4" x="365.40625" y="31.678125" style="fill-opacity: 0; stroke: #000000; stroke-width: 0.5; stroke-linejoin: miter"/>
     </g>
    </g>
    <g id="text_42">
     <!-- Han -->
     <g transform="translate(373.20625 33.778125) scale(0.06 -0.06)">
      <use xlink:href="#TimesNewRomanPSMT-48"/>
      <use xlink:href="#TimesNewRomanPSMT-61" x="72.216797"/>
      <use xlink:href="#TimesNewRomanPSMT-6e" x="116.601562"/>
     </g>
    </g>
    <g id="line2d_48">
     <defs>
      <path id="m5a6a7d9e1b" d="M -1.25 1.25 
L 1.25 -1.25 
M -1.25 -1.25 
L 1.25 1.25 
" style="stroke: #000000; stroke-width: 0.5"/>
     </defs>
     <g>
      <use xlink:href="#m5a6a7d9e1b" x="365.40625" y="40.161562" style="fill-opacity: 0; stroke: #000000; stroke-width: 0.5"/>
     </g>
    </g>
    <g id="text_43">
     <!-- Wang -->
     <g transform="translate(373.20625 42.261562) scale(0.06 -0.06)">
      <defs>
       <path id="TimesNewRomanPSMT-57" d="M 5991 4238 
L 5991 4122 
Q 5825 4122 5722 4062 
Q 5619 4003 5525 3841 
Q 5463 3731 5328 3319 
L 4147 -97 
L 4022 -97 
L 3056 2613 
L 2097 -97 
L 1984 -97 
L 725 3422 
Q 584 3816 547 3888 
Q 484 4006 376 4064 
Q 269 4122 84 4122 
L 84 4238 
L 1653 4238 
L 1653 4122 
L 1578 4122 
Q 1413 4122 1325 4047 
Q 1238 3972 1238 3866 
Q 1238 3756 1375 3363 
L 2209 984 
L 2913 3006 
L 2788 3363 
L 2688 3647 
Q 2622 3803 2541 3922 
Q 2500 3981 2441 4022 
Q 2363 4078 2284 4103 
Q 2225 4122 2097 4122 
L 2097 4238 
L 3747 4238 
L 3747 4122 
L 3634 4122 
Q 3459 4122 3378 4047 
Q 3297 3972 3297 3844 
Q 3297 3684 3438 3288 
L 4250 984 
L 5056 3319 
Q 5194 3706 5194 3856 
Q 5194 3928 5148 3990 
Q 5103 4053 5034 4078 
Q 4916 4122 4725 4122 
L 4725 4238 
L 5991 4238 
z
" transform="scale(0.015625)"/>
      </defs>
      <use xlink:href="#TimesNewRomanPSMT-57"/>
      <use xlink:href="#TimesNewRomanPSMT-61" x="86.384766"/>
      <use xlink:href="#TimesNewRomanPSMT-6e" x="130.769531"/>
      <use xlink:href="#TimesNewRomanPSMT-67" x="180.769531"/>
     </g>
    </g>
   </g>
   <g id="line2d_49">
    <path d="M 224.896308 134.059124 
L 231.503107 123.469582 
L 238.330698 112.707242 
L 245.390338 101.622606 
L 252.694061 90.597284 
L 260.254749 79.509688 
L 268.086205 68.572327 
L 276.203241 58.192729 
L 284.621766 54.746899 
L 293.358896 59.358632 
L 302.433067 68.455298 
L 311.864165 78.073418 
L 321.67367 86.432835 
L 331.884825 93.999809 
L 342.522813 100.560572 
L 353.614967 106.616944 
L 365.191008 111.879229 
L 377.283304 116.553856 
L 389.927178 120.618876 
" clip-path="url(#pb6f458afe8)" style="fill: none; stroke: #89fe05; stroke-width: 0.6; stroke-linecap: square"/>
   </g>
   <g id="line2d_50">
    <path d="M 224.896308 129.481578 
L 231.503107 117.479764 
L 238.330698 105.718223 
L 245.390338 93.277969 
L 252.694061 81.03519 
L 260.254749 69.050409 
L 268.086205 58.484296 
L 276.203241 49.355965 
L 284.621766 47.078636 
L 293.358896 54.347094 
L 302.433067 65.445595 
L 311.864165 74.157519 
L 321.67367 81.660162 
L 331.884825 88.533418 
L 342.522813 95.119386 
L 353.614967 101.269683 
L 365.191008 106.99537 
L 377.283304 112.168544 
L 389.927178 116.919893 
" clip-path="url(#pb6f458afe8)" style="fill: none; stroke: #0000ff; stroke-width: 0.6; stroke-linecap: square"/>
   </g>
   <g id="line2d_51">
    <path d="M 224.896308 135.740043 
L 231.503107 126.81923 
L 238.330698 116.960535 
L 245.390338 107.663373 
L 252.694061 98.574638 
L 260.254749 89.932225 
L 268.086205 82.359078 
L 276.203241 76.050224 
L 284.621766 75.798697 
L 293.358896 82.708855 
L 302.433067 91.42498 
L 311.864165 98.002151 
L 321.67367 104.084035 
L 331.884825 109.78342 
L 342.522813 114.941518 
L 353.614967 119.428622 
L 365.191008 123.258579 
L 377.283304 126.867386 
L 389.927178 130.069367 
" clip-path="url(#pb6f458afe8)" style="fill: none; stroke: #ff0000; stroke-width: 0.6; stroke-linecap: square"/>
   </g>
   <g id="line2d_52">
    <path d="M 224.896308 129.370781 
L 231.503107 117.099933 
L 238.330698 105.313767 
L 245.390338 93.078513 
L 252.694061 81.171925 
L 260.254749 69.95083 
L 268.086205 59.21375 
L 276.203241 49.955575 
L 284.621766 46.823045 
L 293.358896 51.629696 
L 302.433067 61.379385 
L 311.864165 72.279015 
L 321.67367 81.891745 
L 331.884825 89.626095 
L 342.522813 97.248084 
L 353.614967 103.869835 
L 365.191008 110.07619 
L 377.283304 115.585353 
L 389.927178 120.485174 
" clip-path="url(#pb6f458afe8)" style="fill: none; stroke: #ffa500; stroke-width: 0.6; stroke-linecap: square"/>
   </g>
   <g id="line2d_53">
    <path d="M 224.896308 134.346094 
L 231.503107 124.492642 
L 238.330698 113.245962 
L 245.390338 102.581767 
L 252.694061 91.411692 
L 260.254749 81.921693 
L 268.086205 72.384868 
L 276.203241 64.553589 
L 284.621766 62.523931 
L 293.358896 67.04561 
L 302.433067 73.889406 
L 311.864165 80.179625 
L 321.67367 86.38603 
L 331.884825 92.775143 
L 342.522813 98.885841 
L 353.614967 104.334106 
L 365.191008 109.452386 
L 377.283304 114.009154 
L 389.927178 117.847103 
" clip-path="url(#pb6f458afe8)" style="fill: none; stroke: #029386; stroke-width: 0.6; stroke-linecap: square"/>
   </g>
   <g id="line2d_54">
    <path d="M 220.955743 133.988066 
L 223.442408 129.51577 
L 225.960337 124.30762 
L 228.510123 119.009521 
L 231.092374 114.242351 
L 233.707715 108.968121 
L 236.356785 103.498674 
L 239.040242 98.137989 
L 241.758759 92.536052 
L 244.513028 87.049278 
L 247.303758 81.73684 
L 250.13168 76.671243 
L 252.99754 71.233985 
L 255.902108 66.415926 
L 258.846173 61.645166 
L 261.830547 56.738822 
L 264.856063 52.157149 
L 267.923577 47.853126 
L 271.033971 44.077233 
L 274.188149 40.525583 
L 277.387043 37.742097 
L 280.63161 36.092418 
L 283.922836 35.739046 
L 287.261734 36.841847 
L 290.649348 39.091462 
L 294.086752 42.279617 
L 297.575051 46.354143 
L 301.115385 50.892358 
L 304.708926 55.633434 
L 308.356882 60.234299 
L 312.0605 64.649755 
L 315.821063 68.810555 
L 319.639895 72.654095 
L 323.51836 76.306646 
L 327.457866 79.890393 
L 331.459866 83.296473 
L 335.525858 86.323695 
L 339.657391 89.472601 
L 343.85606 92.587339 
L 348.123517 95.67515 
L 352.461466 98.481819 
L 356.871668 101.172408 
L 361.355942 103.733259 
L 365.916172 106.201516 
L 370.554304 108.566037 
L 375.27235 110.791628 
L 380.072394 112.912627 
L 384.956592 114.943347 
L 389.927178 116.820913 
" clip-path="url(#pb6f458afe8)" style="fill: none; stroke-dasharray: 2.886,1.248; stroke-dashoffset: 0; stroke: #929591; stroke-width: 0.78"/>
   </g>
   <g id="line2d_55">
    <g clip-path="url(#pb6f458afe8)">
     <use xlink:href="#m5a6a7d9e1b" x="250.939558" y="85.602344" style="fill-opacity: 0; stroke: #000000; stroke-width: 0.5"/>
     <use xlink:href="#m5a6a7d9e1b" x="262.067572" y="69.661508" style="fill-opacity: 0; stroke: #000000; stroke-width: 0.5"/>
     <use xlink:href="#m5a6a7d9e1b" x="267.522481" y="62.222452" style="fill-opacity: 0; stroke: #000000; stroke-width: 0.5"/>
     <use xlink:href="#m5a6a7d9e1b" x="272.97739" y="56.111798" style="fill-opacity: 0; stroke: #000000; stroke-width: 0.5"/>
     <use xlink:href="#m5a6a7d9e1b" x="278.541398" y="51.462387" style="fill-opacity: 0; stroke: #000000; stroke-width: 0.5"/>
     <use xlink:href="#m5a6a7d9e1b" x="283.996307" y="51.196707" style="fill-opacity: 0; stroke: #000000; stroke-width: 0.5"/>
     <use xlink:href="#m5a6a7d9e1b" x="289.560314" y="54.517714" style="fill-opacity: 0; stroke: #000000; stroke-width: 0.5"/>
     <use xlink:href="#m5a6a7d9e1b" x="295.124321" y="59.299965" style="fill-opacity: 0; stroke: #000000; stroke-width: 0.5"/>
     <use xlink:href="#m5a6a7d9e1b" x="306.143238" y="74.576599" style="fill-opacity: 0; stroke: #000000; stroke-width: 0.5"/>
     <use xlink:href="#m5a6a7d9e1b" x="317.053056" y="86.000865" style="fill-opacity: 0; stroke: #000000; stroke-width: 0.5"/>
     <use xlink:href="#m5a6a7d9e1b" x="328.071972" y="99.019214" style="fill-opacity: 0; stroke: #000000; stroke-width: 0.5"/>
    </g>
   </g>
   <g id="line2d_56">
    <path d="M 220.955743 138.120239 
L 223.442408 134.30067 
L 225.960337 130.402819 
L 228.510123 126.24511 
L 231.092374 121.922608 
L 233.707715 117.379603 
L 236.356785 113.380753 
L 239.040242 109.15918 
L 241.758759 104.942212 
L 244.513028 100.683798 
L 247.303758 96.512262 
L 250.13168 92.582507 
L 252.99754 88.863888 
L 255.902108 85.166229 
L 258.846173 81.540705 
L 261.830547 78.316041 
L 264.856063 75.459651 
L 267.923577 72.652684 
L 271.033971 70.328949 
L 274.188149 68.093114 
L 277.387043 66.392816 
L 280.63161 65.722469 
L 283.922836 66.307951 
L 287.261734 68.024492 
L 290.649348 70.746326 
L 294.086752 74.09535 
L 297.575051 77.764341 
L 301.115385 81.41872 
L 304.708926 84.790179 
L 308.356882 87.639703 
L 312.0605 90.851438 
L 315.821063 93.990921 
L 319.639895 97.066763 
L 323.51836 100.054735 
L 327.457866 102.956611 
L 331.459866 105.659812 
L 335.525858 108.256213 
L 339.657391 110.747553 
L 343.85606 113.028458 
L 348.123517 115.270206 
L 352.461466 117.363984 
L 356.871668 119.327108 
L 361.355942 121.112652 
L 365.916172 122.974849 
L 370.554304 124.690392 
L 375.27235 126.373951 
L 380.072394 127.995757 
L 384.956592 129.534857 
L 389.927178 131.003847 
" clip-path="url(#pb6f458afe8)" style="fill: none; stroke-dasharray: 2.886,1.248; stroke-dashoffset: 0; stroke: #7e1e9c; stroke-width: 0.78"/>
   </g>
   <g id="line2d_57">
    <g clip-path="url(#pb6f458afe8)">
     <use xlink:href="#mf3db11f9f4" x="245.54434" y="102.508517" style="fill-opacity: 0; stroke: #000000; stroke-width: 0.5; stroke-linejoin: miter"/>
     <use xlink:href="#mf3db11f9f4" x="250.980701" y="92.54066" style="fill-opacity: 0; stroke: #000000; stroke-width: 0.5; stroke-linejoin: miter"/>
     <use xlink:href="#mf3db11f9f4" x="256.620925" y="83.05904" style="fill-opacity: 0; stroke: #000000; stroke-width: 0.5; stroke-linejoin: miter"/>
     <use xlink:href="#mf3db11f9f4" x="262.057286" y="74.549893" style="fill-opacity: 0; stroke: #000000; stroke-width: 0.5; stroke-linejoin: miter"/>
     <use xlink:href="#mf3db11f9f4" x="267.493647" y="66.526984" style="fill-opacity: 0; stroke: #000000; stroke-width: 0.5; stroke-linejoin: miter"/>
     <use xlink:href="#mf3db11f9f4" x="272.997962" y="60.084344" style="fill-opacity: 0; stroke: #000000; stroke-width: 0.5; stroke-linejoin: miter"/>
     <use xlink:href="#mf3db11f9f4" x="278.502277" y="55.343534" style="fill-opacity: 0; stroke: #000000; stroke-width: 0.5; stroke-linejoin: miter"/>
     <use xlink:href="#mf3db11f9f4" x="283.938638" y="54.614179" style="fill-opacity: 0; stroke: #000000; stroke-width: 0.5; stroke-linejoin: miter"/>
     <use xlink:href="#mf3db11f9f4" x="289.442953" y="57.896278" style="fill-opacity: 0; stroke: #000000; stroke-width: 0.5; stroke-linejoin: miter"/>
     <use xlink:href="#mf3db11f9f4" x="294.947269" y="63.97424" style="fill-opacity: 0; stroke: #000000; stroke-width: 0.5; stroke-linejoin: miter"/>
     <use xlink:href="#mf3db11f9f4" x="300.383629" y="70.903116" style="fill-opacity: 0; stroke: #000000; stroke-width: 0.5; stroke-linejoin: miter"/>
     <use xlink:href="#mf3db11f9f4" x="305.887945" y="77.953552" style="fill-opacity: 0; stroke: #000000; stroke-width: 0.5; stroke-linejoin: miter"/>
     <use xlink:href="#mf3db11f9f4" x="311.39226" y="84.031513" style="fill-opacity: 0; stroke: #000000; stroke-width: 0.5; stroke-linejoin: miter"/>
     <use xlink:href="#mf3db11f9f4" x="316.896575" y="88.893883" style="fill-opacity: 0; stroke: #000000; stroke-width: 0.5; stroke-linejoin: miter"/>
     <use xlink:href="#mf3db11f9f4" x="322.332936" y="93.756252" style="fill-opacity: 0; stroke: #000000; stroke-width: 0.5; stroke-linejoin: miter"/>
     <use xlink:href="#mf3db11f9f4" x="327.837251" y="98.375503" style="fill-opacity: 0; stroke: #000000; stroke-width: 0.5; stroke-linejoin: miter"/>
     <use xlink:href="#mf3db11f9f4" x="333.409521" y="102.265398" style="fill-opacity: 0; stroke: #000000; stroke-width: 0.5; stroke-linejoin: miter"/>
     <use xlink:href="#mf3db11f9f4" x="338.777927" y="105.912175" style="fill-opacity: 0; stroke: #000000; stroke-width: 0.5; stroke-linejoin: miter"/>
    </g>
   </g>
  </g>
  <g id="text_44">
   <!-- Equivalence Ratio -->
   <g transform="translate(173.626328 181.701309) scale(0.09 -0.09)">
    <defs>
     <path id="TimesNewRomanPSMT-45" d="M 1338 4006 
L 1338 2331 
L 2269 2331 
Q 2631 2331 2753 2441 
Q 2916 2584 2934 2947 
L 3050 2947 
L 3050 1472 
L 2934 1472 
Q 2891 1781 2847 1869 
Q 2791 1978 2662 2040 
Q 2534 2103 2269 2103 
L 1338 2103 
L 1338 706 
Q 1338 425 1363 364 
Q 1388 303 1450 267 
Q 1513 231 1688 231 
L 2406 231 
Q 2766 231 2928 281 
Q 3091 331 3241 478 
Q 3434 672 3638 1063 
L 3763 1063 
L 3397 0 
L 131 0 
L 131 116 
L 281 116 
Q 431 116 566 188 
Q 666 238 702 338 
Q 738 438 738 747 
L 738 3500 
Q 738 3903 656 3997 
Q 544 4122 281 4122 
L 131 4122 
L 131 4238 
L 3397 4238 
L 3444 3309 
L 3322 3309 
Q 3256 3644 3176 3769 
Q 3097 3894 2941 3959 
Q 2816 4006 2500 4006 
L 1338 4006 
z
" transform="scale(0.015625)"/>
     <path id="TimesNewRomanPSMT-71" d="M 2734 2947 
L 2734 -734 
Q 2734 -1009 2771 -1087 
Q 2809 -1166 2889 -1209 
Q 2969 -1253 3200 -1253 
L 3200 -1369 
L 1756 -1369 
L 1756 -1253 
L 1816 -1253 
Q 1991 -1253 2081 -1203 
Q 2144 -1169 2181 -1080 
Q 2219 -991 2219 -734 
L 2219 497 
Q 1934 159 1721 35 
Q 1509 -88 1281 -88 
Q 866 -88 539 290 
Q 213 669 213 1303 
Q 213 2031 644 2489 
Q 1075 2947 1684 2947 
Q 1863 2947 2013 2897 
Q 2163 2847 2281 2747 
Q 2463 2834 2628 2947 
L 2734 2947 
z
M 2219 694 
L 2219 2038 
Q 2219 2272 2158 2406 
Q 2097 2541 1940 2634 
Q 1784 2728 1588 2728 
Q 1238 2728 988 2431 
Q 738 2134 738 1531 
Q 738 953 992 653 
Q 1247 353 1606 353 
Q 1791 353 1934 433 
Q 2078 513 2219 694 
z
" transform="scale(0.015625)"/>
    </defs>
    <use xlink:href="#TimesNewRomanPSMT-45"/>
    <use xlink:href="#TimesNewRomanPSMT-71" x="61.083984"/>
    <use xlink:href="#TimesNewRomanPSMT-75" x="111.083984"/>
    <use xlink:href="#TimesNewRomanPSMT-69" x="161.083984"/>
    <use xlink:href="#TimesNewRomanPSMT-76" x="188.867188"/>
    <use xlink:href="#TimesNewRomanPSMT-61" x="238.867188"/>
    <use xlink:href="#TimesNewRomanPSMT-6c" x="283.251953"/>
    <use xlink:href="#TimesNewRomanPSMT-65" x="311.035156"/>
    <use xlink:href="#TimesNewRomanPSMT-6e" x="355.419922"/>
    <use xlink:href="#TimesNewRomanPSMT-63" x="405.419922"/>
    <use xlink:href="#TimesNewRomanPSMT-65" x="449.804688"/>
    <use xlink:href="#TimesNewRomanPSMT-20" x="494.189453"/>
    <use xlink:href="#TimesNewRomanPSMT-52" x="519.189453"/>
    <use xlink:href="#TimesNewRomanPSMT-61" x="585.888672"/>
    <use xlink:href="#TimesNewRomanPSMT-74" x="630.273438"/>
    <use xlink:href="#TimesNewRomanPSMT-69" x="658.056641"/>
    <use xlink:href="#TimesNewRomanPSMT-6f" x="685.839844"/>
   </g>
  </g>
 </g>
 <defs>
  <clipPath id="pf1cb55ca74">
   <rect x="31.24" y="7.2" width="164.863636" height="150.7968"/>
  </clipPath>
  <clipPath id="pb6f458afe8">
   <rect x="229.076364" y="7.2" width="164.863636" height="150.7968"/>
  </clipPath>
 </defs>
</svg>
