<?xml version="1.0" encoding="utf-8" standalone="no"?>
<!DOCTYPE svg PUBLIC "-//W3C//DTD SVG 1.1//EN"
  "http://www.w3.org/Graphics/SVG/1.1/DTD/svg11.dtd">
<svg xmlns:xlink="http://www.w3.org/1999/xlink" width="178.324531pt" height="313.6325pt" viewBox="0 0 178.324531 313.6325" xmlns="http://www.w3.org/2000/svg" version="1.1">
 <metadata>
  <rdf:RDF xmlns:dc="http://purl.org/dc/elements/1.1/" xmlns:cc="http://creativecommons.org/ns#" xmlns:rdf="http://www.w3.org/1999/02/22-rdf-syntax-ns#">
   <cc:Work>
    <dc:type rdf:resource="http://purl.org/dc/dcmitype/StillImage"/>
    <dc:date>2024-09-12T12:23:25.906510</dc:date>
    <dc:format>image/svg+xml</dc:format>
    <dc:creator>
     <cc:Agent>
      <dc:title>Matplotlib v3.9.2, https://matplotlib.org/</dc:title>
     </cc:Agent>
    </dc:creator>
   </cc:Work>
  </rdf:RDF>
 </metadata>
 <defs>
  <style type="text/css">*{stroke-linejoin: round; stroke-linecap: butt}</style>
 </defs>
 <g id="figure_1">
  <g id="patch_1">
   <path d="M 0 313.6325 
L 178.324531 313.6325 
L 178.324531 0 
L 0 0 
z
" style="fill: #ffffff"/>
  </g>
  <g id="axes_1">
   <g id="patch_2">
    <path d="M 31.624531 88.729412 
L 171.124531 88.729412 
L 171.124531 7.2 
L 31.624531 7.2 
z
" style="fill: #ffffff"/>
   </g>
   <g id="matplotlib.axis_1">
    <g id="xtick_1">
     <g id="line2d_1">
      <defs>
       <path id="mfbdf197af8" d="M 0 0 
L 0 -2.5 
" style="stroke: #000000; stroke-width: 0.5"/>
      </defs>
      <g>
       <use xlink:href="#mfbdf197af8" x="41.245221" y="88.729412" style="stroke: #000000; stroke-width: 0.5"/>
      </g>
     </g>
     <g id="text_1">
      <!-- 800 -->
      <g transform="translate(35.995221 97.090037) scale(0.07 -0.07)">
       <defs>
        <path id="TimesNewRomanPSMT-38" d="M 1228 2134 
Q 725 2547 579 2797 
Q 434 3047 434 3316 
Q 434 3728 753 4026 
Q 1072 4325 1600 4325 
Q 2113 4325 2425 4047 
Q 2738 3769 2738 3413 
Q 2738 3175 2569 2928 
Q 2400 2681 1866 2347 
Q 2416 1922 2594 1678 
Q 2831 1359 2831 1006 
Q 2831 559 2490 242 
Q 2150 -75 1597 -75 
Q 994 -75 656 303 
Q 388 606 388 966 
Q 388 1247 577 1523 
Q 766 1800 1228 2134 
z
M 1719 2469 
Q 2094 2806 2194 3001 
Q 2294 3197 2294 3444 
Q 2294 3772 2109 3958 
Q 1925 4144 1606 4144 
Q 1288 4144 1088 3959 
Q 888 3775 888 3528 
Q 888 3366 970 3203 
Q 1053 3041 1206 2894 
L 1719 2469 
z
M 1375 2016 
Q 1116 1797 991 1539 
Q 866 1281 866 981 
Q 866 578 1086 336 
Q 1306 94 1647 94 
Q 1984 94 2187 284 
Q 2391 475 2391 747 
Q 2391 972 2272 1150 
Q 2050 1481 1375 2016 
z
" transform="scale(0.015625)"/>
        <path id="TimesNewRomanPSMT-30" d="M 231 2094 
Q 231 2819 450 3342 
Q 669 3866 1031 4122 
Q 1313 4325 1613 4325 
Q 2100 4325 2488 3828 
Q 2972 3213 2972 2159 
Q 2972 1422 2759 906 
Q 2547 391 2217 158 
Q 1888 -75 1581 -75 
Q 975 -75 572 641 
Q 231 1244 231 2094 
z
M 844 2016 
Q 844 1141 1059 588 
Q 1238 122 1591 122 
Q 1759 122 1940 273 
Q 2122 425 2216 781 
Q 2359 1319 2359 2297 
Q 2359 3022 2209 3506 
Q 2097 3866 1919 4016 
Q 1791 4119 1609 4119 
Q 1397 4119 1231 3928 
Q 1006 3669 925 3112 
Q 844 2556 844 2016 
z
" transform="scale(0.015625)"/>
       </defs>
       <use xlink:href="#TimesNewRomanPSMT-38"/>
       <use xlink:href="#TimesNewRomanPSMT-30" x="50"/>
       <use xlink:href="#TimesNewRomanPSMT-30" x="100"/>
      </g>
     </g>
    </g>
    <g id="xtick_2">
     <g id="line2d_2">
      <g>
       <use xlink:href="#mfbdf197af8" x="65.296945" y="88.729412" style="stroke: #000000; stroke-width: 0.5"/>
      </g>
     </g>
     <g id="text_2">
      <!-- 850 -->
      <g transform="translate(60.046945 97.090037) scale(0.07 -0.07)">
       <defs>
        <path id="TimesNewRomanPSMT-35" d="M 2778 4238 
L 2534 3706 
L 1259 3706 
L 981 3138 
Q 1809 3016 2294 2522 
Q 2709 2097 2709 1522 
Q 2709 1188 2573 903 
Q 2438 619 2231 419 
Q 2025 219 1772 97 
Q 1413 -75 1034 -75 
Q 653 -75 479 54 
Q 306 184 306 341 
Q 306 428 378 495 
Q 450 563 559 563 
Q 641 563 702 538 
Q 763 513 909 409 
Q 1144 247 1384 247 
Q 1750 247 2026 523 
Q 2303 800 2303 1197 
Q 2303 1581 2056 1914 
Q 1809 2247 1375 2428 
Q 1034 2569 447 2591 
L 1259 4238 
L 2778 4238 
z
" transform="scale(0.015625)"/>
       </defs>
       <use xlink:href="#TimesNewRomanPSMT-38"/>
       <use xlink:href="#TimesNewRomanPSMT-35" x="50"/>
       <use xlink:href="#TimesNewRomanPSMT-30" x="100"/>
      </g>
     </g>
    </g>
    <g id="xtick_3">
     <g id="line2d_3">
      <g>
       <use xlink:href="#mfbdf197af8" x="89.348669" y="88.729412" style="stroke: #000000; stroke-width: 0.5"/>
      </g>
     </g>
     <g id="text_3">
      <!-- 900 -->
      <g transform="translate(84.098669 97.090037) scale(0.07 -0.07)">
       <defs>
        <path id="TimesNewRomanPSMT-39" d="M 338 -88 
L 338 28 
Q 744 34 1094 217 
Q 1444 400 1770 856 
Q 2097 1313 2225 1859 
Q 1734 1544 1338 1544 
Q 891 1544 572 1889 
Q 253 2234 253 2806 
Q 253 3363 572 3797 
Q 956 4325 1575 4325 
Q 2097 4325 2469 3894 
Q 2925 3359 2925 2575 
Q 2925 1869 2578 1258 
Q 2231 647 1613 244 
Q 1109 -88 516 -88 
L 338 -88 
z
M 2275 2091 
Q 2331 2497 2331 2741 
Q 2331 3044 2228 3395 
Q 2125 3747 1936 3934 
Q 1747 4122 1506 4122 
Q 1228 4122 1018 3872 
Q 809 3622 809 3128 
Q 809 2469 1088 2097 
Q 1291 1828 1588 1828 
Q 1731 1828 1928 1897 
Q 2125 1966 2275 2091 
z
" transform="scale(0.015625)"/>
       </defs>
       <use xlink:href="#TimesNewRomanPSMT-39"/>
       <use xlink:href="#TimesNewRomanPSMT-30" x="50"/>
       <use xlink:href="#TimesNewRomanPSMT-30" x="100"/>
      </g>
     </g>
    </g>
    <g id="xtick_4">
     <g id="line2d_4">
      <g>
       <use xlink:href="#mfbdf197af8" x="113.400393" y="88.729412" style="stroke: #000000; stroke-width: 0.5"/>
      </g>
     </g>
     <g id="text_4">
      <!-- 950 -->
      <g transform="translate(108.150393 97.090037) scale(0.07 -0.07)">
       <use xlink:href="#TimesNewRomanPSMT-39"/>
       <use xlink:href="#TimesNewRomanPSMT-35" x="50"/>
       <use xlink:href="#TimesNewRomanPSMT-30" x="100"/>
      </g>
     </g>
    </g>
    <g id="xtick_5">
     <g id="line2d_5">
      <g>
       <use xlink:href="#mfbdf197af8" x="137.452117" y="88.729412" style="stroke: #000000; stroke-width: 0.5"/>
      </g>
     </g>
     <g id="text_5">
      <!-- 1000 -->
      <g transform="translate(130.452117 97.090037) scale(0.07 -0.07)">
       <defs>
        <path id="TimesNewRomanPSMT-31" d="M 750 3822 
L 1781 4325 
L 1884 4325 
L 1884 747 
Q 1884 391 1914 303 
Q 1944 216 2037 169 
Q 2131 122 2419 116 
L 2419 0 
L 825 0 
L 825 116 
Q 1125 122 1212 167 
Q 1300 213 1334 289 
Q 1369 366 1369 747 
L 1369 3034 
Q 1369 3497 1338 3628 
Q 1316 3728 1258 3775 
Q 1200 3822 1119 3822 
Q 1003 3822 797 3725 
L 750 3822 
z
" transform="scale(0.015625)"/>
       </defs>
       <use xlink:href="#TimesNewRomanPSMT-31"/>
       <use xlink:href="#TimesNewRomanPSMT-30" x="50"/>
       <use xlink:href="#TimesNewRomanPSMT-30" x="100"/>
       <use xlink:href="#TimesNewRomanPSMT-30" x="150"/>
      </g>
     </g>
    </g>
    <g id="xtick_6">
     <g id="line2d_6">
      <g>
       <use xlink:href="#mfbdf197af8" x="161.503842" y="88.729412" style="stroke: #000000; stroke-width: 0.5"/>
      </g>
     </g>
     <g id="text_6">
      <!-- 1050 -->
      <g transform="translate(154.503842 97.090037) scale(0.07 -0.07)">
       <use xlink:href="#TimesNewRomanPSMT-31"/>
       <use xlink:href="#TimesNewRomanPSMT-30" x="50"/>
       <use xlink:href="#TimesNewRomanPSMT-35" x="100"/>
       <use xlink:href="#TimesNewRomanPSMT-30" x="150"/>
      </g>
     </g>
    </g>
   </g>
   <g id="matplotlib.axis_2">
    <g id="ytick_1">
     <g id="line2d_7">
      <defs>
       <path id="ma6fc2580dc" d="M 0 0 
L 2.5 0 
" style="stroke: #000000; stroke-width: 0.5"/>
      </defs>
      <g>
       <use xlink:href="#ma6fc2580dc" x="31.624531" y="85.024305" style="stroke: #000000; stroke-width: 0.5"/>
      </g>
     </g>
     <g id="text_7">
      <!-- 0 -->
      <g transform="translate(24.624531 87.454617) scale(0.07 -0.07)">
       <use xlink:href="#TimesNewRomanPSMT-30"/>
      </g>
     </g>
    </g>
    <g id="ytick_2">
     <g id="line2d_8">
      <g>
       <use xlink:href="#ma6fc2580dc" x="31.624531" y="73.630721" style="stroke: #000000; stroke-width: 0.5"/>
      </g>
     </g>
     <g id="text_8">
      <!-- 5 -->
      <g transform="translate(24.624531 76.061034) scale(0.07 -0.07)">
       <use xlink:href="#TimesNewRomanPSMT-35"/>
      </g>
     </g>
    </g>
    <g id="ytick_3">
     <g id="line2d_9">
      <g>
       <use xlink:href="#ma6fc2580dc" x="31.624531" y="62.237138" style="stroke: #000000; stroke-width: 0.5"/>
      </g>
     </g>
     <g id="text_9">
      <!-- 10 -->
      <g transform="translate(21.124531 64.667451) scale(0.07 -0.07)">
       <use xlink:href="#TimesNewRomanPSMT-31"/>
       <use xlink:href="#TimesNewRomanPSMT-30" x="50"/>
      </g>
     </g>
    </g>
    <g id="ytick_4">
     <g id="line2d_10">
      <g>
       <use xlink:href="#ma6fc2580dc" x="31.624531" y="50.843555" style="stroke: #000000; stroke-width: 0.5"/>
      </g>
     </g>
     <g id="text_10">
      <!-- 15 -->
      <g transform="translate(21.124531 53.273867) scale(0.07 -0.07)">
       <use xlink:href="#TimesNewRomanPSMT-31"/>
       <use xlink:href="#TimesNewRomanPSMT-35" x="50"/>
      </g>
     </g>
    </g>
    <g id="ytick_5">
     <g id="line2d_11">
      <g>
       <use xlink:href="#ma6fc2580dc" x="31.624531" y="39.449972" style="stroke: #000000; stroke-width: 0.5"/>
      </g>
     </g>
     <g id="text_11">
      <!-- 20 -->
      <g transform="translate(21.124531 41.880284) scale(0.07 -0.07)">
       <defs>
        <path id="TimesNewRomanPSMT-32" d="M 2934 816 
L 2638 0 
L 138 0 
L 138 116 
Q 1241 1122 1691 1759 
Q 2141 2397 2141 2925 
Q 2141 3328 1894 3587 
Q 1647 3847 1303 3847 
Q 991 3847 742 3664 
Q 494 3481 375 3128 
L 259 3128 
Q 338 3706 661 4015 
Q 984 4325 1469 4325 
Q 1984 4325 2329 3994 
Q 2675 3663 2675 3213 
Q 2675 2891 2525 2569 
Q 2294 2063 1775 1497 
Q 997 647 803 472 
L 1909 472 
Q 2247 472 2383 497 
Q 2519 522 2628 598 
Q 2738 675 2819 816 
L 2934 816 
z
" transform="scale(0.015625)"/>
       </defs>
       <use xlink:href="#TimesNewRomanPSMT-32"/>
       <use xlink:href="#TimesNewRomanPSMT-30" x="50"/>
      </g>
     </g>
    </g>
    <g id="ytick_6">
     <g id="line2d_12">
      <g>
       <use xlink:href="#ma6fc2580dc" x="31.624531" y="28.056388" style="stroke: #000000; stroke-width: 0.5"/>
      </g>
     </g>
     <g id="text_12">
      <!-- 25 -->
      <g transform="translate(21.124531 30.486701) scale(0.07 -0.07)">
       <use xlink:href="#TimesNewRomanPSMT-32"/>
       <use xlink:href="#TimesNewRomanPSMT-35" x="50"/>
      </g>
     </g>
    </g>
    <g id="ytick_7">
     <g id="line2d_13">
      <g>
       <use xlink:href="#ma6fc2580dc" x="31.624531" y="16.662805" style="stroke: #000000; stroke-width: 0.5"/>
      </g>
     </g>
     <g id="text_13">
      <!-- 30 -->
      <g transform="translate(21.124531 19.093117) scale(0.07 -0.07)">
       <defs>
        <path id="TimesNewRomanPSMT-33" d="M 325 3431 
Q 506 3859 782 4092 
Q 1059 4325 1472 4325 
Q 1981 4325 2253 3994 
Q 2459 3747 2459 3466 
Q 2459 3003 1878 2509 
Q 2269 2356 2469 2072 
Q 2669 1788 2669 1403 
Q 2669 853 2319 450 
Q 1863 -75 997 -75 
Q 569 -75 414 31 
Q 259 138 259 259 
Q 259 350 332 419 
Q 406 488 509 488 
Q 588 488 669 463 
Q 722 447 909 348 
Q 1097 250 1169 231 
Q 1284 197 1416 197 
Q 1734 197 1970 444 
Q 2206 691 2206 1028 
Q 2206 1275 2097 1509 
Q 2016 1684 1919 1775 
Q 1784 1900 1550 2001 
Q 1316 2103 1072 2103 
L 972 2103 
L 972 2197 
Q 1219 2228 1467 2375 
Q 1716 2522 1828 2728 
Q 1941 2934 1941 3181 
Q 1941 3503 1739 3701 
Q 1538 3900 1238 3900 
Q 753 3900 428 3381 
L 325 3431 
z
" transform="scale(0.015625)"/>
       </defs>
       <use xlink:href="#TimesNewRomanPSMT-33"/>
       <use xlink:href="#TimesNewRomanPSMT-30" x="50"/>
      </g>
     </g>
    </g>
    <g id="text_14">
     <!-- $\Delta$ T [K] -->
     <g transform="translate(15.199375 62.499706) rotate(-90) scale(0.09 -0.09)">
      <defs>
       <path id="STIXGeneral-Regular-394" d="M 4320 0 
L 307 0 
L 2221 4314 
L 2349 4314 
L 4320 0 
z
M 3354 589 
L 2118 3405 
L 870 589 
L 3354 589 
z
" transform="scale(0.015625)"/>
       <path id="TimesNewRomanPSMT-20" transform="scale(0.015625)"/>
       <path id="TimesNewRomanPSMT-54" d="M 3703 4238 
L 3750 3244 
L 3631 3244 
Q 3597 3506 3538 3619 
Q 3441 3800 3280 3886 
Q 3119 3972 2856 3972 
L 2259 3972 
L 2259 734 
Q 2259 344 2344 247 
Q 2463 116 2709 116 
L 2856 116 
L 2856 0 
L 1059 0 
L 1059 116 
L 1209 116 
Q 1478 116 1591 278 
Q 1659 378 1659 734 
L 1659 3972 
L 1150 3972 
Q 853 3972 728 3928 
Q 566 3869 450 3700 
Q 334 3531 313 3244 
L 194 3244 
L 244 4238 
L 3703 4238 
z
" transform="scale(0.015625)"/>
       <path id="TimesNewRomanPSMT-5b" d="M 1900 -1269 
L 525 -1269 
L 525 4334 
L 1900 4334 
L 1900 4088 
L 994 4088 
L 994 -1025 
L 1900 -1025 
L 1900 -1269 
z
" transform="scale(0.015625)"/>
       <path id="TimesNewRomanPSMT-4b" d="M 1913 2350 
L 3475 797 
Q 3859 413 4131 273 
Q 4403 134 4675 116 
L 4675 0 
L 2659 0 
L 2659 116 
Q 2841 116 2920 177 
Q 3000 238 3000 313 
Q 3000 388 2970 447 
Q 2941 506 2775 669 
L 1313 2116 
L 1313 750 
Q 1313 428 1353 325 
Q 1384 247 1484 191 
Q 1619 116 1769 116 
L 1913 116 
L 1913 0 
L 106 0 
L 106 116 
L 256 116 
Q 519 116 638 269 
Q 713 369 713 750 
L 713 3488 
Q 713 3809 672 3916 
Q 641 3991 544 4047 
Q 406 4122 256 4122 
L 106 4122 
L 106 4238 
L 1913 4238 
L 1913 4122 
L 1769 4122 
Q 1622 4122 1484 4050 
Q 1388 4000 1350 3900 
Q 1313 3800 1313 3488 
L 1313 2191 
Q 1375 2250 1741 2588 
Q 2669 3438 2863 3722 
Q 2947 3847 2947 3941 
Q 2947 4013 2881 4067 
Q 2816 4122 2659 4122 
L 2563 4122 
L 2563 4238 
L 4119 4238 
L 4119 4122 
Q 3981 4119 3868 4084 
Q 3756 4050 3593 3951 
Q 3431 3853 3194 3634 
Q 3125 3572 2559 2994 
L 1913 2350 
z
" transform="scale(0.015625)"/>
       <path id="TimesNewRomanPSMT-5d" d="M 234 4334 
L 1609 4334 
L 1609 -1272 
L 234 -1272 
L 234 -1025 
L 1141 -1025 
L 1141 4088 
L 234 4088 
L 234 4334 
z
" transform="scale(0.015625)"/>
      </defs>
      <use xlink:href="#STIXGeneral-Regular-394" transform="translate(0 0.28125)"/>
      <use xlink:href="#TimesNewRomanPSMT-20" transform="translate(72.199982 0.28125)"/>
      <use xlink:href="#TimesNewRomanPSMT-54" transform="translate(97.199982 0.28125)"/>
      <use xlink:href="#TimesNewRomanPSMT-20" transform="translate(158.283966 0.28125)"/>
      <use xlink:href="#TimesNewRomanPSMT-5b" transform="translate(183.283966 0.28125)"/>
      <use xlink:href="#TimesNewRomanPSMT-4b" transform="translate(216.584747 0.28125)"/>
      <use xlink:href="#TimesNewRomanPSMT-5d" transform="translate(288.801544 0.28125)"/>
     </g>
    </g>
   </g>
   <g id="line2d_14">
    <defs>
     <path id="m7fe1e2809b" d="M 0 1.6 
C 0.424325 1.6 0.831328 1.431414 1.131371 1.131371 
C 1.431414 0.831328 1.6 0.424325 1.6 0 
C 1.6 -0.424325 1.431414 -0.831328 1.131371 -1.131371 
C 0.831328 -1.431414 0.424325 -1.6 0 -1.6 
C -0.424325 -1.6 -0.831328 -1.431414 -1.131371 -1.131371 
C -1.431414 -0.831328 -1.6 -0.424325 -1.6 0 
C -1.6 0.424325 -1.431414 0.831328 -1.131371 1.131371 
C -0.831328 1.431414 -0.424325 1.6 0 1.6 
z
" style="stroke: #000000; stroke-width: 0.5"/>
    </defs>
    <g clip-path="url(#p7df7162e3f)">
     <use xlink:href="#m7fe1e2809b" x="61.451466" y="84.909218" style="fill-opacity: 0; stroke: #000000; stroke-width: 0.5"/>
     <use xlink:href="#m7fe1e2809b" x="67.744068" y="84.909218" style="fill-opacity: 0; stroke: #000000; stroke-width: 0.5"/>
     <use xlink:href="#m7fe1e2809b" x="75.085437" y="84.909218" style="fill-opacity: 0; stroke: #000000; stroke-width: 0.5"/>
     <use xlink:href="#m7fe1e2809b" x="81.797546" y="84.794131" style="fill-opacity: 0; stroke: #000000; stroke-width: 0.5"/>
     <use xlink:href="#m7fe1e2809b" x="91.026696" y="83.643264" style="fill-opacity: 0; stroke: #000000; stroke-width: 0.5"/>
     <use xlink:href="#m7fe1e2809b" x="101.304613" y="81.801877" style="fill-opacity: 0; stroke: #000000; stroke-width: 0.5"/>
     <use xlink:href="#m7fe1e2809b" x="110.95327" y="79.039796" style="fill-opacity: 0; stroke: #000000; stroke-width: 0.5"/>
     <use xlink:href="#m7fe1e2809b" x="120.601927" y="75.702282" style="fill-opacity: 0; stroke: #000000; stroke-width: 0.5"/>
     <use xlink:href="#m7fe1e2809b" x="135.074912" y="69.602687" style="fill-opacity: 0; stroke: #000000; stroke-width: 0.5"/>
     <use xlink:href="#m7fe1e2809b" x="145.772336" y="65.459566" style="fill-opacity: 0; stroke: #000000; stroke-width: 0.5"/>
    </g>
   </g>
   <g id="line2d_15">
    <path d="M 41.245221 85.020813 
L 43.699478 85.018231 
L 46.153736 85.014043 
L 48.607994 85.007314 
L 51.062251 84.996495 
L 53.516509 84.978729 
L 55.970766 84.947581 
L 58.425024 84.884478 
L 60.879281 84.758082 
L 63.333539 84.601935 
L 65.787797 84.434776 
L 68.242054 84.248999 
L 70.696312 84.03662 
L 73.150569 83.78935 
L 75.604827 83.497248 
L 78.059084 83.147397 
L 80.513342 82.722167 
L 82.9676 82.196563 
L 85.421857 81.53382 
L 87.876115 80.677648 
L 90.330372 79.53812 
L 92.78463 77.965844 
L 95.238887 75.71064 
L 97.693145 72.40435 
L 100.147402 67.811397 
L 102.60166 62.477284 
L 105.055918 57.384208 
L 107.510175 52.933385 
L 109.964433 49.079054 
L 112.41869 45.685027 
L 114.872948 42.635104 
L 117.327205 39.845682 
L 119.781463 37.259269 
L 122.235721 34.837056 
L 124.689978 32.553333 
L 127.144236 30.391567 
L 129.598493 28.341575 
L 132.052751 26.397638 
L 134.507008 24.556958 
L 136.961266 22.818497 
L 139.415524 21.182121 
L 141.869781 19.647945 
L 144.324039 18.21583 
L 146.778296 16.885104 
L 149.232554 15.654415 
L 151.686811 14.521673 
L 154.141069 13.484089 
L 156.595326 12.538259 
L 159.049584 11.68028 
L 161.503842 10.905882 
" clip-path="url(#p7df7162e3f)" style="fill: none; stroke-dasharray: 0.7,1.155; stroke-dashoffset: 0; stroke: #ff0000; stroke-width: 0.7"/>
   </g>
   <g id="line2d_16">
    <path d="M 41.245221 85.013951 
L 43.699478 85.007851 
L 46.153736 84.99917 
L 48.607994 84.987227 
L 51.062251 84.97125 
L 53.516509 84.950315 
L 55.970766 84.92317 
L 58.425024 84.887807 
L 60.879281 84.840178 
L 63.333539 84.768283 
L 65.787797 84.195037 
L 68.242054 83.908195 
L 70.696312 83.672302 
L 73.150569 83.443974 
L 75.604827 83.213832 
L 78.059084 82.977899 
L 80.513342 82.733914 
L 82.9676 82.480313 
L 85.421857 82.215851 
L 87.876115 81.939443 
L 90.330372 81.650078 
L 92.78463 81.346785 
L 95.238887 81.028608 
L 97.693145 80.694596 
L 100.147402 80.343806 
L 102.60166 79.975296 
L 105.055918 79.588138 
L 107.510175 79.181418 
L 109.964433 78.754249 
L 112.41869 78.305788 
L 114.872948 77.835241 
L 117.327205 77.341888 
L 119.781463 76.825104 
L 122.235721 76.284373 
L 124.689978 75.719322 
L 127.144236 75.12974 
L 129.598493 74.51561 
L 132.052751 73.877127 
L 134.507008 73.214728 
L 136.961266 72.529088 
L 139.415524 71.821145 
L 141.869781 71.092155 
L 144.324039 70.343609 
L 146.778296 69.577227 
L 149.232554 68.794929 
L 151.686811 67.998777 
L 154.141069 67.19092 
L 156.595326 66.373523 
L 159.049584 65.548698 
L 161.503842 64.718436 
" clip-path="url(#p7df7162e3f)" style="fill: none; stroke-dasharray: 2.59,1.12; stroke-dashoffset: 0; stroke: #0000ff; stroke-width: 0.7"/>
   </g>
   <g id="line2d_17">
    <path d="M 41.245221 85.023529 
L 43.699478 85.022757 
L 46.153736 85.021481 
L 48.607994 85.019433 
L 51.062251 85.016218 
L 53.516509 85.011272 
L 55.970766 85.003815 
L 58.425024 84.992765 
L 60.879281 84.976593 
L 63.333539 84.952961 
L 65.787797 84.917734 
L 68.242054 84.861788 
L 70.696312 84.759604 
L 73.150569 84.580879 
L 75.604827 84.387674 
L 78.059084 84.196213 
L 80.513342 83.996124 
L 82.9676 83.78093 
L 85.421857 83.546338 
L 87.876115 83.288925 
L 90.330372 83.005582 
L 92.78463 82.693235 
L 95.238887 82.348691 
L 97.693145 81.968524 
L 100.147402 81.549 
L 102.60166 81.086008 
L 105.055918 80.575015 
L 107.510175 80.011038 
L 109.964433 79.388632 
L 112.41869 78.701907 
L 114.872948 77.944579 
L 117.327205 77.110066 
L 119.781463 76.191648 
L 122.235721 75.182701 
L 124.689978 74.077028 
L 127.144236 72.8693 
L 129.598493 71.555615 
L 132.052751 70.134151 
L 134.507008 68.60587 
L 136.961266 66.975097 
L 139.415524 65.250025 
L 141.869781 63.442705 
L 144.324039 61.568381 
L 146.778296 59.644324 
L 149.232554 57.688207 
L 151.686811 55.716421 
L 154.141069 53.742734 
L 156.595326 51.777577 
L 159.049584 49.828022 
L 161.503842 47.898289 
" clip-path="url(#p7df7162e3f)" style="fill: none; stroke: #7e1e9c; stroke-width: 0.7; stroke-linecap: square"/>
   </g>
   <g id="patch_3">
    <path d="M 31.624531 88.729412 
L 31.624531 7.2 
" style="fill: none; stroke: #000000; stroke-width: 0.8; stroke-linejoin: miter; stroke-linecap: square"/>
   </g>
   <g id="patch_4">
    <path d="M 171.124531 88.729412 
L 171.124531 7.2 
" style="fill: none; stroke: #000000; stroke-width: 0.8; stroke-linejoin: miter; stroke-linecap: square"/>
   </g>
   <g id="patch_5">
    <path d="M 31.624531 88.729412 
L 171.124531 88.729412 
" style="fill: none; stroke: #000000; stroke-width: 0.8; stroke-linejoin: miter; stroke-linecap: square"/>
   </g>
   <g id="patch_6">
    <path d="M 31.624531 7.2 
L 171.124531 7.2 
" style="fill: none; stroke: #000000; stroke-width: 0.8; stroke-linejoin: miter; stroke-linecap: square"/>
   </g>
   <g id="legend_1">
    <g id="line2d_18">
     <g>
      <use xlink:href="#m7fe1e2809b" x="41.424531" y="15.95" style="fill-opacity: 0; stroke: #000000; stroke-width: 0.5"/>
     </g>
    </g>
    <g id="text_15">
     <!-- Sabia et al. -->
     <g transform="translate(50.524531 18.4) scale(0.07 -0.07)">
      <defs>
       <path id="TimesNewRomanPSMT-53" d="M 2934 4334 
L 2934 2869 
L 2819 2869 
Q 2763 3291 2617 3541 
Q 2472 3791 2203 3937 
Q 1934 4084 1647 4084 
Q 1322 4084 1109 3886 
Q 897 3688 897 3434 
Q 897 3241 1031 3081 
Q 1225 2847 1953 2456 
Q 2547 2138 2764 1967 
Q 2981 1797 3098 1565 
Q 3216 1334 3216 1081 
Q 3216 600 2842 251 
Q 2469 -97 1881 -97 
Q 1697 -97 1534 -69 
Q 1438 -53 1133 45 
Q 828 144 747 144 
Q 669 144 623 97 
Q 578 50 556 -97 
L 441 -97 
L 441 1356 
L 556 1356 
Q 638 900 775 673 
Q 913 447 1195 297 
Q 1478 147 1816 147 
Q 2206 147 2432 353 
Q 2659 559 2659 841 
Q 2659 997 2573 1156 
Q 2488 1316 2306 1453 
Q 2184 1547 1640 1851 
Q 1097 2156 867 2337 
Q 638 2519 519 2737 
Q 400 2956 400 3219 
Q 400 3675 750 4004 
Q 1100 4334 1641 4334 
Q 1978 4334 2356 4169 
Q 2531 4091 2603 4091 
Q 2684 4091 2736 4139 
Q 2788 4188 2819 4334 
L 2934 4334 
z
" transform="scale(0.015625)"/>
       <path id="TimesNewRomanPSMT-61" d="M 1822 413 
Q 1381 72 1269 19 
Q 1100 -59 909 -59 
Q 613 -59 420 144 
Q 228 347 228 678 
Q 228 888 322 1041 
Q 450 1253 767 1440 
Q 1084 1628 1822 1897 
L 1822 2009 
Q 1822 2438 1686 2597 
Q 1550 2756 1291 2756 
Q 1094 2756 978 2650 
Q 859 2544 859 2406 
L 866 2225 
Q 866 2081 792 2003 
Q 719 1925 600 1925 
Q 484 1925 411 2006 
Q 338 2088 338 2228 
Q 338 2497 613 2722 
Q 888 2947 1384 2947 
Q 1766 2947 2009 2819 
Q 2194 2722 2281 2516 
Q 2338 2381 2338 1966 
L 2338 994 
Q 2338 584 2353 492 
Q 2369 400 2405 369 
Q 2441 338 2488 338 
Q 2538 338 2575 359 
Q 2641 400 2828 588 
L 2828 413 
Q 2478 -56 2159 -56 
Q 2006 -56 1915 50 
Q 1825 156 1822 413 
z
M 1822 616 
L 1822 1706 
Q 1350 1519 1213 1441 
Q 966 1303 859 1153 
Q 753 1003 753 825 
Q 753 600 887 451 
Q 1022 303 1197 303 
Q 1434 303 1822 616 
z
" transform="scale(0.015625)"/>
       <path id="TimesNewRomanPSMT-62" d="M 984 2369 
Q 1400 2947 1881 2947 
Q 2322 2947 2650 2570 
Q 2978 2194 2978 1541 
Q 2978 778 2472 313 
Q 2038 -88 1503 -88 
Q 1253 -88 995 3 
Q 738 94 469 275 
L 469 3241 
Q 469 3728 445 3840 
Q 422 3953 372 3993 
Q 322 4034 247 4034 
Q 159 4034 28 3984 
L -16 4094 
L 844 4444 
L 984 4444 
L 984 2369 
z
M 984 2169 
L 984 456 
Q 1144 300 1314 220 
Q 1484 141 1663 141 
Q 1947 141 2192 453 
Q 2438 766 2438 1363 
Q 2438 1913 2192 2208 
Q 1947 2503 1634 2503 
Q 1469 2503 1303 2419 
Q 1178 2356 984 2169 
z
" transform="scale(0.015625)"/>
       <path id="TimesNewRomanPSMT-69" d="M 928 4444 
Q 1059 4444 1151 4351 
Q 1244 4259 1244 4128 
Q 1244 3997 1151 3903 
Q 1059 3809 928 3809 
Q 797 3809 703 3903 
Q 609 3997 609 4128 
Q 609 4259 701 4351 
Q 794 4444 928 4444 
z
M 1188 2947 
L 1188 647 
Q 1188 378 1227 289 
Q 1266 200 1342 156 
Q 1419 113 1622 113 
L 1622 0 
L 231 0 
L 231 113 
Q 441 113 512 153 
Q 584 194 626 287 
Q 669 381 669 647 
L 669 1750 
Q 669 2216 641 2353 
Q 619 2453 572 2492 
Q 525 2531 444 2531 
Q 356 2531 231 2484 
L 188 2597 
L 1050 2947 
L 1188 2947 
z
" transform="scale(0.015625)"/>
       <path id="TimesNewRomanPSMT-65" d="M 681 1784 
Q 678 1147 991 784 
Q 1303 422 1725 422 
Q 2006 422 2214 576 
Q 2422 731 2563 1106 
L 2659 1044 
Q 2594 616 2278 264 
Q 1963 -88 1488 -88 
Q 972 -88 605 314 
Q 238 716 238 1394 
Q 238 2128 614 2539 
Q 991 2950 1559 2950 
Q 2041 2950 2350 2633 
Q 2659 2316 2659 1784 
L 681 1784 
z
M 681 1966 
L 2006 1966 
Q 1991 2241 1941 2353 
Q 1863 2528 1708 2628 
Q 1553 2728 1384 2728 
Q 1125 2728 920 2526 
Q 716 2325 681 1966 
z
" transform="scale(0.015625)"/>
       <path id="TimesNewRomanPSMT-74" d="M 1031 3803 
L 1031 2863 
L 1700 2863 
L 1700 2644 
L 1031 2644 
L 1031 788 
Q 1031 509 1111 412 
Q 1191 316 1316 316 
Q 1419 316 1516 380 
Q 1613 444 1666 569 
L 1788 569 
Q 1678 263 1478 108 
Q 1278 -47 1066 -47 
Q 922 -47 784 33 
Q 647 113 581 261 
Q 516 409 516 719 
L 516 2644 
L 63 2644 
L 63 2747 
Q 234 2816 414 2980 
Q 594 3144 734 3369 
Q 806 3488 934 3803 
L 1031 3803 
z
" transform="scale(0.015625)"/>
       <path id="TimesNewRomanPSMT-6c" d="M 1184 4444 
L 1184 647 
Q 1184 378 1223 290 
Q 1263 203 1344 158 
Q 1425 113 1647 113 
L 1647 0 
L 244 0 
L 244 113 
Q 441 113 512 153 
Q 584 194 625 287 
Q 666 381 666 647 
L 666 3247 
Q 666 3731 644 3842 
Q 622 3953 573 3993 
Q 525 4034 450 4034 
Q 369 4034 244 3984 
L 191 4094 
L 1044 4444 
L 1184 4444 
z
" transform="scale(0.015625)"/>
       <path id="TimesNewRomanPSMT-2e" d="M 800 606 
Q 947 606 1047 504 
Q 1147 403 1147 259 
Q 1147 116 1045 14 
Q 944 -88 800 -88 
Q 656 -88 554 14 
Q 453 116 453 259 
Q 453 406 554 506 
Q 656 606 800 606 
z
" transform="scale(0.015625)"/>
      </defs>
      <use xlink:href="#TimesNewRomanPSMT-53"/>
      <use xlink:href="#TimesNewRomanPSMT-61" x="55.615234"/>
      <use xlink:href="#TimesNewRomanPSMT-62" x="100"/>
      <use xlink:href="#TimesNewRomanPSMT-69" x="150"/>
      <use xlink:href="#TimesNewRomanPSMT-61" x="177.783203"/>
      <use xlink:href="#TimesNewRomanPSMT-20" x="222.167969"/>
      <use xlink:href="#TimesNewRomanPSMT-65" x="247.167969"/>
      <use xlink:href="#TimesNewRomanPSMT-74" x="291.552734"/>
      <use xlink:href="#TimesNewRomanPSMT-20" x="319.335938"/>
      <use xlink:href="#TimesNewRomanPSMT-61" x="344.335938"/>
      <use xlink:href="#TimesNewRomanPSMT-6c" x="388.720703"/>
      <use xlink:href="#TimesNewRomanPSMT-2e" x="416.503906"/>
     </g>
    </g>
    <g id="line2d_19">
     <path d="M 37.924531 25.847344 
L 41.424531 25.847344 
L 44.924531 25.847344 
" style="fill: none; stroke-dasharray: 0.7,1.155; stroke-dashoffset: 0; stroke: #ff0000; stroke-width: 0.7"/>
    </g>
    <g id="text_16">
     <!-- Ar -->
     <g transform="translate(50.524531 28.297344) scale(0.07 -0.07)">
      <defs>
       <path id="TimesNewRomanPSMT-41" d="M 2928 1419 
L 1288 1419 
L 1000 750 
Q 894 503 894 381 
Q 894 284 986 211 
Q 1078 138 1384 116 
L 1384 0 
L 50 0 
L 50 116 
Q 316 163 394 238 
Q 553 388 747 847 
L 2238 4334 
L 2347 4334 
L 3822 809 
Q 4000 384 4145 257 
Q 4291 131 4550 116 
L 4550 0 
L 2878 0 
L 2878 116 
Q 3131 128 3220 200 
Q 3309 272 3309 375 
Q 3309 513 3184 809 
L 2928 1419 
z
M 2841 1650 
L 2122 3363 
L 1384 1650 
L 2841 1650 
z
" transform="scale(0.015625)"/>
       <path id="TimesNewRomanPSMT-72" d="M 1038 2947 
L 1038 2303 
Q 1397 2947 1775 2947 
Q 1947 2947 2059 2842 
Q 2172 2738 2172 2600 
Q 2172 2478 2090 2393 
Q 2009 2309 1897 2309 
Q 1788 2309 1652 2417 
Q 1516 2525 1450 2525 
Q 1394 2525 1328 2463 
Q 1188 2334 1038 2041 
L 1038 669 
Q 1038 431 1097 309 
Q 1138 225 1241 169 
Q 1344 113 1538 113 
L 1538 0 
L 72 0 
L 72 113 
Q 291 113 397 181 
Q 475 231 506 341 
Q 522 394 522 644 
L 522 1753 
Q 522 2253 501 2348 
Q 481 2444 426 2487 
Q 372 2531 291 2531 
Q 194 2531 72 2484 
L 41 2597 
L 906 2947 
L 1038 2947 
z
" transform="scale(0.015625)"/>
      </defs>
      <use xlink:href="#TimesNewRomanPSMT-41"/>
      <use xlink:href="#TimesNewRomanPSMT-72" x="72.216797"/>
     </g>
    </g>
    <g id="line2d_20">
     <path d="M 37.924531 35.744687 
L 41.424531 35.744687 
L 44.924531 35.744687 
" style="fill: none; stroke-dasharray: 2.59,1.12; stroke-dashoffset: 0; stroke: #0000ff; stroke-width: 0.7"/>
    </g>
    <g id="text_17">
     <!-- H$_2$O -->
     <g transform="translate(50.524531 38.194687) scale(0.07 -0.07)">
      <defs>
       <path id="TimesNewRomanPSMT-48" d="M 1316 2272 
L 3284 2272 
L 3284 3484 
Q 3284 3809 3244 3913 
Q 3213 3991 3113 4047 
Q 2978 4122 2828 4122 
L 2678 4122 
L 2678 4238 
L 4491 4238 
L 4491 4122 
L 4341 4122 
Q 4191 4122 4056 4050 
Q 3956 4000 3920 3898 
Q 3884 3797 3884 3484 
L 3884 750 
Q 3884 428 3925 325 
Q 3956 247 4053 191 
Q 4191 116 4341 116 
L 4491 116 
L 4491 0 
L 2678 0 
L 2678 116 
L 2828 116 
Q 3088 116 3206 269 
Q 3284 369 3284 750 
L 3284 2041 
L 1316 2041 
L 1316 750 
Q 1316 428 1356 325 
Q 1388 247 1488 191 
Q 1622 116 1772 116 
L 1925 116 
L 1925 0 
L 109 0 
L 109 116 
L 259 116 
Q 522 116 641 269 
Q 716 369 716 750 
L 716 3484 
Q 716 3809 675 3913 
Q 644 3991 547 4047 
Q 409 4122 259 4122 
L 109 4122 
L 109 4238 
L 1925 4238 
L 1925 4122 
L 1772 4122 
Q 1622 4122 1488 4050 
Q 1391 4000 1353 3898 
Q 1316 3797 1316 3484 
L 1316 2272 
z
" transform="scale(0.015625)"/>
       <path id="STIXGeneral-Regular-32" d="M 3034 877 
L 2688 0 
L 186 0 
L 186 77 
L 1325 1286 
Q 1773 1754 1965 2144 
Q 2157 2534 2157 2950 
Q 2157 3379 1920 3616 
Q 1683 3853 1267 3853 
Q 922 3853 720 3673 
Q 518 3494 326 3021 
L 192 3053 
Q 301 3648 630 3987 
Q 960 4326 1523 4326 
Q 2054 4326 2380 4006 
Q 2707 3686 2707 3200 
Q 2707 2477 1888 1613 
L 832 486 
L 2330 486 
Q 2541 486 2665 569 
Q 2790 653 2944 915 
L 3034 877 
z
" transform="scale(0.015625)"/>
       <path id="TimesNewRomanPSMT-4f" d="M 2341 4334 
Q 3166 4334 3770 3707 
Q 4375 3081 4375 2144 
Q 4375 1178 3765 540 
Q 3156 -97 2291 -97 
Q 1416 -97 820 525 
Q 225 1147 225 2134 
Q 225 3144 913 3781 
Q 1509 4334 2341 4334 
z
M 2281 4106 
Q 1713 4106 1369 3684 
Q 941 3159 941 2147 
Q 941 1109 1384 550 
Q 1725 125 2284 125 
Q 2881 125 3270 590 
Q 3659 1056 3659 2059 
Q 3659 3147 3231 3681 
Q 2888 4106 2281 4106 
z
" transform="scale(0.015625)"/>
      </defs>
      <use xlink:href="#TimesNewRomanPSMT-48" transform="translate(0 0.28125)"/>
      <use xlink:href="#STIXGeneral-Regular-32" transform="translate(73.760078 -12.946875) scale(0.7)"/>
      <use xlink:href="#TimesNewRomanPSMT-4f" transform="translate(113.169442 0.28125)"/>
     </g>
    </g>
    <g id="line2d_21">
     <path d="M 37.924531 45.642031 
L 41.424531 45.642031 
L 44.924531 45.642031 
" style="fill: none; stroke: #7e1e9c; stroke-width: 0.7; stroke-linecap: square"/>
    </g>
    <g id="text_18">
     <!-- LMR-R -->
     <g transform="translate(50.524531 48.092031) scale(0.07 -0.07)">
      <defs>
       <path id="TimesNewRomanPSMT-4c" d="M 3669 1172 
L 3772 1150 
L 3409 0 
L 128 0 
L 128 116 
L 288 116 
Q 556 116 672 291 
Q 738 391 738 753 
L 738 3488 
Q 738 3884 650 3984 
Q 528 4122 288 4122 
L 128 4122 
L 128 4238 
L 2047 4238 
L 2047 4122 
Q 1709 4125 1573 4059 
Q 1438 3994 1388 3894 
Q 1338 3794 1338 3416 
L 1338 753 
Q 1338 494 1388 397 
Q 1425 331 1503 300 
Q 1581 269 1991 269 
L 2300 269 
Q 2788 269 2984 341 
Q 3181 413 3343 595 
Q 3506 778 3669 1172 
z
" transform="scale(0.015625)"/>
       <path id="TimesNewRomanPSMT-4d" d="M 2619 0 
L 981 3566 
L 981 734 
Q 981 344 1066 247 
Q 1181 116 1431 116 
L 1581 116 
L 1581 0 
L 106 0 
L 106 116 
L 256 116 
Q 525 116 638 278 
Q 706 378 706 734 
L 706 3503 
Q 706 3784 644 3909 
Q 600 4000 483 4061 
Q 366 4122 106 4122 
L 106 4238 
L 1306 4238 
L 2844 922 
L 4356 4238 
L 5556 4238 
L 5556 4122 
L 5409 4122 
Q 5138 4122 5025 3959 
Q 4956 3859 4956 3503 
L 4956 734 
Q 4956 344 5044 247 
Q 5159 116 5409 116 
L 5556 116 
L 5556 0 
L 3756 0 
L 3756 116 
L 3906 116 
Q 4178 116 4288 278 
Q 4356 378 4356 734 
L 4356 3566 
L 2722 0 
L 2619 0 
z
" transform="scale(0.015625)"/>
       <path id="TimesNewRomanPSMT-52" d="M 4325 0 
L 3194 0 
L 1759 1981 
Q 1600 1975 1500 1975 
Q 1459 1975 1412 1976 
Q 1366 1978 1316 1981 
L 1316 750 
Q 1316 350 1403 253 
Q 1522 116 1759 116 
L 1925 116 
L 1925 0 
L 109 0 
L 109 116 
L 269 116 
Q 538 116 653 291 
Q 719 388 719 750 
L 719 3488 
Q 719 3888 631 3984 
Q 509 4122 269 4122 
L 109 4122 
L 109 4238 
L 1653 4238 
Q 2328 4238 2648 4139 
Q 2969 4041 3192 3777 
Q 3416 3513 3416 3147 
Q 3416 2756 3161 2468 
Q 2906 2181 2372 2063 
L 3247 847 
Q 3547 428 3762 290 
Q 3978 153 4325 116 
L 4325 0 
z
M 1316 2178 
Q 1375 2178 1419 2176 
Q 1463 2175 1491 2175 
Q 2097 2175 2405 2437 
Q 2713 2700 2713 3106 
Q 2713 3503 2464 3751 
Q 2216 4000 1806 4000 
Q 1625 4000 1316 3941 
L 1316 2178 
z
" transform="scale(0.015625)"/>
       <path id="TimesNewRomanPSMT-2d" d="M 259 1672 
L 1875 1672 
L 1875 1200 
L 259 1200 
L 259 1672 
z
" transform="scale(0.015625)"/>
      </defs>
      <use xlink:href="#TimesNewRomanPSMT-4c"/>
      <use xlink:href="#TimesNewRomanPSMT-4d" x="61.083984"/>
      <use xlink:href="#TimesNewRomanPSMT-52" x="150"/>
      <use xlink:href="#TimesNewRomanPSMT-2d" x="216.699219"/>
      <use xlink:href="#TimesNewRomanPSMT-52" x="250"/>
     </g>
    </g>
   </g>
  </g>
  <g id="axes_2">
   <g id="patch_7">
    <path d="M 31.624531 186.564706 
L 171.124531 186.564706 
L 171.124531 105.035294 
L 31.624531 105.035294 
z
" style="fill: #ffffff"/>
   </g>
   <g id="matplotlib.axis_3">
    <g id="xtick_7">
     <g id="line2d_22">
      <g>
       <use xlink:href="#mfbdf197af8" x="41.245221" y="186.564706" style="stroke: #000000; stroke-width: 0.5"/>
      </g>
     </g>
     <g id="text_19">
      <!-- 800 -->
      <g transform="translate(35.995221 194.925331) scale(0.07 -0.07)">
       <use xlink:href="#TimesNewRomanPSMT-38"/>
       <use xlink:href="#TimesNewRomanPSMT-30" x="50"/>
       <use xlink:href="#TimesNewRomanPSMT-30" x="100"/>
      </g>
     </g>
    </g>
    <g id="xtick_8">
     <g id="line2d_23">
      <g>
       <use xlink:href="#mfbdf197af8" x="65.296945" y="186.564706" style="stroke: #000000; stroke-width: 0.5"/>
      </g>
     </g>
     <g id="text_20">
      <!-- 850 -->
      <g transform="translate(60.046945 194.925331) scale(0.07 -0.07)">
       <use xlink:href="#TimesNewRomanPSMT-38"/>
       <use xlink:href="#TimesNewRomanPSMT-35" x="50"/>
       <use xlink:href="#TimesNewRomanPSMT-30" x="100"/>
      </g>
     </g>
    </g>
    <g id="xtick_9">
     <g id="line2d_24">
      <g>
       <use xlink:href="#mfbdf197af8" x="89.348669" y="186.564706" style="stroke: #000000; stroke-width: 0.5"/>
      </g>
     </g>
     <g id="text_21">
      <!-- 900 -->
      <g transform="translate(84.098669 194.925331) scale(0.07 -0.07)">
       <use xlink:href="#TimesNewRomanPSMT-39"/>
       <use xlink:href="#TimesNewRomanPSMT-30" x="50"/>
       <use xlink:href="#TimesNewRomanPSMT-30" x="100"/>
      </g>
     </g>
    </g>
    <g id="xtick_10">
     <g id="line2d_25">
      <g>
       <use xlink:href="#mfbdf197af8" x="113.400393" y="186.564706" style="stroke: #000000; stroke-width: 0.5"/>
      </g>
     </g>
     <g id="text_22">
      <!-- 950 -->
      <g transform="translate(108.150393 194.925331) scale(0.07 -0.07)">
       <use xlink:href="#TimesNewRomanPSMT-39"/>
       <use xlink:href="#TimesNewRomanPSMT-35" x="50"/>
       <use xlink:href="#TimesNewRomanPSMT-30" x="100"/>
      </g>
     </g>
    </g>
    <g id="xtick_11">
     <g id="line2d_26">
      <g>
       <use xlink:href="#mfbdf197af8" x="137.452117" y="186.564706" style="stroke: #000000; stroke-width: 0.5"/>
      </g>
     </g>
     <g id="text_23">
      <!-- 1000 -->
      <g transform="translate(130.452117 194.925331) scale(0.07 -0.07)">
       <use xlink:href="#TimesNewRomanPSMT-31"/>
       <use xlink:href="#TimesNewRomanPSMT-30" x="50"/>
       <use xlink:href="#TimesNewRomanPSMT-30" x="100"/>
       <use xlink:href="#TimesNewRomanPSMT-30" x="150"/>
      </g>
     </g>
    </g>
    <g id="xtick_12">
     <g id="line2d_27">
      <g>
       <use xlink:href="#mfbdf197af8" x="161.503842" y="186.564706" style="stroke: #000000; stroke-width: 0.5"/>
      </g>
     </g>
     <g id="text_24">
      <!-- 1050 -->
      <g transform="translate(154.503842 194.925331) scale(0.07 -0.07)">
       <use xlink:href="#TimesNewRomanPSMT-31"/>
       <use xlink:href="#TimesNewRomanPSMT-30" x="50"/>
       <use xlink:href="#TimesNewRomanPSMT-35" x="100"/>
       <use xlink:href="#TimesNewRomanPSMT-30" x="150"/>
      </g>
     </g>
    </g>
   </g>
   <g id="matplotlib.axis_4">
    <g id="ytick_8">
     <g id="line2d_28">
      <g>
       <use xlink:href="#ma6fc2580dc" x="31.624531" y="174.403369" style="stroke: #000000; stroke-width: 0.5"/>
      </g>
     </g>
     <g id="text_25">
      <!-- 1.0 -->
      <g transform="translate(19.374531 176.833682) scale(0.07 -0.07)">
       <use xlink:href="#TimesNewRomanPSMT-31"/>
       <use xlink:href="#TimesNewRomanPSMT-2e" x="50"/>
       <use xlink:href="#TimesNewRomanPSMT-30" x="75"/>
      </g>
     </g>
    </g>
    <g id="ytick_9">
     <g id="line2d_29">
      <g>
       <use xlink:href="#ma6fc2580dc" x="31.624531" y="158.414703" style="stroke: #000000; stroke-width: 0.5"/>
      </g>
     </g>
     <g id="text_26">
      <!-- 1.5 -->
      <g transform="translate(19.374531 160.845015) scale(0.07 -0.07)">
       <use xlink:href="#TimesNewRomanPSMT-31"/>
       <use xlink:href="#TimesNewRomanPSMT-2e" x="50"/>
       <use xlink:href="#TimesNewRomanPSMT-35" x="75"/>
      </g>
     </g>
    </g>
    <g id="ytick_10">
     <g id="line2d_30">
      <g>
       <use xlink:href="#ma6fc2580dc" x="31.624531" y="142.426037" style="stroke: #000000; stroke-width: 0.5"/>
      </g>
     </g>
     <g id="text_27">
      <!-- 2.0 -->
      <g transform="translate(19.374531 144.856349) scale(0.07 -0.07)">
       <use xlink:href="#TimesNewRomanPSMT-32"/>
       <use xlink:href="#TimesNewRomanPSMT-2e" x="50"/>
       <use xlink:href="#TimesNewRomanPSMT-30" x="75"/>
      </g>
     </g>
    </g>
    <g id="ytick_11">
     <g id="line2d_31">
      <g>
       <use xlink:href="#ma6fc2580dc" x="31.624531" y="126.43737" style="stroke: #000000; stroke-width: 0.5"/>
      </g>
     </g>
     <g id="text_28">
      <!-- 2.5 -->
      <g transform="translate(19.374531 128.867683) scale(0.07 -0.07)">
       <use xlink:href="#TimesNewRomanPSMT-32"/>
       <use xlink:href="#TimesNewRomanPSMT-2e" x="50"/>
       <use xlink:href="#TimesNewRomanPSMT-35" x="75"/>
      </g>
     </g>
    </g>
    <g id="ytick_12">
     <g id="line2d_32">
      <g>
       <use xlink:href="#ma6fc2580dc" x="31.624531" y="110.448704" style="stroke: #000000; stroke-width: 0.5"/>
      </g>
     </g>
     <g id="text_29">
      <!-- 3.0 -->
      <g transform="translate(19.374531 112.879016) scale(0.07 -0.07)">
       <use xlink:href="#TimesNewRomanPSMT-33"/>
       <use xlink:href="#TimesNewRomanPSMT-2e" x="50"/>
       <use xlink:href="#TimesNewRomanPSMT-30" x="75"/>
      </g>
     </g>
    </g>
    <g id="text_30">
     <!-- O$_2$ mole fraction [%] -->
     <g transform="translate(13.449375 184.005) rotate(-90) scale(0.09 -0.09)">
      <defs>
       <path id="TimesNewRomanPSMT-6d" d="M 1050 2338 
Q 1363 2650 1419 2697 
Q 1559 2816 1721 2881 
Q 1884 2947 2044 2947 
Q 2313 2947 2506 2790 
Q 2700 2634 2766 2338 
Q 3088 2713 3309 2830 
Q 3531 2947 3766 2947 
Q 3994 2947 4170 2830 
Q 4347 2713 4450 2447 
Q 4519 2266 4519 1878 
L 4519 647 
Q 4519 378 4559 278 
Q 4591 209 4675 161 
Q 4759 113 4950 113 
L 4950 0 
L 3538 0 
L 3538 113 
L 3597 113 
Q 3781 113 3884 184 
Q 3956 234 3988 344 
Q 4000 397 4000 647 
L 4000 1878 
Q 4000 2228 3916 2372 
Q 3794 2572 3525 2572 
Q 3359 2572 3192 2489 
Q 3025 2406 2788 2181 
L 2781 2147 
L 2788 2013 
L 2788 647 
Q 2788 353 2820 281 
Q 2853 209 2943 161 
Q 3034 113 3253 113 
L 3253 0 
L 1806 0 
L 1806 113 
Q 2044 113 2133 169 
Q 2222 225 2256 338 
Q 2272 391 2272 647 
L 2272 1878 
Q 2272 2228 2169 2381 
Q 2031 2581 1784 2581 
Q 1616 2581 1450 2491 
Q 1191 2353 1050 2181 
L 1050 647 
Q 1050 366 1089 281 
Q 1128 197 1204 155 
Q 1281 113 1516 113 
L 1516 0 
L 100 0 
L 100 113 
Q 297 113 375 155 
Q 453 197 493 289 
Q 534 381 534 647 
L 534 1741 
Q 534 2213 506 2350 
Q 484 2453 437 2492 
Q 391 2531 309 2531 
Q 222 2531 100 2484 
L 53 2597 
L 916 2947 
L 1050 2947 
L 1050 2338 
z
" transform="scale(0.015625)"/>
       <path id="TimesNewRomanPSMT-6f" d="M 1600 2947 
Q 2250 2947 2644 2453 
Q 2978 2031 2978 1484 
Q 2978 1100 2793 706 
Q 2609 313 2286 112 
Q 1963 -88 1566 -88 
Q 919 -88 538 428 
Q 216 863 216 1403 
Q 216 1797 411 2186 
Q 606 2575 925 2761 
Q 1244 2947 1600 2947 
z
M 1503 2744 
Q 1338 2744 1170 2645 
Q 1003 2547 900 2300 
Q 797 2053 797 1666 
Q 797 1041 1045 587 
Q 1294 134 1700 134 
Q 2003 134 2200 384 
Q 2397 634 2397 1244 
Q 2397 2006 2069 2444 
Q 1847 2744 1503 2744 
z
" transform="scale(0.015625)"/>
       <path id="TimesNewRomanPSMT-66" d="M 1319 2638 
L 1319 756 
Q 1319 356 1406 250 
Q 1522 113 1716 113 
L 1975 113 
L 1975 0 
L 266 0 
L 266 113 
L 394 113 
Q 519 113 622 175 
Q 725 238 764 344 
Q 803 450 803 756 
L 803 2638 
L 247 2638 
L 247 2863 
L 803 2863 
L 803 3050 
Q 803 3478 940 3775 
Q 1078 4072 1361 4255 
Q 1644 4438 1997 4438 
Q 2325 4438 2600 4225 
Q 2781 4084 2781 3909 
Q 2781 3816 2700 3733 
Q 2619 3650 2525 3650 
Q 2453 3650 2373 3701 
Q 2294 3753 2178 3923 
Q 2063 4094 1966 4153 
Q 1869 4213 1750 4213 
Q 1606 4213 1506 4136 
Q 1406 4059 1362 3898 
Q 1319 3738 1319 3069 
L 1319 2863 
L 2056 2863 
L 2056 2638 
L 1319 2638 
z
" transform="scale(0.015625)"/>
       <path id="TimesNewRomanPSMT-63" d="M 2631 1088 
Q 2516 522 2178 217 
Q 1841 -88 1431 -88 
Q 944 -88 581 321 
Q 219 731 219 1428 
Q 219 2103 620 2525 
Q 1022 2947 1584 2947 
Q 2006 2947 2278 2723 
Q 2550 2500 2550 2259 
Q 2550 2141 2473 2067 
Q 2397 1994 2259 1994 
Q 2075 1994 1981 2113 
Q 1928 2178 1911 2362 
Q 1894 2547 1784 2644 
Q 1675 2738 1481 2738 
Q 1169 2738 978 2506 
Q 725 2200 725 1697 
Q 725 1184 976 792 
Q 1228 400 1656 400 
Q 1963 400 2206 609 
Q 2378 753 2541 1131 
L 2631 1088 
z
" transform="scale(0.015625)"/>
       <path id="TimesNewRomanPSMT-6e" d="M 1034 2341 
Q 1538 2947 1994 2947 
Q 2228 2947 2397 2830 
Q 2566 2713 2666 2444 
Q 2734 2256 2734 1869 
L 2734 647 
Q 2734 375 2778 278 
Q 2813 200 2889 156 
Q 2966 113 3172 113 
L 3172 0 
L 1756 0 
L 1756 113 
L 1816 113 
Q 2016 113 2095 173 
Q 2175 234 2206 353 
Q 2219 400 2219 647 
L 2219 1819 
Q 2219 2209 2117 2386 
Q 2016 2563 1775 2563 
Q 1403 2563 1034 2156 
L 1034 647 
Q 1034 356 1069 288 
Q 1113 197 1189 155 
Q 1266 113 1500 113 
L 1500 0 
L 84 0 
L 84 113 
L 147 113 
Q 366 113 442 223 
Q 519 334 519 647 
L 519 1709 
Q 519 2225 495 2337 
Q 472 2450 423 2490 
Q 375 2531 294 2531 
Q 206 2531 84 2484 
L 38 2597 
L 900 2947 
L 1034 2947 
L 1034 2341 
z
" transform="scale(0.015625)"/>
       <path id="TimesNewRomanPSMT-25" d="M 4350 4334 
L 1263 -175 
L 984 -175 
L 4072 4334 
L 4350 4334 
z
M 1138 4334 
Q 1559 4334 1792 3984 
Q 2025 3634 2025 3181 
Q 2025 2638 1762 2341 
Q 1500 2044 1131 2044 
Q 884 2044 678 2180 
Q 472 2316 348 2584 
Q 225 2853 225 3181 
Q 225 3509 350 3786 
Q 475 4063 692 4198 
Q 909 4334 1138 4334 
z
M 1128 4159 
Q 969 4159 845 3971 
Q 722 3784 722 3184 
Q 722 2750 791 2522 
Q 844 2350 956 2256 
Q 1022 2200 1119 2200 
Q 1269 2200 1375 2363 
Q 1531 2603 1531 3166 
Q 1531 3759 1378 4000 
Q 1278 4159 1128 4159 
z
M 4206 2103 
Q 4428 2103 4648 1962 
Q 4869 1822 4989 1553 
Q 5109 1284 5109 963 
Q 5109 409 4843 117 
Q 4578 -175 4216 -175 
Q 3988 -175 3773 -34 
Q 3559 106 3436 367 
Q 3313 628 3313 963 
Q 3313 1291 3436 1562 
Q 3559 1834 3773 1968 
Q 3988 2103 4206 2103 
z
M 4209 1938 
Q 4059 1938 3950 1769 
Q 3809 1550 3809 941 
Q 3809 381 3953 159 
Q 4059 0 4209 0 
Q 4353 0 4466 172 
Q 4616 400 4616 956 
Q 4616 1544 4466 1778 
Q 4363 1938 4209 1938 
z
" transform="scale(0.015625)"/>
      </defs>
      <use xlink:href="#TimesNewRomanPSMT-4f" transform="translate(0 0.5625)"/>
      <use xlink:href="#STIXGeneral-Regular-32" transform="translate(73.760078 -12.665625) scale(0.7)"/>
      <use xlink:href="#TimesNewRomanPSMT-20" transform="translate(113.169442 0.5625)"/>
      <use xlink:href="#TimesNewRomanPSMT-6d" transform="translate(138.169442 0.5625)"/>
      <use xlink:href="#TimesNewRomanPSMT-6f" transform="translate(215.952646 0.5625)"/>
      <use xlink:href="#TimesNewRomanPSMT-6c" transform="translate(265.952646 0.5625)"/>
      <use xlink:href="#TimesNewRomanPSMT-65" transform="translate(293.735849 0.5625)"/>
      <use xlink:href="#TimesNewRomanPSMT-20" transform="translate(338.120614 0.5625)"/>
      <use xlink:href="#TimesNewRomanPSMT-66" transform="translate(363.120614 0.5625)"/>
      <use xlink:href="#TimesNewRomanPSMT-72" transform="translate(396.421396 0.5625)"/>
      <use xlink:href="#TimesNewRomanPSMT-61" transform="translate(429.722177 0.5625)"/>
      <use xlink:href="#TimesNewRomanPSMT-63" transform="translate(474.106942 0.5625)"/>
      <use xlink:href="#TimesNewRomanPSMT-74" transform="translate(518.491708 0.5625)"/>
      <use xlink:href="#TimesNewRomanPSMT-69" transform="translate(546.274911 0.5625)"/>
      <use xlink:href="#TimesNewRomanPSMT-6f" transform="translate(574.058114 0.5625)"/>
      <use xlink:href="#TimesNewRomanPSMT-6e" transform="translate(624.058114 0.5625)"/>
      <use xlink:href="#TimesNewRomanPSMT-20" transform="translate(674.058114 0.5625)"/>
      <use xlink:href="#TimesNewRomanPSMT-5b" transform="translate(699.058114 0.5625)"/>
      <use xlink:href="#TimesNewRomanPSMT-25" transform="translate(732.358896 0.5625)"/>
      <use xlink:href="#TimesNewRomanPSMT-5d" transform="translate(815.659677 0.5625)"/>
     </g>
    </g>
   </g>
   <g id="line2d_33">
    <g clip-path="url(#p7d9ef67108)">
     <use xlink:href="#m7fe1e2809b" x="61.699341" y="108.741176" style="fill-opacity: 0; stroke: #000000; stroke-width: 0.5"/>
     <use xlink:href="#m7fe1e2809b" x="67.501928" y="108.844663" style="fill-opacity: 0; stroke: #000000; stroke-width: 0.5"/>
     <use xlink:href="#m7fe1e2809b" x="74.813188" y="109.258609" style="fill-opacity: 0; stroke: #000000; stroke-width: 0.5"/>
     <use xlink:href="#m7fe1e2809b" x="81.892345" y="109.672555" style="fill-opacity: 0; stroke: #000000; stroke-width: 0.5"/>
     <use xlink:href="#m7fe1e2809b" x="91.060432" y="109.983015" style="fill-opacity: 0; stroke: #000000; stroke-width: 0.5"/>
     <use xlink:href="#m7fe1e2809b" x="101.272986" y="111.535312" style="fill-opacity: 0; stroke: #000000; stroke-width: 0.5"/>
     <use xlink:href="#m7fe1e2809b" x="110.905281" y="112.880637" style="fill-opacity: 0; stroke: #000000; stroke-width: 0.5"/>
     <use xlink:href="#m7fe1e2809b" x="120.769679" y="117.020098" style="fill-opacity: 0; stroke: #000000; stroke-width: 0.5"/>
     <use xlink:href="#m7fe1e2809b" x="135.044044" y="123.332775" style="fill-opacity: 0; stroke: #000000; stroke-width: 0.5"/>
     <use xlink:href="#m7fe1e2809b" x="146.06896" y="134.095372" style="fill-opacity: 0; stroke: #000000; stroke-width: 0.5"/>
    </g>
   </g>
   <g id="line2d_34">
    <path d="M 41.245221 110.453895 
L 43.699478 110.457091 
L 46.153736 110.461915 
L 48.607994 110.469167 
L 51.062251 110.480121 
L 53.516509 110.497084 
L 55.970766 110.525198 
L 58.425024 110.579139 
L 60.879281 110.681964 
L 63.333539 110.804881 
L 65.787797 110.934354 
L 68.242054 111.077154 
L 70.696312 111.239833 
L 73.150569 111.429036 
L 75.604827 111.652648 
L 78.059084 111.920871 
L 80.513342 112.24761 
L 82.9676 112.652576 
L 85.421857 113.164786 
L 87.876115 113.828742 
L 90.330372 114.715739 
L 92.78463 115.944763 
L 95.238887 117.716765 
L 97.693145 120.333388 
L 100.147402 124.009532 
L 102.60166 128.355688 
L 105.055918 132.609608 
L 107.510175 136.437779 
L 109.964433 139.85745 
L 112.41869 142.963343 
L 114.872948 145.83894 
L 117.327205 148.544558 
L 119.781463 151.121266 
L 122.235721 153.596085 
L 124.689978 155.98603 
L 127.144236 158.301003 
L 129.598493 160.5459 
L 132.052751 162.722129 
L 134.507008 164.828824 
L 136.961266 166.863783 
L 139.415524 168.824217 
L 141.869781 170.70731 
L 144.324039 172.510652 
L 146.778296 174.232501 
L 149.232554 175.871941 
L 151.686811 177.428923 
L 154.141069 178.904242 
L 156.595326 180.299451 
L 159.049584 181.616742 
L 161.503842 182.858824 
" clip-path="url(#p7d9ef67108)" style="fill: none; stroke-dasharray: 0.7,1.155; stroke-dashoffset: 0; stroke: #ff0000; stroke-width: 0.7"/>
   </g>
   <g id="line2d_35">
    <path d="M 41.245221 110.460646 
L 43.699478 110.466603 
L 46.153736 110.474748 
L 48.607994 110.485632 
L 51.062251 110.499922 
L 53.516509 110.518489 
L 55.970766 110.542612 
L 58.425024 110.574471 
L 60.879281 110.618586 
L 63.333539 110.688408 
L 65.787797 111.279117 
L 68.242054 111.550714 
L 70.696312 111.76985 
L 73.150569 111.980345 
L 75.604827 112.191702 
L 78.059084 112.407973 
L 80.513342 112.631473 
L 82.9676 112.863799 
L 85.421857 113.106218 
L 87.876115 113.359827 
L 90.330372 113.625639 
L 92.78463 113.904623 
L 95.238887 114.197732 
L 97.693145 114.505909 
L 100.147402 114.830092 
L 102.60166 115.17122 
L 105.055918 115.530224 
L 107.510175 115.908025 
L 109.964433 116.305523 
L 112.41869 116.72359 
L 114.872948 117.163051 
L 117.327205 117.624676 
L 119.781463 118.109154 
L 122.235721 118.617077 
L 124.689978 119.148916 
L 127.144236 119.704997 
L 129.598493 120.285477 
L 132.052751 120.890318 
L 134.507008 121.519267 
L 136.961266 122.171837 
L 139.415524 122.847297 
L 141.869781 123.544666 
L 144.324039 124.262725 
L 146.778296 125.00004 
L 149.232554 125.754994 
L 151.686811 126.525833 
L 154.141069 127.310727 
L 156.595326 128.10783 
L 159.049584 128.915347 
L 161.503842 129.7316 
" clip-path="url(#p7d9ef67108)" style="fill: none; stroke-dasharray: 2.59,1.12; stroke-dashoffset: 0; stroke: #0000ff; stroke-width: 0.7"/>
   </g>
   <g id="line2d_36">
    <path d="M 41.245221 110.450157 
L 43.699478 110.451389 
L 46.153736 110.453248 
L 48.607994 110.456004 
L 51.062251 110.460031 
L 53.516509 110.465837 
L 55.970766 110.474101 
L 58.425024 110.485731 
L 60.879281 110.501999 
L 63.333539 110.524872 
L 65.787797 110.557903 
L 68.242054 110.609077 
L 70.696312 110.700571 
L 73.150569 110.856094 
L 75.604827 111.019337 
L 78.059084 111.178372 
L 80.513342 111.343102 
L 82.9676 111.519418 
L 85.421857 111.711167 
L 87.876115 111.921402 
L 90.330372 112.152899 
L 92.78463 112.408408 
L 95.238887 112.690802 
L 97.693145 113.003174 
L 100.147402 113.348913 
L 102.60166 113.731765 
L 105.055918 114.155885 
L 107.510175 114.625873 
L 109.964433 115.146794 
L 112.41869 115.724188 
L 114.872948 116.36404 
L 117.327205 117.072727 
L 119.781463 117.856907 
L 122.235721 118.723348 
L 124.689978 119.678677 
L 127.144236 120.729035 
L 129.598493 121.879616 
L 132.052751 123.134125 
L 134.507008 124.494158 
L 136.961266 125.958628 
L 139.415524 127.523313 
L 141.869781 129.18074 
L 144.324039 130.920553 
L 146.778296 132.730363 
L 149.232554 134.597012 
L 151.686811 136.507937 
L 154.141069 138.452302 
L 156.595326 140.421654 
L 159.049584 142.410019 
L 161.503842 144.413535 
" clip-path="url(#p7d9ef67108)" style="fill: none; stroke: #7e1e9c; stroke-width: 0.7; stroke-linecap: square"/>
   </g>
   <g id="patch_8">
    <path d="M 31.624531 186.564706 
L 31.624531 105.035294 
" style="fill: none; stroke: #000000; stroke-width: 0.8; stroke-linejoin: miter; stroke-linecap: square"/>
   </g>
   <g id="patch_9">
    <path d="M 171.124531 186.564706 
L 171.124531 105.035294 
" style="fill: none; stroke: #000000; stroke-width: 0.8; stroke-linejoin: miter; stroke-linecap: square"/>
   </g>
   <g id="patch_10">
    <path d="M 31.624531 186.564706 
L 171.124531 186.564706 
" style="fill: none; stroke: #000000; stroke-width: 0.8; stroke-linejoin: miter; stroke-linecap: square"/>
   </g>
   <g id="patch_11">
    <path d="M 31.624531 105.035294 
L 171.124531 105.035294 
" style="fill: none; stroke: #000000; stroke-width: 0.8; stroke-linejoin: miter; stroke-linecap: square"/>
   </g>
  </g>
  <g id="axes_3">
   <g id="patch_12">
    <path d="M 31.624531 284.4 
L 171.124531 284.4 
L 171.124531 202.870588 
L 31.624531 202.870588 
z
" style="fill: #ffffff"/>
   </g>
   <g id="matplotlib.axis_5">
    <g id="xtick_13">
     <g id="line2d_37">
      <g>
       <use xlink:href="#mfbdf197af8" x="41.245221" y="284.4" style="stroke: #000000; stroke-width: 0.5"/>
      </g>
     </g>
     <g id="text_31">
      <!-- 800 -->
      <g transform="translate(35.995221 292.760625) scale(0.07 -0.07)">
       <use xlink:href="#TimesNewRomanPSMT-38"/>
       <use xlink:href="#TimesNewRomanPSMT-30" x="50"/>
       <use xlink:href="#TimesNewRomanPSMT-30" x="100"/>
      </g>
     </g>
    </g>
    <g id="xtick_14">
     <g id="line2d_38">
      <g>
       <use xlink:href="#mfbdf197af8" x="65.296945" y="284.4" style="stroke: #000000; stroke-width: 0.5"/>
      </g>
     </g>
     <g id="text_32">
      <!-- 850 -->
      <g transform="translate(60.046945 292.760625) scale(0.07 -0.07)">
       <use xlink:href="#TimesNewRomanPSMT-38"/>
       <use xlink:href="#TimesNewRomanPSMT-35" x="50"/>
       <use xlink:href="#TimesNewRomanPSMT-30" x="100"/>
      </g>
     </g>
    </g>
    <g id="xtick_15">
     <g id="line2d_39">
      <g>
       <use xlink:href="#mfbdf197af8" x="89.348669" y="284.4" style="stroke: #000000; stroke-width: 0.5"/>
      </g>
     </g>
     <g id="text_33">
      <!-- 900 -->
      <g transform="translate(84.098669 292.760625) scale(0.07 -0.07)">
       <use xlink:href="#TimesNewRomanPSMT-39"/>
       <use xlink:href="#TimesNewRomanPSMT-30" x="50"/>
       <use xlink:href="#TimesNewRomanPSMT-30" x="100"/>
      </g>
     </g>
    </g>
    <g id="xtick_16">
     <g id="line2d_40">
      <g>
       <use xlink:href="#mfbdf197af8" x="113.400393" y="284.4" style="stroke: #000000; stroke-width: 0.5"/>
      </g>
     </g>
     <g id="text_34">
      <!-- 950 -->
      <g transform="translate(108.150393 292.760625) scale(0.07 -0.07)">
       <use xlink:href="#TimesNewRomanPSMT-39"/>
       <use xlink:href="#TimesNewRomanPSMT-35" x="50"/>
       <use xlink:href="#TimesNewRomanPSMT-30" x="100"/>
      </g>
     </g>
    </g>
    <g id="xtick_17">
     <g id="line2d_41">
      <g>
       <use xlink:href="#mfbdf197af8" x="137.452117" y="284.4" style="stroke: #000000; stroke-width: 0.5"/>
      </g>
     </g>
     <g id="text_35">
      <!-- 1000 -->
      <g transform="translate(130.452117 292.760625) scale(0.07 -0.07)">
       <use xlink:href="#TimesNewRomanPSMT-31"/>
       <use xlink:href="#TimesNewRomanPSMT-30" x="50"/>
       <use xlink:href="#TimesNewRomanPSMT-30" x="100"/>
       <use xlink:href="#TimesNewRomanPSMT-30" x="150"/>
      </g>
     </g>
    </g>
    <g id="xtick_18">
     <g id="line2d_42">
      <g>
       <use xlink:href="#mfbdf197af8" x="161.503842" y="284.4" style="stroke: #000000; stroke-width: 0.5"/>
      </g>
     </g>
     <g id="text_36">
      <!-- 1050 -->
      <g transform="translate(154.503842 292.760625) scale(0.07 -0.07)">
       <use xlink:href="#TimesNewRomanPSMT-31"/>
       <use xlink:href="#TimesNewRomanPSMT-30" x="50"/>
       <use xlink:href="#TimesNewRomanPSMT-35" x="100"/>
       <use xlink:href="#TimesNewRomanPSMT-30" x="150"/>
      </g>
     </g>
    </g>
    <g id="text_37">
     <!-- Temperature [K] -->
     <g transform="translate(71.332109 304.507344) scale(0.09 -0.09)">
      <defs>
       <path id="TimesNewRomanPSMT-70" d="M -6 2578 
L 875 2934 
L 994 2934 
L 994 2266 
Q 1216 2644 1439 2795 
Q 1663 2947 1909 2947 
Q 2341 2947 2628 2609 
Q 2981 2197 2981 1534 
Q 2981 794 2556 309 
Q 2206 -88 1675 -88 
Q 1444 -88 1275 -22 
Q 1150 25 994 166 
L 994 -706 
Q 994 -1000 1030 -1079 
Q 1066 -1159 1155 -1206 
Q 1244 -1253 1478 -1253 
L 1478 -1369 
L -22 -1369 
L -22 -1253 
L 56 -1253 
Q 228 -1256 350 -1188 
Q 409 -1153 442 -1076 
Q 475 -1000 475 -688 
L 475 2019 
Q 475 2297 450 2372 
Q 425 2447 370 2484 
Q 316 2522 222 2522 
Q 147 2522 31 2478 
L -6 2578 
z
M 994 2081 
L 994 1013 
Q 994 666 1022 556 
Q 1066 375 1236 237 
Q 1406 100 1666 100 
Q 1978 100 2172 344 
Q 2425 663 2425 1241 
Q 2425 1897 2138 2250 
Q 1938 2494 1663 2494 
Q 1513 2494 1366 2419 
Q 1253 2363 994 2081 
z
" transform="scale(0.015625)"/>
       <path id="TimesNewRomanPSMT-75" d="M 2709 2863 
L 2709 1128 
Q 2709 631 2732 520 
Q 2756 409 2807 365 
Q 2859 322 2928 322 
Q 3025 322 3147 375 
L 3191 266 
L 2334 -88 
L 2194 -88 
L 2194 519 
Q 1825 119 1631 15 
Q 1438 -88 1222 -88 
Q 981 -88 804 51 
Q 628 191 559 409 
Q 491 628 491 1028 
L 491 2306 
Q 491 2509 447 2587 
Q 403 2666 317 2708 
Q 231 2750 6 2747 
L 6 2863 
L 1009 2863 
L 1009 947 
Q 1009 547 1148 422 
Q 1288 297 1484 297 
Q 1619 297 1789 381 
Q 1959 466 2194 703 
L 2194 2325 
Q 2194 2569 2105 2655 
Q 2016 2741 1734 2747 
L 1734 2863 
L 2709 2863 
z
" transform="scale(0.015625)"/>
      </defs>
      <use xlink:href="#TimesNewRomanPSMT-54"/>
      <use xlink:href="#TimesNewRomanPSMT-65" x="54.083984"/>
      <use xlink:href="#TimesNewRomanPSMT-6d" x="98.46875"/>
      <use xlink:href="#TimesNewRomanPSMT-70" x="176.251953"/>
      <use xlink:href="#TimesNewRomanPSMT-65" x="226.251953"/>
      <use xlink:href="#TimesNewRomanPSMT-72" x="270.636719"/>
      <use xlink:href="#TimesNewRomanPSMT-61" x="303.9375"/>
      <use xlink:href="#TimesNewRomanPSMT-74" x="348.322266"/>
      <use xlink:href="#TimesNewRomanPSMT-75" x="376.105469"/>
      <use xlink:href="#TimesNewRomanPSMT-72" x="426.105469"/>
      <use xlink:href="#TimesNewRomanPSMT-65" x="459.40625"/>
      <use xlink:href="#TimesNewRomanPSMT-20" x="503.791016"/>
      <use xlink:href="#TimesNewRomanPSMT-5b" x="528.791016"/>
      <use xlink:href="#TimesNewRomanPSMT-4b" x="562.091797"/>
      <use xlink:href="#TimesNewRomanPSMT-5d" x="634.308594"/>
     </g>
    </g>
   </g>
   <g id="matplotlib.axis_6">
    <g id="ytick_13">
     <g id="line2d_43">
      <g>
       <use xlink:href="#ma6fc2580dc" x="31.624531" y="270.793313" style="stroke: #000000; stroke-width: 0.5"/>
      </g>
     </g>
     <g id="text_38">
      <!-- 1.5 -->
      <g transform="translate(19.374531 273.223625) scale(0.07 -0.07)">
       <use xlink:href="#TimesNewRomanPSMT-31"/>
       <use xlink:href="#TimesNewRomanPSMT-2e" x="50"/>
       <use xlink:href="#TimesNewRomanPSMT-35" x="75"/>
      </g>
     </g>
    </g>
    <g id="ytick_14">
     <g id="line2d_44">
      <g>
       <use xlink:href="#ma6fc2580dc" x="31.624531" y="249.916409" style="stroke: #000000; stroke-width: 0.5"/>
      </g>
     </g>
     <g id="text_39">
      <!-- 2.0 -->
      <g transform="translate(19.374531 252.346721) scale(0.07 -0.07)">
       <use xlink:href="#TimesNewRomanPSMT-32"/>
       <use xlink:href="#TimesNewRomanPSMT-2e" x="50"/>
       <use xlink:href="#TimesNewRomanPSMT-30" x="75"/>
      </g>
     </g>
    </g>
    <g id="ytick_15">
     <g id="line2d_45">
      <g>
       <use xlink:href="#ma6fc2580dc" x="31.624531" y="229.039505" style="stroke: #000000; stroke-width: 0.5"/>
      </g>
     </g>
     <g id="text_40">
      <!-- 2.5 -->
      <g transform="translate(19.374531 231.469817) scale(0.07 -0.07)">
       <use xlink:href="#TimesNewRomanPSMT-32"/>
       <use xlink:href="#TimesNewRomanPSMT-2e" x="50"/>
       <use xlink:href="#TimesNewRomanPSMT-35" x="75"/>
      </g>
     </g>
    </g>
    <g id="ytick_16">
     <g id="line2d_46">
      <g>
       <use xlink:href="#ma6fc2580dc" x="31.624531" y="208.162601" style="stroke: #000000; stroke-width: 0.5"/>
      </g>
     </g>
     <g id="text_41">
      <!-- 3.0 -->
      <g transform="translate(19.374531 210.592913) scale(0.07 -0.07)">
       <use xlink:href="#TimesNewRomanPSMT-33"/>
       <use xlink:href="#TimesNewRomanPSMT-2e" x="50"/>
       <use xlink:href="#TimesNewRomanPSMT-30" x="75"/>
      </g>
     </g>
    </g>
    <g id="text_42">
     <!-- H$_2$ mole fraction [%] -->
     <g transform="translate(13.449375 281.840294) rotate(-90) scale(0.09 -0.09)">
      <use xlink:href="#TimesNewRomanPSMT-48" transform="translate(0 0.5625)"/>
      <use xlink:href="#STIXGeneral-Regular-32" transform="translate(73.760078 -12.665625) scale(0.7)"/>
      <use xlink:href="#TimesNewRomanPSMT-20" transform="translate(113.169442 0.5625)"/>
      <use xlink:href="#TimesNewRomanPSMT-6d" transform="translate(138.169442 0.5625)"/>
      <use xlink:href="#TimesNewRomanPSMT-6f" transform="translate(215.952646 0.5625)"/>
      <use xlink:href="#TimesNewRomanPSMT-6c" transform="translate(265.952646 0.5625)"/>
      <use xlink:href="#TimesNewRomanPSMT-65" transform="translate(293.735849 0.5625)"/>
      <use xlink:href="#TimesNewRomanPSMT-20" transform="translate(338.120614 0.5625)"/>
      <use xlink:href="#TimesNewRomanPSMT-66" transform="translate(363.120614 0.5625)"/>
      <use xlink:href="#TimesNewRomanPSMT-72" transform="translate(396.421396 0.5625)"/>
      <use xlink:href="#TimesNewRomanPSMT-61" transform="translate(429.722177 0.5625)"/>
      <use xlink:href="#TimesNewRomanPSMT-63" transform="translate(474.106942 0.5625)"/>
      <use xlink:href="#TimesNewRomanPSMT-74" transform="translate(518.491708 0.5625)"/>
      <use xlink:href="#TimesNewRomanPSMT-69" transform="translate(546.274911 0.5625)"/>
      <use xlink:href="#TimesNewRomanPSMT-6f" transform="translate(574.058114 0.5625)"/>
      <use xlink:href="#TimesNewRomanPSMT-6e" transform="translate(624.058114 0.5625)"/>
      <use xlink:href="#TimesNewRomanPSMT-20" transform="translate(674.058114 0.5625)"/>
      <use xlink:href="#TimesNewRomanPSMT-5b" transform="translate(699.058114 0.5625)"/>
      <use xlink:href="#TimesNewRomanPSMT-25" transform="translate(732.358896 0.5625)"/>
      <use xlink:href="#TimesNewRomanPSMT-5d" transform="translate(815.659677 0.5625)"/>
     </g>
    </g>
   </g>
   <g id="line2d_47">
    <g clip-path="url(#p51848ae4ec)">
     <use xlink:href="#m7fe1e2809b" x="61.60803" y="206.576471" style="fill-opacity: 0; stroke: #000000; stroke-width: 0.5"/>
     <use xlink:href="#m7fe1e2809b" x="67.510294" y="206.576471" style="fill-opacity: 0; stroke: #000000; stroke-width: 0.5"/>
     <use xlink:href="#m7fe1e2809b" x="75.183237" y="206.576471" style="fill-opacity: 0; stroke: #000000; stroke-width: 0.5"/>
     <use xlink:href="#m7fe1e2809b" x="81.675727" y="206.919418" style="fill-opacity: 0; stroke: #000000; stroke-width: 0.5"/>
     <use xlink:href="#m7fe1e2809b" x="90.824235" y="208.46268" style="fill-opacity: 0; stroke: #000000; stroke-width: 0.5"/>
     <use xlink:href="#m7fe1e2809b" x="101.300753" y="210.348889" style="fill-opacity: 0; stroke: #000000; stroke-width: 0.5"/>
     <use xlink:href="#m7fe1e2809b" x="110.891931" y="215.321621" style="fill-opacity: 0; stroke: #000000; stroke-width: 0.5"/>
     <use xlink:href="#m7fe1e2809b" x="120.630666" y="220.980248" style="fill-opacity: 0; stroke: #000000; stroke-width: 0.5"/>
     <use xlink:href="#m7fe1e2809b" x="134.943655" y="231.783082" style="fill-opacity: 0; stroke: #000000; stroke-width: 0.5"/>
     <use xlink:href="#m7fe1e2809b" x="145.715286" y="244.643597" style="fill-opacity: 0; stroke: #000000; stroke-width: 0.5"/>
    </g>
   </g>
   <g id="line2d_48">
    <path d="M 41.245221 208.170807 
L 43.699478 208.176372 
L 46.153736 208.18508 
L 48.607994 208.198589 
L 51.062251 208.219537 
L 53.516509 208.252628 
L 55.970766 208.308187 
L 58.425024 208.415566 
L 60.879281 208.623672 
L 63.333539 208.880284 
L 65.787797 209.157874 
L 68.242054 209.46985 
L 70.696312 209.830203 
L 73.150569 210.253709 
L 75.604827 210.758219 
L 78.059084 211.366985 
L 80.513342 212.11172 
L 82.9676 213.037295 
L 85.421857 214.209516 
L 87.876115 215.728677 
L 90.330372 217.753966 
L 92.78463 220.547111 
L 95.238887 224.538319 
L 97.693145 230.332866 
L 100.147402 238.21578 
L 102.60166 247.01889 
L 105.055918 254.917082 
L 107.510175 261.258532 
L 109.964433 266.204441 
L 112.41869 270.055331 
L 114.872948 273.059127 
L 117.327205 275.396261 
L 119.781463 277.195843 
L 122.235721 278.551391 
L 124.689978 279.532072 
L 127.144236 280.19029 
L 129.598493 280.566792 
L 132.052751 280.694118 
L 134.507008 280.599004 
L 136.961266 280.304036 
L 139.415524 279.828794 
L 141.869781 279.190639 
L 144.324039 278.405233 
L 146.778296 277.486884 
L 149.232554 276.448764 
L 151.686811 275.303049 
L 154.141069 274.061007 
L 156.595326 272.733056 
L 159.049584 271.328812 
L 161.503842 269.857133 
" clip-path="url(#p51848ae4ec)" style="fill: none; stroke-dasharray: 0.7,1.155; stroke-dashoffset: 0; stroke: #ff0000; stroke-width: 0.7"/>
   </g>
   <g id="line2d_49">
    <path d="M 41.245221 208.184192 
L 43.699478 208.196038 
L 46.153736 208.212545 
L 48.607994 208.234822 
L 51.062251 208.264062 
L 53.516509 208.301612 
L 55.970766 208.349164 
L 58.425024 208.409245 
L 60.879281 208.486666 
L 63.333539 208.595147 
L 65.787797 209.249393 
L 68.242054 209.575803 
L 70.696312 209.851356 
L 73.150569 210.123107 
L 75.604827 210.401713 
L 78.059084 210.692048 
L 80.513342 210.997168 
L 82.9676 211.319409 
L 85.421857 211.660796 
L 87.876115 212.023229 
L 90.330372 212.408571 
L 92.78463 212.818698 
L 95.238887 213.255525 
L 97.693145 213.72102 
L 100.147402 214.217214 
L 102.60166 214.746192 
L 105.055918 215.310098 
L 107.510175 215.911122 
L 109.964433 216.551483 
L 112.41869 217.233418 
L 114.872948 217.959153 
L 117.327205 218.730877 
L 119.781463 219.550705 
L 122.235721 220.420639 
L 124.689978 221.342517 
L 127.144236 222.317966 
L 129.598493 223.348338 
L 132.052751 224.434654 
L 134.507008 225.577547 
L 136.961266 226.777196 
L 139.415524 228.033293 
L 141.869781 229.344986 
L 144.324039 230.710875 
L 146.778296 232.129016 
L 149.232554 233.596948 
L 151.686811 235.111744 
L 154.141069 236.670092 
L 156.595326 238.268385 
L 159.049584 239.902836 
L 161.503842 241.569586 
" clip-path="url(#p51848ae4ec)" style="fill: none; stroke-dasharray: 2.59,1.12; stroke-dashoffset: 0; stroke: #0000ff; stroke-width: 0.7"/>
   </g>
   <g id="line2d_50">
    <path d="M 41.245221 208.164662 
L 43.699478 208.166562 
L 46.153736 208.169567 
L 48.607994 208.174215 
L 51.062251 208.181272 
L 53.516509 208.19179 
L 55.970766 208.207185 
L 58.425024 208.22933 
L 60.879281 208.260758 
L 63.333539 208.305153 
L 65.787797 208.368761 
L 68.242054 208.464995 
L 70.696312 208.63086 
L 73.150569 208.909632 
L 75.604827 209.211981 
L 78.059084 209.516575 
L 80.513342 209.839917 
L 82.9676 210.192641 
L 85.421857 210.582223 
L 87.876115 211.014939 
L 90.330372 211.496688 
L 92.78463 212.033407 
L 95.238887 212.631309 
L 97.693145 213.297045 
L 100.147402 214.037836 
L 102.60166 214.861562 
L 105.055918 215.77683 
L 107.510175 216.793006 
L 109.964433 217.920194 
L 112.41869 219.169165 
L 114.872948 220.551195 
L 117.327205 222.077792 
L 119.781463 223.760285 
L 122.235721 225.60922 
L 124.689978 227.633536 
L 127.144236 229.839481 
L 129.598493 232.229267 
L 132.052751 234.799508 
L 134.507008 237.539583 
L 136.961266 240.430216 
L 139.415524 243.442589 
L 141.869781 246.538556 
L 144.324039 249.672287 
L 146.778296 252.793364 
L 149.232554 255.850896 
L 151.686811 258.797801 
L 154.141069 261.594253 
L 156.595326 264.209666 
L 159.049584 266.62306 
L 161.503842 268.822168 
" clip-path="url(#p51848ae4ec)" style="fill: none; stroke: #7e1e9c; stroke-width: 0.7; stroke-linecap: square"/>
   </g>
   <g id="patch_13">
    <path d="M 31.624531 284.4 
L 31.624531 202.870588 
" style="fill: none; stroke: #000000; stroke-width: 0.8; stroke-linejoin: miter; stroke-linecap: square"/>
   </g>
   <g id="patch_14">
    <path d="M 171.124531 284.4 
L 171.124531 202.870588 
" style="fill: none; stroke: #000000; stroke-width: 0.8; stroke-linejoin: miter; stroke-linecap: square"/>
   </g>
   <g id="patch_15">
    <path d="M 31.624531 284.4 
L 171.124531 284.4 
" style="fill: none; stroke: #000000; stroke-width: 0.8; stroke-linejoin: miter; stroke-linecap: square"/>
   </g>
   <g id="patch_16">
    <path d="M 31.624531 202.870588 
L 171.124531 202.870588 
" style="fill: none; stroke: #000000; stroke-width: 0.8; stroke-linejoin: miter; stroke-linecap: square"/>
   </g>
  </g>
 </g>
 <defs>
  <clipPath id="p7df7162e3f">
   <rect x="31.624531" y="7.2" width="139.5" height="81.529412"/>
  </clipPath>
  <clipPath id="p7d9ef67108">
   <rect x="31.624531" y="105.035294" width="139.5" height="81.529412"/>
  </clipPath>
  <clipPath id="p51848ae4ec">
   <rect x="31.624531" y="202.870588" width="139.5" height="81.529412"/>
  </clipPath>
 </defs>
</svg>
